G75*
%MOIN*%
%OFA0B0*%
%FSLAX25Y25*%
%IPPOS*%
%LPD*%
%AMOC8*
5,1,8,0,0,1.08239X$1,22.5*
%
%ADD10C,0.05200*%
%ADD11C,0.05000*%
%ADD12C,0.06000*%
%ADD13C,0.03500*%
%ADD14C,0.15000*%
%ADD15C,0.05937*%
%ADD16C,0.11055*%
%ADD17C,0.08299*%
%ADD18C,0.02600*%
%ADD19C,0.03200*%
%ADD20C,0.00600*%
%ADD21C,0.03200*%
%ADD22C,0.01600*%
%ADD23C,0.01000*%
D10*
X0085478Y0058630D03*
X0095478Y0058630D03*
X0095478Y0068630D03*
X0085478Y0068630D03*
X0131978Y0063630D03*
D11*
X0134978Y0044130D03*
X0124978Y0044130D03*
X0114978Y0044130D03*
X0104978Y0044130D03*
X0104978Y0034130D03*
X0114978Y0034130D03*
X0124978Y0034130D03*
X0134978Y0034130D03*
X0144978Y0034130D03*
X0154978Y0034130D03*
X0154978Y0044130D03*
X0144978Y0044130D03*
X0164978Y0044130D03*
X0174978Y0044130D03*
X0174978Y0034130D03*
X0164978Y0034130D03*
X0184978Y0034130D03*
X0194978Y0034130D03*
X0194978Y0044130D03*
X0184978Y0044130D03*
X0204978Y0044130D03*
X0204978Y0034130D03*
X0214978Y0034130D03*
X0224978Y0034130D03*
X0224978Y0044130D03*
X0214978Y0044130D03*
X0234978Y0044130D03*
X0244978Y0044130D03*
X0244978Y0034130D03*
X0234978Y0034130D03*
X0254978Y0034130D03*
X0264978Y0034130D03*
X0264978Y0044130D03*
X0254978Y0044130D03*
X0274978Y0044130D03*
X0274978Y0034130D03*
X0284978Y0034130D03*
X0294978Y0034130D03*
X0294978Y0044130D03*
X0284978Y0044130D03*
X0304978Y0044130D03*
X0314978Y0044130D03*
X0314978Y0034130D03*
X0304978Y0034130D03*
X0324978Y0034130D03*
X0324978Y0044130D03*
X0324978Y0224130D03*
X0314978Y0224130D03*
X0304978Y0224130D03*
X0294978Y0224130D03*
X0284978Y0224130D03*
X0274978Y0224130D03*
X0264978Y0224130D03*
X0254978Y0224130D03*
X0244978Y0224130D03*
X0234978Y0224130D03*
X0224978Y0224130D03*
X0214978Y0224130D03*
X0204978Y0224130D03*
X0194978Y0224130D03*
X0184978Y0224130D03*
X0174978Y0224130D03*
X0164978Y0224130D03*
X0154978Y0224130D03*
X0144978Y0224130D03*
X0134978Y0224130D03*
X0124978Y0224130D03*
X0114978Y0224130D03*
X0104978Y0224130D03*
X0104978Y0234130D03*
X0114978Y0234130D03*
X0124978Y0234130D03*
X0134978Y0234130D03*
X0144978Y0234130D03*
X0154978Y0234130D03*
X0164978Y0234130D03*
X0174978Y0234130D03*
X0184978Y0234130D03*
X0194978Y0234130D03*
X0204978Y0234130D03*
X0214978Y0234130D03*
X0224978Y0234130D03*
X0234978Y0234130D03*
X0244978Y0234130D03*
X0254978Y0234130D03*
X0264978Y0234130D03*
X0274978Y0234130D03*
X0284978Y0234130D03*
X0294978Y0234130D03*
X0304978Y0234130D03*
X0314978Y0234130D03*
X0324978Y0234130D03*
D12*
X0244978Y0056630D03*
X0234978Y0056630D03*
X0224978Y0056630D03*
X0214978Y0056630D03*
X0204978Y0056630D03*
X0194978Y0056630D03*
D13*
X0360978Y0113425D03*
X0360978Y0137835D03*
D14*
X0344978Y0216630D03*
X0344978Y0051630D03*
X0084978Y0039130D03*
X0084978Y0229130D03*
D15*
X0316337Y0106660D03*
X0316337Y0096817D03*
X0316337Y0088943D03*
X0316337Y0079100D03*
D16*
X0327006Y0067014D03*
X0327006Y0118746D03*
D17*
X0062790Y0045626D03*
X0074601Y0064130D03*
X0050978Y0064130D03*
D18*
X0080628Y0085685D03*
X0088108Y0085685D03*
X0088108Y0089228D03*
X0088108Y0092772D03*
X0095589Y0085685D03*
X0088108Y0082142D03*
X0101478Y0063630D03*
X0104978Y0063630D03*
X0114478Y0061630D03*
X0114478Y0065630D03*
X0125978Y0055630D03*
X0137578Y0056330D03*
X0142578Y0058630D03*
X0142878Y0050330D03*
X0162478Y0052630D03*
X0164978Y0055130D03*
X0162478Y0057630D03*
X0164978Y0060130D03*
X0162478Y0062630D03*
X0164978Y0070130D03*
X0164978Y0075130D03*
X0162478Y0077630D03*
X0164978Y0080130D03*
X0162478Y0082630D03*
X0164978Y0085130D03*
X0162478Y0087630D03*
X0179478Y0075130D03*
X0181478Y0070630D03*
X0186478Y0070630D03*
X0186478Y0075130D03*
X0191478Y0075130D03*
X0191478Y0070630D03*
X0201478Y0075130D03*
X0206478Y0075130D03*
X0206478Y0070630D03*
X0211478Y0070630D03*
X0211478Y0065630D03*
X0211478Y0075130D03*
X0216478Y0075130D03*
X0221478Y0075130D03*
X0226478Y0075130D03*
X0231478Y0075130D03*
X0226478Y0070630D03*
X0226478Y0065630D03*
X0231478Y0065630D03*
X0236228Y0065630D03*
X0241478Y0070630D03*
X0241478Y0075130D03*
X0241478Y0081130D03*
X0241478Y0085630D03*
X0236478Y0085630D03*
X0226478Y0085630D03*
X0226478Y0081130D03*
X0221478Y0081130D03*
X0216478Y0081130D03*
X0211478Y0081130D03*
X0206478Y0081130D03*
X0206478Y0085130D03*
X0201478Y0081130D03*
X0191478Y0081130D03*
X0186478Y0081130D03*
X0181478Y0085630D03*
X0181478Y0095630D03*
X0191478Y0095130D03*
X0191478Y0091130D03*
X0196478Y0091130D03*
X0196478Y0095130D03*
X0201478Y0095130D03*
X0201478Y0091130D03*
X0206478Y0091130D03*
X0206478Y0095130D03*
X0211478Y0095130D03*
X0216728Y0090130D03*
X0216478Y0085630D03*
X0231478Y0095630D03*
X0226478Y0110630D03*
X0221478Y0110630D03*
X0216478Y0110630D03*
X0211478Y0115630D03*
X0206478Y0110130D03*
X0206478Y0105630D03*
X0201478Y0105630D03*
X0201478Y0110130D03*
X0196478Y0110130D03*
X0196478Y0106130D03*
X0191478Y0106130D03*
X0191478Y0110130D03*
X0191478Y0116130D03*
X0196478Y0116130D03*
X0201478Y0116130D03*
X0196478Y0120130D03*
X0191478Y0120130D03*
X0191478Y0130630D03*
X0196478Y0130630D03*
X0201478Y0130630D03*
X0206478Y0130630D03*
X0206478Y0135130D03*
X0201478Y0135130D03*
X0196478Y0136130D03*
X0196478Y0140130D03*
X0196478Y0146130D03*
X0196478Y0150130D03*
X0191478Y0150130D03*
X0191478Y0146130D03*
X0201478Y0146130D03*
X0201478Y0150130D03*
X0206478Y0150630D03*
X0206478Y0146130D03*
X0211478Y0145630D03*
X0215978Y0145630D03*
X0215978Y0150630D03*
X0211478Y0150630D03*
X0211478Y0155630D03*
X0215978Y0155630D03*
X0206478Y0155630D03*
X0195978Y0155630D03*
X0178378Y0161930D03*
X0175978Y0164330D03*
X0173578Y0166730D03*
X0188404Y0173284D03*
X0198246Y0173284D03*
X0203660Y0177959D03*
X0205874Y0180419D03*
X0198984Y0180419D03*
X0194555Y0180419D03*
X0190126Y0180419D03*
X0186778Y0194330D03*
X0186778Y0197930D03*
X0186778Y0201230D03*
X0193571Y0206994D03*
X0198978Y0213130D03*
X0205978Y0213130D03*
X0214978Y0219130D03*
X0219978Y0219130D03*
X0224978Y0219130D03*
X0229978Y0219130D03*
X0219978Y0227630D03*
X0244978Y0207230D03*
X0247478Y0204730D03*
X0249978Y0207730D03*
X0252478Y0204130D03*
X0257478Y0204130D03*
X0262478Y0204130D03*
X0259978Y0208630D03*
X0257478Y0218630D03*
X0252478Y0218630D03*
X0262478Y0218630D03*
X0267478Y0218630D03*
X0272478Y0218630D03*
X0277478Y0218630D03*
X0282478Y0218630D03*
X0287478Y0218630D03*
X0292478Y0218630D03*
X0297478Y0218630D03*
X0302478Y0218630D03*
X0307478Y0218630D03*
X0312478Y0218630D03*
X0317478Y0218630D03*
X0322478Y0218630D03*
X0327478Y0218630D03*
X0327478Y0229130D03*
X0307078Y0207830D03*
X0298978Y0202630D03*
X0298978Y0199130D03*
X0298978Y0195630D03*
X0306978Y0193630D03*
X0310478Y0193630D03*
X0317278Y0188030D03*
X0320278Y0189830D03*
X0323878Y0189830D03*
X0326878Y0191630D03*
X0326878Y0188030D03*
X0331678Y0189830D03*
X0334978Y0189830D03*
X0338278Y0189830D03*
X0338278Y0186530D03*
X0343978Y0192230D03*
X0343978Y0195530D03*
X0340678Y0195530D03*
X0347278Y0195530D03*
X0346678Y0186530D03*
X0347878Y0183530D03*
X0352978Y0182630D03*
X0352978Y0179130D03*
X0352978Y0175630D03*
X0352978Y0172130D03*
X0349978Y0169130D03*
X0352978Y0165130D03*
X0352978Y0160130D03*
X0348778Y0153530D03*
X0346378Y0151130D03*
X0342778Y0151730D03*
X0344014Y0159504D03*
X0344014Y0163047D03*
X0342734Y0176236D03*
X0329644Y0173284D03*
X0326691Y0170331D03*
X0323738Y0173284D03*
X0321770Y0170331D03*
X0319801Y0173284D03*
X0316849Y0170331D03*
X0319801Y0167378D03*
X0316849Y0165410D03*
X0319801Y0163441D03*
X0321770Y0160488D03*
X0323738Y0157535D03*
X0319801Y0157535D03*
X0316849Y0160488D03*
X0313896Y0157535D03*
X0313896Y0163441D03*
X0313896Y0167378D03*
X0313896Y0173284D03*
X0323738Y0167378D03*
X0326691Y0165410D03*
X0329644Y0167378D03*
X0329644Y0163441D03*
X0326691Y0160488D03*
X0329644Y0157535D03*
X0323738Y0163441D03*
X0300778Y0158030D03*
X0295478Y0165130D03*
X0299329Y0168953D03*
X0299329Y0172299D03*
X0299329Y0175646D03*
X0299329Y0182732D03*
X0304447Y0182732D03*
X0311261Y0187579D03*
X0321770Y0186079D03*
X0324978Y0198630D03*
X0352978Y0186630D03*
X0359578Y0198530D03*
X0356478Y0199930D03*
X0360378Y0204230D03*
X0363578Y0202630D03*
X0354778Y0150530D03*
X0360378Y0147630D03*
X0363578Y0147630D03*
X0351978Y0132830D03*
X0354478Y0130430D03*
X0357778Y0129230D03*
X0361378Y0129230D03*
X0361378Y0125630D03*
X0361378Y0122030D03*
X0357778Y0122030D03*
X0354478Y0120830D03*
X0337078Y0122330D03*
X0332878Y0126830D03*
X0338278Y0110930D03*
X0335278Y0107930D03*
X0339978Y0104630D03*
X0339978Y0100630D03*
X0325478Y0104630D03*
X0306809Y0106354D03*
X0306809Y0102811D03*
X0306809Y0109898D03*
X0306809Y0113441D03*
X0306809Y0117378D03*
X0306809Y0120921D03*
X0306809Y0124465D03*
X0306809Y0128008D03*
X0303778Y0130430D03*
X0307378Y0132830D03*
X0304447Y0134898D03*
X0313078Y0133430D03*
X0311927Y0141000D03*
X0311927Y0144543D03*
X0306219Y0144740D03*
X0302675Y0144740D03*
X0297778Y0142130D03*
X0296578Y0138830D03*
X0289478Y0133130D03*
X0285978Y0125130D03*
X0285978Y0118130D03*
X0289478Y0118130D03*
X0297754Y0122693D03*
X0297754Y0108126D03*
X0285978Y0090130D03*
X0271478Y0086130D03*
X0266478Y0076380D03*
X0261478Y0076380D03*
X0256478Y0076380D03*
X0256478Y0070630D03*
X0256478Y0065630D03*
X0261478Y0065630D03*
X0261478Y0070630D03*
X0266478Y0070630D03*
X0266478Y0065630D03*
X0276478Y0062130D03*
X0276478Y0070630D03*
X0276478Y0076380D03*
X0283678Y0070130D03*
X0286078Y0067730D03*
X0288478Y0065330D03*
X0290978Y0063130D03*
X0294978Y0063130D03*
X0299978Y0063130D03*
X0303978Y0063130D03*
X0310078Y0069230D03*
X0312478Y0072830D03*
X0310078Y0075230D03*
X0306478Y0075230D03*
X0304078Y0071630D03*
X0314878Y0068030D03*
X0314878Y0064430D03*
X0310678Y0088730D03*
X0349678Y0071930D03*
X0353278Y0071930D03*
X0355478Y0101630D03*
X0340078Y0142430D03*
X0334565Y0144543D03*
X0322754Y0142875D03*
X0301297Y0148284D03*
X0273478Y0170630D03*
X0269478Y0170630D03*
X0264178Y0182330D03*
X0261778Y0184730D03*
X0274978Y0186630D03*
X0277478Y0189130D03*
X0279978Y0191630D03*
X0282478Y0194130D03*
X0289478Y0193630D03*
X0289478Y0197130D03*
X0289478Y0200630D03*
X0289478Y0204130D03*
X0272478Y0208630D03*
X0264978Y0194130D03*
X0252478Y0194130D03*
X0241378Y0201830D03*
X0229988Y0191246D03*
X0226051Y0188785D03*
X0216393Y0189093D03*
X0212272Y0193215D03*
X0209811Y0195675D03*
X0207351Y0193215D03*
X0212272Y0198136D03*
X0216393Y0202257D03*
X0224575Y0181158D03*
X0224575Y0177221D03*
X0220392Y0173037D03*
X0209565Y0173037D03*
X0230478Y0165630D03*
X0239878Y0176030D03*
X0239878Y0179630D03*
X0240978Y0155630D03*
X0236978Y0155630D03*
X0240978Y0150630D03*
X0241978Y0145630D03*
X0246978Y0150630D03*
X0246978Y0155630D03*
X0256478Y0150630D03*
X0256478Y0145630D03*
X0256478Y0140630D03*
X0251478Y0140630D03*
X0251478Y0135630D03*
X0256478Y0135630D03*
X0261478Y0135130D03*
X0266478Y0135130D03*
X0266478Y0141130D03*
X0261478Y0141130D03*
X0261478Y0145130D03*
X0266478Y0145130D03*
X0266478Y0151130D03*
X0261478Y0151130D03*
X0241978Y0140630D03*
X0241978Y0135630D03*
X0236478Y0135630D03*
X0235978Y0140630D03*
X0230978Y0140630D03*
X0226478Y0140630D03*
X0226478Y0145130D03*
X0230978Y0145630D03*
X0235978Y0145630D03*
X0226478Y0151130D03*
X0226478Y0155630D03*
X0221478Y0145630D03*
X0221478Y0140630D03*
X0215978Y0140630D03*
X0211278Y0135130D03*
X0211278Y0130630D03*
X0221478Y0135630D03*
X0236478Y0125630D03*
X0256478Y0125630D03*
X0251478Y0111130D03*
X0255978Y0105630D03*
X0251478Y0086630D03*
X0251878Y0054230D03*
X0255178Y0054230D03*
X0219978Y0048630D03*
X0199978Y0050730D03*
X0198978Y0061530D03*
X0186778Y0060230D03*
X0186778Y0056930D03*
X0181378Y0056630D03*
X0179978Y0052630D03*
X0181378Y0060230D03*
X0164978Y0050130D03*
X0139978Y0098030D03*
X0126642Y0102910D03*
X0126642Y0106354D03*
X0126642Y0109799D03*
X0132793Y0121118D03*
X0142636Y0121118D03*
X0145397Y0118165D03*
X0142636Y0115213D03*
X0150178Y0109430D03*
X0150878Y0122030D03*
X0142636Y0127024D03*
X0140278Y0134630D03*
X0140278Y0137930D03*
X0143578Y0137930D03*
X0146878Y0137930D03*
X0146878Y0134330D03*
X0137878Y0140330D03*
X0137878Y0143630D03*
X0127378Y0133130D03*
X0108089Y0132732D03*
X0108089Y0127221D03*
X0108089Y0122398D03*
X0103266Y0122398D03*
X0097754Y0122398D03*
X0092242Y0122398D03*
X0088108Y0122398D03*
X0083975Y0122398D03*
X0078463Y0122398D03*
X0072951Y0122398D03*
X0068128Y0122398D03*
X0068128Y0127221D03*
X0068128Y0132732D03*
X0068128Y0138244D03*
X0068128Y0142378D03*
X0068128Y0146512D03*
X0072951Y0142378D03*
X0078463Y0142378D03*
X0083975Y0142378D03*
X0088108Y0142378D03*
X0088108Y0146512D03*
X0092242Y0142378D03*
X0097754Y0142378D03*
X0103266Y0142378D03*
X0108089Y0142378D03*
X0108089Y0146512D03*
X0108089Y0152024D03*
X0108089Y0157535D03*
X0108089Y0162358D03*
X0103266Y0162358D03*
X0097754Y0162358D03*
X0092242Y0162358D03*
X0088108Y0162358D03*
X0083975Y0162358D03*
X0078463Y0162358D03*
X0072951Y0162358D03*
X0068128Y0162358D03*
X0068128Y0157535D03*
X0068128Y0152024D03*
X0059860Y0157535D03*
X0056416Y0157535D03*
X0052971Y0157535D03*
X0047459Y0157535D03*
X0044014Y0157535D03*
X0040569Y0157535D03*
X0040569Y0161669D03*
X0044014Y0161669D03*
X0040569Y0165803D03*
X0045392Y0171315D03*
X0048148Y0171315D03*
X0048148Y0174071D03*
X0045392Y0174071D03*
X0052971Y0165803D03*
X0056416Y0165803D03*
X0059860Y0165803D03*
X0058187Y0170724D03*
X0058187Y0174661D03*
X0058187Y0178598D03*
X0055038Y0182048D03*
X0058728Y0189630D03*
X0058728Y0194880D03*
X0065978Y0203189D03*
X0070478Y0200630D03*
X0074478Y0198071D03*
X0059478Y0207630D03*
X0061478Y0222130D03*
X0055978Y0222130D03*
X0050478Y0222130D03*
X0058728Y0227630D03*
X0058728Y0232630D03*
X0066978Y0222130D03*
X0090978Y0208630D03*
X0101478Y0199130D03*
X0090978Y0189630D03*
X0090077Y0182142D03*
X0097164Y0182142D03*
X0082990Y0181748D03*
X0078266Y0181748D03*
X0073541Y0181748D03*
X0068817Y0181748D03*
X0064093Y0181748D03*
X0088108Y0157535D03*
X0088108Y0152024D03*
X0088108Y0138244D03*
X0088108Y0132732D03*
X0088108Y0127221D03*
X0079841Y0114032D03*
X0074329Y0114032D03*
X0087321Y0109701D03*
X0090864Y0109701D03*
X0103266Y0113785D03*
X0110943Y0109701D03*
X0079841Y0102221D03*
X0059860Y0118953D03*
X0056416Y0118953D03*
X0052971Y0118953D03*
X0048148Y0113441D03*
X0048148Y0110685D03*
X0045392Y0110685D03*
X0045392Y0113441D03*
X0040569Y0118953D03*
X0040569Y0123087D03*
X0044014Y0123087D03*
X0044014Y0127221D03*
X0047459Y0127221D03*
X0052971Y0127221D03*
X0056416Y0127221D03*
X0059860Y0127221D03*
X0040569Y0127221D03*
X0047478Y0096130D03*
X0048978Y0089130D03*
X0108089Y0138244D03*
X0139683Y0156551D03*
X0151494Y0156551D03*
X0145589Y0167870D03*
X0156078Y0171830D03*
X0147557Y0178697D03*
X0143620Y0178697D03*
X0139978Y0182130D03*
X0134228Y0177130D03*
X0127978Y0179630D03*
X0150778Y0185030D03*
X0149478Y0201630D03*
X0141978Y0209130D03*
X0160678Y0205030D03*
X0184378Y0211430D03*
X0176578Y0137030D03*
X0174178Y0134630D03*
X0171778Y0137030D03*
X0176578Y0132230D03*
X0172078Y0128030D03*
X0171978Y0107130D03*
X0031078Y0183430D03*
X0031078Y0187930D03*
X0031078Y0193430D03*
X0031078Y0198330D03*
X0031078Y0202930D03*
X0031078Y0207830D03*
X0031078Y0213330D03*
X0031078Y0217830D03*
D19*
X0052978Y0207630D03*
X0076478Y0193630D03*
X0099478Y0191630D03*
X0100978Y0205630D03*
X0147478Y0191630D03*
X0163278Y0200930D03*
X0179978Y0152630D03*
X0179978Y0148630D03*
X0175978Y0107630D03*
X0142567Y0094996D03*
X0241478Y0166630D03*
X0256478Y0165630D03*
X0263978Y0166630D03*
X0271478Y0165630D03*
X0276478Y0120630D03*
X0276478Y0110630D03*
X0289478Y0108130D03*
X0322478Y0088630D03*
X0337478Y0092880D03*
X0299478Y0073130D03*
X0333478Y0134130D03*
D20*
X0323878Y0138530D02*
X0337078Y0151730D01*
X0342778Y0151730D01*
X0323878Y0138530D02*
X0301978Y0138530D01*
X0293278Y0129830D01*
X0293278Y0106730D01*
X0288778Y0102230D01*
X0241978Y0102230D01*
X0233578Y0110630D01*
X0233578Y0120530D01*
X0223978Y0130130D01*
X0223978Y0147130D01*
X0222728Y0148380D01*
X0203228Y0148380D01*
X0201478Y0150130D01*
X0201478Y0146130D02*
X0204478Y0143130D01*
X0216978Y0143130D01*
X0218728Y0141380D01*
X0218728Y0133580D01*
X0232378Y0119930D01*
X0232378Y0110030D01*
X0241378Y0101030D01*
X0258478Y0101030D01*
X0262678Y0096830D01*
X0283378Y0096830D01*
X0284578Y0098030D01*
X0308278Y0098030D01*
X0312178Y0101930D01*
X0312178Y0108530D01*
X0314278Y0110630D01*
X0318778Y0110630D01*
X0322078Y0107330D01*
X0331978Y0107330D01*
X0338678Y0100630D01*
X0339978Y0100630D01*
X0349778Y0095930D02*
X0355478Y0101630D01*
X0349778Y0095930D02*
X0324778Y0095930D01*
X0318778Y0101930D01*
X0313978Y0101930D01*
X0308878Y0096830D01*
X0285178Y0096830D01*
X0283978Y0095630D01*
X0262078Y0095630D01*
X0257878Y0099830D01*
X0240778Y0099830D01*
X0231178Y0109430D01*
X0231178Y0119330D01*
X0216778Y0133730D01*
X0216778Y0136430D01*
X0213178Y0140030D01*
X0200678Y0140030D01*
X0197578Y0143130D01*
X0194478Y0143130D01*
X0191478Y0146130D01*
X0188978Y0151130D02*
X0188978Y0139630D01*
X0195728Y0132880D01*
X0212228Y0132880D01*
X0221478Y0123630D01*
X0221478Y0110630D01*
X0228778Y0108230D02*
X0239578Y0097430D01*
X0256678Y0097430D01*
X0260878Y0093230D01*
X0285178Y0093230D01*
X0286378Y0094430D01*
X0313950Y0094430D01*
X0316337Y0096817D01*
X0314578Y0100730D02*
X0318178Y0100730D01*
X0320278Y0098630D01*
X0320278Y0093230D01*
X0320278Y0092885D01*
X0320278Y0092885D01*
X0316337Y0088943D01*
X0309478Y0095630D02*
X0314578Y0100730D01*
X0309478Y0095630D02*
X0285778Y0095630D01*
X0284578Y0094430D01*
X0261478Y0094430D01*
X0257278Y0098630D01*
X0240178Y0098630D01*
X0229978Y0108830D01*
X0229978Y0118730D01*
X0215578Y0133130D01*
X0215578Y0135830D01*
X0212678Y0138730D01*
X0197878Y0138730D01*
X0196478Y0140130D01*
X0197878Y0137530D02*
X0212078Y0137530D01*
X0214378Y0135230D01*
X0214378Y0132530D01*
X0228778Y0118130D01*
X0228778Y0108230D01*
X0234078Y0101130D02*
X0238978Y0096230D01*
X0256078Y0096230D01*
X0260278Y0092030D01*
X0274378Y0092030D01*
X0277978Y0088430D01*
X0283078Y0088430D01*
X0292678Y0078830D01*
X0309778Y0078830D01*
X0314878Y0073730D01*
X0314878Y0068030D01*
X0312478Y0068030D02*
X0312478Y0072830D01*
X0310078Y0075230D02*
X0307678Y0077630D01*
X0292078Y0077630D01*
X0282478Y0087230D01*
X0277378Y0087230D01*
X0273778Y0090830D01*
X0259678Y0090830D01*
X0255478Y0095030D01*
X0238378Y0095030D01*
X0233478Y0099930D01*
X0201278Y0099930D01*
X0196478Y0095130D01*
X0196478Y0091130D02*
X0198878Y0088730D01*
X0208378Y0088730D01*
X0214678Y0095030D01*
X0219478Y0095030D01*
X0223078Y0091430D01*
X0253678Y0091430D01*
X0261478Y0083630D01*
X0280678Y0083630D01*
X0295078Y0069230D01*
X0310078Y0069230D01*
X0311278Y0066830D02*
X0312478Y0068030D01*
X0311278Y0066830D02*
X0303478Y0066830D01*
X0302278Y0068030D01*
X0294478Y0068030D01*
X0280078Y0082430D01*
X0260878Y0082430D01*
X0253078Y0090230D01*
X0222478Y0090230D01*
X0218878Y0093830D01*
X0215278Y0093830D01*
X0208978Y0087530D01*
X0195078Y0087530D01*
X0191478Y0091130D01*
X0188878Y0090230D02*
X0188878Y0092930D01*
X0183678Y0098130D01*
X0172978Y0098130D01*
X0162478Y0087630D01*
X0177978Y0078730D02*
X0184078Y0078730D01*
X0186478Y0081130D01*
X0184078Y0077530D02*
X0178578Y0077530D01*
X0167278Y0066230D01*
X0160978Y0066230D01*
X0147478Y0052730D01*
X0132178Y0052730D01*
X0121878Y0063030D01*
X0115878Y0063030D01*
X0114478Y0061630D01*
X0115878Y0064230D02*
X0122478Y0064230D01*
X0132778Y0053930D01*
X0146878Y0053930D01*
X0160378Y0067430D01*
X0166678Y0067430D01*
X0177978Y0078730D01*
X0184078Y0077530D02*
X0186478Y0075130D01*
X0186478Y0070630D02*
X0180878Y0065030D01*
X0161578Y0065030D01*
X0148078Y0051530D01*
X0144078Y0051530D01*
X0142878Y0050330D01*
X0146278Y0055130D02*
X0138778Y0055130D01*
X0137578Y0056330D01*
X0136378Y0055130D01*
X0133378Y0055130D01*
X0119578Y0068930D01*
X0112378Y0068930D01*
X0109378Y0065930D01*
X0109378Y0063530D01*
X0099778Y0053930D01*
X0070378Y0053930D01*
X0062278Y0062030D01*
X0062278Y0085430D01*
X0036478Y0111230D01*
X0036478Y0176630D01*
X0049478Y0189630D01*
X0058728Y0189630D01*
X0114978Y0224130D02*
X0127378Y0211730D01*
X0172678Y0211730D01*
X0183178Y0201230D01*
X0183178Y0199730D01*
X0184378Y0198530D01*
X0184378Y0182030D01*
X0190078Y0176330D01*
X0195200Y0176330D01*
X0198246Y0173284D01*
X0194555Y0180419D02*
X0196378Y0182243D01*
X0196378Y0208130D01*
X0189178Y0215330D01*
X0138178Y0215330D01*
X0130578Y0222930D01*
X0130578Y0228530D01*
X0124978Y0234130D01*
X0127378Y0229130D02*
X0119978Y0229130D01*
X0114978Y0234130D01*
X0127378Y0229130D02*
X0129378Y0227130D01*
X0129378Y0222330D01*
X0137578Y0214130D01*
X0173878Y0214130D01*
X0186778Y0201230D01*
X0184378Y0201830D02*
X0184378Y0200330D01*
X0186778Y0197930D01*
X0184378Y0201830D02*
X0173278Y0212930D01*
X0136178Y0212930D01*
X0124978Y0224130D01*
X0134978Y0224130D02*
X0142578Y0216530D01*
X0208078Y0216530D01*
X0250378Y0174230D01*
X0250378Y0143030D01*
X0249178Y0141830D01*
X0249178Y0137930D01*
X0251478Y0135630D01*
X0251478Y0140630D02*
X0251578Y0140730D01*
X0251578Y0174830D01*
X0208678Y0217730D01*
X0143878Y0217730D01*
X0139378Y0222230D01*
X0139378Y0229730D01*
X0134978Y0234130D01*
X0140578Y0229730D02*
X0140578Y0222830D01*
X0144478Y0218930D01*
X0209278Y0218930D01*
X0252778Y0175430D01*
X0252778Y0149330D01*
X0256478Y0145630D01*
X0258978Y0143130D02*
X0258978Y0152130D01*
X0253978Y0157130D01*
X0253978Y0176030D01*
X0209878Y0220130D01*
X0148978Y0220130D01*
X0144978Y0224130D01*
X0140578Y0229730D02*
X0144978Y0234130D01*
X0156078Y0171830D02*
X0156078Y0170430D01*
X0177478Y0149030D01*
X0177478Y0141230D01*
X0196078Y0122630D01*
X0198478Y0122630D01*
X0208678Y0112430D01*
X0208678Y0107830D01*
X0206478Y0105630D01*
X0203978Y0108130D02*
X0203978Y0111130D01*
X0202578Y0112530D01*
X0189678Y0112530D01*
X0187978Y0114230D01*
X0187978Y0127130D01*
X0178078Y0137030D01*
X0176578Y0137030D01*
X0177478Y0139430D02*
X0174178Y0139430D01*
X0171778Y0137030D01*
X0174178Y0134630D02*
X0178678Y0134630D01*
X0186778Y0126530D01*
X0186778Y0107030D01*
X0190078Y0103730D01*
X0192778Y0103730D01*
X0193978Y0104930D01*
X0193978Y0107630D01*
X0196478Y0110130D01*
X0196478Y0106130D02*
X0196478Y0105630D01*
X0193378Y0102530D01*
X0189478Y0102530D01*
X0185578Y0106430D01*
X0185578Y0125930D01*
X0179278Y0132230D01*
X0176578Y0132230D01*
X0177478Y0139430D02*
X0189178Y0127730D01*
X0189178Y0114830D01*
X0190278Y0113730D01*
X0203378Y0113730D01*
X0206478Y0110630D01*
X0206478Y0110130D01*
X0203978Y0108130D02*
X0201478Y0105630D01*
X0197478Y0101130D02*
X0234078Y0101130D01*
X0232878Y0098730D02*
X0237778Y0093830D01*
X0254878Y0093830D01*
X0259078Y0089630D01*
X0273178Y0089630D01*
X0276778Y0086030D01*
X0281878Y0086030D01*
X0291478Y0076430D01*
X0305278Y0076430D01*
X0306478Y0075230D01*
X0304078Y0071630D02*
X0302878Y0070430D01*
X0295678Y0070430D01*
X0281278Y0084830D01*
X0276178Y0084830D01*
X0272578Y0088430D01*
X0258478Y0088430D01*
X0254278Y0092630D01*
X0223678Y0092630D01*
X0218778Y0097530D01*
X0208878Y0097530D01*
X0206478Y0095130D01*
X0205078Y0098730D02*
X0232878Y0098730D01*
X0221878Y0089030D02*
X0252478Y0089030D01*
X0260278Y0081230D01*
X0279478Y0081230D01*
X0293878Y0066830D01*
X0301678Y0066830D01*
X0302878Y0065630D01*
X0313678Y0065630D01*
X0314878Y0064430D01*
X0317878Y0062930D02*
X0317878Y0071930D01*
X0323278Y0077330D01*
X0350278Y0077330D01*
X0352078Y0075530D01*
X0352078Y0073130D01*
X0353278Y0071930D01*
X0350878Y0073130D02*
X0350878Y0074930D01*
X0349678Y0076130D01*
X0323878Y0076130D01*
X0319078Y0071330D01*
X0319078Y0062330D01*
X0307078Y0050330D01*
X0298078Y0050330D01*
X0291178Y0057230D01*
X0275878Y0057230D01*
X0271078Y0062030D01*
X0209878Y0062030D01*
X0202978Y0068930D01*
X0202978Y0073630D01*
X0201478Y0075130D01*
X0204178Y0072830D02*
X0204178Y0069530D01*
X0210478Y0063230D01*
X0271678Y0063230D01*
X0276478Y0058430D01*
X0291778Y0058430D01*
X0298678Y0051530D01*
X0306478Y0051530D01*
X0317878Y0062930D01*
X0303978Y0063130D02*
X0303478Y0063130D01*
X0300978Y0065630D01*
X0298978Y0065630D01*
X0297478Y0064130D01*
X0297478Y0062430D01*
X0295878Y0060830D01*
X0289678Y0060830D01*
X0277678Y0072830D01*
X0220278Y0072830D01*
X0218978Y0074130D01*
X0218978Y0076130D01*
X0217578Y0077530D01*
X0193878Y0077530D01*
X0191478Y0075130D01*
X0188978Y0069630D02*
X0190578Y0068030D01*
X0202078Y0068030D01*
X0209278Y0060830D01*
X0270478Y0060830D01*
X0275278Y0056030D01*
X0290578Y0056030D01*
X0299978Y0046630D01*
X0299978Y0039130D01*
X0304978Y0034130D01*
X0296478Y0059630D02*
X0289078Y0059630D01*
X0280578Y0068130D01*
X0240678Y0068130D01*
X0238178Y0070630D01*
X0226478Y0070630D01*
X0223878Y0078730D02*
X0253078Y0078730D01*
X0254278Y0079930D01*
X0278978Y0079930D01*
X0294978Y0063930D01*
X0294978Y0063130D01*
X0296478Y0059630D02*
X0299978Y0063130D01*
X0290978Y0063130D02*
X0290978Y0066130D01*
X0278378Y0078730D01*
X0254878Y0078730D01*
X0253678Y0077530D01*
X0220078Y0077530D01*
X0216478Y0081130D01*
X0211478Y0081130D02*
X0209078Y0078730D01*
X0200378Y0078730D01*
X0188878Y0090230D01*
X0187678Y0089630D02*
X0188978Y0088330D01*
X0188978Y0069630D01*
X0204178Y0072830D02*
X0206478Y0075130D01*
X0211478Y0081130D02*
X0211478Y0088230D01*
X0215878Y0092630D01*
X0218278Y0092630D01*
X0221878Y0089030D01*
X0221478Y0081130D02*
X0223878Y0078730D01*
X0241478Y0075130D02*
X0242578Y0074030D01*
X0274128Y0074030D01*
X0276478Y0076380D01*
X0306809Y0109898D02*
X0307793Y0110882D01*
X0310930Y0110882D01*
X0311878Y0111830D01*
X0319378Y0111830D01*
X0322678Y0108530D01*
X0331978Y0108530D01*
X0347278Y0123830D01*
X0355978Y0123830D01*
X0357778Y0122030D01*
X0358378Y0125030D02*
X0361378Y0122030D01*
X0358378Y0125030D02*
X0346678Y0125030D01*
X0331378Y0109730D01*
X0323278Y0109730D01*
X0319978Y0113030D01*
X0311278Y0113030D01*
X0310705Y0112457D01*
X0307793Y0112457D01*
X0306809Y0113441D01*
X0306809Y0124465D02*
X0307793Y0125449D01*
X0309360Y0125449D01*
X0323878Y0110930D01*
X0330778Y0110930D01*
X0346078Y0126230D01*
X0358378Y0126230D01*
X0361378Y0129230D01*
X0357778Y0129230D02*
X0355978Y0127430D01*
X0345478Y0127430D01*
X0330178Y0112130D01*
X0324478Y0112130D01*
X0309585Y0127024D01*
X0307793Y0127024D01*
X0306809Y0128008D01*
X0303778Y0130430D02*
X0349578Y0130430D01*
X0351978Y0132830D01*
X0288178Y0126530D02*
X0288178Y0120330D01*
X0285978Y0118130D01*
X0285978Y0125130D02*
X0284878Y0126230D01*
X0284878Y0152330D01*
X0276478Y0160730D01*
X0276478Y0164630D01*
X0272478Y0168630D01*
X0271478Y0168630D01*
X0269478Y0170630D01*
X0273478Y0170630D02*
X0273478Y0169430D01*
X0277678Y0165230D01*
X0277678Y0161330D01*
X0286078Y0152930D01*
X0286078Y0128630D01*
X0288178Y0126530D01*
X0258978Y0143130D02*
X0256478Y0140630D01*
X0197878Y0137530D02*
X0196478Y0136130D01*
X0188978Y0151130D02*
X0193478Y0155630D01*
X0195978Y0155630D01*
X0151678Y0136430D02*
X0151678Y0122830D01*
X0150878Y0122030D01*
X0144478Y0124130D02*
X0161478Y0107130D01*
X0171978Y0107130D01*
X0181478Y0095630D02*
X0184378Y0095630D01*
X0187678Y0092330D01*
X0187678Y0089630D01*
X0191478Y0095130D02*
X0197478Y0101130D01*
X0201478Y0095130D02*
X0205078Y0098730D01*
X0181478Y0085630D02*
X0181478Y0084030D01*
X0170078Y0072630D01*
X0163778Y0072630D01*
X0146278Y0055130D01*
X0115878Y0064230D02*
X0114478Y0065630D01*
X0139978Y0109430D02*
X0128578Y0120830D01*
X0128578Y0131930D01*
X0127378Y0133130D01*
X0137878Y0140330D02*
X0147778Y0140330D01*
X0151678Y0136430D01*
X0140278Y0134630D02*
X0140278Y0125930D01*
X0142078Y0124130D01*
X0144478Y0124130D01*
X0139978Y0109430D02*
X0150178Y0109430D01*
X0274978Y0186630D02*
X0274978Y0201830D01*
X0283378Y0210230D01*
X0320578Y0210230D01*
X0333178Y0197630D01*
X0338578Y0197630D01*
X0340678Y0195530D01*
X0340678Y0198830D02*
X0343978Y0195530D01*
X0343978Y0192230D02*
X0347278Y0192230D01*
X0349678Y0194630D01*
X0349678Y0197930D01*
X0346378Y0201230D01*
X0334978Y0201230D01*
X0322378Y0213830D01*
X0259978Y0213830D01*
X0252478Y0206330D01*
X0252478Y0204130D01*
X0257478Y0204130D02*
X0257478Y0209530D01*
X0260578Y0212630D01*
X0321778Y0212630D01*
X0334378Y0200030D01*
X0342778Y0200030D01*
X0347278Y0195530D01*
X0350878Y0194030D02*
X0347878Y0191030D01*
X0347878Y0187730D01*
X0346678Y0186530D01*
X0349078Y0184730D02*
X0347878Y0183530D01*
X0349078Y0184730D02*
X0349078Y0190430D01*
X0352078Y0193430D01*
X0352078Y0199130D01*
X0347578Y0203630D01*
X0336178Y0203630D01*
X0323578Y0216230D01*
X0254878Y0216230D01*
X0252478Y0218630D01*
X0253978Y0215030D02*
X0247478Y0208530D01*
X0247478Y0204730D01*
X0253978Y0215030D02*
X0322978Y0215030D01*
X0335578Y0202430D01*
X0346978Y0202430D01*
X0350878Y0198530D01*
X0350878Y0194030D01*
X0340678Y0190730D02*
X0340678Y0188930D01*
X0338278Y0186530D01*
X0338278Y0189830D02*
X0332878Y0195230D01*
X0313978Y0195230D01*
X0301378Y0207830D01*
X0284578Y0207830D01*
X0279978Y0203230D01*
X0279978Y0191630D01*
X0277478Y0189130D02*
X0277478Y0202530D01*
X0283978Y0209030D01*
X0301978Y0209030D01*
X0314578Y0196430D01*
X0334978Y0196430D01*
X0340678Y0190730D01*
X0334978Y0189830D02*
X0330778Y0194030D01*
X0313378Y0194030D01*
X0300778Y0206630D01*
X0285178Y0206630D01*
X0282478Y0203930D01*
X0282478Y0194130D01*
X0298978Y0195630D02*
X0299478Y0196130D01*
X0307978Y0196130D01*
X0310478Y0193630D01*
X0321178Y0211430D02*
X0333778Y0198830D01*
X0340678Y0198830D01*
X0321178Y0211430D02*
X0265978Y0211430D01*
X0262478Y0207930D01*
X0262478Y0204130D01*
X0350878Y0073130D02*
X0349678Y0071930D01*
D21*
X0281878Y0116030D02*
X0276478Y0110630D01*
X0281878Y0116030D02*
X0281878Y0150830D01*
X0271478Y0161230D01*
X0271478Y0165630D01*
X0263978Y0166630D02*
X0263978Y0160630D01*
X0276478Y0148130D01*
X0276478Y0120630D01*
X0175978Y0116130D02*
X0175978Y0107630D01*
X0175978Y0116130D02*
X0145478Y0146630D01*
X0145478Y0159630D01*
X0140478Y0164630D01*
X0130978Y0164630D01*
X0103978Y0191630D01*
X0099478Y0191630D01*
X0142567Y0094996D02*
X0123401Y0075830D01*
X0092678Y0075830D01*
X0085478Y0068630D01*
D22*
X0088108Y0092772D02*
X0088108Y0098628D01*
X0103266Y0113785D01*
X0108978Y0118630D02*
X0121978Y0131630D01*
X0121978Y0137130D01*
X0125478Y0140630D01*
X0127478Y0140630D01*
X0127478Y0142630D01*
X0139683Y0154835D01*
X0139683Y0156551D01*
X0127478Y0142630D02*
X0126478Y0141630D01*
X0127478Y0140630D01*
X0137478Y0130630D01*
X0137478Y0120370D01*
X0142636Y0115213D01*
X0125478Y0140630D02*
X0126478Y0141630D01*
X0108978Y0118630D02*
X0084439Y0118630D01*
X0079841Y0114032D01*
X0206858Y0193707D02*
X0207351Y0193215D01*
X0206858Y0193707D02*
X0206858Y0197152D01*
X0208335Y0198628D01*
X0211780Y0198628D01*
X0212272Y0198136D01*
D23*
X0179878Y0201230D02*
X0179878Y0176030D01*
X0185578Y0170330D01*
X0225778Y0170330D01*
X0230478Y0165630D01*
X0179878Y0201230D02*
X0171178Y0209930D01*
X0151678Y0209930D01*
X0148078Y0206330D01*
X0129478Y0206330D01*
X0121078Y0214730D01*
X0072078Y0214730D01*
X0034978Y0177630D01*
X0034978Y0103130D01*
X0048978Y0089130D01*
X0326878Y0191630D02*
X0329278Y0189230D01*
X0329278Y0188630D01*
X0335549Y0182359D01*
X0335549Y0171512D01*
X0344014Y0163047D01*
M02*
