G75*
%MOIN*%
%OFA0B0*%
%FSLAX25Y25*%
%IPPOS*%
%LPD*%
%AMOC8*
5,1,8,0,0,1.08239X$1,22.5*
%
%ADD10C,0.04000*%
%ADD11R,0.02756X0.01969*%
%ADD12R,0.01969X0.02756*%
%ADD13R,0.03150X0.03150*%
%ADD14R,0.07480X0.04331*%
%ADD15C,0.01969*%
%ADD16R,0.04134X0.04252*%
%ADD17R,0.04331X0.02362*%
%ADD18R,0.04724X0.03543*%
%ADD19R,0.01083X0.02756*%
%ADD20R,0.20669X0.20669*%
%ADD21R,0.02756X0.01083*%
%ADD22R,0.02047X0.01181*%
%ADD23R,0.01929X0.01181*%
%ADD24R,0.01969X0.01969*%
%ADD25R,0.05118X0.05906*%
%ADD26R,0.04252X0.04134*%
%ADD27R,0.10630X0.11614*%
%ADD28R,0.09449X0.07480*%
%ADD29R,0.01575X0.02953*%
%ADD30R,0.02953X0.02953*%
%ADD31R,0.02953X0.01575*%
%ADD32R,0.03937X0.03937*%
%ADD33R,0.08661X0.02362*%
%ADD34R,0.08661X0.13780*%
%ADD35R,0.04134X0.03937*%
%ADD36R,0.04134X0.08661*%
%ADD37R,0.05512X0.02756*%
%ADD38R,0.03543X0.01575*%
%ADD39C,0.00965*%
%ADD40R,0.08661X0.07874*%
D10*
X0047478Y0037880D03*
X0039478Y0227880D03*
X0314978Y0056630D03*
D11*
X0292978Y0128161D03*
X0292978Y0132098D03*
X0344014Y0136473D03*
X0344014Y0140410D03*
X0344014Y0143756D03*
X0344014Y0147693D03*
X0327478Y0211661D03*
X0327478Y0215598D03*
X0322478Y0215598D03*
X0322478Y0211661D03*
X0317478Y0211661D03*
X0317478Y0215598D03*
X0312478Y0215598D03*
X0312478Y0211661D03*
X0307478Y0211661D03*
X0307478Y0215598D03*
X0302478Y0215598D03*
X0302478Y0211661D03*
X0297478Y0211661D03*
X0297478Y0215598D03*
X0292478Y0215598D03*
X0292478Y0211661D03*
X0249978Y0211661D03*
X0249978Y0215598D03*
X0244978Y0215598D03*
X0244978Y0211661D03*
X0239978Y0211661D03*
X0239978Y0215598D03*
X0156978Y0203598D03*
X0156978Y0199661D03*
X0149034Y0164425D03*
X0149034Y0160488D03*
X0142144Y0160488D03*
X0142144Y0164425D03*
X0139978Y0152098D03*
X0139978Y0148161D03*
X0144978Y0148161D03*
X0144978Y0152098D03*
X0173978Y0123598D03*
X0173978Y0119661D03*
X0173978Y0116598D03*
X0168978Y0116161D03*
X0173978Y0112661D03*
X0168978Y0120098D03*
X0173978Y0103598D03*
X0173978Y0099661D03*
X0168978Y0100098D03*
X0168978Y0096161D03*
X0173978Y0096598D03*
X0173978Y0092661D03*
X0079841Y0106994D03*
X0079841Y0110931D03*
X0080628Y0175055D03*
X0080628Y0178992D03*
X0075904Y0178992D03*
X0075904Y0175055D03*
X0071179Y0175055D03*
X0071179Y0178992D03*
X0066455Y0178992D03*
X0066455Y0175055D03*
X0061730Y0175055D03*
X0061730Y0178992D03*
X0085353Y0178992D03*
X0085353Y0175055D03*
X0090864Y0175055D03*
X0090864Y0178992D03*
X0096376Y0178992D03*
X0096376Y0175055D03*
X0052978Y0200161D03*
X0052978Y0204098D03*
X0050478Y0215161D03*
X0050478Y0219098D03*
X0055978Y0219098D03*
X0061478Y0219098D03*
X0061478Y0215161D03*
X0055978Y0215161D03*
X0066978Y0215161D03*
X0066978Y0219098D03*
D12*
X0067947Y0207630D03*
X0064010Y0207630D03*
X0104510Y0216130D03*
X0108447Y0216130D03*
X0111510Y0216130D03*
X0115447Y0216130D03*
X0143510Y0213130D03*
X0147447Y0213130D03*
X0147557Y0182142D03*
X0143620Y0182142D03*
X0124329Y0129189D03*
X0124329Y0125252D03*
X0120392Y0125252D03*
X0120392Y0129189D03*
X0120392Y0121315D03*
X0124329Y0121315D03*
X0124329Y0117378D03*
X0120392Y0117378D03*
X0135746Y0117673D03*
X0139683Y0117673D03*
X0139683Y0124563D03*
X0135746Y0124563D03*
X0095195Y0092772D03*
X0091258Y0092772D03*
X0084959Y0092772D03*
X0081022Y0092772D03*
X0104510Y0074630D03*
X0108447Y0074630D03*
X0119510Y0074630D03*
X0123447Y0074630D03*
X0138510Y0063630D03*
X0142447Y0063630D03*
X0123447Y0052630D03*
X0119510Y0052630D03*
X0108447Y0052630D03*
X0104510Y0052630D03*
X0044447Y0096130D03*
X0040510Y0096130D03*
X0053069Y0123087D03*
X0057006Y0123087D03*
X0057006Y0161669D03*
X0053069Y0161669D03*
X0167510Y0082630D03*
X0171447Y0082630D03*
X0171447Y0077630D03*
X0167510Y0077630D03*
X0167510Y0072630D03*
X0171447Y0072630D03*
X0171447Y0062630D03*
X0167510Y0062630D03*
X0167510Y0057630D03*
X0171447Y0057630D03*
X0171447Y0052630D03*
X0167510Y0052630D03*
X0297360Y0179189D03*
X0301297Y0179189D03*
X0356010Y0180130D03*
X0359947Y0180130D03*
X0359947Y0185130D03*
X0356010Y0185130D03*
X0356010Y0190130D03*
X0359947Y0190130D03*
X0359947Y0195130D03*
X0356010Y0195130D03*
X0356010Y0175130D03*
X0359947Y0175130D03*
X0359947Y0170130D03*
X0356010Y0170130D03*
X0356010Y0165130D03*
X0359947Y0165130D03*
X0359947Y0160130D03*
X0356010Y0160130D03*
X0356010Y0155130D03*
X0359947Y0155130D03*
X0348947Y0130630D03*
X0345010Y0130630D03*
D13*
X0105234Y0092772D03*
X0099329Y0092772D03*
X0076888Y0092772D03*
X0070982Y0092772D03*
X0045431Y0089130D03*
X0039526Y0089130D03*
X0037026Y0190380D03*
X0042931Y0190380D03*
X0042931Y0197880D03*
X0037026Y0197880D03*
X0037026Y0205380D03*
X0042931Y0205380D03*
X0042931Y0212880D03*
X0037026Y0212880D03*
D14*
X0157978Y0103051D03*
X0157978Y0093209D03*
D15*
X0183978Y0093130D03*
X0183978Y0088130D03*
X0188978Y0088130D03*
X0188978Y0093130D03*
X0193978Y0093130D03*
X0193978Y0088130D03*
X0198978Y0088130D03*
X0198978Y0093130D03*
X0198978Y0098130D03*
X0193978Y0098130D03*
X0188978Y0098130D03*
X0183978Y0098130D03*
X0183978Y0103130D03*
X0188978Y0103130D03*
X0193978Y0103130D03*
X0198978Y0103130D03*
X0198978Y0108130D03*
X0193978Y0108130D03*
X0188978Y0108130D03*
X0183978Y0108130D03*
X0183978Y0113130D03*
X0188978Y0113130D03*
X0193978Y0113130D03*
X0198978Y0113130D03*
X0198978Y0118130D03*
X0193978Y0118130D03*
X0188978Y0118130D03*
X0183978Y0118130D03*
X0183978Y0123130D03*
X0188978Y0123130D03*
X0193978Y0123130D03*
X0198978Y0123130D03*
X0198978Y0128130D03*
X0193978Y0128130D03*
X0188978Y0128130D03*
X0183978Y0128130D03*
X0183978Y0133130D03*
X0188978Y0133130D03*
X0193978Y0133130D03*
X0198978Y0133130D03*
X0198978Y0138130D03*
X0193978Y0138130D03*
X0188978Y0138130D03*
X0183978Y0138130D03*
X0183978Y0143130D03*
X0188978Y0143130D03*
X0193978Y0143130D03*
X0198978Y0143130D03*
X0198978Y0148130D03*
X0193978Y0148130D03*
X0188978Y0148130D03*
X0183978Y0148130D03*
X0183978Y0153130D03*
X0188978Y0153130D03*
X0193978Y0153130D03*
X0198978Y0153130D03*
X0198978Y0158130D03*
X0193978Y0158130D03*
X0188978Y0158130D03*
X0183978Y0158130D03*
X0183978Y0163130D03*
X0188978Y0163130D03*
X0193978Y0163130D03*
X0198978Y0163130D03*
X0203978Y0163130D03*
X0208978Y0163130D03*
X0213978Y0163130D03*
X0213978Y0158130D03*
X0208978Y0158130D03*
X0203978Y0158130D03*
X0203978Y0153130D03*
X0203978Y0148130D03*
X0208978Y0148130D03*
X0208978Y0153130D03*
X0213978Y0153130D03*
X0213978Y0148130D03*
X0213978Y0143130D03*
X0208978Y0143130D03*
X0203978Y0143130D03*
X0203978Y0138130D03*
X0208978Y0138130D03*
X0213978Y0138130D03*
X0213978Y0133130D03*
X0208978Y0133130D03*
X0203978Y0133130D03*
X0203978Y0128130D03*
X0208978Y0128130D03*
X0213978Y0128130D03*
X0213978Y0123130D03*
X0208978Y0123130D03*
X0203978Y0123130D03*
X0203978Y0118130D03*
X0208978Y0118130D03*
X0213978Y0118130D03*
X0213978Y0113130D03*
X0208978Y0113130D03*
X0203978Y0113130D03*
X0203978Y0108130D03*
X0208978Y0108130D03*
X0213978Y0108130D03*
X0213978Y0103130D03*
X0208978Y0103130D03*
X0203978Y0103130D03*
X0203978Y0098130D03*
X0208978Y0098130D03*
X0213978Y0098130D03*
X0213978Y0093130D03*
X0208978Y0093130D03*
X0203978Y0093130D03*
X0203978Y0088130D03*
X0208978Y0088130D03*
X0213978Y0088130D03*
X0213978Y0083130D03*
X0208978Y0083130D03*
X0203978Y0083130D03*
X0198978Y0083130D03*
X0193978Y0083130D03*
X0188978Y0083130D03*
X0183978Y0083130D03*
X0183978Y0078130D03*
X0188978Y0078130D03*
X0193978Y0078130D03*
X0198978Y0078130D03*
X0198978Y0073130D03*
X0193978Y0073130D03*
X0188978Y0073130D03*
X0183978Y0073130D03*
X0183978Y0068130D03*
X0188978Y0068130D03*
X0193978Y0068130D03*
X0198978Y0068130D03*
X0203978Y0068130D03*
X0208978Y0068130D03*
X0213978Y0068130D03*
X0213978Y0073130D03*
X0208978Y0073130D03*
X0203978Y0073130D03*
X0203978Y0078130D03*
X0208978Y0078130D03*
X0213978Y0078130D03*
X0218978Y0078130D03*
X0223978Y0078130D03*
X0228978Y0078130D03*
X0233978Y0078130D03*
X0233978Y0083130D03*
X0228978Y0083130D03*
X0223978Y0083130D03*
X0218978Y0083130D03*
X0218978Y0088130D03*
X0218978Y0093130D03*
X0223978Y0093130D03*
X0223978Y0088130D03*
X0228978Y0088130D03*
X0228978Y0093130D03*
X0233978Y0093130D03*
X0233978Y0088130D03*
X0238978Y0088130D03*
X0238978Y0093130D03*
X0243978Y0093130D03*
X0243978Y0088130D03*
X0248978Y0088130D03*
X0248978Y0093130D03*
X0248978Y0098130D03*
X0243978Y0098130D03*
X0238978Y0098130D03*
X0233978Y0098130D03*
X0228978Y0098130D03*
X0223978Y0098130D03*
X0218978Y0098130D03*
X0218978Y0103130D03*
X0223978Y0103130D03*
X0228978Y0103130D03*
X0233978Y0103130D03*
X0233978Y0108130D03*
X0228978Y0108130D03*
X0223978Y0108130D03*
X0218978Y0108130D03*
X0218978Y0113130D03*
X0223978Y0113130D03*
X0228978Y0113130D03*
X0233978Y0113130D03*
X0233978Y0118130D03*
X0228978Y0118130D03*
X0223978Y0118130D03*
X0218978Y0118130D03*
X0218978Y0123130D03*
X0223978Y0123130D03*
X0228978Y0123130D03*
X0233978Y0123130D03*
X0233978Y0128130D03*
X0228978Y0128130D03*
X0223978Y0128130D03*
X0218978Y0128130D03*
X0218978Y0133130D03*
X0223978Y0133130D03*
X0228978Y0133130D03*
X0233978Y0133130D03*
X0233978Y0138130D03*
X0228978Y0138130D03*
X0223978Y0138130D03*
X0218978Y0138130D03*
X0218978Y0143130D03*
X0223978Y0143130D03*
X0228978Y0143130D03*
X0233978Y0143130D03*
X0233978Y0148130D03*
X0228978Y0148130D03*
X0223978Y0148130D03*
X0218978Y0148130D03*
X0218978Y0153130D03*
X0223978Y0153130D03*
X0228978Y0153130D03*
X0233978Y0153130D03*
X0233978Y0158130D03*
X0228978Y0158130D03*
X0223978Y0158130D03*
X0218978Y0158130D03*
X0218978Y0163130D03*
X0223978Y0163130D03*
X0228978Y0163130D03*
X0233978Y0163130D03*
X0238978Y0163130D03*
X0243978Y0163130D03*
X0248978Y0163130D03*
X0248978Y0158130D03*
X0243978Y0158130D03*
X0238978Y0158130D03*
X0238978Y0153130D03*
X0238978Y0148130D03*
X0243978Y0148130D03*
X0243978Y0153130D03*
X0248978Y0153130D03*
X0248978Y0148130D03*
X0248978Y0143130D03*
X0243978Y0143130D03*
X0238978Y0143130D03*
X0238978Y0138130D03*
X0243978Y0138130D03*
X0248978Y0138130D03*
X0248978Y0133130D03*
X0243978Y0133130D03*
X0238978Y0133130D03*
X0238978Y0128130D03*
X0243978Y0128130D03*
X0248978Y0128130D03*
X0248978Y0123130D03*
X0243978Y0123130D03*
X0238978Y0123130D03*
X0238978Y0118130D03*
X0243978Y0118130D03*
X0248978Y0118130D03*
X0248978Y0113130D03*
X0243978Y0113130D03*
X0238978Y0113130D03*
X0238978Y0108130D03*
X0243978Y0108130D03*
X0248978Y0108130D03*
X0248978Y0103130D03*
X0243978Y0103130D03*
X0238978Y0103130D03*
X0253978Y0103130D03*
X0258978Y0103130D03*
X0263978Y0103130D03*
X0268978Y0103130D03*
X0268978Y0108130D03*
X0263978Y0108130D03*
X0258978Y0108130D03*
X0253978Y0108130D03*
X0253978Y0113130D03*
X0258978Y0113130D03*
X0263978Y0113130D03*
X0268978Y0113130D03*
X0268978Y0118130D03*
X0263978Y0118130D03*
X0258978Y0118130D03*
X0253978Y0118130D03*
X0253978Y0123130D03*
X0258978Y0123130D03*
X0263978Y0123130D03*
X0268978Y0123130D03*
X0268978Y0128130D03*
X0263978Y0128130D03*
X0258978Y0128130D03*
X0253978Y0128130D03*
X0253978Y0133130D03*
X0258978Y0133130D03*
X0263978Y0133130D03*
X0268978Y0133130D03*
X0268978Y0138130D03*
X0263978Y0138130D03*
X0258978Y0138130D03*
X0253978Y0138130D03*
X0253978Y0143130D03*
X0258978Y0143130D03*
X0263978Y0143130D03*
X0268978Y0143130D03*
X0268978Y0148130D03*
X0263978Y0148130D03*
X0258978Y0148130D03*
X0253978Y0148130D03*
X0253978Y0153130D03*
X0258978Y0153130D03*
X0263978Y0153130D03*
X0268978Y0153130D03*
X0268978Y0158130D03*
X0263978Y0158130D03*
X0258978Y0158130D03*
X0253978Y0158130D03*
X0253978Y0163130D03*
X0258978Y0163130D03*
X0263978Y0163130D03*
X0268978Y0163130D03*
X0273978Y0163130D03*
X0278978Y0163130D03*
X0278978Y0158130D03*
X0273978Y0158130D03*
X0273978Y0153130D03*
X0273978Y0148130D03*
X0278978Y0148130D03*
X0278978Y0153130D03*
X0278978Y0143130D03*
X0273978Y0143130D03*
X0273978Y0138130D03*
X0278978Y0138130D03*
X0278978Y0133130D03*
X0273978Y0133130D03*
X0273978Y0128130D03*
X0278978Y0128130D03*
X0278978Y0123130D03*
X0273978Y0123130D03*
X0273978Y0118130D03*
X0278978Y0118130D03*
X0278978Y0113130D03*
X0273978Y0113130D03*
X0273978Y0108130D03*
X0278978Y0108130D03*
X0278978Y0103130D03*
X0273978Y0103130D03*
X0273978Y0098130D03*
X0278978Y0098130D03*
X0278978Y0093130D03*
X0273978Y0093130D03*
X0273978Y0088130D03*
X0278978Y0088130D03*
X0278978Y0083130D03*
X0273978Y0083130D03*
X0268978Y0083130D03*
X0263978Y0083130D03*
X0258978Y0083130D03*
X0253978Y0083130D03*
X0248978Y0083130D03*
X0243978Y0083130D03*
X0238978Y0083130D03*
X0238978Y0078130D03*
X0243978Y0078130D03*
X0248978Y0078130D03*
X0248978Y0073130D03*
X0243978Y0073130D03*
X0238978Y0073130D03*
X0233978Y0073130D03*
X0228978Y0073130D03*
X0223978Y0073130D03*
X0218978Y0073130D03*
X0218978Y0068130D03*
X0223978Y0068130D03*
X0228978Y0068130D03*
X0233978Y0068130D03*
X0238978Y0068130D03*
X0243978Y0068130D03*
X0248978Y0068130D03*
X0253978Y0068130D03*
X0258978Y0068130D03*
X0263978Y0068130D03*
X0268978Y0068130D03*
X0268978Y0073130D03*
X0263978Y0073130D03*
X0258978Y0073130D03*
X0253978Y0073130D03*
X0253978Y0078130D03*
X0258978Y0078130D03*
X0263978Y0078130D03*
X0268978Y0078130D03*
X0273978Y0078130D03*
X0278978Y0078130D03*
X0278978Y0073130D03*
X0273978Y0073130D03*
X0273978Y0068130D03*
X0278978Y0068130D03*
X0268978Y0088130D03*
X0263978Y0088130D03*
X0258978Y0088130D03*
X0253978Y0088130D03*
X0253978Y0093130D03*
X0258978Y0093130D03*
X0263978Y0093130D03*
X0268978Y0093130D03*
X0268978Y0098130D03*
X0263978Y0098130D03*
X0258978Y0098130D03*
X0253978Y0098130D03*
D16*
X0155423Y0072630D03*
X0148534Y0072630D03*
X0345034Y0201130D03*
X0351923Y0201130D03*
D17*
X0120490Y0067370D03*
X0120490Y0059890D03*
X0109467Y0059890D03*
X0109467Y0063630D03*
X0109467Y0067370D03*
D18*
X0066603Y0188677D03*
X0066603Y0194583D03*
X0050854Y0194583D03*
X0050854Y0188677D03*
X0050854Y0226177D03*
X0050854Y0232083D03*
X0066603Y0232083D03*
X0066603Y0226177D03*
X0317104Y0199583D03*
X0317104Y0193677D03*
X0332853Y0193677D03*
X0332853Y0199583D03*
D19*
X0332597Y0182732D03*
X0334565Y0182732D03*
X0336534Y0182732D03*
X0330628Y0182732D03*
X0328660Y0182732D03*
X0326691Y0182732D03*
X0324723Y0182732D03*
X0322754Y0182732D03*
X0320786Y0182732D03*
X0318817Y0182732D03*
X0316849Y0182732D03*
X0314880Y0182732D03*
X0312912Y0182732D03*
X0310943Y0182732D03*
X0308975Y0182732D03*
X0307006Y0182732D03*
X0307006Y0148087D03*
X0308975Y0148087D03*
X0310943Y0148087D03*
X0312912Y0148087D03*
X0314880Y0148087D03*
X0316849Y0148087D03*
X0318817Y0148087D03*
X0320786Y0148087D03*
X0322754Y0148087D03*
X0324723Y0148087D03*
X0326691Y0148087D03*
X0328660Y0148087D03*
X0330628Y0148087D03*
X0332597Y0148087D03*
X0334565Y0148087D03*
X0336534Y0148087D03*
D20*
X0321770Y0165410D03*
D21*
X0339093Y0166394D03*
X0339093Y0168362D03*
X0339093Y0170331D03*
X0339093Y0172299D03*
X0339093Y0174268D03*
X0339093Y0176236D03*
X0339093Y0178205D03*
X0339093Y0180173D03*
X0339093Y0164425D03*
X0339093Y0162457D03*
X0339093Y0160488D03*
X0339093Y0158520D03*
X0339093Y0156551D03*
X0339093Y0154583D03*
X0339093Y0152614D03*
X0339093Y0150646D03*
X0304447Y0150646D03*
X0304447Y0152614D03*
X0304447Y0154583D03*
X0304447Y0156551D03*
X0304447Y0158520D03*
X0304447Y0160488D03*
X0304447Y0162457D03*
X0304447Y0164425D03*
X0304447Y0166394D03*
X0304447Y0168362D03*
X0304447Y0170331D03*
X0304447Y0172299D03*
X0304447Y0174268D03*
X0304447Y0176236D03*
X0304447Y0178205D03*
X0304447Y0180173D03*
D22*
X0060975Y0200161D03*
D23*
X0060955Y0202130D03*
X0060955Y0204098D03*
X0058002Y0204098D03*
X0058002Y0202130D03*
X0058002Y0200161D03*
D24*
X0299478Y0134264D03*
X0299478Y0125996D03*
D25*
X0302219Y0092130D03*
X0294738Y0092130D03*
D26*
X0338478Y0127185D03*
X0338478Y0134075D03*
X0348478Y0158185D03*
X0348478Y0165075D03*
X0126978Y0183685D03*
X0126978Y0190575D03*
X0119478Y0198185D03*
X0119478Y0205075D03*
D27*
X0299478Y0081917D03*
X0299478Y0055343D03*
D28*
X0157978Y0110453D03*
X0157978Y0125807D03*
D29*
X0107400Y0117575D03*
X0104644Y0117575D03*
X0101888Y0117575D03*
X0099132Y0117575D03*
X0096376Y0117575D03*
X0093620Y0117575D03*
X0090864Y0117575D03*
X0088108Y0117575D03*
X0085353Y0117575D03*
X0082597Y0117575D03*
X0079841Y0117575D03*
X0077085Y0117575D03*
X0074329Y0117575D03*
X0071573Y0117575D03*
X0068817Y0117575D03*
X0068817Y0167181D03*
X0071573Y0167181D03*
X0074329Y0167181D03*
X0077085Y0167181D03*
X0079841Y0167181D03*
X0082597Y0167181D03*
X0085353Y0167181D03*
X0088108Y0167181D03*
X0090864Y0167181D03*
X0093620Y0167181D03*
X0096376Y0167181D03*
X0099132Y0167181D03*
X0101888Y0167181D03*
X0104644Y0167181D03*
X0107400Y0167181D03*
D30*
X0111829Y0165902D03*
X0064388Y0165902D03*
X0064388Y0118854D03*
X0111829Y0118854D03*
D31*
X0112912Y0123087D03*
X0112912Y0125843D03*
X0112912Y0128598D03*
X0112912Y0131354D03*
X0112912Y0134110D03*
X0112912Y0136866D03*
X0112912Y0139622D03*
X0112912Y0142378D03*
X0112912Y0145134D03*
X0112912Y0147890D03*
X0112912Y0150646D03*
X0112912Y0153402D03*
X0112912Y0156158D03*
X0112912Y0158913D03*
X0112912Y0161669D03*
X0063305Y0161669D03*
X0063305Y0158913D03*
X0063305Y0156158D03*
X0063305Y0153402D03*
X0063305Y0150646D03*
X0063305Y0147890D03*
X0063305Y0145134D03*
X0063305Y0142378D03*
X0063305Y0139622D03*
X0063305Y0136866D03*
X0063305Y0134110D03*
X0063305Y0131354D03*
X0063305Y0128598D03*
X0063305Y0125843D03*
X0063305Y0123087D03*
D32*
X0072951Y0127221D03*
X0072951Y0132732D03*
X0078463Y0132732D03*
X0083975Y0132732D03*
X0083975Y0127221D03*
X0078463Y0127221D03*
X0092242Y0127221D03*
X0092242Y0132732D03*
X0097754Y0132732D03*
X0103266Y0132732D03*
X0103266Y0127221D03*
X0097754Y0127221D03*
X0097754Y0138244D03*
X0103266Y0138244D03*
X0103266Y0146512D03*
X0097754Y0146512D03*
X0097754Y0152024D03*
X0103266Y0152024D03*
X0103266Y0157535D03*
X0097754Y0157535D03*
X0092242Y0157535D03*
X0092242Y0152024D03*
X0092242Y0146512D03*
X0083975Y0146512D03*
X0078463Y0146512D03*
X0078463Y0152024D03*
X0083975Y0152024D03*
X0083975Y0157535D03*
X0078463Y0157535D03*
X0072951Y0157535D03*
X0072951Y0152024D03*
X0072951Y0146512D03*
X0072951Y0138244D03*
X0078463Y0138244D03*
X0083975Y0138244D03*
X0092242Y0138244D03*
D33*
X0108683Y0189130D03*
X0108683Y0194130D03*
X0108683Y0199130D03*
X0108683Y0204130D03*
X0108683Y0209130D03*
D34*
X0084274Y0199130D03*
D35*
X0046770Y0166689D03*
X0046770Y0118067D03*
D36*
X0052577Y0112063D03*
X0040963Y0112063D03*
X0040963Y0172693D03*
X0052577Y0172693D03*
D37*
X0141148Y0197890D03*
X0141148Y0201630D03*
X0141148Y0205370D03*
X0149809Y0205370D03*
X0149809Y0197890D03*
D38*
X0147648Y0066189D03*
X0147648Y0061071D03*
X0156309Y0061071D03*
X0156309Y0063630D03*
X0156309Y0066189D03*
D39*
X0197016Y0182880D03*
X0198984Y0182880D03*
X0198984Y0184848D03*
X0197016Y0184848D03*
X0197016Y0186817D03*
X0198984Y0186817D03*
X0198984Y0188785D03*
X0197016Y0188785D03*
X0197016Y0190754D03*
X0198984Y0190754D03*
X0198984Y0192723D03*
X0198984Y0194691D03*
X0197016Y0194691D03*
X0197016Y0192723D03*
X0200953Y0192723D03*
X0200953Y0194691D03*
X0200953Y0196660D03*
X0200953Y0198628D03*
X0200953Y0200597D03*
X0200953Y0202565D03*
X0200953Y0204534D03*
X0200953Y0206502D03*
X0202921Y0206502D03*
X0202921Y0204534D03*
X0204890Y0204534D03*
X0204890Y0206502D03*
X0206858Y0206502D03*
X0206858Y0204534D03*
X0208827Y0204534D03*
X0208827Y0206502D03*
X0210795Y0206502D03*
X0210795Y0204534D03*
X0212764Y0204534D03*
X0212764Y0206502D03*
X0214732Y0206502D03*
X0214732Y0204534D03*
X0216701Y0204534D03*
X0216701Y0206502D03*
X0218669Y0206502D03*
X0218669Y0204534D03*
X0220638Y0204534D03*
X0220638Y0206502D03*
X0222606Y0206502D03*
X0222606Y0204534D03*
X0222606Y0202565D03*
X0220638Y0202565D03*
X0220638Y0200597D03*
X0222606Y0200597D03*
X0222606Y0198628D03*
X0220638Y0198628D03*
X0220638Y0196660D03*
X0222606Y0196660D03*
X0222606Y0194691D03*
X0220638Y0194691D03*
X0220638Y0192723D03*
X0222606Y0192723D03*
X0222606Y0190754D03*
X0220638Y0190754D03*
X0220638Y0188785D03*
X0220638Y0186817D03*
X0222606Y0186817D03*
X0222606Y0188785D03*
X0222606Y0184848D03*
X0222606Y0182880D03*
X0220638Y0182880D03*
X0220638Y0184848D03*
X0218669Y0184848D03*
X0218669Y0182880D03*
X0216701Y0182880D03*
X0216701Y0184848D03*
X0214732Y0184848D03*
X0214732Y0182880D03*
X0212764Y0182880D03*
X0212764Y0184848D03*
X0210795Y0184848D03*
X0210795Y0182880D03*
X0208827Y0182880D03*
X0208827Y0184848D03*
X0206858Y0184848D03*
X0206858Y0182880D03*
X0204890Y0182880D03*
X0204890Y0184848D03*
X0202921Y0184848D03*
X0202921Y0182880D03*
X0200953Y0182880D03*
X0200953Y0184848D03*
X0200953Y0186817D03*
X0202921Y0186817D03*
X0202921Y0188785D03*
X0200953Y0188785D03*
X0200953Y0190754D03*
X0204890Y0190754D03*
X0206858Y0190754D03*
X0208827Y0190754D03*
X0210795Y0190754D03*
X0212764Y0190754D03*
X0214732Y0190754D03*
X0214732Y0192723D03*
X0214732Y0194691D03*
X0214732Y0196660D03*
X0214732Y0198628D03*
X0214732Y0200597D03*
X0212764Y0200597D03*
X0210795Y0200597D03*
X0208827Y0200597D03*
X0206858Y0200597D03*
X0204890Y0200597D03*
X0204890Y0198628D03*
X0204890Y0196660D03*
X0204890Y0194691D03*
X0204890Y0192723D03*
X0204890Y0186817D03*
X0206858Y0186817D03*
X0208827Y0186817D03*
X0210795Y0186817D03*
X0212764Y0186817D03*
X0214732Y0186817D03*
X0216701Y0186817D03*
X0218669Y0186817D03*
X0218669Y0188785D03*
X0218669Y0190754D03*
X0218669Y0192723D03*
X0218669Y0194691D03*
X0218669Y0196660D03*
X0218669Y0198628D03*
X0218669Y0200597D03*
X0218669Y0202565D03*
X0218669Y0208471D03*
X0216701Y0208471D03*
X0214732Y0208471D03*
X0212764Y0208471D03*
X0210795Y0208471D03*
X0208827Y0208471D03*
X0206858Y0208471D03*
X0204890Y0208471D03*
X0202921Y0208471D03*
X0200953Y0208471D03*
X0198984Y0208471D03*
X0197016Y0208471D03*
X0197016Y0206502D03*
X0198984Y0206502D03*
X0198984Y0204534D03*
X0197016Y0204534D03*
X0197016Y0202565D03*
X0198984Y0202565D03*
X0198984Y0200597D03*
X0197016Y0200597D03*
X0197016Y0198628D03*
X0198984Y0198628D03*
X0198984Y0196660D03*
X0197016Y0196660D03*
X0220638Y0208471D03*
X0222606Y0208471D03*
D40*
X0129978Y0211535D03*
X0129978Y0199724D03*
M02*
