G75*
%MOIN*%
%OFA0B0*%
%FSLAX25Y25*%
%IPPOS*%
%LPD*%
%AMOC8*
5,1,8,0,0,1.08239X$1,22.5*
%
%ADD10R,0.01969X0.02756*%
%ADD11R,0.02756X0.01969*%
%ADD12R,0.05118X0.06299*%
%ADD13R,0.02756X0.03937*%
%ADD14C,0.06400*%
%ADD15R,0.03937X0.05512*%
%ADD16C,0.04000*%
%ADD17R,0.01870X0.00787*%
%ADD18R,0.06299X0.01575*%
%ADD19R,0.06181X0.07441*%
%ADD20R,0.02047X0.01181*%
%ADD21R,0.01929X0.01181*%
%ADD22R,0.03150X0.01181*%
%ADD23R,0.02559X0.03346*%
%ADD24R,0.01181X0.06299*%
%ADD25R,0.06000X0.06000*%
%ADD26OC8,0.06000*%
%ADD27R,0.04724X0.07087*%
%ADD28R,0.04134X0.04252*%
%ADD29R,0.05118X0.05906*%
%ADD30R,0.05906X0.05118*%
%ADD31R,0.11000X0.02800*%
%ADD32R,0.05906X0.04331*%
%ADD33R,0.01772X0.03543*%
%ADD34R,0.07874X0.03543*%
%ADD35R,0.03543X0.01969*%
%ADD36R,0.03740X0.04724*%
%ADD37R,0.03346X0.00906*%
%ADD38R,0.03936X0.00906*%
%ADD39C,0.05906*%
%ADD40R,0.06000X0.09500*%
%ADD41R,0.01102X0.03346*%
%ADD42R,0.03346X0.01102*%
%ADD43R,0.08071X0.12008*%
%ADD44R,0.12008X0.08071*%
%ADD45R,0.03937X0.03937*%
%ADD46R,0.05512X0.03937*%
%ADD47R,0.06299X0.08268*%
%ADD48R,0.07480X0.07087*%
%ADD49R,0.07480X0.07480*%
%ADD50R,0.05315X0.01575*%
%ADD51C,0.17500*%
%ADD52C,0.05937*%
%ADD53C,0.11055*%
%ADD54R,0.03543X0.01575*%
%ADD55R,0.03543X0.02756*%
%ADD56R,0.03937X0.04331*%
%ADD57R,0.04331X0.03937*%
%ADD58R,0.07000X0.06600*%
%ADD59C,0.05000*%
%ADD60R,0.08661X0.07874*%
%ADD61C,0.08299*%
%ADD62C,0.02600*%
%ADD63C,0.00600*%
%ADD64C,0.03200*%
%ADD65C,0.01000*%
%ADD66C,0.03200*%
%ADD67C,0.01600*%
%ADD68R,0.02600X0.02600*%
D10*
X0101297Y0104189D03*
X0105234Y0104189D03*
X0081809Y0117969D03*
X0077872Y0117969D03*
X0069211Y0106158D03*
X0065274Y0106158D03*
X0191356Y0173284D03*
X0195293Y0173284D03*
X0195293Y0183864D03*
X0191356Y0183864D03*
X0199723Y0183864D03*
X0203660Y0183864D03*
X0213010Y0173037D03*
X0216947Y0173037D03*
X0228010Y0173930D03*
X0231947Y0173930D03*
X0231947Y0179630D03*
X0228010Y0179630D03*
X0228010Y0185330D03*
X0231947Y0185330D03*
X0224329Y0202319D03*
X0220392Y0202319D03*
X0292210Y0158930D03*
X0296147Y0158930D03*
X0296147Y0146930D03*
X0292210Y0146930D03*
X0315077Y0139228D03*
X0319014Y0139228D03*
X0322951Y0139228D03*
X0326888Y0139228D03*
X0327447Y0100130D03*
X0323510Y0100130D03*
X0346510Y0100630D03*
X0350447Y0100630D03*
X0273447Y0080630D03*
X0269510Y0080630D03*
X0269510Y0075630D03*
X0273447Y0075630D03*
X0273447Y0070630D03*
X0269510Y0070630D03*
X0266447Y0092630D03*
X0262510Y0092630D03*
X0258947Y0092630D03*
X0255010Y0092630D03*
X0251447Y0092630D03*
X0247510Y0092630D03*
X0227947Y0094630D03*
X0224010Y0094630D03*
X0218447Y0096630D03*
X0214510Y0096630D03*
X0243010Y0122130D03*
X0246947Y0122130D03*
X0250510Y0122130D03*
X0254447Y0122130D03*
X0258010Y0122130D03*
X0261947Y0122130D03*
X0232447Y0135630D03*
X0228510Y0135630D03*
X0208447Y0127130D03*
X0204510Y0127130D03*
D11*
X0216478Y0104598D03*
X0216478Y0100661D03*
X0231478Y0090098D03*
X0231478Y0086161D03*
X0239978Y0101661D03*
X0239978Y0105598D03*
X0269478Y0109161D03*
X0269478Y0113098D03*
X0299228Y0094098D03*
X0299228Y0090161D03*
X0297478Y0055598D03*
X0297478Y0051661D03*
X0302478Y0051661D03*
X0302478Y0055598D03*
X0307478Y0055598D03*
X0307478Y0051661D03*
X0292478Y0051661D03*
X0292478Y0055598D03*
X0293278Y0136861D03*
X0293278Y0140798D03*
X0301888Y0141787D03*
X0301888Y0137850D03*
X0307006Y0137850D03*
X0307006Y0141787D03*
X0282478Y0197161D03*
X0282478Y0201098D03*
X0277478Y0201098D03*
X0277478Y0197161D03*
X0272478Y0197161D03*
X0272478Y0201098D03*
X0267478Y0201098D03*
X0267478Y0197161D03*
X0262478Y0197161D03*
X0262478Y0201098D03*
X0257478Y0201098D03*
X0257478Y0197161D03*
X0252478Y0197161D03*
X0252478Y0201098D03*
X0247478Y0201098D03*
X0247478Y0197161D03*
X0247478Y0211661D03*
X0247478Y0215598D03*
X0252478Y0215598D03*
X0252478Y0211661D03*
X0257478Y0211661D03*
X0257478Y0215598D03*
X0262478Y0215598D03*
X0262478Y0211661D03*
X0267478Y0211661D03*
X0267478Y0215598D03*
X0272478Y0215598D03*
X0272478Y0211661D03*
X0277478Y0211661D03*
X0277478Y0215598D03*
X0282478Y0215598D03*
X0282478Y0211661D03*
X0287478Y0211661D03*
X0287478Y0215598D03*
X0292478Y0215598D03*
X0292478Y0211661D03*
X0297478Y0211661D03*
X0297478Y0215598D03*
X0302478Y0215598D03*
X0302478Y0211661D03*
X0307478Y0211661D03*
X0307478Y0215598D03*
X0312478Y0215598D03*
X0312478Y0211661D03*
X0317478Y0211661D03*
X0317478Y0215598D03*
X0322478Y0215598D03*
X0322478Y0211661D03*
X0327478Y0211661D03*
X0327478Y0215598D03*
X0232978Y0215598D03*
X0232978Y0211661D03*
X0227978Y0211661D03*
X0227978Y0215598D03*
X0222978Y0215598D03*
X0222978Y0211661D03*
X0214978Y0211661D03*
X0214978Y0215598D03*
X0209478Y0215598D03*
X0209478Y0211661D03*
X0202478Y0211661D03*
X0202478Y0215598D03*
X0195478Y0215598D03*
X0195478Y0211661D03*
X0188478Y0211661D03*
X0188478Y0215598D03*
X0147478Y0187098D03*
X0147478Y0183161D03*
X0136478Y0184098D03*
X0136478Y0180161D03*
X0131978Y0180161D03*
X0131978Y0184098D03*
X0101101Y0184110D03*
X0101101Y0180173D03*
X0093620Y0180173D03*
X0093620Y0184110D03*
X0085353Y0184898D03*
X0085353Y0188835D03*
X0080628Y0188835D03*
X0080628Y0184898D03*
X0075904Y0184898D03*
X0075904Y0188835D03*
X0071179Y0188835D03*
X0071179Y0184898D03*
X0089683Y0116787D03*
X0089683Y0112850D03*
X0094801Y0112850D03*
X0094801Y0116787D03*
X0058581Y0116000D03*
X0058581Y0112063D03*
D12*
X0193571Y0191492D03*
X0201445Y0191492D03*
X0201445Y0201335D03*
X0193571Y0201335D03*
X0218423Y0196413D03*
X0226297Y0196413D03*
X0218916Y0179189D03*
X0211041Y0179189D03*
D13*
X0241238Y0116961D03*
X0248719Y0116961D03*
X0244978Y0108299D03*
X0260738Y0097799D03*
X0268219Y0097799D03*
X0264478Y0106461D03*
D14*
X0131978Y0063630D03*
X0095478Y0058630D03*
X0085478Y0058630D03*
X0085478Y0068630D03*
X0095478Y0068630D03*
D15*
X0245738Y0097799D03*
X0253219Y0097799D03*
X0249478Y0106461D03*
X0259978Y0108299D03*
X0256238Y0116961D03*
X0263719Y0116961D03*
D16*
X0315478Y0053630D03*
X0332362Y0199237D03*
X0062678Y0057130D03*
D17*
X0300756Y0104189D03*
X0300756Y0106158D03*
X0300756Y0108126D03*
X0300756Y0110095D03*
X0300756Y0112063D03*
X0303807Y0112063D03*
X0303807Y0110095D03*
X0303807Y0108126D03*
X0303807Y0106158D03*
X0303807Y0104189D03*
X0303807Y0118756D03*
X0303807Y0120724D03*
X0303807Y0122693D03*
X0303807Y0124661D03*
X0303807Y0126630D03*
X0300756Y0126630D03*
X0300756Y0124661D03*
X0300756Y0122693D03*
X0300756Y0120724D03*
X0300756Y0118756D03*
D18*
X0329211Y0096719D03*
X0329211Y0094160D03*
X0329211Y0091600D03*
X0329211Y0089041D03*
X0345746Y0089041D03*
X0345746Y0091600D03*
X0345746Y0094160D03*
X0345746Y0096719D03*
D19*
X0337478Y0092880D03*
D20*
X0307225Y0093848D03*
D21*
X0307205Y0091880D03*
X0307205Y0089911D03*
X0304252Y0089911D03*
X0304252Y0091880D03*
X0304252Y0093848D03*
D22*
X0222581Y0091083D03*
X0222581Y0089114D03*
X0222581Y0087146D03*
X0222581Y0085177D03*
X0210376Y0085177D03*
X0210376Y0087146D03*
X0210376Y0089114D03*
X0210376Y0091083D03*
D23*
X0222730Y0099579D03*
X0229227Y0099579D03*
X0229227Y0105681D03*
X0222730Y0105681D03*
D24*
X0278935Y0132142D03*
X0281494Y0132142D03*
X0284053Y0132142D03*
X0286612Y0132142D03*
X0286612Y0145528D03*
X0284053Y0145528D03*
X0281494Y0145528D03*
X0278935Y0145528D03*
D25*
X0194978Y0056630D03*
X0104978Y0034130D03*
X0104978Y0224130D03*
D26*
X0114978Y0224130D03*
X0124978Y0224130D03*
X0134978Y0224130D03*
X0144978Y0224130D03*
X0154978Y0224130D03*
X0164978Y0224130D03*
X0174978Y0224130D03*
X0184978Y0224130D03*
X0194978Y0224130D03*
X0204978Y0224130D03*
X0214978Y0224130D03*
X0224978Y0224130D03*
X0234978Y0224130D03*
X0244978Y0224130D03*
X0254978Y0224130D03*
X0264978Y0224130D03*
X0274978Y0224130D03*
X0284978Y0224130D03*
X0294978Y0224130D03*
X0304978Y0224130D03*
X0314978Y0224130D03*
X0324978Y0224130D03*
X0324978Y0234130D03*
X0314978Y0234130D03*
X0304978Y0234130D03*
X0294978Y0234130D03*
X0284978Y0234130D03*
X0274978Y0234130D03*
X0264978Y0234130D03*
X0254978Y0234130D03*
X0244978Y0234130D03*
X0234978Y0234130D03*
X0224978Y0234130D03*
X0214978Y0234130D03*
X0204978Y0234130D03*
X0194978Y0234130D03*
X0184978Y0234130D03*
X0174978Y0234130D03*
X0164978Y0234130D03*
X0154978Y0234130D03*
X0144978Y0234130D03*
X0134978Y0234130D03*
X0124978Y0234130D03*
X0114978Y0234130D03*
X0104978Y0234130D03*
X0204978Y0056630D03*
X0214978Y0056630D03*
X0224978Y0056630D03*
X0234978Y0056630D03*
X0244978Y0056630D03*
X0244978Y0044130D03*
X0234978Y0044130D03*
X0224978Y0044130D03*
X0214978Y0044130D03*
X0204978Y0044130D03*
X0194978Y0044130D03*
X0184978Y0044130D03*
X0174978Y0044130D03*
X0164978Y0044130D03*
X0154978Y0044130D03*
X0144978Y0044130D03*
X0134978Y0044130D03*
X0124978Y0044130D03*
X0114978Y0044130D03*
X0104978Y0044130D03*
X0114978Y0034130D03*
X0124978Y0034130D03*
X0134978Y0034130D03*
X0144978Y0034130D03*
X0154978Y0034130D03*
X0164978Y0034130D03*
X0174978Y0034130D03*
X0184978Y0034130D03*
X0194978Y0034130D03*
X0204978Y0034130D03*
X0214978Y0034130D03*
X0224978Y0034130D03*
X0234978Y0034130D03*
X0244978Y0034130D03*
X0254978Y0034130D03*
X0264978Y0034130D03*
X0264978Y0044130D03*
X0254978Y0044130D03*
X0274978Y0044130D03*
X0274978Y0034130D03*
X0284978Y0034130D03*
X0294978Y0034130D03*
X0294978Y0044130D03*
X0284978Y0044130D03*
X0304978Y0044130D03*
X0314978Y0044130D03*
X0314978Y0034130D03*
X0304978Y0034130D03*
X0324978Y0034130D03*
X0324978Y0044130D03*
D27*
X0290475Y0099630D03*
X0277482Y0099630D03*
D28*
X0321475Y0134307D03*
X0328364Y0134307D03*
X0297624Y0152930D03*
X0290734Y0152930D03*
X0106711Y0109701D03*
X0099821Y0109701D03*
D29*
X0042825Y0064130D03*
X0036132Y0064130D03*
X0132738Y0191630D03*
X0140219Y0191630D03*
X0333738Y0079130D03*
X0341219Y0079130D03*
D30*
X0355478Y0089140D03*
X0355478Y0096620D03*
D31*
X0172128Y0097630D03*
X0172128Y0092630D03*
X0172128Y0087630D03*
X0172128Y0082630D03*
X0172128Y0077630D03*
X0172128Y0072630D03*
X0172128Y0067630D03*
X0172128Y0062630D03*
X0172128Y0057630D03*
X0172128Y0052630D03*
X0150828Y0052630D03*
X0150828Y0057630D03*
X0150828Y0062630D03*
X0150828Y0067630D03*
X0150828Y0072630D03*
X0150828Y0077630D03*
X0150828Y0082630D03*
X0150828Y0087630D03*
X0150828Y0092630D03*
X0150828Y0097630D03*
D32*
X0361967Y0146833D03*
X0361967Y0203427D03*
D33*
X0356987Y0203673D03*
X0354231Y0203673D03*
X0351475Y0203673D03*
X0348719Y0203673D03*
X0348719Y0146587D03*
X0351475Y0146587D03*
X0354231Y0146587D03*
X0356987Y0146587D03*
D34*
X0323779Y0146587D03*
X0318660Y0203673D03*
D35*
X0309408Y0198654D03*
X0309408Y0160268D03*
D36*
X0307243Y0164992D03*
X0307243Y0188614D03*
D37*
X0342218Y0132717D03*
X0342218Y0131142D03*
X0342218Y0129567D03*
X0342218Y0127992D03*
X0342218Y0126417D03*
X0342218Y0124843D03*
X0342218Y0123268D03*
X0342218Y0121693D03*
X0342218Y0120118D03*
X0342218Y0118543D03*
D38*
X0347041Y0119331D03*
X0347041Y0120906D03*
X0347041Y0122480D03*
X0347041Y0124055D03*
X0347041Y0125630D03*
X0347041Y0127205D03*
X0347041Y0128780D03*
X0347041Y0130354D03*
X0347041Y0131929D03*
D39*
X0358026Y0137835D02*
X0363931Y0137835D01*
X0363931Y0113425D02*
X0358026Y0113425D01*
D40*
X0347750Y0112047D03*
X0347750Y0139213D03*
D41*
X0148541Y0157634D03*
X0142636Y0157634D03*
X0142636Y0175154D03*
X0148541Y0175154D03*
X0139683Y0127910D03*
X0137715Y0127910D03*
X0135746Y0127910D03*
X0133778Y0127910D03*
X0131809Y0127910D03*
X0129841Y0127910D03*
X0127872Y0127910D03*
X0125904Y0127910D03*
X0125904Y0114327D03*
X0127872Y0114327D03*
X0129841Y0114327D03*
X0131809Y0114327D03*
X0133778Y0114327D03*
X0135746Y0114327D03*
X0137715Y0114327D03*
X0139683Y0114327D03*
D42*
X0141553Y0118165D03*
X0141553Y0124071D03*
X0124034Y0124071D03*
X0124034Y0118165D03*
X0138797Y0159504D03*
X0138797Y0161473D03*
X0138797Y0163441D03*
X0138797Y0165410D03*
X0138797Y0167378D03*
X0138797Y0169347D03*
X0138797Y0171315D03*
X0138797Y0173284D03*
X0152380Y0173284D03*
X0152380Y0171315D03*
X0152380Y0169347D03*
X0152380Y0167378D03*
X0152380Y0165410D03*
X0152380Y0163441D03*
X0152380Y0161473D03*
X0152380Y0159504D03*
D43*
X0145589Y0166394D03*
D44*
X0132793Y0121118D03*
D45*
X0070490Y0116492D03*
X0070490Y0111571D03*
X0063994Y0111571D03*
X0063994Y0116492D03*
D46*
X0163309Y0187890D03*
X0163309Y0195370D03*
X0154648Y0191630D03*
D47*
X0043518Y0188425D03*
X0043518Y0212835D03*
D48*
X0033478Y0215591D03*
X0033478Y0185669D03*
D49*
X0033478Y0195906D03*
X0033478Y0205354D03*
D50*
X0044010Y0205748D03*
X0044010Y0203189D03*
X0044010Y0200630D03*
X0044010Y0198071D03*
X0044010Y0195512D03*
D51*
X0084978Y0229130D03*
X0084978Y0039130D03*
X0344978Y0051630D03*
X0344978Y0216630D03*
D52*
X0316337Y0106660D03*
X0316337Y0096817D03*
X0316337Y0088943D03*
X0316337Y0079100D03*
D53*
X0327006Y0067014D03*
X0327006Y0118746D03*
D54*
X0244209Y0177071D03*
X0244209Y0179630D03*
X0244209Y0182189D03*
X0235548Y0182189D03*
X0235548Y0177071D03*
D55*
X0099329Y0085685D03*
X0091849Y0083126D03*
X0091849Y0088244D03*
X0084368Y0088244D03*
X0084368Y0083126D03*
X0076888Y0085685D03*
D56*
X0156132Y0102130D03*
X0162825Y0102130D03*
X0162825Y0110130D03*
X0156132Y0110130D03*
X0156132Y0118130D03*
X0162825Y0118130D03*
X0162825Y0126130D03*
X0156132Y0126130D03*
X0205632Y0121130D03*
X0212325Y0121130D03*
X0163925Y0178130D03*
X0157232Y0178130D03*
D57*
X0159478Y0150476D03*
X0159478Y0143784D03*
X0151478Y0143784D03*
X0151478Y0150476D03*
X0143478Y0150476D03*
X0143478Y0143784D03*
X0167478Y0143284D03*
X0167478Y0149976D03*
D58*
X0122478Y0191630D03*
X0106978Y0191630D03*
X0106978Y0207130D03*
X0122478Y0207130D03*
X0133478Y0207130D03*
X0148978Y0207130D03*
D59*
X0127978Y0199130D03*
D60*
X0079841Y0108126D03*
X0079841Y0096315D03*
D61*
X0074601Y0068280D02*
X0074601Y0059980D01*
X0066939Y0045626D02*
X0058640Y0045626D01*
X0050978Y0059980D02*
X0050978Y0068280D01*
D62*
X0048978Y0089130D03*
X0047478Y0096130D03*
X0048148Y0110685D03*
X0048148Y0113441D03*
X0045392Y0113441D03*
X0045392Y0110685D03*
X0040569Y0118953D03*
X0040569Y0123087D03*
X0044014Y0123087D03*
X0044014Y0127221D03*
X0047459Y0127221D03*
X0052971Y0127221D03*
X0056416Y0127221D03*
X0059860Y0127221D03*
X0068128Y0127221D03*
X0068128Y0122398D03*
X0072951Y0122398D03*
X0078463Y0122398D03*
X0083975Y0122398D03*
X0088108Y0122398D03*
X0092242Y0122398D03*
X0088108Y0127221D03*
X0088108Y0132732D03*
X0088108Y0138244D03*
X0088108Y0142378D03*
X0083975Y0142378D03*
X0078463Y0142378D03*
X0072951Y0142378D03*
X0068128Y0142378D03*
X0068128Y0146512D03*
X0068128Y0152024D03*
X0068128Y0157535D03*
X0068128Y0162358D03*
X0072951Y0162358D03*
X0078463Y0162358D03*
X0083975Y0162358D03*
X0088108Y0162358D03*
X0092242Y0162358D03*
X0097754Y0162358D03*
X0103266Y0162358D03*
X0108089Y0162358D03*
X0108089Y0157535D03*
X0108089Y0152024D03*
X0108089Y0146512D03*
X0108089Y0142378D03*
X0103266Y0142378D03*
X0097754Y0142378D03*
X0092242Y0142378D03*
X0088108Y0146512D03*
X0088108Y0152024D03*
X0088108Y0157535D03*
X0068128Y0138244D03*
X0068128Y0132732D03*
X0059860Y0118953D03*
X0056416Y0118953D03*
X0052971Y0118953D03*
X0040569Y0127221D03*
X0074329Y0114032D03*
X0079841Y0114032D03*
X0087321Y0109701D03*
X0090864Y0109701D03*
X0103266Y0113785D03*
X0110943Y0109701D03*
X0126642Y0109799D03*
X0126642Y0106354D03*
X0126642Y0102910D03*
X0139978Y0098030D03*
X0150178Y0109430D03*
X0142636Y0115213D03*
X0145397Y0118165D03*
X0142636Y0121118D03*
X0142636Y0127024D03*
X0150878Y0122030D03*
X0132793Y0121118D03*
X0127378Y0133130D03*
X0137878Y0140330D03*
X0137878Y0143630D03*
X0140278Y0137930D03*
X0140278Y0134630D03*
X0143578Y0137930D03*
X0146878Y0137930D03*
X0146878Y0134330D03*
X0171778Y0137030D03*
X0174178Y0134630D03*
X0176578Y0137030D03*
X0176578Y0132230D03*
X0172078Y0128030D03*
X0191478Y0130630D03*
X0196478Y0130630D03*
X0201478Y0130630D03*
X0206478Y0130630D03*
X0206478Y0135130D03*
X0201478Y0135130D03*
X0196478Y0136130D03*
X0196478Y0140130D03*
X0196478Y0146130D03*
X0196478Y0150130D03*
X0191478Y0150130D03*
X0191478Y0146130D03*
X0201478Y0146130D03*
X0201478Y0150130D03*
X0206478Y0150630D03*
X0206478Y0146130D03*
X0211478Y0145630D03*
X0215978Y0145630D03*
X0215978Y0150630D03*
X0211478Y0150630D03*
X0211478Y0155630D03*
X0215978Y0155630D03*
X0206478Y0155630D03*
X0195978Y0155630D03*
X0178378Y0161930D03*
X0175978Y0164330D03*
X0173578Y0166730D03*
X0188404Y0173284D03*
X0198246Y0173284D03*
X0203660Y0177959D03*
X0205874Y0180419D03*
X0198984Y0180419D03*
X0194555Y0180419D03*
X0190126Y0180419D03*
X0186778Y0194330D03*
X0186778Y0197930D03*
X0186778Y0201230D03*
X0193571Y0206994D03*
X0198978Y0213130D03*
X0205978Y0213130D03*
X0214978Y0219130D03*
X0219978Y0219130D03*
X0224978Y0219130D03*
X0229978Y0219130D03*
X0219978Y0227630D03*
X0244978Y0207230D03*
X0247478Y0204730D03*
X0249978Y0207730D03*
X0252478Y0204130D03*
X0257478Y0204130D03*
X0262478Y0204130D03*
X0259978Y0208630D03*
X0257478Y0218630D03*
X0252478Y0218630D03*
X0262478Y0218630D03*
X0267478Y0218630D03*
X0272478Y0218630D03*
X0277478Y0218630D03*
X0282478Y0218630D03*
X0287478Y0218630D03*
X0292478Y0218630D03*
X0297478Y0218630D03*
X0302478Y0218630D03*
X0307478Y0218630D03*
X0312478Y0218630D03*
X0317478Y0218630D03*
X0322478Y0218630D03*
X0327478Y0218630D03*
X0327478Y0229130D03*
X0307078Y0207830D03*
X0298978Y0202630D03*
X0298978Y0199130D03*
X0298978Y0195630D03*
X0306978Y0193630D03*
X0310478Y0193630D03*
X0317278Y0188030D03*
X0320278Y0189830D03*
X0323878Y0189830D03*
X0326878Y0191630D03*
X0326878Y0188030D03*
X0331678Y0189830D03*
X0334978Y0189830D03*
X0338278Y0189830D03*
X0338278Y0186530D03*
X0343978Y0192230D03*
X0343978Y0195530D03*
X0340678Y0195530D03*
X0347278Y0195530D03*
X0346678Y0186530D03*
X0347878Y0183530D03*
X0352978Y0182630D03*
X0352978Y0179130D03*
X0352978Y0175630D03*
X0352978Y0172130D03*
X0349978Y0169130D03*
X0352978Y0165130D03*
X0352978Y0160130D03*
X0348778Y0153530D03*
X0346378Y0151130D03*
X0342778Y0151730D03*
X0344014Y0159504D03*
X0344014Y0163047D03*
X0342734Y0176236D03*
X0329644Y0173284D03*
X0326691Y0170331D03*
X0323738Y0173284D03*
X0321770Y0170331D03*
X0319801Y0173284D03*
X0316849Y0170331D03*
X0319801Y0167378D03*
X0316849Y0165410D03*
X0319801Y0163441D03*
X0321770Y0160488D03*
X0323738Y0157535D03*
X0319801Y0157535D03*
X0316849Y0160488D03*
X0313896Y0157535D03*
X0313896Y0163441D03*
X0313896Y0167378D03*
X0313896Y0173284D03*
X0323738Y0167378D03*
X0326691Y0165410D03*
X0329644Y0167378D03*
X0329644Y0163441D03*
X0326691Y0160488D03*
X0329644Y0157535D03*
X0323738Y0163441D03*
X0300778Y0158030D03*
X0295478Y0165130D03*
X0299329Y0168953D03*
X0299329Y0172299D03*
X0299329Y0175646D03*
X0299329Y0182732D03*
X0304447Y0182732D03*
X0311261Y0187579D03*
X0321770Y0186079D03*
X0324978Y0198630D03*
X0352978Y0186630D03*
X0359578Y0198530D03*
X0356478Y0199930D03*
X0289478Y0200630D03*
X0289478Y0204130D03*
X0289478Y0197130D03*
X0289478Y0193630D03*
X0282478Y0194130D03*
X0279978Y0191630D03*
X0277478Y0189130D03*
X0274978Y0186630D03*
X0264178Y0182330D03*
X0261778Y0184730D03*
X0264978Y0194130D03*
X0252478Y0194130D03*
X0241378Y0201830D03*
X0229988Y0191246D03*
X0226051Y0188785D03*
X0216393Y0189093D03*
X0212272Y0193215D03*
X0209811Y0195675D03*
X0207351Y0193215D03*
X0212272Y0198136D03*
X0216393Y0202257D03*
X0224575Y0181158D03*
X0224575Y0177221D03*
X0220392Y0173037D03*
X0209565Y0173037D03*
X0230478Y0165630D03*
X0239878Y0176030D03*
X0239878Y0179630D03*
X0269478Y0170630D03*
X0273478Y0170630D03*
X0266478Y0151130D03*
X0261478Y0151130D03*
X0256478Y0150630D03*
X0256478Y0145630D03*
X0256478Y0140630D03*
X0251478Y0140630D03*
X0251478Y0135630D03*
X0256478Y0135630D03*
X0261478Y0135130D03*
X0266478Y0135130D03*
X0266478Y0141130D03*
X0261478Y0141130D03*
X0261478Y0145130D03*
X0266478Y0145130D03*
X0246978Y0150630D03*
X0241978Y0145630D03*
X0240978Y0150630D03*
X0235978Y0145630D03*
X0230978Y0145630D03*
X0226478Y0145130D03*
X0226478Y0140630D03*
X0230978Y0140630D03*
X0235978Y0140630D03*
X0236478Y0135630D03*
X0241978Y0135630D03*
X0241978Y0140630D03*
X0226478Y0151130D03*
X0226478Y0155630D03*
X0236978Y0155630D03*
X0240978Y0155630D03*
X0246978Y0155630D03*
X0221478Y0145630D03*
X0221478Y0140630D03*
X0215978Y0140630D03*
X0211278Y0135130D03*
X0211278Y0130630D03*
X0221478Y0135630D03*
X0236478Y0125630D03*
X0256478Y0125630D03*
X0251478Y0111130D03*
X0255978Y0105630D03*
X0231478Y0095630D03*
X0226478Y0085630D03*
X0226478Y0081130D03*
X0221478Y0081130D03*
X0216478Y0081130D03*
X0211478Y0081130D03*
X0206478Y0081130D03*
X0206478Y0085130D03*
X0201478Y0081130D03*
X0201478Y0075130D03*
X0206478Y0075130D03*
X0206478Y0070630D03*
X0211478Y0070630D03*
X0211478Y0065630D03*
X0211478Y0075130D03*
X0216478Y0075130D03*
X0221478Y0075130D03*
X0226478Y0075130D03*
X0231478Y0075130D03*
X0226478Y0070630D03*
X0226478Y0065630D03*
X0231478Y0065630D03*
X0236228Y0065630D03*
X0241478Y0070630D03*
X0241478Y0075130D03*
X0241478Y0081130D03*
X0241478Y0085630D03*
X0236478Y0085630D03*
X0251478Y0086630D03*
X0256478Y0076380D03*
X0261478Y0076380D03*
X0266478Y0076380D03*
X0266478Y0070630D03*
X0261478Y0070630D03*
X0261478Y0065630D03*
X0266478Y0065630D03*
X0276478Y0062130D03*
X0276478Y0070630D03*
X0276478Y0076380D03*
X0283678Y0070130D03*
X0286078Y0067730D03*
X0288478Y0065330D03*
X0290978Y0063130D03*
X0294978Y0063130D03*
X0299978Y0063130D03*
X0303978Y0063130D03*
X0310078Y0069230D03*
X0312478Y0072830D03*
X0310078Y0075230D03*
X0306478Y0075230D03*
X0304078Y0071630D03*
X0314878Y0068030D03*
X0314878Y0064430D03*
X0310678Y0088730D03*
X0306809Y0102811D03*
X0306809Y0106354D03*
X0306809Y0109898D03*
X0306809Y0113441D03*
X0306809Y0117378D03*
X0306809Y0120921D03*
X0306809Y0124465D03*
X0306809Y0128008D03*
X0303778Y0130430D03*
X0307378Y0132830D03*
X0304447Y0134898D03*
X0313078Y0133430D03*
X0311927Y0141000D03*
X0311927Y0144543D03*
X0306219Y0144740D03*
X0302675Y0144740D03*
X0297778Y0142130D03*
X0296578Y0138830D03*
X0289478Y0133130D03*
X0285978Y0125130D03*
X0285978Y0118130D03*
X0289478Y0118130D03*
X0297754Y0122693D03*
X0297754Y0108126D03*
X0285978Y0090130D03*
X0271478Y0086130D03*
X0256478Y0070630D03*
X0256478Y0065630D03*
X0255178Y0054230D03*
X0251878Y0054230D03*
X0219978Y0048630D03*
X0199978Y0050730D03*
X0198978Y0061530D03*
X0191478Y0070630D03*
X0191478Y0075130D03*
X0186478Y0075130D03*
X0186478Y0070630D03*
X0181478Y0070630D03*
X0179478Y0075130D03*
X0186478Y0081130D03*
X0191478Y0081130D03*
X0181478Y0085630D03*
X0181478Y0095630D03*
X0191478Y0095130D03*
X0191478Y0091130D03*
X0196478Y0091130D03*
X0196478Y0095130D03*
X0201478Y0095130D03*
X0201478Y0091130D03*
X0206478Y0091130D03*
X0206478Y0095130D03*
X0211478Y0095130D03*
X0216728Y0090130D03*
X0216478Y0085630D03*
X0206478Y0105630D03*
X0206478Y0110130D03*
X0201478Y0110130D03*
X0201478Y0105630D03*
X0196478Y0106130D03*
X0196478Y0110130D03*
X0191478Y0110130D03*
X0191478Y0106130D03*
X0191478Y0116130D03*
X0196478Y0116130D03*
X0201478Y0116130D03*
X0196478Y0120130D03*
X0191478Y0120130D03*
X0211478Y0115630D03*
X0216478Y0110630D03*
X0221478Y0110630D03*
X0226478Y0110630D03*
X0171978Y0107130D03*
X0162478Y0087630D03*
X0164978Y0085130D03*
X0162478Y0082630D03*
X0164978Y0080130D03*
X0162478Y0077630D03*
X0164978Y0075130D03*
X0164978Y0070130D03*
X0162478Y0062630D03*
X0164978Y0060130D03*
X0162478Y0057630D03*
X0164978Y0055130D03*
X0162478Y0052630D03*
X0164978Y0050130D03*
X0179978Y0052630D03*
X0181378Y0056630D03*
X0186778Y0056930D03*
X0186778Y0060230D03*
X0181378Y0060230D03*
X0142578Y0058630D03*
X0137578Y0056330D03*
X0142878Y0050330D03*
X0125978Y0055630D03*
X0114478Y0061630D03*
X0114478Y0065630D03*
X0104978Y0063630D03*
X0101478Y0063630D03*
X0088108Y0082142D03*
X0088108Y0085685D03*
X0088108Y0089228D03*
X0088108Y0092772D03*
X0080628Y0085685D03*
X0095589Y0085685D03*
X0079841Y0102221D03*
X0097754Y0122398D03*
X0103266Y0122398D03*
X0108089Y0122398D03*
X0108089Y0127221D03*
X0108089Y0132732D03*
X0108089Y0138244D03*
X0139683Y0156551D03*
X0151494Y0156551D03*
X0145589Y0167870D03*
X0156078Y0171830D03*
X0147557Y0178697D03*
X0143620Y0178697D03*
X0139978Y0182130D03*
X0134228Y0177130D03*
X0127978Y0179630D03*
X0150778Y0185030D03*
X0149478Y0201630D03*
X0141978Y0209130D03*
X0160678Y0205030D03*
X0184378Y0211430D03*
X0101478Y0199130D03*
X0090978Y0208630D03*
X0074478Y0198071D03*
X0070478Y0200630D03*
X0065978Y0203189D03*
X0059478Y0207630D03*
X0058728Y0194880D03*
X0058728Y0189630D03*
X0055038Y0182048D03*
X0058187Y0178598D03*
X0058187Y0174661D03*
X0058187Y0170724D03*
X0059860Y0165803D03*
X0056416Y0165803D03*
X0052971Y0165803D03*
X0048148Y0171315D03*
X0048148Y0174071D03*
X0045392Y0174071D03*
X0045392Y0171315D03*
X0040569Y0165803D03*
X0040569Y0161669D03*
X0044014Y0161669D03*
X0044014Y0157535D03*
X0047459Y0157535D03*
X0052971Y0157535D03*
X0056416Y0157535D03*
X0059860Y0157535D03*
X0040569Y0157535D03*
X0064093Y0181748D03*
X0068817Y0181748D03*
X0073541Y0181748D03*
X0078266Y0181748D03*
X0082990Y0181748D03*
X0090077Y0182142D03*
X0097164Y0182142D03*
X0090978Y0189630D03*
X0066978Y0222130D03*
X0061478Y0222130D03*
X0055978Y0222130D03*
X0050478Y0222130D03*
X0058728Y0227630D03*
X0058728Y0232630D03*
X0272478Y0208630D03*
X0301297Y0148284D03*
X0322754Y0142875D03*
X0334565Y0144543D03*
X0340078Y0142430D03*
X0354778Y0150530D03*
X0360378Y0147630D03*
X0351978Y0132830D03*
X0354478Y0130430D03*
X0357778Y0129230D03*
X0361378Y0129230D03*
X0361378Y0125630D03*
X0361378Y0122030D03*
X0357778Y0122030D03*
X0354478Y0120830D03*
X0337078Y0122330D03*
X0332878Y0126830D03*
X0338278Y0110930D03*
X0335278Y0107930D03*
X0339978Y0104630D03*
X0339978Y0100630D03*
X0325478Y0104630D03*
X0355478Y0101630D03*
X0353278Y0071930D03*
X0349678Y0071930D03*
D63*
X0334390Y0089041D02*
X0329211Y0089041D01*
X0334390Y0089041D02*
X0337478Y0092130D01*
X0337478Y0092880D01*
X0337478Y0098130D01*
X0335478Y0100130D01*
X0327447Y0100130D01*
X0325478Y0102098D02*
X0325478Y0104630D01*
X0325478Y0102098D02*
X0323510Y0100130D01*
X0323510Y0098098D01*
X0324890Y0096719D01*
X0329211Y0096719D01*
X0339978Y0100630D02*
X0346510Y0100630D01*
X0346510Y0098661D01*
X0345746Y0097898D01*
X0345746Y0096719D01*
X0350447Y0100630D02*
X0347947Y0103130D01*
X0341478Y0103130D01*
X0339978Y0104630D01*
X0338278Y0110930D02*
X0338278Y0116630D01*
X0340191Y0118543D01*
X0342218Y0118543D01*
X0342218Y0120118D02*
X0339966Y0120118D01*
X0337078Y0117230D01*
X0337078Y0114230D01*
X0331378Y0108530D01*
X0319978Y0108530D01*
X0317878Y0110630D01*
X0314278Y0110630D01*
X0312178Y0108530D01*
X0312178Y0105621D01*
X0310353Y0103795D01*
X0307793Y0103795D01*
X0306809Y0102811D01*
X0305431Y0104189D01*
X0303807Y0104189D01*
X0303807Y0106158D02*
X0306612Y0106158D01*
X0306809Y0106354D01*
X0307793Y0105370D01*
X0310156Y0105370D01*
X0310978Y0106193D01*
X0310978Y0109130D01*
X0313678Y0111830D01*
X0318478Y0111830D01*
X0320578Y0109730D01*
X0330778Y0109730D01*
X0335878Y0114830D01*
X0335878Y0117830D01*
X0339741Y0121693D01*
X0342218Y0121693D01*
X0342218Y0123268D02*
X0338016Y0123268D01*
X0337078Y0122330D01*
X0334678Y0123230D02*
X0336291Y0124843D01*
X0342218Y0124843D01*
X0342218Y0126417D02*
X0336065Y0126417D01*
X0333478Y0123830D01*
X0333478Y0116030D01*
X0329578Y0112130D01*
X0321778Y0112130D01*
X0313971Y0119937D01*
X0307793Y0119937D01*
X0306809Y0120921D01*
X0306612Y0120724D01*
X0303807Y0120724D01*
X0303807Y0118756D02*
X0305431Y0118756D01*
X0306809Y0117378D01*
X0307793Y0118362D01*
X0313746Y0118362D01*
X0321178Y0110930D01*
X0330178Y0110930D01*
X0334678Y0115430D01*
X0334678Y0123230D01*
X0332878Y0126830D02*
X0334040Y0127992D01*
X0342218Y0127992D01*
X0342218Y0129567D02*
X0310641Y0129567D01*
X0307378Y0132830D01*
X0309478Y0133730D02*
X0312066Y0131142D01*
X0342218Y0131142D01*
X0347041Y0131929D02*
X0351077Y0131929D01*
X0351978Y0132830D01*
X0349754Y0130354D02*
X0347041Y0130354D01*
X0347041Y0128780D02*
X0349528Y0128780D01*
X0350278Y0128030D01*
X0356578Y0128030D01*
X0357778Y0129230D01*
X0358978Y0126830D02*
X0361378Y0129230D01*
X0358978Y0126830D02*
X0349678Y0126830D01*
X0349303Y0127205D01*
X0347041Y0127205D01*
X0347041Y0125630D02*
X0361378Y0125630D01*
X0358978Y0124430D02*
X0349678Y0124430D01*
X0349303Y0124055D01*
X0347041Y0124055D01*
X0347041Y0122480D02*
X0349528Y0122480D01*
X0350278Y0123230D01*
X0356578Y0123230D01*
X0357778Y0122030D01*
X0358978Y0124430D02*
X0361378Y0122030D01*
X0354478Y0120830D02*
X0353278Y0122030D01*
X0350878Y0122030D01*
X0349754Y0120906D01*
X0347041Y0120906D01*
X0350878Y0129230D02*
X0349754Y0130354D01*
X0350878Y0129230D02*
X0353278Y0129230D01*
X0354478Y0130430D01*
X0354231Y0146587D02*
X0354231Y0149983D01*
X0354778Y0150530D01*
X0356987Y0149139D02*
X0356987Y0146587D01*
X0356987Y0149139D02*
X0358678Y0150830D01*
X0358678Y0152630D01*
X0356578Y0154730D01*
X0356578Y0166530D01*
X0352978Y0170130D01*
X0352978Y0172130D01*
X0352978Y0175630D02*
X0350978Y0175630D01*
X0341878Y0184730D01*
X0341878Y0190130D01*
X0337678Y0194330D01*
X0317878Y0194330D01*
X0313555Y0198654D01*
X0309408Y0198654D01*
X0309178Y0203030D02*
X0304678Y0203030D01*
X0302578Y0200930D01*
X0302578Y0199230D01*
X0298978Y0195630D01*
X0292978Y0197130D02*
X0292978Y0200330D01*
X0294178Y0201530D01*
X0294178Y0204830D01*
X0297778Y0208430D01*
X0304247Y0208430D01*
X0307478Y0211661D01*
X0307478Y0215598D02*
X0302478Y0215598D01*
X0297478Y0215598D01*
X0292478Y0215598D01*
X0290510Y0213630D01*
X0289447Y0213630D01*
X0287478Y0211661D01*
X0282478Y0211661D01*
X0277478Y0211661D01*
X0272478Y0211661D01*
X0272478Y0208630D01*
X0272478Y0211661D02*
X0267478Y0211661D01*
X0262478Y0211661D01*
X0259978Y0214161D02*
X0259978Y0226130D01*
X0256978Y0229130D01*
X0231978Y0229130D01*
X0229478Y0226630D01*
X0228478Y0226630D01*
X0228978Y0226130D01*
X0229478Y0226630D01*
X0228978Y0226130D02*
X0228978Y0222130D01*
X0229478Y0221630D01*
X0230978Y0221630D01*
X0232978Y0219630D01*
X0232978Y0215598D01*
X0230478Y0214161D02*
X0230478Y0218630D01*
X0229978Y0219130D01*
X0227978Y0217630D02*
X0227478Y0218130D01*
X0227478Y0220130D01*
X0228978Y0221630D01*
X0228978Y0222130D01*
X0228978Y0221630D02*
X0229478Y0221630D01*
X0227978Y0217630D02*
X0227978Y0215598D01*
X0225478Y0214161D02*
X0225478Y0218630D01*
X0224978Y0219130D01*
X0222978Y0217630D02*
X0222478Y0218130D01*
X0222478Y0220630D01*
X0219978Y0223130D01*
X0219978Y0227630D01*
X0220478Y0228130D01*
X0226978Y0228130D01*
X0228478Y0226630D01*
X0219978Y0227630D02*
X0219478Y0228130D01*
X0212978Y0228130D01*
X0209978Y0225130D01*
X0209978Y0221630D01*
X0209478Y0221130D01*
X0209478Y0215598D01*
X0202478Y0215598D01*
X0200347Y0217730D01*
X0197610Y0217730D01*
X0195478Y0215598D01*
X0188478Y0215598D01*
X0184378Y0211498D01*
X0184378Y0211430D01*
X0181978Y0213630D02*
X0189978Y0221630D01*
X0192478Y0221630D01*
X0194978Y0224130D01*
X0181978Y0213630D02*
X0181978Y0176030D01*
X0187078Y0170930D01*
X0198778Y0170930D01*
X0203878Y0165830D01*
X0216178Y0165830D01*
X0223078Y0158930D01*
X0223078Y0150830D01*
X0225178Y0148730D01*
X0228178Y0148730D01*
X0230978Y0145930D01*
X0230978Y0145630D01*
X0228778Y0146230D02*
X0228778Y0142830D01*
X0230978Y0140630D01*
X0233478Y0143130D02*
X0233478Y0148530D01*
X0229978Y0152030D01*
X0229978Y0159230D01*
X0232978Y0162230D01*
X0232978Y0166430D01*
X0231478Y0167930D01*
X0225478Y0167930D01*
X0224578Y0167030D01*
X0204500Y0167030D01*
X0198246Y0173284D01*
X0195293Y0173284D01*
X0191356Y0173284D02*
X0188404Y0173284D01*
X0189778Y0175730D02*
X0183178Y0182330D01*
X0183178Y0197630D01*
X0186778Y0201230D01*
X0187978Y0202430D01*
X0187978Y0208130D01*
X0188478Y0208630D01*
X0188478Y0211661D01*
X0189178Y0207530D02*
X0193310Y0211661D01*
X0195478Y0211661D01*
X0198978Y0213130D02*
X0201010Y0213130D01*
X0202478Y0211661D01*
X0204810Y0209330D01*
X0207778Y0209330D01*
X0211078Y0206030D01*
X0225478Y0206030D01*
X0230878Y0200630D01*
X0230878Y0199430D01*
X0247078Y0183230D01*
X0247078Y0176030D01*
X0237778Y0166730D01*
X0237778Y0159830D01*
X0234778Y0156830D01*
X0234778Y0154330D01*
X0238478Y0150630D01*
X0240978Y0150630D01*
X0239578Y0147730D02*
X0233578Y0153730D01*
X0233578Y0157430D01*
X0236578Y0160430D01*
X0236578Y0168230D01*
X0233278Y0171530D01*
X0223678Y0171530D01*
X0222778Y0170630D01*
X0207778Y0170630D01*
X0200278Y0178130D01*
X0196845Y0178130D01*
X0194555Y0180419D01*
X0195293Y0181158D01*
X0195293Y0183864D01*
X0197508Y0186079D02*
X0197508Y0186817D01*
X0193571Y0190754D01*
X0193571Y0191492D01*
X0197508Y0186079D02*
X0199723Y0183864D01*
X0199723Y0181158D01*
X0198984Y0180419D01*
X0201691Y0179927D02*
X0201691Y0181896D01*
X0203660Y0183864D01*
X0201445Y0186079D01*
X0201445Y0191492D01*
X0205078Y0188630D02*
X0205078Y0195241D01*
X0203906Y0196413D01*
X0202429Y0196413D01*
X0201445Y0197398D01*
X0201445Y0201335D01*
X0207351Y0201335D01*
X0209811Y0198874D01*
X0209811Y0195675D01*
X0212272Y0193215D02*
X0214156Y0191330D01*
X0217378Y0191330D01*
X0223378Y0185330D01*
X0228010Y0185330D01*
X0229978Y0183361D01*
X0229978Y0175898D01*
X0228010Y0173930D01*
X0231947Y0173930D02*
X0231947Y0176198D01*
X0232819Y0177071D01*
X0235548Y0177071D01*
X0231947Y0179630D02*
X0231947Y0181730D01*
X0232406Y0182189D01*
X0235548Y0182189D01*
X0232388Y0182189D02*
X0231947Y0182630D01*
X0231947Y0185330D01*
X0228491Y0188785D01*
X0226051Y0188785D01*
X0231947Y0182630D02*
X0231947Y0181730D01*
X0228010Y0179630D02*
X0225601Y0177221D01*
X0224575Y0177221D01*
X0222606Y0179189D02*
X0218916Y0179189D01*
X0218916Y0178467D01*
X0215578Y0175130D01*
X0215578Y0174406D01*
X0216947Y0173037D01*
X0220392Y0173037D01*
X0223378Y0169430D02*
X0224278Y0170330D01*
X0232678Y0170330D01*
X0235378Y0167630D01*
X0235378Y0161030D01*
X0232378Y0158030D01*
X0232378Y0153130D01*
X0238378Y0147130D01*
X0238378Y0139230D01*
X0241978Y0135630D01*
X0241978Y0140630D02*
X0239578Y0143030D01*
X0239578Y0147730D01*
X0241978Y0145630D02*
X0243378Y0147030D01*
X0243378Y0160030D01*
X0250678Y0167330D01*
X0250678Y0185030D01*
X0234478Y0201230D01*
X0234478Y0202430D01*
X0227278Y0209630D01*
X0225010Y0209630D01*
X0222978Y0211661D01*
X0220478Y0214161D01*
X0220478Y0218630D01*
X0219978Y0219130D01*
X0217378Y0217730D02*
X0215978Y0219130D01*
X0214978Y0219130D01*
X0217378Y0217730D02*
X0217378Y0214061D01*
X0214978Y0211661D01*
X0218210Y0208430D01*
X0226678Y0208430D01*
X0233278Y0201830D01*
X0233278Y0200630D01*
X0249478Y0184430D01*
X0249478Y0167930D01*
X0240978Y0159430D01*
X0240978Y0155630D01*
X0236978Y0155630D02*
X0236978Y0157230D01*
X0248278Y0168530D01*
X0248278Y0183830D01*
X0232078Y0200030D01*
X0232078Y0201230D01*
X0226078Y0207230D01*
X0213910Y0207230D01*
X0209478Y0211661D01*
X0208010Y0213130D01*
X0205978Y0213130D01*
X0209478Y0215598D02*
X0214978Y0215598D01*
X0222978Y0215598D02*
X0222978Y0217630D01*
X0225478Y0214161D02*
X0227978Y0211661D01*
X0235678Y0203961D01*
X0235678Y0201830D01*
X0251878Y0185630D01*
X0251878Y0166730D01*
X0244578Y0159430D01*
X0244578Y0153030D01*
X0246978Y0150630D01*
X0246978Y0155630D02*
X0246978Y0160030D01*
X0253078Y0166130D01*
X0253078Y0186230D01*
X0236878Y0202430D01*
X0236878Y0207761D01*
X0232978Y0211661D01*
X0230478Y0214161D01*
X0247478Y0215598D02*
X0252478Y0215598D01*
X0254978Y0213098D01*
X0254978Y0210130D01*
X0258778Y0206330D01*
X0263578Y0206330D01*
X0265378Y0204530D01*
X0283678Y0204530D01*
X0285478Y0202730D01*
X0285478Y0188630D01*
X0278578Y0181730D01*
X0278578Y0161030D01*
X0273778Y0156230D01*
X0273778Y0144530D01*
X0267978Y0138730D01*
X0263878Y0138730D01*
X0261478Y0141130D01*
X0263778Y0137430D02*
X0268478Y0137430D01*
X0274978Y0143930D01*
X0274978Y0155630D01*
X0279778Y0160430D01*
X0279778Y0181130D01*
X0286678Y0188030D01*
X0286678Y0203330D01*
X0284278Y0205730D01*
X0265978Y0205730D01*
X0264178Y0207530D01*
X0261078Y0207530D01*
X0259978Y0208630D01*
X0257478Y0211661D02*
X0259978Y0214161D01*
X0257478Y0215598D02*
X0257478Y0218630D01*
X0252478Y0218630D02*
X0252478Y0215598D01*
X0252478Y0211661D02*
X0252478Y0210230D01*
X0249978Y0207730D01*
X0249978Y0203598D01*
X0247478Y0201098D01*
X0244978Y0202230D02*
X0247478Y0204730D01*
X0244978Y0202230D02*
X0244978Y0199661D01*
X0247478Y0197161D01*
X0247478Y0193930D01*
X0259078Y0182330D01*
X0259078Y0163730D01*
X0266478Y0156330D01*
X0266478Y0151130D01*
X0267778Y0148730D02*
X0263878Y0148730D01*
X0261478Y0151130D01*
X0267778Y0148730D02*
X0268978Y0149930D01*
X0268978Y0155630D01*
X0260278Y0164330D01*
X0260278Y0183230D01*
X0261778Y0184730D01*
X0264178Y0182330D02*
X0261478Y0179630D01*
X0261478Y0164930D01*
X0270178Y0156230D01*
X0270178Y0149330D01*
X0268378Y0147530D01*
X0263878Y0147530D01*
X0261478Y0145130D01*
X0266478Y0145130D02*
X0267778Y0145130D01*
X0271378Y0148730D01*
X0271378Y0156830D01*
X0266578Y0161630D01*
X0266578Y0184130D01*
X0259078Y0191630D01*
X0251578Y0191630D01*
X0249978Y0193230D01*
X0249978Y0198598D01*
X0252478Y0201098D01*
X0252478Y0204130D01*
X0257478Y0204130D02*
X0257478Y0201098D01*
X0257478Y0197161D02*
X0252478Y0197161D01*
X0252478Y0194130D01*
X0257478Y0197161D02*
X0262478Y0197161D01*
X0264978Y0194661D01*
X0264978Y0194130D01*
X0262478Y0197161D02*
X0264447Y0199130D01*
X0265510Y0199130D01*
X0267478Y0201098D01*
X0272478Y0201098D01*
X0277478Y0201098D01*
X0282478Y0201098D01*
X0282478Y0197161D02*
X0282478Y0194130D01*
X0282478Y0187430D01*
X0277378Y0182330D01*
X0277378Y0161630D01*
X0272578Y0156830D01*
X0272578Y0145130D01*
X0268578Y0141130D01*
X0266478Y0141130D01*
X0263778Y0137430D02*
X0261478Y0135130D01*
X0259278Y0132830D02*
X0267478Y0132830D01*
X0277378Y0142730D01*
X0277378Y0154430D01*
X0282178Y0159230D01*
X0282178Y0179930D01*
X0289078Y0186830D01*
X0295231Y0186830D01*
X0299329Y0182732D01*
X0287878Y0187430D02*
X0287878Y0192030D01*
X0289478Y0193630D01*
X0292978Y0197130D01*
X0291778Y0199430D02*
X0289478Y0197130D01*
X0291778Y0199430D02*
X0291778Y0200961D01*
X0292978Y0202161D01*
X0292978Y0205430D01*
X0297178Y0209630D01*
X0300447Y0209630D01*
X0302478Y0211661D01*
X0297478Y0211661D02*
X0291778Y0205961D01*
X0291778Y0202930D01*
X0289478Y0200630D01*
X0289478Y0204130D02*
X0290578Y0205230D01*
X0290578Y0209761D01*
X0292478Y0211661D01*
X0287478Y0215598D02*
X0287478Y0218630D01*
X0282478Y0218630D02*
X0282478Y0215598D01*
X0282478Y0211661D02*
X0282510Y0211630D01*
X0277478Y0215598D02*
X0277478Y0218630D01*
X0272478Y0218630D02*
X0272478Y0215598D01*
X0267478Y0215598D02*
X0267478Y0218630D01*
X0262478Y0218630D02*
X0262478Y0215598D01*
X0249978Y0207730D02*
X0247478Y0210230D01*
X0247478Y0211661D01*
X0262478Y0204130D02*
X0262478Y0201098D01*
X0267478Y0197161D02*
X0274978Y0189661D01*
X0274978Y0186630D01*
X0277478Y0189130D02*
X0277478Y0192161D01*
X0272478Y0197161D01*
X0277478Y0197161D02*
X0279978Y0194661D01*
X0279978Y0191630D01*
X0287878Y0187430D02*
X0280978Y0180530D01*
X0280978Y0159830D01*
X0276178Y0155030D01*
X0276178Y0143330D01*
X0267978Y0135130D01*
X0266478Y0135130D01*
X0259278Y0132830D02*
X0256478Y0135630D01*
X0236478Y0135630D02*
X0232447Y0135630D01*
X0228510Y0135630D02*
X0221478Y0135630D01*
X0216478Y0135830D02*
X0216478Y0115730D01*
X0213728Y0112980D01*
X0213728Y0102880D01*
X0208478Y0097630D01*
X0205478Y0097630D01*
X0203978Y0096130D01*
X0203978Y0090030D01*
X0197078Y0083130D01*
X0197078Y0066730D01*
X0201478Y0062330D01*
X0201478Y0059730D01*
X0200578Y0058830D01*
X0200578Y0055130D01*
X0209378Y0046330D01*
X0209378Y0039730D01*
X0214978Y0034130D01*
X0213278Y0039130D02*
X0210578Y0041830D01*
X0210578Y0046930D01*
X0209378Y0048130D01*
X0209378Y0058830D01*
X0203878Y0064330D01*
X0203878Y0078730D01*
X0201478Y0081130D01*
X0206478Y0081130D02*
X0208978Y0078630D01*
X0208978Y0061030D01*
X0210578Y0059430D01*
X0210578Y0054430D01*
X0214978Y0050030D01*
X0214978Y0044130D01*
X0213278Y0039130D02*
X0219978Y0039130D01*
X0224978Y0044130D01*
X0229978Y0047130D02*
X0229978Y0039130D01*
X0234978Y0034130D01*
X0234978Y0044130D02*
X0227978Y0051130D01*
X0223878Y0051130D01*
X0220578Y0054430D01*
X0220578Y0074230D01*
X0221478Y0075130D01*
X0219378Y0072230D02*
X0216478Y0075130D01*
X0219378Y0072230D02*
X0219378Y0053830D01*
X0223578Y0049630D01*
X0227478Y0049630D01*
X0229978Y0047130D01*
X0229378Y0052230D02*
X0224978Y0056630D01*
X0229378Y0052230D02*
X0237178Y0052230D01*
X0239378Y0054430D01*
X0239378Y0058830D01*
X0233978Y0064230D01*
X0233978Y0083661D01*
X0231478Y0086161D01*
X0228010Y0089630D01*
X0224978Y0089630D01*
X0224463Y0089114D01*
X0222581Y0089114D01*
X0222581Y0087146D02*
X0224494Y0087146D01*
X0225478Y0088130D01*
X0227478Y0088130D01*
X0228978Y0086630D01*
X0228978Y0062630D01*
X0234978Y0056630D01*
X0251878Y0054230D02*
X0257578Y0048530D01*
X0268678Y0048530D01*
X0269978Y0047230D01*
X0269978Y0039130D01*
X0274978Y0034130D01*
X0274978Y0044130D02*
X0269378Y0049730D01*
X0259678Y0049730D01*
X0255178Y0054230D01*
X0266478Y0065630D02*
X0263978Y0068130D01*
X0263978Y0071630D01*
X0262478Y0073130D01*
X0258978Y0073130D01*
X0256478Y0070630D01*
X0266478Y0070630D02*
X0269510Y0070630D01*
X0273447Y0070630D02*
X0276478Y0070630D01*
X0275728Y0075630D02*
X0276478Y0076380D01*
X0275728Y0075630D02*
X0273447Y0075630D01*
X0273447Y0080630D01*
X0271478Y0082598D02*
X0271478Y0086130D01*
X0271478Y0082598D02*
X0269510Y0080630D01*
X0269510Y0075630D02*
X0267228Y0075630D01*
X0266478Y0076380D01*
X0290978Y0063130D02*
X0292478Y0061630D01*
X0292478Y0055598D01*
X0292478Y0051661D02*
X0297478Y0051661D01*
X0299978Y0049161D01*
X0299978Y0039130D01*
X0304978Y0034130D01*
X0304978Y0044130D02*
X0304978Y0047630D01*
X0305478Y0048130D01*
X0304478Y0048130D01*
X0304978Y0047630D01*
X0304478Y0048130D02*
X0302478Y0050130D01*
X0302478Y0051661D01*
X0302478Y0055598D02*
X0302478Y0060630D01*
X0299978Y0063130D01*
X0297478Y0060630D02*
X0294978Y0063130D01*
X0297478Y0060630D02*
X0297478Y0055598D01*
X0303978Y0063130D02*
X0307478Y0059630D01*
X0307478Y0055598D01*
X0307478Y0051661D02*
X0307478Y0050130D01*
X0305478Y0048130D01*
X0304978Y0087530D02*
X0309478Y0087530D01*
X0310678Y0088730D01*
X0313400Y0091880D02*
X0307205Y0091880D01*
X0307225Y0093848D02*
X0313368Y0093848D01*
X0316337Y0096817D01*
X0313400Y0091880D02*
X0316337Y0088943D01*
X0304978Y0087530D02*
X0304252Y0088256D01*
X0304252Y0089911D01*
X0299478Y0089911D01*
X0299228Y0090161D01*
X0299478Y0093848D02*
X0299228Y0094098D01*
X0299478Y0093848D02*
X0304252Y0093848D01*
X0303807Y0108126D02*
X0300756Y0108126D01*
X0297754Y0108126D01*
X0303807Y0110095D02*
X0306612Y0110095D01*
X0306809Y0109898D01*
X0305431Y0112063D02*
X0303807Y0112063D01*
X0305431Y0112063D02*
X0306809Y0113441D01*
X0303807Y0122693D02*
X0300756Y0122693D01*
X0297754Y0122693D01*
X0303807Y0124661D02*
X0306612Y0124661D01*
X0306809Y0124465D01*
X0305431Y0126630D02*
X0303807Y0126630D01*
X0305431Y0126630D02*
X0306809Y0128008D01*
X0303778Y0130430D02*
X0299278Y0134930D01*
X0299278Y0139178D01*
X0301888Y0141787D01*
X0301888Y0143953D01*
X0302675Y0144740D01*
X0306219Y0144740D02*
X0307006Y0143953D01*
X0307006Y0141787D01*
X0309478Y0139315D01*
X0309478Y0133730D01*
X0307006Y0137850D02*
X0304447Y0135291D01*
X0304447Y0134898D01*
X0304447Y0135291D02*
X0301888Y0137850D01*
X0297778Y0142130D02*
X0296147Y0143761D01*
X0296147Y0146930D01*
X0292210Y0146930D02*
X0292210Y0148898D01*
X0291479Y0149630D01*
X0279478Y0149630D01*
X0278935Y0149087D01*
X0278935Y0145528D01*
X0281494Y0145528D02*
X0284053Y0145528D01*
X0286612Y0145528D01*
X0286612Y0141886D01*
X0287700Y0140798D01*
X0293278Y0140798D01*
X0295510Y0140798D01*
X0296578Y0139730D01*
X0296578Y0138830D01*
X0293278Y0136861D02*
X0293210Y0136861D01*
X0289478Y0133130D01*
X0289478Y0134630D01*
X0286978Y0137130D01*
X0280178Y0137130D01*
X0278935Y0135887D01*
X0278935Y0132142D01*
X0281494Y0132142D02*
X0284053Y0132142D01*
X0286612Y0132142D02*
X0286612Y0128396D01*
X0289478Y0125530D01*
X0289478Y0118130D01*
X0269286Y0113291D02*
X0269286Y0112906D01*
X0266801Y0112906D01*
X0266801Y0111943D01*
X0266889Y0111612D01*
X0267060Y0111316D01*
X0267302Y0111074D01*
X0267590Y0110908D01*
X0267201Y0110519D01*
X0267201Y0107804D01*
X0267728Y0107277D01*
X0268078Y0107277D01*
X0268078Y0100668D01*
X0266468Y0100668D01*
X0265941Y0100141D01*
X0265941Y0099630D01*
X0263016Y0099630D01*
X0263016Y0100141D01*
X0262489Y0100668D01*
X0258988Y0100668D01*
X0258460Y0100141D01*
X0258460Y0099630D01*
X0256087Y0099630D01*
X0256087Y0100928D01*
X0255560Y0101455D01*
X0250877Y0101455D01*
X0250350Y0100928D01*
X0250350Y0099630D01*
X0248607Y0099630D01*
X0248607Y0100928D01*
X0248080Y0101455D01*
X0243397Y0101455D01*
X0242870Y0100928D01*
X0242870Y0099630D01*
X0242143Y0099630D01*
X0242155Y0099637D01*
X0242397Y0099879D01*
X0242568Y0100175D01*
X0242656Y0100506D01*
X0242656Y0101469D01*
X0240171Y0101469D01*
X0240171Y0101854D01*
X0242656Y0101854D01*
X0242656Y0102817D01*
X0242568Y0103148D01*
X0242397Y0103444D01*
X0242155Y0103686D01*
X0241867Y0103852D01*
X0242256Y0104241D01*
X0242256Y0106956D01*
X0241729Y0107483D01*
X0241378Y0107483D01*
X0241378Y0114092D01*
X0242989Y0114092D01*
X0243516Y0114619D01*
X0243516Y0115130D01*
X0246441Y0115130D01*
X0246441Y0114619D01*
X0246968Y0114092D01*
X0250469Y0114092D01*
X0250997Y0114619D01*
X0250997Y0115130D01*
X0253370Y0115130D01*
X0253370Y0113832D01*
X0253897Y0113305D01*
X0258580Y0113305D01*
X0259107Y0113832D01*
X0259107Y0115130D01*
X0260850Y0115130D01*
X0260850Y0113832D01*
X0261377Y0113305D01*
X0266060Y0113305D01*
X0266587Y0113832D01*
X0266587Y0115130D01*
X0267314Y0115130D01*
X0267302Y0115123D01*
X0267060Y0114881D01*
X0266889Y0114585D01*
X0266801Y0114254D01*
X0266801Y0113291D01*
X0269286Y0113291D01*
X0266801Y0113414D02*
X0266169Y0113414D01*
X0266587Y0114013D02*
X0266801Y0114013D01*
X0266905Y0114611D02*
X0266587Y0114611D01*
X0266801Y0112816D02*
X0241378Y0112816D01*
X0241378Y0113414D02*
X0253788Y0113414D01*
X0253370Y0114013D02*
X0241378Y0114013D01*
X0241378Y0112217D02*
X0257423Y0112217D01*
X0257508Y0112267D02*
X0257212Y0112095D01*
X0256970Y0111853D01*
X0256799Y0111557D01*
X0256710Y0111226D01*
X0256710Y0108599D01*
X0259678Y0108599D01*
X0259678Y0107999D01*
X0256710Y0107999D01*
X0256710Y0105372D01*
X0256799Y0105042D01*
X0256970Y0104745D01*
X0257212Y0104503D01*
X0257508Y0104332D01*
X0257839Y0104243D01*
X0259679Y0104243D01*
X0259679Y0107999D01*
X0260278Y0107999D01*
X0260278Y0104243D01*
X0261821Y0104243D01*
X0261889Y0103990D01*
X0262060Y0103694D01*
X0262302Y0103452D01*
X0262599Y0103281D01*
X0262929Y0103192D01*
X0264179Y0103192D01*
X0264179Y0106161D01*
X0264778Y0106161D01*
X0264778Y0103192D01*
X0266028Y0103192D01*
X0266358Y0103281D01*
X0266655Y0103452D01*
X0266897Y0103694D01*
X0267068Y0103990D01*
X0267156Y0104321D01*
X0267156Y0106161D01*
X0264779Y0106161D01*
X0264779Y0106761D01*
X0267156Y0106761D01*
X0267156Y0108600D01*
X0267068Y0108931D01*
X0266897Y0109227D01*
X0266655Y0109469D01*
X0266358Y0109641D01*
X0266028Y0109729D01*
X0264778Y0109729D01*
X0264778Y0106761D01*
X0264179Y0106761D01*
X0264179Y0109729D01*
X0263247Y0109729D01*
X0263247Y0111226D01*
X0263158Y0111557D01*
X0262987Y0111853D01*
X0262745Y0112095D01*
X0262449Y0112267D01*
X0262118Y0112355D01*
X0260278Y0112355D01*
X0260278Y0108599D01*
X0259679Y0108599D01*
X0259679Y0112355D01*
X0257839Y0112355D01*
X0257508Y0112267D01*
X0256834Y0111619D02*
X0241378Y0111619D01*
X0241378Y0111020D02*
X0242534Y0111020D01*
X0242560Y0111066D02*
X0242389Y0110770D01*
X0242301Y0110439D01*
X0242301Y0108599D01*
X0244678Y0108599D01*
X0244678Y0107999D01*
X0242301Y0107999D01*
X0242301Y0106160D01*
X0242389Y0105829D01*
X0242560Y0105533D01*
X0242802Y0105291D01*
X0243099Y0105119D01*
X0243429Y0105031D01*
X0244679Y0105031D01*
X0244679Y0107999D01*
X0245278Y0107999D01*
X0245278Y0105031D01*
X0246210Y0105031D01*
X0246210Y0103534D01*
X0246299Y0103203D01*
X0246470Y0102907D01*
X0246712Y0102665D01*
X0247008Y0102493D01*
X0247339Y0102405D01*
X0249179Y0102405D01*
X0249179Y0106161D01*
X0249778Y0106161D01*
X0249778Y0102405D01*
X0251618Y0102405D01*
X0251949Y0102493D01*
X0252245Y0102665D01*
X0252487Y0102907D01*
X0252658Y0103203D01*
X0252747Y0103534D01*
X0252747Y0106161D01*
X0249779Y0106161D01*
X0249779Y0106761D01*
X0252747Y0106761D01*
X0252747Y0109388D01*
X0252658Y0109718D01*
X0252487Y0110015D01*
X0252245Y0110257D01*
X0251949Y0110428D01*
X0251618Y0110517D01*
X0249778Y0110517D01*
X0249778Y0106761D01*
X0249179Y0106761D01*
X0249179Y0110517D01*
X0247636Y0110517D01*
X0247568Y0110770D01*
X0247397Y0111066D01*
X0247155Y0111308D01*
X0246858Y0111479D01*
X0246528Y0111568D01*
X0245278Y0111568D01*
X0245278Y0108599D01*
X0244679Y0108599D01*
X0244679Y0111568D01*
X0243429Y0111568D01*
X0243099Y0111479D01*
X0242802Y0111308D01*
X0242560Y0111066D01*
X0242301Y0110422D02*
X0241378Y0110422D01*
X0241378Y0109823D02*
X0242301Y0109823D01*
X0242301Y0109225D02*
X0241378Y0109225D01*
X0241378Y0108626D02*
X0242301Y0108626D01*
X0241378Y0108028D02*
X0244678Y0108028D01*
X0244679Y0108626D02*
X0245278Y0108626D01*
X0245278Y0109225D02*
X0244679Y0109225D01*
X0244679Y0109823D02*
X0245278Y0109823D01*
X0245278Y0110422D02*
X0244679Y0110422D01*
X0244679Y0111020D02*
X0245278Y0111020D01*
X0247423Y0111020D02*
X0256710Y0111020D01*
X0256710Y0110422D02*
X0251960Y0110422D01*
X0252598Y0109823D02*
X0256710Y0109823D01*
X0256710Y0109225D02*
X0252747Y0109225D01*
X0252747Y0108626D02*
X0256710Y0108626D01*
X0256710Y0107429D02*
X0252747Y0107429D01*
X0252747Y0106830D02*
X0256710Y0106830D01*
X0256710Y0106232D02*
X0249779Y0106232D01*
X0249778Y0106830D02*
X0249179Y0106830D01*
X0249179Y0107429D02*
X0249778Y0107429D01*
X0249778Y0108028D02*
X0249179Y0108028D01*
X0249179Y0108626D02*
X0249778Y0108626D01*
X0249778Y0109225D02*
X0249179Y0109225D01*
X0249179Y0109823D02*
X0249778Y0109823D01*
X0249778Y0110422D02*
X0249179Y0110422D01*
X0252747Y0108028D02*
X0259678Y0108028D01*
X0259679Y0108626D02*
X0260278Y0108626D01*
X0260278Y0109225D02*
X0259679Y0109225D01*
X0259679Y0109823D02*
X0260278Y0109823D01*
X0260278Y0110422D02*
X0259679Y0110422D01*
X0259679Y0111020D02*
X0260278Y0111020D01*
X0260278Y0111619D02*
X0259679Y0111619D01*
X0259679Y0112217D02*
X0260278Y0112217D01*
X0261268Y0113414D02*
X0258689Y0113414D01*
X0259107Y0114013D02*
X0260850Y0114013D01*
X0260850Y0114611D02*
X0259107Y0114611D01*
X0262534Y0112217D02*
X0266801Y0112217D01*
X0266887Y0111619D02*
X0263123Y0111619D01*
X0263247Y0111020D02*
X0267396Y0111020D01*
X0267201Y0110422D02*
X0263247Y0110422D01*
X0263247Y0109823D02*
X0267201Y0109823D01*
X0267201Y0109225D02*
X0266898Y0109225D01*
X0267150Y0108626D02*
X0267201Y0108626D01*
X0267201Y0108028D02*
X0267156Y0108028D01*
X0267156Y0107429D02*
X0267576Y0107429D01*
X0267156Y0106830D02*
X0268078Y0106830D01*
X0268078Y0106232D02*
X0264779Y0106232D01*
X0264778Y0106830D02*
X0264179Y0106830D01*
X0264179Y0107429D02*
X0264778Y0107429D01*
X0264778Y0108028D02*
X0264179Y0108028D01*
X0264179Y0108626D02*
X0264778Y0108626D01*
X0264778Y0109225D02*
X0264179Y0109225D01*
X0264179Y0105633D02*
X0264778Y0105633D01*
X0264778Y0105035D02*
X0264179Y0105035D01*
X0264179Y0104436D02*
X0264778Y0104436D01*
X0264778Y0103838D02*
X0264179Y0103838D01*
X0264179Y0103239D02*
X0264778Y0103239D01*
X0266204Y0103239D02*
X0268078Y0103239D01*
X0268078Y0102641D02*
X0252204Y0102641D01*
X0252668Y0103239D02*
X0262753Y0103239D01*
X0261977Y0103838D02*
X0252747Y0103838D01*
X0252747Y0104436D02*
X0257327Y0104436D01*
X0256802Y0105035D02*
X0252747Y0105035D01*
X0252747Y0105633D02*
X0256710Y0105633D01*
X0259679Y0105633D02*
X0260278Y0105633D01*
X0260278Y0105035D02*
X0259679Y0105035D01*
X0259679Y0104436D02*
X0260278Y0104436D01*
X0260278Y0106232D02*
X0259679Y0106232D01*
X0259679Y0106830D02*
X0260278Y0106830D01*
X0260278Y0107429D02*
X0259679Y0107429D01*
X0255571Y0101444D02*
X0268078Y0101444D01*
X0268078Y0102042D02*
X0242656Y0102042D01*
X0242656Y0101444D02*
X0243386Y0101444D01*
X0242870Y0100845D02*
X0242656Y0100845D01*
X0242587Y0100247D02*
X0242870Y0100247D01*
X0242870Y0099648D02*
X0242166Y0099648D01*
X0242656Y0102641D02*
X0246753Y0102641D01*
X0246289Y0103239D02*
X0242515Y0103239D01*
X0241891Y0103838D02*
X0246210Y0103838D01*
X0246210Y0104436D02*
X0242256Y0104436D01*
X0242256Y0105035D02*
X0243414Y0105035D01*
X0242502Y0105633D02*
X0242256Y0105633D01*
X0242256Y0106232D02*
X0242301Y0106232D01*
X0242301Y0106830D02*
X0242256Y0106830D01*
X0242301Y0107429D02*
X0241783Y0107429D01*
X0244679Y0107429D02*
X0245278Y0107429D01*
X0245278Y0106830D02*
X0244679Y0106830D01*
X0244679Y0106232D02*
X0245278Y0106232D01*
X0245278Y0105633D02*
X0244679Y0105633D01*
X0244679Y0105035D02*
X0245278Y0105035D01*
X0249179Y0105035D02*
X0249778Y0105035D01*
X0249778Y0105633D02*
X0249179Y0105633D01*
X0249179Y0104436D02*
X0249778Y0104436D01*
X0249778Y0103838D02*
X0249179Y0103838D01*
X0249179Y0103239D02*
X0249778Y0103239D01*
X0249778Y0102641D02*
X0249179Y0102641D01*
X0248091Y0101444D02*
X0250866Y0101444D01*
X0250350Y0100845D02*
X0248607Y0100845D01*
X0248607Y0100247D02*
X0250350Y0100247D01*
X0250350Y0099648D02*
X0248607Y0099648D01*
X0256087Y0099648D02*
X0258460Y0099648D01*
X0258567Y0100247D02*
X0256087Y0100247D01*
X0256087Y0100845D02*
X0268078Y0100845D01*
X0266047Y0100247D02*
X0262910Y0100247D01*
X0263016Y0099648D02*
X0265941Y0099648D01*
X0266980Y0103838D02*
X0268078Y0103838D01*
X0268078Y0104436D02*
X0267156Y0104436D01*
X0267156Y0105035D02*
X0268078Y0105035D01*
X0268078Y0105633D02*
X0267156Y0105633D01*
X0253370Y0114611D02*
X0250988Y0114611D01*
X0246449Y0114611D02*
X0243508Y0114611D01*
X0229227Y0105681D02*
X0226478Y0108429D01*
X0226478Y0110630D01*
X0222730Y0109378D02*
X0222730Y0105681D01*
X0222730Y0109378D02*
X0221478Y0110630D01*
X0216478Y0110630D02*
X0216478Y0104598D01*
X0216478Y0100661D02*
X0217561Y0099579D01*
X0222730Y0099579D01*
X0225978Y0098130D02*
X0227427Y0099579D01*
X0229227Y0099579D01*
X0225978Y0098130D02*
X0225978Y0096598D01*
X0224010Y0094630D01*
X0222581Y0091083D02*
X0220431Y0091083D01*
X0219875Y0091639D01*
X0219875Y0090526D01*
X0218978Y0089630D01*
X0218978Y0088130D01*
X0216478Y0085630D01*
X0216931Y0085177D01*
X0222581Y0085177D01*
X0219875Y0090526D02*
X0220431Y0091083D01*
X0219875Y0091639D02*
X0218447Y0093067D01*
X0218447Y0096630D01*
X0216728Y0094411D02*
X0216728Y0090130D01*
X0216478Y0090130D01*
X0215463Y0089114D01*
X0210376Y0089114D01*
X0210376Y0087146D02*
X0207963Y0087146D01*
X0206478Y0088630D01*
X0206478Y0091130D01*
X0210376Y0091083D02*
X0215526Y0091083D01*
X0216478Y0090130D01*
X0216728Y0094411D02*
X0214510Y0096630D01*
X0214510Y0098693D01*
X0216478Y0100661D01*
X0222581Y0091083D02*
X0228526Y0091083D01*
X0229510Y0090098D01*
X0231478Y0090098D01*
X0230478Y0094630D02*
X0227947Y0094630D01*
X0230478Y0094630D02*
X0231478Y0095630D01*
X0210376Y0085177D02*
X0206526Y0085177D01*
X0206478Y0085130D01*
X0201478Y0091130D02*
X0195878Y0085530D01*
X0195878Y0066030D01*
X0193378Y0063530D01*
X0185878Y0063530D01*
X0184078Y0061730D01*
X0184078Y0059330D01*
X0181378Y0056630D01*
X0186778Y0056930D02*
X0189378Y0054330D01*
X0189378Y0039730D01*
X0194978Y0034130D01*
X0199978Y0039130D02*
X0204978Y0034130D01*
X0199978Y0039130D02*
X0199978Y0050730D01*
X0199378Y0054530D02*
X0204978Y0048930D01*
X0204978Y0044130D01*
X0194978Y0044130D02*
X0190578Y0048530D01*
X0190578Y0056430D01*
X0186778Y0060230D01*
X0178978Y0068130D02*
X0178978Y0072130D01*
X0178978Y0073130D01*
X0178978Y0074630D01*
X0179478Y0075130D01*
X0178978Y0075630D01*
X0178978Y0077130D01*
X0178478Y0077630D01*
X0178978Y0078130D01*
X0178978Y0077130D01*
X0178478Y0077630D02*
X0172128Y0077630D01*
X0178978Y0078130D02*
X0178978Y0087130D01*
X0178478Y0087630D01*
X0172128Y0087630D01*
X0165978Y0087630D01*
X0164978Y0088630D01*
X0164978Y0096630D01*
X0165978Y0097630D01*
X0172128Y0097630D01*
X0172128Y0092630D02*
X0178478Y0092630D01*
X0181478Y0095630D01*
X0181478Y0097630D01*
X0171978Y0107130D01*
X0173425Y0112730D02*
X0184678Y0112730D01*
X0191278Y0106130D01*
X0191478Y0106130D01*
X0191478Y0110130D02*
X0189078Y0110130D01*
X0185278Y0113930D01*
X0166625Y0113930D01*
X0162825Y0110130D01*
X0156132Y0110130D02*
X0151678Y0114584D01*
X0151678Y0116030D01*
X0147478Y0120230D01*
X0147478Y0125630D01*
X0142378Y0130730D01*
X0138468Y0130730D01*
X0137715Y0129976D01*
X0137715Y0127910D01*
X0135746Y0127910D02*
X0135746Y0129976D01*
X0137700Y0131930D01*
X0142978Y0131930D01*
X0148678Y0126230D01*
X0148678Y0120830D01*
X0151378Y0118130D01*
X0156132Y0118130D01*
X0162825Y0118130D02*
X0165825Y0115130D01*
X0185878Y0115130D01*
X0188478Y0112530D01*
X0199078Y0112530D01*
X0201478Y0110130D01*
X0201478Y0116130D02*
X0198778Y0118830D01*
X0198778Y0121130D01*
X0196378Y0123530D01*
X0189778Y0123530D01*
X0187378Y0121130D01*
X0177478Y0121130D01*
X0172078Y0126530D01*
X0172078Y0128030D01*
X0171478Y0132230D02*
X0176578Y0132230D01*
X0174178Y0134630D02*
X0170878Y0134630D01*
X0166378Y0139130D01*
X0156132Y0139130D01*
X0151478Y0143784D01*
X0152578Y0140330D02*
X0146932Y0140330D01*
X0143478Y0143784D01*
X0140278Y0144530D02*
X0140278Y0141230D01*
X0143578Y0137930D01*
X0143578Y0134330D01*
X0145978Y0131930D01*
X0150332Y0131930D01*
X0156132Y0126130D01*
X0162825Y0126130D02*
X0171425Y0117530D01*
X0190078Y0117530D01*
X0191478Y0116130D01*
X0190078Y0118730D02*
X0176278Y0118730D01*
X0159478Y0135530D01*
X0148078Y0135530D01*
X0146878Y0134330D01*
X0148078Y0136730D02*
X0160078Y0136730D01*
X0176878Y0119930D01*
X0187978Y0119930D01*
X0190378Y0122330D01*
X0194278Y0122330D01*
X0196478Y0120130D01*
X0191478Y0120130D02*
X0190078Y0118730D01*
X0186478Y0116330D02*
X0170678Y0116330D01*
X0164978Y0122030D01*
X0150878Y0122030D01*
X0145397Y0118165D02*
X0141553Y0118165D01*
X0142636Y0121118D02*
X0141553Y0122201D01*
X0141553Y0124071D01*
X0133778Y0127910D02*
X0133778Y0129976D01*
X0136931Y0133130D01*
X0138778Y0133130D01*
X0140278Y0134630D01*
X0140278Y0137930D02*
X0139763Y0137930D01*
X0131809Y0129976D01*
X0131809Y0127910D01*
X0129841Y0127910D02*
X0129841Y0129976D01*
X0137878Y0138014D01*
X0137878Y0140330D01*
X0135478Y0141230D02*
X0135478Y0137583D01*
X0127872Y0129976D01*
X0127872Y0127910D01*
X0125904Y0127910D02*
X0125904Y0131655D01*
X0127378Y0133130D01*
X0121078Y0130430D02*
X0136678Y0146030D01*
X0138778Y0146030D01*
X0140278Y0144530D01*
X0137878Y0143630D02*
X0135478Y0141230D01*
X0127678Y0138830D02*
X0119878Y0131030D01*
X0119878Y0118130D01*
X0123682Y0114327D01*
X0125904Y0114327D01*
X0127872Y0114327D02*
X0127872Y0111030D01*
X0126642Y0109799D01*
X0129841Y0109553D02*
X0126642Y0106354D01*
X0126642Y0102910D02*
X0131809Y0108077D01*
X0131809Y0114327D01*
X0129841Y0114327D02*
X0129841Y0109553D01*
X0133778Y0106829D02*
X0126178Y0099230D01*
X0115378Y0099230D01*
X0113578Y0101030D01*
X0113578Y0110630D01*
X0105059Y0119150D01*
X0085353Y0119150D01*
X0084171Y0117969D01*
X0081809Y0117969D01*
X0077872Y0117969D02*
X0077872Y0117575D01*
X0074329Y0114032D01*
X0074329Y0112850D01*
X0073049Y0111571D01*
X0070490Y0111571D01*
X0087321Y0110488D02*
X0087321Y0109701D01*
X0087321Y0109587D01*
X0100078Y0096830D01*
X0127378Y0096830D01*
X0137715Y0107166D01*
X0137715Y0114327D01*
X0135746Y0114327D02*
X0135746Y0106998D01*
X0126778Y0098030D01*
X0100678Y0098030D01*
X0090864Y0107844D01*
X0090864Y0109701D01*
X0091652Y0109701D01*
X0094801Y0112850D01*
X0094801Y0116787D02*
X0089683Y0116787D01*
X0089683Y0112850D02*
X0087321Y0110488D01*
X0094801Y0116787D02*
X0104644Y0116787D01*
X0106711Y0114721D01*
X0106711Y0109701D01*
X0121078Y0118730D02*
X0121078Y0130430D01*
X0124034Y0124071D02*
X0129841Y0124071D01*
X0132793Y0121118D01*
X0133778Y0114327D02*
X0133778Y0106829D01*
X0124034Y0118165D02*
X0121643Y0118165D01*
X0121078Y0118730D01*
X0127678Y0138830D02*
X0127678Y0153230D01*
X0112678Y0168230D01*
X0057478Y0168230D01*
X0055978Y0169730D01*
X0055978Y0179630D01*
X0058097Y0181748D01*
X0064093Y0181748D01*
X0068817Y0181748D02*
X0068817Y0182535D01*
X0071179Y0184898D01*
X0073541Y0182535D02*
X0073541Y0181748D01*
X0073541Y0182535D02*
X0075904Y0184898D01*
X0078266Y0182535D02*
X0078266Y0181748D01*
X0078266Y0182535D02*
X0080628Y0184898D01*
X0082990Y0182535D02*
X0082990Y0181748D01*
X0082990Y0182535D02*
X0085353Y0184898D01*
X0087321Y0186866D02*
X0085353Y0188835D01*
X0080628Y0188835D01*
X0075904Y0188835D01*
X0071179Y0188835D01*
X0061824Y0188835D01*
X0055038Y0182048D01*
X0058187Y0178598D02*
X0064656Y0172130D01*
X0114178Y0172130D01*
X0122867Y0163441D01*
X0138797Y0163441D01*
X0138797Y0161473D02*
X0123036Y0161473D01*
X0113578Y0170930D01*
X0061919Y0170930D01*
X0058187Y0174661D01*
X0058187Y0170724D02*
X0059182Y0169730D01*
X0112978Y0169730D01*
X0128578Y0154130D01*
X0141478Y0154130D01*
X0142636Y0155287D01*
X0142636Y0157634D01*
X0148541Y0157634D02*
X0148541Y0155539D01*
X0143478Y0150476D01*
X0151478Y0150476D02*
X0156478Y0155476D01*
X0156478Y0159830D01*
X0154836Y0161473D01*
X0152380Y0161473D01*
X0152380Y0163441D02*
X0156467Y0163441D01*
X0159478Y0160430D01*
X0159478Y0150476D01*
X0159478Y0143784D02*
X0162932Y0140330D01*
X0168478Y0140330D01*
X0171778Y0137030D01*
X0171332Y0139430D02*
X0174178Y0139430D01*
X0176578Y0137030D01*
X0177778Y0140930D02*
X0177778Y0143630D01*
X0175078Y0146330D01*
X0175078Y0151130D01*
X0158830Y0167378D01*
X0152380Y0167378D01*
X0152380Y0165410D02*
X0158999Y0165410D01*
X0167478Y0156930D01*
X0167478Y0149976D01*
X0167478Y0143284D02*
X0171332Y0139430D01*
X0165778Y0137930D02*
X0154978Y0137930D01*
X0152578Y0140330D01*
X0148078Y0136730D02*
X0146878Y0137930D01*
X0165778Y0137930D02*
X0171478Y0132230D01*
X0177778Y0140930D02*
X0192178Y0126530D01*
X0200232Y0126530D01*
X0205632Y0121130D01*
X0204510Y0127130D02*
X0201478Y0130161D01*
X0201478Y0130630D01*
X0196478Y0130630D02*
X0194578Y0132530D01*
X0194578Y0134530D01*
X0183378Y0145730D01*
X0179278Y0145730D01*
X0177478Y0147530D01*
X0177478Y0152330D01*
X0168778Y0161030D01*
X0168778Y0202430D01*
X0162478Y0208730D01*
X0157378Y0208730D01*
X0153478Y0212630D01*
X0102178Y0212630D01*
X0090178Y0200630D01*
X0070478Y0200630D01*
X0044010Y0200630D01*
X0044010Y0203189D02*
X0065978Y0203189D01*
X0090938Y0203189D01*
X0101578Y0213830D01*
X0154078Y0213830D01*
X0157978Y0209930D01*
X0163078Y0209930D01*
X0169978Y0203030D01*
X0169978Y0161630D01*
X0176278Y0155330D01*
X0184078Y0155330D01*
X0187978Y0151430D01*
X0187978Y0144430D01*
X0189878Y0142530D01*
X0197278Y0142530D01*
X0201478Y0138330D01*
X0201478Y0135130D01*
X0202478Y0139130D02*
X0207478Y0139130D01*
X0211278Y0135330D01*
X0211278Y0135130D01*
X0213728Y0138580D02*
X0216478Y0135830D01*
X0213728Y0138580D02*
X0213728Y0148380D01*
X0215978Y0150630D01*
X0219478Y0147630D02*
X0221478Y0145630D01*
X0220578Y0143130D02*
X0218278Y0145430D01*
X0218278Y0156530D01*
X0213778Y0161030D01*
X0201478Y0161030D01*
X0196378Y0166130D01*
X0184678Y0166130D01*
X0177178Y0173630D01*
X0177178Y0206630D01*
X0166678Y0217130D01*
X0161778Y0217130D01*
X0154978Y0223930D01*
X0154978Y0224130D01*
X0157078Y0219830D02*
X0098578Y0219830D01*
X0093478Y0214730D01*
X0078378Y0214730D01*
X0062978Y0230130D01*
X0055978Y0230130D01*
X0050478Y0224630D01*
X0050478Y0222130D01*
X0055978Y0222130D02*
X0058478Y0224630D01*
X0062978Y0224630D01*
X0064228Y0223380D01*
X0064228Y0221480D01*
X0065878Y0219830D01*
X0069778Y0219830D01*
X0077278Y0212330D01*
X0094678Y0212330D01*
X0099778Y0217430D01*
X0155878Y0217430D01*
X0159778Y0213530D01*
X0164878Y0213530D01*
X0173578Y0204830D01*
X0173578Y0171830D01*
X0182878Y0162530D01*
X0194578Y0162530D01*
X0199678Y0157430D01*
X0201478Y0157430D01*
X0206478Y0152430D01*
X0206478Y0150630D01*
X0204228Y0148380D02*
X0204228Y0152880D01*
X0200878Y0156230D01*
X0199078Y0156230D01*
X0193978Y0161330D01*
X0182278Y0161330D01*
X0172378Y0171230D01*
X0172378Y0204230D01*
X0164278Y0212330D01*
X0159178Y0212330D01*
X0155278Y0216230D01*
X0100378Y0216230D01*
X0095278Y0211130D01*
X0076678Y0211130D01*
X0069178Y0218630D01*
X0064978Y0218630D01*
X0061478Y0222130D01*
X0066978Y0222130D02*
X0069278Y0222130D01*
X0077878Y0213530D01*
X0094078Y0213530D01*
X0099178Y0218630D01*
X0156478Y0218630D01*
X0160378Y0214730D01*
X0165478Y0214730D01*
X0174778Y0205430D01*
X0174778Y0172430D01*
X0183478Y0163730D01*
X0195178Y0163730D01*
X0200278Y0158630D01*
X0203478Y0158630D01*
X0206478Y0155630D01*
X0206578Y0159830D02*
X0200878Y0159830D01*
X0195778Y0164930D01*
X0184078Y0164930D01*
X0175978Y0173030D01*
X0175978Y0206030D01*
X0166078Y0215930D01*
X0160978Y0215930D01*
X0157078Y0219830D01*
X0159378Y0221330D02*
X0162378Y0218330D01*
X0167278Y0218330D01*
X0178378Y0207230D01*
X0178378Y0174230D01*
X0185278Y0167330D01*
X0196978Y0167330D01*
X0202078Y0162230D01*
X0214378Y0162230D01*
X0219478Y0157130D01*
X0219478Y0147630D01*
X0220678Y0149630D02*
X0225178Y0145130D01*
X0226478Y0145130D01*
X0228778Y0146230D02*
X0227478Y0147530D01*
X0224578Y0147530D01*
X0221878Y0150230D01*
X0221878Y0158330D01*
X0215578Y0164630D01*
X0203278Y0164630D01*
X0198178Y0169730D01*
X0186478Y0169730D01*
X0180778Y0175430D01*
X0180778Y0208330D01*
X0164978Y0224130D01*
X0160578Y0221930D02*
X0162778Y0219730D01*
X0167678Y0219730D01*
X0179578Y0207830D01*
X0179578Y0174830D01*
X0185878Y0168530D01*
X0197578Y0168530D01*
X0202678Y0163430D01*
X0214978Y0163430D01*
X0220678Y0157730D01*
X0220678Y0149630D01*
X0220578Y0143130D02*
X0223978Y0143130D01*
X0226478Y0140630D01*
X0233478Y0143130D02*
X0235978Y0140630D01*
X0235978Y0145630D02*
X0235978Y0147730D01*
X0231178Y0152530D01*
X0231178Y0158630D01*
X0234178Y0161630D01*
X0234178Y0167030D01*
X0232078Y0169130D01*
X0224878Y0169130D01*
X0223978Y0168230D01*
X0206578Y0168230D01*
X0199078Y0175730D01*
X0189778Y0175730D01*
X0190378Y0176930D02*
X0184378Y0182930D01*
X0184378Y0195530D01*
X0186778Y0197930D01*
X0189178Y0200330D01*
X0189178Y0207530D01*
X0193571Y0206994D02*
X0193571Y0201335D01*
X0193571Y0201123D01*
X0186778Y0194330D01*
X0191356Y0183864D02*
X0191356Y0181650D01*
X0190126Y0180419D01*
X0190378Y0176930D02*
X0199678Y0176930D01*
X0207178Y0169430D01*
X0223378Y0169430D01*
X0214378Y0174406D02*
X0213010Y0173037D01*
X0209565Y0173037D01*
X0214378Y0174406D02*
X0214378Y0175130D01*
X0211041Y0178467D01*
X0211041Y0179189D01*
X0211041Y0183741D01*
X0216393Y0189093D01*
X0206278Y0187430D02*
X0206278Y0180824D01*
X0205874Y0180419D01*
X0203660Y0177959D02*
X0201691Y0179927D01*
X0206278Y0187430D02*
X0205078Y0188630D01*
X0222606Y0179189D02*
X0224575Y0181158D01*
X0239878Y0179630D02*
X0244209Y0179630D01*
X0244209Y0177071D02*
X0240919Y0177071D01*
X0239878Y0176030D01*
X0211478Y0155630D02*
X0210778Y0155630D01*
X0206578Y0159830D01*
X0193978Y0150830D02*
X0185878Y0158930D01*
X0178078Y0158930D01*
X0175978Y0161030D01*
X0175978Y0164330D01*
X0173578Y0166730D02*
X0172378Y0165530D01*
X0172378Y0162830D01*
X0177478Y0157730D01*
X0185278Y0157730D01*
X0191478Y0151530D01*
X0191478Y0150130D01*
X0193978Y0150830D02*
X0193978Y0148630D01*
X0196478Y0146130D01*
X0197878Y0143730D02*
X0202478Y0139130D01*
X0197878Y0143730D02*
X0190478Y0143730D01*
X0189178Y0145030D01*
X0189178Y0152030D01*
X0184678Y0156530D01*
X0176878Y0156530D01*
X0171178Y0162230D01*
X0171178Y0203630D01*
X0163678Y0211130D01*
X0158578Y0211130D01*
X0154678Y0215030D01*
X0100978Y0215030D01*
X0090478Y0204530D01*
X0068578Y0204530D01*
X0065478Y0207630D01*
X0059478Y0207630D01*
X0074478Y0198071D02*
X0044010Y0198071D01*
X0068817Y0181748D02*
X0077235Y0173330D01*
X0114778Y0173330D01*
X0122699Y0165410D01*
X0138797Y0165410D01*
X0138797Y0167378D02*
X0122530Y0167378D01*
X0115378Y0174530D01*
X0099264Y0174530D01*
X0093620Y0180173D01*
X0091652Y0182142D01*
X0090077Y0182142D01*
X0093620Y0184110D02*
X0096376Y0186866D01*
X0098345Y0186866D01*
X0101101Y0184110D01*
X0099132Y0182142D02*
X0097164Y0182142D01*
X0099132Y0182142D02*
X0101101Y0180173D01*
X0105544Y0175730D01*
X0115978Y0175730D01*
X0122362Y0169347D01*
X0138797Y0169347D01*
X0142636Y0175154D02*
X0142636Y0177713D01*
X0143620Y0178697D01*
X0147557Y0178697D02*
X0148541Y0177713D01*
X0148541Y0175154D01*
X0156078Y0171830D02*
X0157232Y0172984D01*
X0157232Y0178130D01*
X0163925Y0178130D02*
X0163925Y0174076D01*
X0159195Y0169347D01*
X0152380Y0169347D01*
X0167578Y0160430D02*
X0167578Y0201830D01*
X0161878Y0207530D01*
X0156778Y0207530D01*
X0152878Y0211430D01*
X0102778Y0211430D01*
X0089419Y0198071D01*
X0074478Y0198071D01*
X0087321Y0186866D02*
X0090864Y0186866D01*
X0093620Y0184110D01*
X0131978Y0180161D02*
X0134228Y0177911D01*
X0136478Y0180161D01*
X0138447Y0182130D02*
X0136478Y0184098D01*
X0138447Y0182130D02*
X0139978Y0182130D01*
X0139478Y0186630D02*
X0139478Y0187377D01*
X0139919Y0187377D01*
X0139919Y0191330D01*
X0140519Y0191330D01*
X0140519Y0191930D01*
X0144078Y0191930D01*
X0144078Y0194754D01*
X0143989Y0195085D01*
X0143818Y0195381D01*
X0143576Y0195623D01*
X0143279Y0195794D01*
X0142949Y0195883D01*
X0140519Y0195883D01*
X0140519Y0191930D01*
X0139919Y0191930D01*
X0139919Y0195883D01*
X0139478Y0195883D01*
X0139478Y0196630D01*
X0158978Y0196630D01*
X0158978Y0186630D01*
X0152290Y0186630D01*
X0151690Y0187230D01*
X0149867Y0187230D01*
X0149544Y0186906D01*
X0147671Y0186906D01*
X0147671Y0187291D01*
X0147286Y0187291D01*
X0147286Y0189383D01*
X0145929Y0189383D01*
X0145599Y0189294D01*
X0145302Y0189123D01*
X0145060Y0188881D01*
X0144889Y0188585D01*
X0144801Y0188254D01*
X0144801Y0187291D01*
X0147286Y0187291D01*
X0147286Y0186906D01*
X0144801Y0186906D01*
X0144801Y0186630D01*
X0139478Y0186630D01*
X0139478Y0187031D02*
X0147286Y0187031D01*
X0147671Y0187031D02*
X0149668Y0187031D01*
X0150156Y0187291D02*
X0150156Y0188254D01*
X0150068Y0188585D01*
X0149897Y0188881D01*
X0149655Y0189123D01*
X0149358Y0189294D01*
X0149028Y0189383D01*
X0147671Y0189383D01*
X0147671Y0187291D01*
X0150156Y0187291D01*
X0150156Y0187630D02*
X0158978Y0187630D01*
X0158978Y0188228D02*
X0150156Y0188228D01*
X0149928Y0188827D02*
X0150888Y0188827D01*
X0150852Y0188863D02*
X0151094Y0188621D01*
X0151390Y0188450D01*
X0151721Y0188361D01*
X0154348Y0188361D01*
X0154348Y0191330D01*
X0154948Y0191330D01*
X0154948Y0191930D01*
X0158704Y0191930D01*
X0158704Y0193770D01*
X0158615Y0194100D01*
X0158444Y0194397D01*
X0158202Y0194639D01*
X0157905Y0194810D01*
X0157575Y0194898D01*
X0154948Y0194898D01*
X0154948Y0191930D01*
X0154348Y0191930D01*
X0154348Y0194898D01*
X0151721Y0194898D01*
X0151390Y0194810D01*
X0151094Y0194639D01*
X0150852Y0194397D01*
X0150680Y0194100D01*
X0150592Y0193770D01*
X0150592Y0191930D01*
X0154348Y0191930D01*
X0154348Y0191330D01*
X0150592Y0191330D01*
X0150592Y0189490D01*
X0150680Y0189160D01*
X0150852Y0188863D01*
X0150609Y0189425D02*
X0144078Y0189425D01*
X0144078Y0188827D02*
X0145029Y0188827D01*
X0144801Y0188228D02*
X0144003Y0188228D01*
X0143989Y0188175D02*
X0144078Y0188506D01*
X0144078Y0191330D01*
X0140519Y0191330D01*
X0140519Y0187377D01*
X0142949Y0187377D01*
X0143279Y0187466D01*
X0143576Y0187637D01*
X0143818Y0187879D01*
X0143989Y0188175D01*
X0143563Y0187630D02*
X0144801Y0187630D01*
X0147286Y0187630D02*
X0147671Y0187630D01*
X0147671Y0188228D02*
X0147286Y0188228D01*
X0147286Y0188827D02*
X0147671Y0188827D01*
X0150592Y0190024D02*
X0144078Y0190024D01*
X0144078Y0190622D02*
X0150592Y0190622D01*
X0150592Y0191221D02*
X0144078Y0191221D01*
X0144078Y0192418D02*
X0150592Y0192418D01*
X0150592Y0193016D02*
X0144078Y0193016D01*
X0144078Y0193615D02*
X0150592Y0193615D01*
X0150746Y0194213D02*
X0144078Y0194213D01*
X0144062Y0194812D02*
X0151397Y0194812D01*
X0154348Y0194812D02*
X0154948Y0194812D01*
X0154948Y0194213D02*
X0154348Y0194213D01*
X0154348Y0193615D02*
X0154948Y0193615D01*
X0154948Y0193016D02*
X0154348Y0193016D01*
X0154348Y0192418D02*
X0154948Y0192418D01*
X0154948Y0191819D02*
X0158978Y0191819D01*
X0158704Y0191330D02*
X0158704Y0189490D01*
X0158615Y0189160D01*
X0158444Y0188863D01*
X0158202Y0188621D01*
X0157905Y0188450D01*
X0157575Y0188361D01*
X0154948Y0188361D01*
X0154948Y0191330D01*
X0158704Y0191330D01*
X0158704Y0191221D02*
X0158978Y0191221D01*
X0158978Y0190622D02*
X0158704Y0190622D01*
X0158704Y0190024D02*
X0158978Y0190024D01*
X0158978Y0189425D02*
X0158686Y0189425D01*
X0158407Y0188827D02*
X0158978Y0188827D01*
X0158978Y0187031D02*
X0151889Y0187031D01*
X0150778Y0185030D02*
X0149347Y0185030D01*
X0147478Y0183161D01*
X0140519Y0187630D02*
X0139919Y0187630D01*
X0139919Y0188228D02*
X0140519Y0188228D01*
X0140519Y0188827D02*
X0139919Y0188827D01*
X0139919Y0189425D02*
X0140519Y0189425D01*
X0140519Y0190024D02*
X0139919Y0190024D01*
X0139919Y0190622D02*
X0140519Y0190622D01*
X0140519Y0191221D02*
X0139919Y0191221D01*
X0140519Y0191819D02*
X0154348Y0191819D01*
X0154348Y0191221D02*
X0154948Y0191221D01*
X0154948Y0190622D02*
X0154348Y0190622D01*
X0154348Y0190024D02*
X0154948Y0190024D01*
X0154948Y0189425D02*
X0154348Y0189425D01*
X0154348Y0188827D02*
X0154948Y0188827D01*
X0158704Y0192418D02*
X0158978Y0192418D01*
X0158978Y0193016D02*
X0158704Y0193016D01*
X0158704Y0193615D02*
X0158978Y0193615D01*
X0158978Y0194213D02*
X0158550Y0194213D01*
X0158978Y0194812D02*
X0157899Y0194812D01*
X0158978Y0195410D02*
X0143789Y0195410D01*
X0140519Y0195410D02*
X0139919Y0195410D01*
X0139919Y0194812D02*
X0140519Y0194812D01*
X0140519Y0194213D02*
X0139919Y0194213D01*
X0139919Y0193615D02*
X0140519Y0193615D01*
X0140519Y0193016D02*
X0139919Y0193016D01*
X0139919Y0192418D02*
X0140519Y0192418D01*
X0139478Y0196009D02*
X0158978Y0196009D01*
X0158978Y0196607D02*
X0139478Y0196607D01*
X0134228Y0177911D02*
X0134228Y0177130D01*
X0167578Y0160430D02*
X0176278Y0151730D01*
X0176278Y0146930D01*
X0178678Y0144530D01*
X0182778Y0144530D01*
X0193378Y0133930D01*
X0193378Y0132530D01*
X0191478Y0130630D01*
X0208447Y0127130D02*
X0211278Y0129961D01*
X0211278Y0130630D01*
X0212325Y0121130D02*
X0212325Y0116476D01*
X0211478Y0115630D01*
X0196478Y0116130D02*
X0194078Y0113730D01*
X0189078Y0113730D01*
X0186478Y0116330D01*
X0173425Y0112730D02*
X0162825Y0102130D01*
X0156132Y0102130D02*
X0150825Y0107437D01*
X0150825Y0108784D01*
X0150178Y0109430D01*
X0150828Y0097630D02*
X0157478Y0097630D01*
X0162478Y0092630D01*
X0162478Y0087630D01*
X0159978Y0086630D02*
X0159978Y0090130D01*
X0157478Y0092630D01*
X0150828Y0092630D01*
X0150828Y0087630D02*
X0156978Y0087630D01*
X0158978Y0085630D01*
X0158978Y0081130D01*
X0162478Y0077630D01*
X0161478Y0075130D02*
X0164978Y0075130D01*
X0161478Y0075130D02*
X0157478Y0079130D01*
X0157478Y0082130D01*
X0156978Y0082630D01*
X0150828Y0082630D01*
X0150828Y0077630D02*
X0156978Y0077630D01*
X0157478Y0077130D01*
X0157478Y0073130D01*
X0156978Y0072630D01*
X0157978Y0072630D01*
X0160478Y0070130D01*
X0164978Y0070130D01*
X0157978Y0072630D02*
X0157478Y0073130D01*
X0156978Y0072630D02*
X0150828Y0072630D01*
X0150828Y0067630D02*
X0157478Y0067630D01*
X0162478Y0062630D01*
X0161478Y0060130D02*
X0164978Y0060130D01*
X0165978Y0057630D02*
X0164978Y0056630D01*
X0164978Y0055130D01*
X0165978Y0057630D02*
X0172128Y0057630D01*
X0172128Y0052630D02*
X0165978Y0052630D01*
X0164978Y0051630D01*
X0164978Y0050130D01*
X0162478Y0052630D02*
X0150828Y0052630D01*
X0150828Y0057630D02*
X0162478Y0057630D01*
X0161478Y0060130D02*
X0158978Y0062630D01*
X0150828Y0062630D01*
X0172128Y0067630D02*
X0178478Y0067630D01*
X0178978Y0068130D01*
X0178978Y0072130D02*
X0178478Y0072630D01*
X0178978Y0073130D01*
X0178478Y0072630D02*
X0172128Y0072630D01*
X0164978Y0080130D02*
X0164978Y0081630D01*
X0165978Y0082630D01*
X0172128Y0082630D01*
X0164978Y0085130D02*
X0161478Y0085130D01*
X0159978Y0086630D01*
X0198978Y0061530D02*
X0199378Y0061130D01*
X0199378Y0054530D01*
X0091849Y0083126D02*
X0089093Y0083126D01*
X0088108Y0082142D01*
X0087124Y0088244D02*
X0084368Y0088244D01*
X0087124Y0088244D02*
X0088108Y0089228D01*
X0178378Y0161930D02*
X0180178Y0160130D01*
X0186478Y0160130D01*
X0196478Y0150130D01*
X0204228Y0148380D02*
X0206478Y0146130D01*
X0290734Y0152930D02*
X0290734Y0157454D01*
X0292210Y0158930D01*
X0295478Y0162198D01*
X0295478Y0165130D01*
X0296147Y0158930D02*
X0299878Y0158930D01*
X0300778Y0158030D01*
X0300778Y0156085D01*
X0297624Y0152930D01*
X0309408Y0160268D02*
X0312341Y0160268D01*
X0313896Y0158713D01*
X0313896Y0157535D01*
X0311927Y0141000D02*
X0313699Y0139228D01*
X0315077Y0139228D01*
X0319014Y0139228D02*
X0319014Y0136768D01*
X0321475Y0134307D01*
X0348719Y0146587D02*
X0348719Y0149571D01*
X0352978Y0153830D01*
X0352978Y0160130D01*
X0355378Y0162730D02*
X0352978Y0165130D01*
X0355378Y0162730D02*
X0355378Y0154430D01*
X0351475Y0150527D01*
X0351475Y0146587D01*
X0352978Y0179130D02*
X0356578Y0182730D01*
X0356578Y0194930D01*
X0354231Y0197277D01*
X0354231Y0203673D01*
X0351475Y0203673D02*
X0351475Y0198233D01*
X0355378Y0194330D01*
X0355378Y0185030D01*
X0352978Y0182630D01*
X0352978Y0186630D02*
X0354178Y0187830D01*
X0354178Y0193730D01*
X0348719Y0199189D01*
X0348719Y0203673D01*
X0356987Y0203673D02*
X0356987Y0200439D01*
X0356478Y0199930D01*
X0329978Y0216130D02*
X0329447Y0215598D01*
X0327478Y0215598D01*
X0329978Y0216130D02*
X0329978Y0226630D01*
X0327478Y0229130D01*
X0322478Y0215598D02*
X0317478Y0215598D01*
X0312478Y0215598D01*
X0307478Y0215598D01*
X0312478Y0211661D02*
X0312478Y0209930D01*
X0307978Y0205430D01*
X0301778Y0205430D01*
X0298978Y0202630D01*
X0298978Y0199130D02*
X0304078Y0204230D01*
X0308578Y0204230D01*
X0313978Y0209630D01*
X0315447Y0209630D01*
X0317478Y0211661D01*
X0319247Y0208430D02*
X0314578Y0208430D01*
X0309178Y0203030D01*
X0319247Y0208430D02*
X0322478Y0211661D01*
X0327478Y0211661D01*
X0355478Y0101630D02*
X0355478Y0096620D01*
X0164978Y0234130D02*
X0160578Y0229730D01*
X0160578Y0221930D01*
X0159378Y0221330D02*
X0159378Y0229730D01*
X0154978Y0234130D01*
D64*
X0163278Y0200930D03*
X0147478Y0191630D03*
X0099478Y0191630D03*
X0100978Y0205630D03*
X0076478Y0193630D03*
X0052978Y0207630D03*
X0179978Y0152630D03*
X0179978Y0148630D03*
X0175978Y0107630D03*
X0142567Y0094996D03*
X0241478Y0166630D03*
X0256478Y0165630D03*
X0263978Y0166630D03*
X0271478Y0165630D03*
X0276478Y0120630D03*
X0276478Y0110630D03*
X0289478Y0108130D03*
X0322478Y0088630D03*
X0337478Y0092880D03*
X0299478Y0073130D03*
X0333478Y0134130D03*
D65*
X0079250Y0030624D02*
X0042276Y0030624D01*
X0040203Y0031623D02*
X0077990Y0031623D01*
X0078138Y0031475D02*
X0077324Y0032289D01*
X0076606Y0033189D01*
X0075993Y0034164D01*
X0075494Y0035201D01*
X0075114Y0036288D01*
X0074857Y0037410D01*
X0074728Y0038554D01*
X0074728Y0038630D01*
X0084478Y0038630D01*
X0084478Y0039630D01*
X0074728Y0039630D01*
X0074728Y0039706D01*
X0074857Y0040850D01*
X0075114Y0041972D01*
X0075494Y0043059D01*
X0075993Y0044096D01*
X0076606Y0045071D01*
X0077324Y0045971D01*
X0078138Y0046785D01*
X0079038Y0047503D01*
X0080013Y0048115D01*
X0081050Y0048615D01*
X0082136Y0048995D01*
X0083259Y0049251D01*
X0084403Y0049380D01*
X0084478Y0049380D01*
X0084478Y0039630D01*
X0085478Y0039630D01*
X0085478Y0049380D01*
X0085554Y0049380D01*
X0086698Y0049251D01*
X0087821Y0048995D01*
X0088907Y0048615D01*
X0089944Y0048115D01*
X0090919Y0047503D01*
X0091819Y0046785D01*
X0092633Y0045971D01*
X0093351Y0045071D01*
X0093964Y0044096D01*
X0094463Y0043059D01*
X0094843Y0041972D01*
X0095100Y0040850D01*
X0095228Y0039706D01*
X0095228Y0039630D01*
X0085479Y0039630D01*
X0085479Y0038630D01*
X0095228Y0038630D01*
X0095228Y0038554D01*
X0095100Y0037410D01*
X0094843Y0036288D01*
X0094463Y0035201D01*
X0093964Y0034164D01*
X0093351Y0033189D01*
X0092633Y0032289D01*
X0091819Y0031475D01*
X0090919Y0030757D01*
X0089944Y0030145D01*
X0088907Y0029645D01*
X0087821Y0029265D01*
X0086698Y0029009D01*
X0085554Y0028880D01*
X0085478Y0028880D01*
X0085478Y0038630D01*
X0084478Y0038630D01*
X0084478Y0028880D01*
X0084403Y0028880D01*
X0083259Y0029009D01*
X0082136Y0029265D01*
X0081050Y0029645D01*
X0080013Y0030145D01*
X0079038Y0030757D01*
X0078138Y0031475D01*
X0077059Y0032621D02*
X0070970Y0032621D01*
X0069978Y0031630D02*
X0073478Y0035130D01*
X0073478Y0044130D01*
X0080978Y0051630D01*
X0088978Y0051630D01*
X0096478Y0044130D01*
X0096478Y0035130D01*
X0099978Y0031630D01*
X0100878Y0031630D01*
X0100878Y0030674D01*
X0101523Y0030030D01*
X0108434Y0030030D01*
X0109078Y0030674D01*
X0109078Y0031630D01*
X0111680Y0031630D01*
X0113280Y0030030D01*
X0116677Y0030030D01*
X0118277Y0031630D01*
X0121680Y0031630D01*
X0123280Y0030030D01*
X0126677Y0030030D01*
X0128277Y0031630D01*
X0131680Y0031630D01*
X0133280Y0030030D01*
X0136677Y0030030D01*
X0138277Y0031630D01*
X0141680Y0031630D01*
X0143280Y0030030D01*
X0146677Y0030030D01*
X0148277Y0031630D01*
X0151680Y0031630D01*
X0153280Y0030030D01*
X0156677Y0030030D01*
X0158277Y0031630D01*
X0161680Y0031630D01*
X0163280Y0030030D01*
X0166677Y0030030D01*
X0168277Y0031630D01*
X0171680Y0031630D01*
X0173280Y0030030D01*
X0176677Y0030030D01*
X0178277Y0031630D01*
X0181680Y0031630D01*
X0183280Y0030030D01*
X0186677Y0030030D01*
X0188277Y0031630D01*
X0191680Y0031630D01*
X0193280Y0030030D01*
X0196677Y0030030D01*
X0198277Y0031630D01*
X0201680Y0031630D01*
X0203280Y0030030D01*
X0206677Y0030030D01*
X0208277Y0031630D01*
X0211680Y0031630D01*
X0213280Y0030030D01*
X0216677Y0030030D01*
X0218277Y0031630D01*
X0221680Y0031630D01*
X0223280Y0030030D01*
X0226677Y0030030D01*
X0228277Y0031630D01*
X0231680Y0031630D01*
X0233280Y0030030D01*
X0236677Y0030030D01*
X0238277Y0031630D01*
X0241680Y0031630D01*
X0243280Y0030030D01*
X0246677Y0030030D01*
X0248277Y0031630D01*
X0251680Y0031630D01*
X0253280Y0030030D01*
X0256677Y0030030D01*
X0258277Y0031630D01*
X0261680Y0031630D01*
X0263280Y0030030D01*
X0266677Y0030030D01*
X0268277Y0031630D01*
X0271680Y0031630D01*
X0273280Y0030030D01*
X0276677Y0030030D01*
X0278277Y0031630D01*
X0281680Y0031630D01*
X0283280Y0030030D01*
X0286677Y0030030D01*
X0288277Y0031630D01*
X0291680Y0031630D01*
X0293280Y0030030D01*
X0296677Y0030030D01*
X0298277Y0031630D01*
X0301680Y0031630D01*
X0303280Y0030030D01*
X0306677Y0030030D01*
X0308277Y0031630D01*
X0311680Y0031630D01*
X0313280Y0030030D01*
X0316677Y0030030D01*
X0318277Y0031630D01*
X0321680Y0031630D01*
X0323280Y0030030D01*
X0326677Y0030030D01*
X0329078Y0032432D01*
X0329078Y0033230D01*
X0329978Y0034130D01*
X0329978Y0053630D01*
X0319978Y0063630D01*
X0319978Y0070130D01*
X0323978Y0074130D01*
X0343478Y0074130D01*
X0348478Y0069130D01*
X0354478Y0069130D01*
X0359978Y0074630D01*
X0359978Y0100630D01*
X0355478Y0105130D01*
X0343478Y0105130D01*
X0340978Y0107630D01*
X0340978Y0111630D01*
X0339678Y0112930D01*
X0339678Y0116050D01*
X0340618Y0116990D01*
X0343250Y0116990D01*
X0343250Y0112547D01*
X0347250Y0112547D01*
X0347250Y0111547D01*
X0343250Y0111547D01*
X0343250Y0107099D01*
X0343353Y0106718D01*
X0343550Y0106376D01*
X0343829Y0106097D01*
X0344172Y0105899D01*
X0344553Y0105797D01*
X0347251Y0105797D01*
X0347251Y0111547D01*
X0348250Y0111547D01*
X0348250Y0105797D01*
X0350948Y0105797D01*
X0351329Y0105899D01*
X0351672Y0106097D01*
X0351951Y0106376D01*
X0352148Y0106718D01*
X0352250Y0107099D01*
X0352250Y0111547D01*
X0348251Y0111547D01*
X0348251Y0112547D01*
X0352250Y0112547D01*
X0352250Y0116994D01*
X0352148Y0117376D01*
X0351951Y0117718D01*
X0351672Y0117997D01*
X0351329Y0118195D01*
X0350948Y0118297D01*
X0349984Y0118297D01*
X0350109Y0118422D01*
X0350109Y0119130D01*
X0352784Y0119130D01*
X0353119Y0118795D01*
X0354001Y0118430D01*
X0354956Y0118430D01*
X0355838Y0118795D01*
X0356173Y0119130D01*
X0360078Y0119130D01*
X0360673Y0119724D01*
X0360901Y0119630D01*
X0361856Y0119630D01*
X0362738Y0119995D01*
X0363413Y0120670D01*
X0363778Y0121553D01*
X0363778Y0122507D01*
X0363413Y0123389D01*
X0362973Y0123830D01*
X0363413Y0124270D01*
X0363778Y0125153D01*
X0363778Y0126107D01*
X0363413Y0126989D01*
X0362973Y0127430D01*
X0363413Y0127870D01*
X0363778Y0128753D01*
X0363778Y0129707D01*
X0363413Y0130589D01*
X0362738Y0131265D01*
X0361856Y0131630D01*
X0360901Y0131630D01*
X0360319Y0131389D01*
X0360078Y0131630D01*
X0356579Y0131630D01*
X0356513Y0131789D01*
X0355838Y0132465D01*
X0354956Y0132830D01*
X0354378Y0132830D01*
X0354378Y0133307D01*
X0354299Y0133500D01*
X0354878Y0134130D01*
X0355549Y0134130D01*
X0355692Y0134026D01*
X0356316Y0133708D01*
X0356983Y0133492D01*
X0357675Y0133382D01*
X0360978Y0133382D01*
X0360978Y0134130D01*
X0360979Y0134130D01*
X0360979Y0133382D01*
X0364282Y0133382D01*
X0364974Y0133492D01*
X0365641Y0133708D01*
X0365978Y0133880D01*
X0365978Y0117380D01*
X0365641Y0117552D01*
X0364974Y0117768D01*
X0364282Y0117878D01*
X0360979Y0117878D01*
X0360979Y0115675D01*
X0360978Y0115675D01*
X0360978Y0117878D01*
X0357675Y0117878D01*
X0356983Y0117768D01*
X0356316Y0117552D01*
X0355692Y0117234D01*
X0355125Y0116822D01*
X0354629Y0116326D01*
X0354217Y0115759D01*
X0353899Y0115135D01*
X0353683Y0114468D01*
X0353573Y0113776D01*
X0353573Y0113425D01*
X0353573Y0113075D01*
X0353683Y0112383D01*
X0353899Y0111716D01*
X0354217Y0111091D01*
X0354629Y0110524D01*
X0355125Y0110029D01*
X0355692Y0109617D01*
X0356316Y0109299D01*
X0356983Y0109082D01*
X0357675Y0108973D01*
X0360978Y0108972D01*
X0360978Y0111175D01*
X0360979Y0111175D01*
X0360979Y0108973D01*
X0364282Y0108973D01*
X0364974Y0109082D01*
X0365641Y0109299D01*
X0365978Y0109471D01*
X0365978Y0076630D01*
X0365829Y0072825D01*
X0364638Y0065308D01*
X0362287Y0058070D01*
X0358832Y0051289D01*
X0354358Y0045132D01*
X0348977Y0039750D01*
X0342820Y0035277D01*
X0336039Y0031822D01*
X0328801Y0029470D01*
X0321284Y0028279D01*
X0317478Y0028130D01*
X0052478Y0028130D01*
X0049847Y0028278D01*
X0044717Y0029449D01*
X0039976Y0031732D01*
X0035861Y0035013D01*
X0032580Y0039127D01*
X0030297Y0043868D01*
X0029126Y0048999D01*
X0028978Y0051630D01*
X0028978Y0134130D01*
X0034978Y0134130D01*
X0034978Y0071130D01*
X0037478Y0068630D01*
X0037478Y0068583D01*
X0036632Y0068583D01*
X0036632Y0064630D01*
X0035632Y0064630D01*
X0035632Y0063630D01*
X0032073Y0063630D01*
X0032073Y0060980D01*
X0032175Y0060598D01*
X0032373Y0060256D01*
X0032652Y0059977D01*
X0032994Y0059779D01*
X0033375Y0059677D01*
X0035632Y0059677D01*
X0035632Y0063630D01*
X0036632Y0063630D01*
X0036632Y0059677D01*
X0037478Y0059677D01*
X0037478Y0059630D01*
X0034978Y0057130D01*
X0034978Y0044130D01*
X0047478Y0031630D01*
X0069978Y0031630D01*
X0071968Y0033620D02*
X0076335Y0033620D01*
X0075775Y0034618D02*
X0072967Y0034618D01*
X0073478Y0035617D02*
X0075348Y0035617D01*
X0075039Y0036615D02*
X0073478Y0036615D01*
X0073478Y0037614D02*
X0074834Y0037614D01*
X0074728Y0038612D02*
X0073478Y0038612D01*
X0073478Y0039611D02*
X0084478Y0039611D01*
X0084478Y0040609D02*
X0085478Y0040609D01*
X0085479Y0039611D02*
X0096478Y0039611D01*
X0096478Y0040609D02*
X0095127Y0040609D01*
X0094927Y0041608D02*
X0096478Y0041608D01*
X0096478Y0042606D02*
X0094622Y0042606D01*
X0094200Y0043605D02*
X0096478Y0043605D01*
X0096005Y0044603D02*
X0093645Y0044603D01*
X0092928Y0045602D02*
X0095007Y0045602D01*
X0094008Y0046600D02*
X0092004Y0046600D01*
X0093010Y0047599D02*
X0090766Y0047599D01*
X0092011Y0048597D02*
X0088943Y0048597D01*
X0090014Y0050594D02*
X0079943Y0050594D01*
X0078944Y0049596D02*
X0091013Y0049596D01*
X0089016Y0051593D02*
X0080941Y0051593D01*
X0081014Y0048597D02*
X0077946Y0048597D01*
X0076947Y0047599D02*
X0079191Y0047599D01*
X0077953Y0046600D02*
X0075949Y0046600D01*
X0074950Y0045602D02*
X0077029Y0045602D01*
X0076312Y0044603D02*
X0073952Y0044603D01*
X0073478Y0043605D02*
X0075757Y0043605D01*
X0075335Y0042606D02*
X0073478Y0042606D01*
X0073478Y0041608D02*
X0075030Y0041608D01*
X0074830Y0040609D02*
X0073478Y0040609D01*
X0084478Y0041608D02*
X0085478Y0041608D01*
X0085478Y0042606D02*
X0084478Y0042606D01*
X0084478Y0043605D02*
X0085478Y0043605D01*
X0085478Y0044603D02*
X0084478Y0044603D01*
X0084478Y0045602D02*
X0085478Y0045602D01*
X0085478Y0046600D02*
X0084478Y0046600D01*
X0084478Y0047599D02*
X0085478Y0047599D01*
X0085478Y0048597D02*
X0084478Y0048597D01*
X0084478Y0038612D02*
X0085478Y0038612D01*
X0085478Y0037614D02*
X0084478Y0037614D01*
X0084478Y0036615D02*
X0085478Y0036615D01*
X0085478Y0035617D02*
X0084478Y0035617D01*
X0084478Y0034618D02*
X0085478Y0034618D01*
X0085478Y0033620D02*
X0084478Y0033620D01*
X0084478Y0032621D02*
X0085478Y0032621D01*
X0085478Y0031623D02*
X0084478Y0031623D01*
X0084478Y0030624D02*
X0085478Y0030624D01*
X0085478Y0029626D02*
X0084478Y0029626D01*
X0081106Y0029626D02*
X0044350Y0029626D01*
X0046487Y0032621D02*
X0038861Y0032621D01*
X0037609Y0033620D02*
X0045489Y0033620D01*
X0044490Y0034618D02*
X0036357Y0034618D01*
X0035380Y0035617D02*
X0043492Y0035617D01*
X0042493Y0036615D02*
X0034584Y0036615D01*
X0033788Y0037614D02*
X0041495Y0037614D01*
X0040496Y0038612D02*
X0032991Y0038612D01*
X0032348Y0039611D02*
X0039498Y0039611D01*
X0038499Y0040609D02*
X0031867Y0040609D01*
X0031386Y0041608D02*
X0037501Y0041608D01*
X0036502Y0042606D02*
X0030905Y0042606D01*
X0030424Y0043605D02*
X0035504Y0043605D01*
X0034978Y0044603D02*
X0030130Y0044603D01*
X0029902Y0045602D02*
X0034978Y0045602D01*
X0034978Y0046600D02*
X0029674Y0046600D01*
X0029446Y0047599D02*
X0034978Y0047599D01*
X0034978Y0048597D02*
X0029218Y0048597D01*
X0029093Y0049596D02*
X0034978Y0049596D01*
X0034978Y0050594D02*
X0029037Y0050594D01*
X0028981Y0051593D02*
X0034978Y0051593D01*
X0034978Y0052591D02*
X0028978Y0052591D01*
X0028978Y0053590D02*
X0034978Y0053590D01*
X0034978Y0054588D02*
X0028978Y0054588D01*
X0028978Y0055587D02*
X0034978Y0055587D01*
X0034978Y0056585D02*
X0028978Y0056585D01*
X0028978Y0057584D02*
X0035432Y0057584D01*
X0036431Y0058582D02*
X0028978Y0058582D01*
X0028978Y0059581D02*
X0037429Y0059581D01*
X0036632Y0060579D02*
X0035632Y0060579D01*
X0035632Y0061578D02*
X0036632Y0061578D01*
X0036632Y0062576D02*
X0035632Y0062576D01*
X0035632Y0063575D02*
X0036632Y0063575D01*
X0035632Y0064573D02*
X0028978Y0064573D01*
X0028978Y0063575D02*
X0032073Y0063575D01*
X0032073Y0062576D02*
X0028978Y0062576D01*
X0028978Y0061578D02*
X0032073Y0061578D01*
X0032186Y0060579D02*
X0028978Y0060579D01*
X0032073Y0064630D02*
X0035632Y0064630D01*
X0035632Y0068583D01*
X0033375Y0068583D01*
X0032994Y0068480D01*
X0032652Y0068283D01*
X0032373Y0068004D01*
X0032175Y0067662D01*
X0032073Y0067280D01*
X0032073Y0064630D01*
X0032073Y0065572D02*
X0028978Y0065572D01*
X0028978Y0066570D02*
X0032073Y0066570D01*
X0032150Y0067569D02*
X0028978Y0067569D01*
X0028978Y0068567D02*
X0033319Y0068567D01*
X0035632Y0068567D02*
X0036632Y0068567D01*
X0036632Y0067569D02*
X0035632Y0067569D01*
X0035632Y0066570D02*
X0036632Y0066570D01*
X0036632Y0065572D02*
X0035632Y0065572D01*
X0036543Y0069566D02*
X0028978Y0069566D01*
X0028978Y0070564D02*
X0035544Y0070564D01*
X0034978Y0071563D02*
X0028978Y0071563D01*
X0028978Y0072562D02*
X0034978Y0072562D01*
X0034978Y0073560D02*
X0028978Y0073560D01*
X0028978Y0074559D02*
X0034978Y0074559D01*
X0034978Y0075557D02*
X0028978Y0075557D01*
X0028978Y0076556D02*
X0034978Y0076556D01*
X0034978Y0077554D02*
X0028978Y0077554D01*
X0028978Y0078553D02*
X0034978Y0078553D01*
X0034978Y0079551D02*
X0028978Y0079551D01*
X0028978Y0080550D02*
X0034978Y0080550D01*
X0034978Y0081548D02*
X0028978Y0081548D01*
X0028978Y0082547D02*
X0034978Y0082547D01*
X0034978Y0083545D02*
X0028978Y0083545D01*
X0028978Y0084544D02*
X0034978Y0084544D01*
X0034978Y0085542D02*
X0028978Y0085542D01*
X0028978Y0086541D02*
X0034978Y0086541D01*
X0034978Y0087539D02*
X0028978Y0087539D01*
X0028978Y0088538D02*
X0034978Y0088538D01*
X0034978Y0089536D02*
X0028978Y0089536D01*
X0028978Y0090535D02*
X0034978Y0090535D01*
X0034978Y0091533D02*
X0028978Y0091533D01*
X0028978Y0092532D02*
X0034978Y0092532D01*
X0034978Y0093530D02*
X0028978Y0093530D01*
X0028978Y0094529D02*
X0034978Y0094529D01*
X0034978Y0095527D02*
X0028978Y0095527D01*
X0028978Y0096526D02*
X0034978Y0096526D01*
X0034978Y0097524D02*
X0028978Y0097524D01*
X0028978Y0098523D02*
X0034978Y0098523D01*
X0034978Y0099521D02*
X0028978Y0099521D01*
X0028978Y0100520D02*
X0034978Y0100520D01*
X0034978Y0101518D02*
X0028978Y0101518D01*
X0028978Y0102517D02*
X0034978Y0102517D01*
X0034978Y0103515D02*
X0028978Y0103515D01*
X0028978Y0104514D02*
X0034978Y0104514D01*
X0034978Y0105512D02*
X0028978Y0105512D01*
X0028978Y0106511D02*
X0034978Y0106511D01*
X0034978Y0107509D02*
X0028978Y0107509D01*
X0028978Y0108508D02*
X0034978Y0108508D01*
X0034978Y0109506D02*
X0028978Y0109506D01*
X0028978Y0110505D02*
X0034978Y0110505D01*
X0034978Y0111503D02*
X0028978Y0111503D01*
X0028978Y0112502D02*
X0034978Y0112502D01*
X0034978Y0113500D02*
X0028978Y0113500D01*
X0028978Y0114499D02*
X0034978Y0114499D01*
X0034978Y0115497D02*
X0028978Y0115497D01*
X0028978Y0116496D02*
X0034978Y0116496D01*
X0034978Y0117495D02*
X0028978Y0117495D01*
X0028978Y0118493D02*
X0034978Y0118493D01*
X0034978Y0119492D02*
X0028978Y0119492D01*
X0028978Y0120490D02*
X0034978Y0120490D01*
X0034978Y0121489D02*
X0028978Y0121489D01*
X0028978Y0122487D02*
X0034978Y0122487D01*
X0034978Y0123486D02*
X0028978Y0123486D01*
X0028978Y0124484D02*
X0034978Y0124484D01*
X0034978Y0125483D02*
X0028978Y0125483D01*
X0028978Y0126481D02*
X0034978Y0126481D01*
X0034978Y0127480D02*
X0028978Y0127480D01*
X0028978Y0128478D02*
X0034978Y0128478D01*
X0034978Y0129477D02*
X0028978Y0129477D01*
X0028978Y0130475D02*
X0034978Y0130475D01*
X0034978Y0131474D02*
X0028978Y0131474D01*
X0028978Y0132472D02*
X0034978Y0132472D01*
X0034978Y0133471D02*
X0028978Y0133471D01*
X0028978Y0134130D02*
X0028978Y0180833D01*
X0029159Y0180728D01*
X0029541Y0180626D01*
X0032979Y0180626D01*
X0032979Y0185169D01*
X0033978Y0185169D01*
X0033978Y0180626D01*
X0037416Y0180626D01*
X0037798Y0180728D01*
X0038140Y0180926D01*
X0038419Y0181205D01*
X0038616Y0181547D01*
X0038719Y0181929D01*
X0038719Y0185169D01*
X0033979Y0185169D01*
X0033979Y0186169D01*
X0038719Y0186169D01*
X0038719Y0189410D01*
X0038616Y0189792D01*
X0038419Y0190134D01*
X0038140Y0190413D01*
X0037798Y0190610D01*
X0037504Y0190689D01*
X0037798Y0190768D01*
X0038140Y0190965D01*
X0038419Y0191244D01*
X0038616Y0191586D01*
X0038719Y0191968D01*
X0038719Y0195406D01*
X0033979Y0195406D01*
X0033979Y0196406D01*
X0038719Y0196406D01*
X0038719Y0199843D01*
X0038616Y0200225D01*
X0038419Y0200567D01*
X0038356Y0200630D01*
X0038419Y0200693D01*
X0038616Y0201035D01*
X0038719Y0201417D01*
X0038719Y0204854D01*
X0033979Y0204854D01*
X0033979Y0205854D01*
X0038719Y0205854D01*
X0038719Y0209292D01*
X0038616Y0209674D01*
X0038419Y0210016D01*
X0038140Y0210295D01*
X0037798Y0210492D01*
X0037504Y0210571D01*
X0037798Y0210650D01*
X0038140Y0210847D01*
X0038419Y0211126D01*
X0038616Y0211468D01*
X0038719Y0211850D01*
X0038719Y0215091D01*
X0033979Y0215091D01*
X0033979Y0216091D01*
X0038719Y0216091D01*
X0038719Y0219331D01*
X0038616Y0219713D01*
X0038419Y0220055D01*
X0038140Y0220334D01*
X0037798Y0220532D01*
X0037416Y0220634D01*
X0033978Y0220634D01*
X0033978Y0216091D01*
X0032979Y0216091D01*
X0032979Y0220634D01*
X0029541Y0220634D01*
X0029433Y0220605D01*
X0030297Y0224392D01*
X0032580Y0229133D01*
X0035861Y0233247D01*
X0039976Y0236528D01*
X0044717Y0238811D01*
X0049847Y0239982D01*
X0052478Y0240130D01*
X0317478Y0240130D01*
X0321284Y0239980D01*
X0328801Y0238790D01*
X0336039Y0236438D01*
X0342820Y0232983D01*
X0348977Y0228510D01*
X0354358Y0223128D01*
X0358832Y0216971D01*
X0362287Y0210190D01*
X0363293Y0207093D01*
X0362467Y0207093D01*
X0362467Y0203927D01*
X0361468Y0203927D01*
X0361468Y0207093D01*
X0358817Y0207093D01*
X0358436Y0206990D01*
X0358094Y0206793D01*
X0357846Y0206545D01*
X0355646Y0206545D01*
X0355609Y0206508D01*
X0355573Y0206545D01*
X0352890Y0206545D01*
X0352853Y0206508D01*
X0352817Y0206545D01*
X0350134Y0206545D01*
X0350097Y0206508D01*
X0350061Y0206545D01*
X0347378Y0206545D01*
X0346734Y0205901D01*
X0346734Y0204630D01*
X0330478Y0204630D01*
X0332478Y0206630D01*
X0332478Y0229130D01*
X0329078Y0232530D01*
X0329078Y0235828D01*
X0326677Y0238230D01*
X0323280Y0238230D01*
X0321680Y0236630D01*
X0318277Y0236630D01*
X0316677Y0238230D01*
X0313280Y0238230D01*
X0311680Y0236630D01*
X0308277Y0236630D01*
X0306677Y0238230D01*
X0303280Y0238230D01*
X0301680Y0236630D01*
X0298277Y0236630D01*
X0296677Y0238230D01*
X0293280Y0238230D01*
X0291680Y0236630D01*
X0288277Y0236630D01*
X0286677Y0238230D01*
X0283280Y0238230D01*
X0281680Y0236630D01*
X0278277Y0236630D01*
X0276677Y0238230D01*
X0273280Y0238230D01*
X0271680Y0236630D01*
X0268277Y0236630D01*
X0266677Y0238230D01*
X0263280Y0238230D01*
X0261680Y0236630D01*
X0258277Y0236630D01*
X0256677Y0238230D01*
X0253280Y0238230D01*
X0251680Y0236630D01*
X0248277Y0236630D01*
X0246677Y0238230D01*
X0243280Y0238230D01*
X0241680Y0236630D01*
X0238277Y0236630D01*
X0236677Y0238230D01*
X0233280Y0238230D01*
X0231680Y0236630D01*
X0228277Y0236630D01*
X0226677Y0238230D01*
X0223280Y0238230D01*
X0221680Y0236630D01*
X0218277Y0236630D01*
X0216677Y0238230D01*
X0213280Y0238230D01*
X0211680Y0236630D01*
X0208277Y0236630D01*
X0206677Y0238230D01*
X0203280Y0238230D01*
X0201680Y0236630D01*
X0198277Y0236630D01*
X0196677Y0238230D01*
X0193280Y0238230D01*
X0191680Y0236630D01*
X0188277Y0236630D01*
X0186677Y0238230D01*
X0183280Y0238230D01*
X0181680Y0236630D01*
X0178277Y0236630D01*
X0176677Y0238230D01*
X0173280Y0238230D01*
X0171680Y0236630D01*
X0168277Y0236630D01*
X0166677Y0238230D01*
X0163280Y0238230D01*
X0161680Y0236630D01*
X0158277Y0236630D01*
X0156677Y0238230D01*
X0153280Y0238230D01*
X0151680Y0236630D01*
X0148277Y0236630D01*
X0146677Y0238230D01*
X0143280Y0238230D01*
X0141680Y0236630D01*
X0138277Y0236630D01*
X0136677Y0238230D01*
X0133280Y0238230D01*
X0131680Y0236630D01*
X0128277Y0236630D01*
X0126677Y0238230D01*
X0123280Y0238230D01*
X0121680Y0236630D01*
X0118277Y0236630D01*
X0116677Y0238230D01*
X0113280Y0238230D01*
X0111680Y0236630D01*
X0108277Y0236630D01*
X0106677Y0238230D01*
X0103280Y0238230D01*
X0100878Y0235828D01*
X0100878Y0235030D01*
X0097478Y0231630D01*
X0097478Y0221630D01*
X0092478Y0216630D01*
X0079978Y0216630D01*
X0072478Y0224130D01*
X0072478Y0231630D01*
X0067478Y0236630D01*
X0049978Y0236630D01*
X0040978Y0227630D01*
X0040978Y0222630D01*
X0045140Y0218469D01*
X0044018Y0218469D01*
X0044018Y0213335D01*
X0043018Y0213335D01*
X0043018Y0218469D01*
X0040171Y0218469D01*
X0039789Y0218366D01*
X0039447Y0218169D01*
X0039168Y0217890D01*
X0038970Y0217548D01*
X0038868Y0217166D01*
X0038868Y0213335D01*
X0043018Y0213335D01*
X0043018Y0212335D01*
X0038868Y0212335D01*
X0038868Y0208503D01*
X0038970Y0208122D01*
X0039168Y0207780D01*
X0039447Y0207501D01*
X0039478Y0207483D01*
X0039478Y0193777D01*
X0039447Y0193759D01*
X0039168Y0193480D01*
X0038970Y0193138D01*
X0038868Y0192757D01*
X0038868Y0188925D01*
X0043018Y0188925D01*
X0043018Y0187925D01*
X0044018Y0187925D01*
X0044018Y0182791D01*
X0045140Y0182791D01*
X0034978Y0172630D01*
X0034978Y0134130D01*
X0028978Y0134130D01*
X0028978Y0134469D02*
X0034978Y0134469D01*
X0034978Y0135468D02*
X0028978Y0135468D01*
X0028978Y0136466D02*
X0034978Y0136466D01*
X0034978Y0137465D02*
X0028978Y0137465D01*
X0028978Y0138463D02*
X0034978Y0138463D01*
X0034978Y0139462D02*
X0028978Y0139462D01*
X0028978Y0140460D02*
X0034978Y0140460D01*
X0034978Y0141459D02*
X0028978Y0141459D01*
X0028978Y0142457D02*
X0034978Y0142457D01*
X0034978Y0143456D02*
X0028978Y0143456D01*
X0028978Y0144454D02*
X0034978Y0144454D01*
X0034978Y0145453D02*
X0028978Y0145453D01*
X0028978Y0146451D02*
X0034978Y0146451D01*
X0034978Y0147450D02*
X0028978Y0147450D01*
X0028978Y0148448D02*
X0034978Y0148448D01*
X0034978Y0149447D02*
X0028978Y0149447D01*
X0028978Y0150445D02*
X0034978Y0150445D01*
X0034978Y0151444D02*
X0028978Y0151444D01*
X0028978Y0152442D02*
X0034978Y0152442D01*
X0034978Y0153441D02*
X0028978Y0153441D01*
X0028978Y0154439D02*
X0034978Y0154439D01*
X0034978Y0155438D02*
X0028978Y0155438D01*
X0028978Y0156436D02*
X0034978Y0156436D01*
X0034978Y0157435D02*
X0028978Y0157435D01*
X0028978Y0158433D02*
X0034978Y0158433D01*
X0034978Y0159432D02*
X0028978Y0159432D01*
X0028978Y0160430D02*
X0034978Y0160430D01*
X0034978Y0161429D02*
X0028978Y0161429D01*
X0028978Y0162428D02*
X0034978Y0162428D01*
X0034978Y0163426D02*
X0028978Y0163426D01*
X0028978Y0164425D02*
X0034978Y0164425D01*
X0034978Y0165423D02*
X0028978Y0165423D01*
X0028978Y0166422D02*
X0034978Y0166422D01*
X0034978Y0167420D02*
X0028978Y0167420D01*
X0028978Y0168419D02*
X0034978Y0168419D01*
X0034978Y0169417D02*
X0028978Y0169417D01*
X0028978Y0170416D02*
X0034978Y0170416D01*
X0034978Y0171414D02*
X0028978Y0171414D01*
X0028978Y0172413D02*
X0034978Y0172413D01*
X0035760Y0173411D02*
X0028978Y0173411D01*
X0028978Y0174410D02*
X0036758Y0174410D01*
X0037757Y0175408D02*
X0028978Y0175408D01*
X0028978Y0176407D02*
X0038755Y0176407D01*
X0039754Y0177405D02*
X0028978Y0177405D01*
X0028978Y0178404D02*
X0040752Y0178404D01*
X0041751Y0179402D02*
X0028978Y0179402D01*
X0028978Y0180401D02*
X0042749Y0180401D01*
X0043748Y0181399D02*
X0038531Y0181399D01*
X0038719Y0182398D02*
X0044746Y0182398D01*
X0044018Y0183396D02*
X0043018Y0183396D01*
X0043018Y0182791D02*
X0043018Y0187925D01*
X0038868Y0187925D01*
X0038868Y0184094D01*
X0038970Y0183712D01*
X0039168Y0183370D01*
X0039447Y0183091D01*
X0039789Y0182894D01*
X0040171Y0182791D01*
X0043018Y0182791D01*
X0043018Y0184395D02*
X0044018Y0184395D01*
X0044018Y0185393D02*
X0043018Y0185393D01*
X0043018Y0186392D02*
X0044018Y0186392D01*
X0044018Y0187390D02*
X0043018Y0187390D01*
X0043018Y0188389D02*
X0038719Y0188389D01*
X0038719Y0189387D02*
X0038868Y0189387D01*
X0038868Y0190386D02*
X0038167Y0190386D01*
X0038500Y0191384D02*
X0038868Y0191384D01*
X0038868Y0192383D02*
X0038719Y0192383D01*
X0038719Y0193381D02*
X0039111Y0193381D01*
X0039478Y0194380D02*
X0038719Y0194380D01*
X0038719Y0195378D02*
X0039478Y0195378D01*
X0039478Y0196377D02*
X0033979Y0196377D01*
X0033978Y0196406D02*
X0032979Y0196406D01*
X0032979Y0204854D01*
X0033978Y0204854D01*
X0033978Y0200114D01*
X0033978Y0196406D01*
X0033978Y0197375D02*
X0032979Y0197375D01*
X0032979Y0198374D02*
X0033978Y0198374D01*
X0033978Y0199372D02*
X0032979Y0199372D01*
X0032979Y0200371D02*
X0033978Y0200371D01*
X0033978Y0201369D02*
X0032979Y0201369D01*
X0032979Y0202368D02*
X0033978Y0202368D01*
X0033978Y0203366D02*
X0032979Y0203366D01*
X0032979Y0204365D02*
X0033978Y0204365D01*
X0033979Y0205364D02*
X0039478Y0205364D01*
X0039478Y0206362D02*
X0038719Y0206362D01*
X0038719Y0207361D02*
X0039478Y0207361D01*
X0038907Y0208359D02*
X0038719Y0208359D01*
X0038701Y0209358D02*
X0038868Y0209358D01*
X0038868Y0210356D02*
X0038034Y0210356D01*
X0038551Y0211355D02*
X0038868Y0211355D01*
X0038719Y0212353D02*
X0043018Y0212353D01*
X0043018Y0213352D02*
X0044018Y0213352D01*
X0044018Y0214350D02*
X0043018Y0214350D01*
X0043018Y0215349D02*
X0044018Y0215349D01*
X0044018Y0216347D02*
X0043018Y0216347D01*
X0043018Y0217346D02*
X0044018Y0217346D01*
X0044018Y0218344D02*
X0043018Y0218344D01*
X0044266Y0219343D02*
X0038716Y0219343D01*
X0038719Y0218344D02*
X0039751Y0218344D01*
X0038916Y0217346D02*
X0038719Y0217346D01*
X0038719Y0216347D02*
X0038868Y0216347D01*
X0038868Y0215349D02*
X0033979Y0215349D01*
X0033978Y0215091D02*
X0033978Y0210547D01*
X0033978Y0205854D01*
X0032979Y0205854D01*
X0032979Y0215091D01*
X0033978Y0215091D01*
X0033978Y0214350D02*
X0032979Y0214350D01*
X0032979Y0213352D02*
X0033978Y0213352D01*
X0033978Y0212353D02*
X0032979Y0212353D01*
X0032979Y0211355D02*
X0033978Y0211355D01*
X0033978Y0210356D02*
X0032979Y0210356D01*
X0032979Y0209358D02*
X0033978Y0209358D01*
X0033978Y0208359D02*
X0032979Y0208359D01*
X0032979Y0207361D02*
X0033978Y0207361D01*
X0033978Y0206362D02*
X0032979Y0206362D01*
X0038719Y0204365D02*
X0039478Y0204365D01*
X0039478Y0203366D02*
X0038719Y0203366D01*
X0038719Y0202368D02*
X0039478Y0202368D01*
X0039478Y0201369D02*
X0038706Y0201369D01*
X0038532Y0200371D02*
X0039478Y0200371D01*
X0039478Y0199372D02*
X0038719Y0199372D01*
X0038719Y0198374D02*
X0039478Y0198374D01*
X0039478Y0197375D02*
X0038719Y0197375D01*
X0033978Y0195406D02*
X0033978Y0190665D01*
X0033978Y0186169D01*
X0032979Y0186169D01*
X0032979Y0195406D01*
X0033978Y0195406D01*
X0033978Y0195378D02*
X0032979Y0195378D01*
X0032979Y0194380D02*
X0033978Y0194380D01*
X0033978Y0193381D02*
X0032979Y0193381D01*
X0032979Y0192383D02*
X0033978Y0192383D01*
X0033978Y0191384D02*
X0032979Y0191384D01*
X0032979Y0190386D02*
X0033978Y0190386D01*
X0033978Y0189387D02*
X0032979Y0189387D01*
X0032979Y0188389D02*
X0033978Y0188389D01*
X0033978Y0187390D02*
X0032979Y0187390D01*
X0032979Y0186392D02*
X0033978Y0186392D01*
X0033979Y0185393D02*
X0038868Y0185393D01*
X0038868Y0184395D02*
X0038719Y0184395D01*
X0038719Y0183396D02*
X0039153Y0183396D01*
X0038868Y0186392D02*
X0038719Y0186392D01*
X0038719Y0187390D02*
X0038868Y0187390D01*
X0033978Y0184395D02*
X0032979Y0184395D01*
X0032979Y0183396D02*
X0033978Y0183396D01*
X0033978Y0182398D02*
X0032979Y0182398D01*
X0032979Y0181399D02*
X0033978Y0181399D01*
X0048128Y0194380D02*
X0050278Y0192230D01*
X0074878Y0192230D01*
X0075478Y0191630D01*
X0077278Y0191630D01*
X0078478Y0192830D01*
X0078478Y0194630D01*
X0077278Y0195830D01*
X0075778Y0195830D01*
X0074878Y0194930D01*
X0051778Y0194930D01*
X0050878Y0195830D01*
X0048167Y0195830D01*
X0048167Y0195512D01*
X0044010Y0195512D01*
X0044010Y0195512D01*
X0048167Y0195512D01*
X0048167Y0194527D01*
X0048128Y0194380D01*
X0048129Y0194380D02*
X0078478Y0194380D01*
X0078478Y0193381D02*
X0049127Y0193381D01*
X0050126Y0192383D02*
X0078031Y0192383D01*
X0077730Y0195378D02*
X0075327Y0195378D01*
X0054478Y0206330D02*
X0053878Y0205730D01*
X0048167Y0205730D01*
X0048167Y0205748D01*
X0044010Y0205748D01*
X0044010Y0205748D01*
X0048167Y0205748D01*
X0048167Y0206733D01*
X0048065Y0207114D01*
X0047868Y0207457D01*
X0047836Y0207488D01*
X0050578Y0210230D01*
X0053878Y0210230D01*
X0054478Y0209630D01*
X0054478Y0206330D01*
X0054478Y0206362D02*
X0048167Y0206362D01*
X0047923Y0207361D02*
X0054478Y0207361D01*
X0054478Y0208359D02*
X0048708Y0208359D01*
X0049706Y0209358D02*
X0054478Y0209358D01*
X0043267Y0220341D02*
X0038128Y0220341D01*
X0041270Y0222338D02*
X0029829Y0222338D01*
X0029601Y0221340D02*
X0042269Y0221340D01*
X0040978Y0223337D02*
X0030056Y0223337D01*
X0030284Y0224335D02*
X0040978Y0224335D01*
X0040978Y0225334D02*
X0030751Y0225334D01*
X0031232Y0226332D02*
X0040978Y0226332D01*
X0040978Y0227331D02*
X0031713Y0227331D01*
X0032194Y0228329D02*
X0041678Y0228329D01*
X0042676Y0229328D02*
X0032736Y0229328D01*
X0033532Y0230326D02*
X0043675Y0230326D01*
X0044673Y0231325D02*
X0034329Y0231325D01*
X0035125Y0232323D02*
X0045672Y0232323D01*
X0046670Y0233322D02*
X0035955Y0233322D01*
X0037207Y0234320D02*
X0047669Y0234320D01*
X0048667Y0235319D02*
X0038459Y0235319D01*
X0039712Y0236317D02*
X0049666Y0236317D01*
X0046915Y0239313D02*
X0083808Y0239313D01*
X0083259Y0239251D02*
X0082136Y0238995D01*
X0081050Y0238615D01*
X0080013Y0238115D01*
X0079038Y0237503D01*
X0078138Y0236785D01*
X0077324Y0235971D01*
X0076606Y0235071D01*
X0075993Y0234096D01*
X0075494Y0233059D01*
X0075114Y0231972D01*
X0074857Y0230850D01*
X0074728Y0229706D01*
X0074728Y0229630D01*
X0084478Y0229630D01*
X0084478Y0228630D01*
X0074728Y0228630D01*
X0074728Y0228554D01*
X0074857Y0227410D01*
X0075114Y0226288D01*
X0075494Y0225201D01*
X0075993Y0224164D01*
X0076606Y0223189D01*
X0077324Y0222289D01*
X0078138Y0221475D01*
X0079038Y0220757D01*
X0080013Y0220145D01*
X0081050Y0219645D01*
X0082136Y0219265D01*
X0083259Y0219009D01*
X0084403Y0218880D01*
X0084478Y0218880D01*
X0084478Y0228630D01*
X0085478Y0228630D01*
X0085478Y0218880D01*
X0085554Y0218880D01*
X0086698Y0219009D01*
X0087821Y0219265D01*
X0088907Y0219645D01*
X0089944Y0220145D01*
X0090919Y0220757D01*
X0091819Y0221475D01*
X0092633Y0222289D01*
X0093351Y0223189D01*
X0093964Y0224164D01*
X0094463Y0225201D01*
X0094843Y0226288D01*
X0095100Y0227410D01*
X0095228Y0228554D01*
X0095228Y0228630D01*
X0085479Y0228630D01*
X0085479Y0229630D01*
X0095228Y0229630D01*
X0095228Y0229706D01*
X0095100Y0230850D01*
X0094843Y0231972D01*
X0094463Y0233059D01*
X0093964Y0234096D01*
X0093351Y0235071D01*
X0092633Y0235971D01*
X0091819Y0236785D01*
X0090919Y0237503D01*
X0089944Y0238115D01*
X0088907Y0238615D01*
X0087821Y0238995D01*
X0086698Y0239251D01*
X0085554Y0239380D01*
X0085478Y0239380D01*
X0085478Y0229630D01*
X0084478Y0229630D01*
X0084478Y0239380D01*
X0084403Y0239380D01*
X0083259Y0239251D01*
X0084478Y0239313D02*
X0085478Y0239313D01*
X0086149Y0239313D02*
X0325499Y0239313D01*
X0327591Y0237316D02*
X0333337Y0237316D01*
X0336276Y0236317D02*
X0328589Y0236317D01*
X0329078Y0235319D02*
X0338235Y0235319D01*
X0340195Y0234320D02*
X0329078Y0234320D01*
X0329078Y0233322D02*
X0342155Y0233322D01*
X0343728Y0232323D02*
X0329285Y0232323D01*
X0330284Y0231325D02*
X0345102Y0231325D01*
X0346476Y0230326D02*
X0331282Y0230326D01*
X0332281Y0229328D02*
X0347851Y0229328D01*
X0349157Y0228329D02*
X0332478Y0228329D01*
X0332478Y0227331D02*
X0350156Y0227331D01*
X0351154Y0226332D02*
X0348285Y0226332D01*
X0347821Y0226495D02*
X0346698Y0226751D01*
X0345554Y0226880D01*
X0345478Y0226880D01*
X0345478Y0217130D01*
X0344478Y0217130D01*
X0344478Y0216130D01*
X0334728Y0216130D01*
X0334728Y0216054D01*
X0334857Y0214910D01*
X0335114Y0213788D01*
X0335494Y0212701D01*
X0335993Y0211664D01*
X0336606Y0210689D01*
X0337324Y0209789D01*
X0338138Y0208975D01*
X0339038Y0208257D01*
X0340013Y0207645D01*
X0341050Y0207145D01*
X0342136Y0206765D01*
X0343259Y0206509D01*
X0344403Y0206380D01*
X0344478Y0206380D01*
X0344478Y0216130D01*
X0345478Y0216130D01*
X0345478Y0206380D01*
X0345554Y0206380D01*
X0346698Y0206509D01*
X0347821Y0206765D01*
X0348907Y0207145D01*
X0349944Y0207645D01*
X0350919Y0208257D01*
X0351819Y0208975D01*
X0352633Y0209789D01*
X0353351Y0210689D01*
X0353964Y0211664D01*
X0354463Y0212701D01*
X0354843Y0213788D01*
X0355100Y0214910D01*
X0355228Y0216054D01*
X0355228Y0216130D01*
X0345479Y0216130D01*
X0345479Y0217130D01*
X0355228Y0217130D01*
X0355228Y0217206D01*
X0355100Y0218350D01*
X0354843Y0219472D01*
X0354463Y0220559D01*
X0353964Y0221596D01*
X0353351Y0222571D01*
X0352633Y0223471D01*
X0351819Y0224285D01*
X0350919Y0225003D01*
X0349944Y0225615D01*
X0348907Y0226115D01*
X0347821Y0226495D01*
X0345478Y0226332D02*
X0344478Y0226332D01*
X0344478Y0226880D02*
X0344403Y0226880D01*
X0343259Y0226751D01*
X0342136Y0226495D01*
X0341050Y0226115D01*
X0340013Y0225615D01*
X0339038Y0225003D01*
X0338138Y0224285D01*
X0337324Y0223471D01*
X0336606Y0222571D01*
X0335993Y0221596D01*
X0335494Y0220559D01*
X0335114Y0219472D01*
X0334857Y0218350D01*
X0334728Y0217206D01*
X0334728Y0217130D01*
X0344478Y0217130D01*
X0344478Y0226880D01*
X0344478Y0225334D02*
X0345478Y0225334D01*
X0345478Y0224335D02*
X0344478Y0224335D01*
X0344478Y0223337D02*
X0345478Y0223337D01*
X0345478Y0222338D02*
X0344478Y0222338D01*
X0344478Y0221340D02*
X0345478Y0221340D01*
X0345478Y0220341D02*
X0344478Y0220341D01*
X0344478Y0219343D02*
X0345478Y0219343D01*
X0345478Y0218344D02*
X0344478Y0218344D01*
X0344478Y0217346D02*
X0345478Y0217346D01*
X0345479Y0216347D02*
X0359149Y0216347D01*
X0359658Y0215349D02*
X0355149Y0215349D01*
X0354972Y0214350D02*
X0360167Y0214350D01*
X0360676Y0213352D02*
X0354691Y0213352D01*
X0354295Y0212353D02*
X0361185Y0212353D01*
X0361693Y0211355D02*
X0353769Y0211355D01*
X0353085Y0210356D02*
X0362202Y0210356D01*
X0362557Y0209358D02*
X0352202Y0209358D01*
X0351047Y0208359D02*
X0362882Y0208359D01*
X0363206Y0207361D02*
X0349354Y0207361D01*
X0347195Y0206362D02*
X0332211Y0206362D01*
X0332478Y0207361D02*
X0340603Y0207361D01*
X0338910Y0208359D02*
X0332478Y0208359D01*
X0332478Y0209358D02*
X0337755Y0209358D01*
X0336872Y0210356D02*
X0332478Y0210356D01*
X0332478Y0211355D02*
X0336188Y0211355D01*
X0335661Y0212353D02*
X0332478Y0212353D01*
X0332478Y0213352D02*
X0335266Y0213352D01*
X0334985Y0214350D02*
X0332478Y0214350D01*
X0332478Y0215349D02*
X0334808Y0215349D01*
X0334744Y0217346D02*
X0332478Y0217346D01*
X0332478Y0218344D02*
X0334857Y0218344D01*
X0335084Y0219343D02*
X0332478Y0219343D01*
X0332478Y0220341D02*
X0335418Y0220341D01*
X0335870Y0221340D02*
X0332478Y0221340D01*
X0332478Y0222338D02*
X0336460Y0222338D01*
X0337217Y0223337D02*
X0332478Y0223337D01*
X0332478Y0224335D02*
X0338201Y0224335D01*
X0339565Y0225334D02*
X0332478Y0225334D01*
X0332478Y0226332D02*
X0341672Y0226332D01*
X0350392Y0225334D02*
X0352153Y0225334D01*
X0351756Y0224335D02*
X0353151Y0224335D01*
X0352740Y0223337D02*
X0354150Y0223337D01*
X0353497Y0222338D02*
X0354932Y0222338D01*
X0355658Y0221340D02*
X0354087Y0221340D01*
X0354539Y0220341D02*
X0356383Y0220341D01*
X0357109Y0219343D02*
X0354873Y0219343D01*
X0355100Y0218344D02*
X0357834Y0218344D01*
X0358559Y0217346D02*
X0355213Y0217346D01*
X0345478Y0215349D02*
X0344478Y0215349D01*
X0344478Y0216347D02*
X0332478Y0216347D01*
X0344478Y0214350D02*
X0345478Y0214350D01*
X0345478Y0213352D02*
X0344478Y0213352D01*
X0344478Y0212353D02*
X0345478Y0212353D01*
X0345478Y0211355D02*
X0344478Y0211355D01*
X0344478Y0210356D02*
X0345478Y0210356D01*
X0345478Y0209358D02*
X0344478Y0209358D01*
X0344478Y0208359D02*
X0345478Y0208359D01*
X0345478Y0207361D02*
X0344478Y0207361D01*
X0346734Y0205364D02*
X0331212Y0205364D01*
X0325978Y0192530D02*
X0317878Y0192530D01*
X0312927Y0187579D01*
X0311261Y0187579D01*
X0325978Y0192530D02*
X0326878Y0191630D01*
X0360478Y0191384D02*
X0365978Y0191384D01*
X0365978Y0191630D02*
X0365978Y0150061D01*
X0365841Y0150198D01*
X0365499Y0150396D01*
X0365118Y0150498D01*
X0362467Y0150498D01*
X0362467Y0147333D01*
X0361468Y0147333D01*
X0361468Y0150498D01*
X0360478Y0150498D01*
X0360478Y0195630D01*
X0361978Y0197130D01*
X0361978Y0199130D01*
X0361892Y0199217D01*
X0361613Y0199889D01*
X0361468Y0200035D01*
X0361468Y0202927D01*
X0362467Y0202927D01*
X0362467Y0199762D01*
X0365118Y0199762D01*
X0365143Y0199769D01*
X0365829Y0195435D01*
X0365978Y0191630D01*
X0365949Y0192383D02*
X0360478Y0192383D01*
X0360478Y0193381D02*
X0365910Y0193381D01*
X0365870Y0194380D02*
X0360478Y0194380D01*
X0360478Y0195378D02*
X0365831Y0195378D01*
X0365680Y0196377D02*
X0361225Y0196377D01*
X0361978Y0197375D02*
X0365522Y0197375D01*
X0365364Y0198374D02*
X0361978Y0198374D01*
X0361827Y0199372D02*
X0365205Y0199372D01*
X0362467Y0200371D02*
X0361468Y0200371D01*
X0361468Y0201369D02*
X0362467Y0201369D01*
X0362467Y0202368D02*
X0361468Y0202368D01*
X0361467Y0202927D02*
X0359978Y0202927D01*
X0359978Y0203927D01*
X0361467Y0203927D01*
X0361467Y0202927D01*
X0361467Y0203366D02*
X0359978Y0203366D01*
X0361468Y0204365D02*
X0362467Y0204365D01*
X0362467Y0205364D02*
X0361468Y0205364D01*
X0361468Y0206362D02*
X0362467Y0206362D01*
X0360478Y0190386D02*
X0365978Y0190386D01*
X0365978Y0189387D02*
X0360478Y0189387D01*
X0360478Y0188389D02*
X0365978Y0188389D01*
X0365978Y0187390D02*
X0360478Y0187390D01*
X0360478Y0186392D02*
X0365978Y0186392D01*
X0365978Y0185393D02*
X0360478Y0185393D01*
X0360478Y0184395D02*
X0365978Y0184395D01*
X0365978Y0183396D02*
X0360478Y0183396D01*
X0360478Y0182398D02*
X0365978Y0182398D01*
X0365978Y0181399D02*
X0360478Y0181399D01*
X0360478Y0180401D02*
X0365978Y0180401D01*
X0365978Y0179402D02*
X0360478Y0179402D01*
X0360478Y0178404D02*
X0365978Y0178404D01*
X0365978Y0177405D02*
X0360478Y0177405D01*
X0360478Y0176407D02*
X0365978Y0176407D01*
X0365978Y0175408D02*
X0360478Y0175408D01*
X0360478Y0174410D02*
X0365978Y0174410D01*
X0365978Y0173411D02*
X0360478Y0173411D01*
X0360478Y0172413D02*
X0365978Y0172413D01*
X0365978Y0171414D02*
X0360478Y0171414D01*
X0360478Y0170416D02*
X0365978Y0170416D01*
X0365978Y0169417D02*
X0360478Y0169417D01*
X0360478Y0168419D02*
X0365978Y0168419D01*
X0365978Y0167420D02*
X0360478Y0167420D01*
X0360478Y0166422D02*
X0365978Y0166422D01*
X0365978Y0165423D02*
X0360478Y0165423D01*
X0360478Y0164425D02*
X0365978Y0164425D01*
X0365978Y0163426D02*
X0360478Y0163426D01*
X0360478Y0162428D02*
X0365978Y0162428D01*
X0365978Y0161429D02*
X0360478Y0161429D01*
X0360478Y0160430D02*
X0365978Y0160430D01*
X0365978Y0159432D02*
X0360478Y0159432D01*
X0360478Y0158433D02*
X0365978Y0158433D01*
X0365978Y0157435D02*
X0360478Y0157435D01*
X0360478Y0156436D02*
X0365978Y0156436D01*
X0365978Y0155438D02*
X0360478Y0155438D01*
X0360478Y0154439D02*
X0365978Y0154439D01*
X0365978Y0153441D02*
X0360478Y0153441D01*
X0360478Y0152442D02*
X0365978Y0152442D01*
X0365978Y0151444D02*
X0360478Y0151444D01*
X0361468Y0150445D02*
X0362467Y0150445D01*
X0362467Y0149447D02*
X0361468Y0149447D01*
X0361468Y0148448D02*
X0362467Y0148448D01*
X0362467Y0147450D02*
X0361468Y0147450D01*
X0361468Y0146333D02*
X0362467Y0146333D01*
X0362467Y0143167D01*
X0365118Y0143167D01*
X0365499Y0143270D01*
X0365841Y0143467D01*
X0365978Y0143604D01*
X0365978Y0141789D01*
X0365641Y0141961D01*
X0364974Y0142178D01*
X0364282Y0142287D01*
X0360979Y0142287D01*
X0360979Y0140084D01*
X0360978Y0140084D01*
X0360978Y0142287D01*
X0357675Y0142287D01*
X0356983Y0142178D01*
X0356316Y0141961D01*
X0355692Y0141643D01*
X0355125Y0141231D01*
X0354629Y0140735D01*
X0354217Y0140168D01*
X0353899Y0139544D01*
X0353683Y0138877D01*
X0353573Y0138185D01*
X0353573Y0137835D01*
X0356863Y0137835D01*
X0356863Y0137835D01*
X0353573Y0137835D01*
X0353573Y0137484D01*
X0353683Y0136792D01*
X0353899Y0136125D01*
X0354217Y0135501D01*
X0354629Y0134934D01*
X0355125Y0134438D01*
X0355549Y0134130D01*
X0354878Y0134130D01*
X0352378Y0136630D01*
X0352250Y0136723D01*
X0352250Y0138713D01*
X0349504Y0138713D01*
X0348251Y0139621D01*
X0348251Y0139713D01*
X0352250Y0139713D01*
X0352250Y0142630D01*
X0357478Y0142630D01*
X0358234Y0143386D01*
X0358436Y0143270D01*
X0358817Y0143167D01*
X0361468Y0143167D01*
X0361468Y0146333D01*
X0361468Y0145453D02*
X0362467Y0145453D01*
X0362467Y0144454D02*
X0361468Y0144454D01*
X0361468Y0143456D02*
X0362467Y0143456D01*
X0360979Y0141459D02*
X0360978Y0141459D01*
X0360978Y0140460D02*
X0360979Y0140460D01*
X0365978Y0142457D02*
X0352250Y0142457D01*
X0352250Y0141459D02*
X0355438Y0141459D01*
X0354429Y0140460D02*
X0352250Y0140460D01*
X0353873Y0139462D02*
X0348471Y0139462D01*
X0352250Y0138463D02*
X0353617Y0138463D01*
X0353576Y0137465D02*
X0352250Y0137465D01*
X0352542Y0136466D02*
X0353788Y0136466D01*
X0353541Y0135468D02*
X0354242Y0135468D01*
X0354539Y0134469D02*
X0355094Y0134469D01*
X0354311Y0133471D02*
X0357115Y0133471D01*
X0355820Y0132472D02*
X0365978Y0132472D01*
X0365978Y0131474D02*
X0362233Y0131474D01*
X0363460Y0130475D02*
X0365978Y0130475D01*
X0365978Y0129477D02*
X0363778Y0129477D01*
X0363665Y0128478D02*
X0365978Y0128478D01*
X0365978Y0127480D02*
X0363022Y0127480D01*
X0363624Y0126481D02*
X0365978Y0126481D01*
X0365978Y0125483D02*
X0363778Y0125483D01*
X0363502Y0124484D02*
X0365978Y0124484D01*
X0365978Y0123486D02*
X0363317Y0123486D01*
X0363778Y0122487D02*
X0365978Y0122487D01*
X0365978Y0121489D02*
X0363752Y0121489D01*
X0363233Y0120490D02*
X0365978Y0120490D01*
X0365978Y0119492D02*
X0360440Y0119492D01*
X0360978Y0117495D02*
X0360979Y0117495D01*
X0360978Y0116496D02*
X0360979Y0116496D01*
X0365753Y0117495D02*
X0365978Y0117495D01*
X0365978Y0118493D02*
X0355108Y0118493D01*
X0353849Y0118493D02*
X0350109Y0118493D01*
X0352080Y0117495D02*
X0356204Y0117495D01*
X0354799Y0116496D02*
X0352250Y0116496D01*
X0352250Y0115497D02*
X0354084Y0115497D01*
X0353693Y0114499D02*
X0352250Y0114499D01*
X0352250Y0113500D02*
X0353573Y0113500D01*
X0353573Y0113425D02*
X0356863Y0113425D01*
X0353573Y0113425D01*
X0353664Y0112502D02*
X0348251Y0112502D01*
X0348250Y0111503D02*
X0347251Y0111503D01*
X0347251Y0110505D02*
X0348250Y0110505D01*
X0348250Y0109506D02*
X0347251Y0109506D01*
X0347251Y0108508D02*
X0348250Y0108508D01*
X0348250Y0107509D02*
X0347251Y0107509D01*
X0347251Y0106511D02*
X0348250Y0106511D01*
X0352029Y0106511D02*
X0365978Y0106511D01*
X0365978Y0107509D02*
X0352250Y0107509D01*
X0352250Y0108508D02*
X0365978Y0108508D01*
X0365978Y0105512D02*
X0343096Y0105512D01*
X0343472Y0106511D02*
X0342098Y0106511D01*
X0341099Y0107509D02*
X0343250Y0107509D01*
X0343250Y0108508D02*
X0340978Y0108508D01*
X0340978Y0109506D02*
X0343250Y0109506D01*
X0343250Y0110505D02*
X0340978Y0110505D01*
X0340978Y0111503D02*
X0343250Y0111503D01*
X0343250Y0113500D02*
X0339678Y0113500D01*
X0339678Y0114499D02*
X0343250Y0114499D01*
X0343250Y0115497D02*
X0339678Y0115497D01*
X0340124Y0116496D02*
X0343250Y0116496D01*
X0340107Y0112502D02*
X0347250Y0112502D01*
X0352250Y0111503D02*
X0354007Y0111503D01*
X0354649Y0110505D02*
X0352250Y0110505D01*
X0352250Y0109506D02*
X0355909Y0109506D01*
X0356863Y0113425D02*
X0356863Y0113425D01*
X0356863Y0113425D01*
X0356863Y0113425D01*
X0360978Y0110505D02*
X0360979Y0110505D01*
X0360978Y0109506D02*
X0360979Y0109506D01*
X0356095Y0104514D02*
X0365978Y0104514D01*
X0365978Y0103515D02*
X0357093Y0103515D01*
X0358092Y0102517D02*
X0365978Y0102517D01*
X0365978Y0101518D02*
X0359090Y0101518D01*
X0359978Y0100520D02*
X0365978Y0100520D01*
X0365978Y0099521D02*
X0359978Y0099521D01*
X0359978Y0098523D02*
X0365978Y0098523D01*
X0365978Y0097524D02*
X0359978Y0097524D01*
X0359978Y0096526D02*
X0365978Y0096526D01*
X0365978Y0095527D02*
X0359978Y0095527D01*
X0359978Y0094529D02*
X0365978Y0094529D01*
X0365978Y0093530D02*
X0359978Y0093530D01*
X0359978Y0092532D02*
X0365978Y0092532D01*
X0365978Y0091533D02*
X0359978Y0091533D01*
X0359978Y0090535D02*
X0365978Y0090535D01*
X0365978Y0089536D02*
X0359978Y0089536D01*
X0359978Y0088538D02*
X0365978Y0088538D01*
X0365978Y0087539D02*
X0359978Y0087539D01*
X0359978Y0086541D02*
X0365978Y0086541D01*
X0365978Y0085542D02*
X0359978Y0085542D01*
X0359978Y0084544D02*
X0365978Y0084544D01*
X0365978Y0083545D02*
X0359978Y0083545D01*
X0359978Y0082547D02*
X0365978Y0082547D01*
X0365978Y0081548D02*
X0359978Y0081548D01*
X0359978Y0080550D02*
X0365978Y0080550D01*
X0365978Y0079551D02*
X0359978Y0079551D01*
X0359978Y0078553D02*
X0365978Y0078553D01*
X0365978Y0077554D02*
X0359978Y0077554D01*
X0359978Y0076556D02*
X0365976Y0076556D01*
X0365936Y0075557D02*
X0359978Y0075557D01*
X0359907Y0074559D02*
X0365897Y0074559D01*
X0365858Y0073560D02*
X0358909Y0073560D01*
X0357910Y0072562D02*
X0365787Y0072562D01*
X0365829Y0072825D02*
X0365829Y0072825D01*
X0365629Y0071563D02*
X0356912Y0071563D01*
X0355913Y0070564D02*
X0365471Y0070564D01*
X0365313Y0069566D02*
X0354914Y0069566D01*
X0348043Y0069566D02*
X0333556Y0069566D01*
X0333675Y0069278D02*
X0333323Y0070129D01*
X0332862Y0070927D01*
X0332301Y0071657D01*
X0331650Y0072309D01*
X0330919Y0072870D01*
X0330121Y0073330D01*
X0329270Y0073683D01*
X0328380Y0073921D01*
X0327506Y0074036D01*
X0327506Y0067514D01*
X0326506Y0067514D01*
X0326506Y0066514D01*
X0319984Y0066514D01*
X0320099Y0065640D01*
X0320338Y0064750D01*
X0320690Y0063899D01*
X0321151Y0063101D01*
X0321712Y0062370D01*
X0322363Y0061719D01*
X0323094Y0061158D01*
X0323892Y0060697D01*
X0324743Y0060345D01*
X0325632Y0060107D01*
X0326506Y0059991D01*
X0326506Y0066514D01*
X0327506Y0066514D01*
X0327506Y0059991D01*
X0328380Y0060107D01*
X0329270Y0060345D01*
X0330121Y0060697D01*
X0330919Y0061158D01*
X0331650Y0061719D01*
X0332301Y0062370D01*
X0332862Y0063101D01*
X0333323Y0063899D01*
X0333675Y0064750D01*
X0333914Y0065640D01*
X0334029Y0066514D01*
X0327506Y0066514D01*
X0327506Y0067514D01*
X0334029Y0067514D01*
X0333914Y0068388D01*
X0333675Y0069278D01*
X0333866Y0068567D02*
X0365155Y0068567D01*
X0364997Y0067569D02*
X0334022Y0067569D01*
X0333896Y0065572D02*
X0364680Y0065572D01*
X0364838Y0066570D02*
X0327506Y0066570D01*
X0327506Y0065572D02*
X0326506Y0065572D01*
X0326506Y0066570D02*
X0319978Y0066570D01*
X0319984Y0067514D02*
X0326506Y0067514D01*
X0326506Y0074036D01*
X0325632Y0073921D01*
X0324743Y0073683D01*
X0323892Y0073330D01*
X0323094Y0072870D01*
X0322363Y0072309D01*
X0321712Y0071657D01*
X0321151Y0070927D01*
X0320690Y0070129D01*
X0320338Y0069278D01*
X0320099Y0068388D01*
X0319984Y0067514D01*
X0319978Y0067569D02*
X0319991Y0067569D01*
X0319978Y0068567D02*
X0320147Y0068567D01*
X0319978Y0069566D02*
X0320457Y0069566D01*
X0320413Y0070564D02*
X0320942Y0070564D01*
X0321412Y0071563D02*
X0321639Y0071563D01*
X0322410Y0072562D02*
X0322692Y0072562D01*
X0323409Y0073560D02*
X0324446Y0073560D01*
X0326506Y0073560D02*
X0327506Y0073560D01*
X0327506Y0072562D02*
X0326506Y0072562D01*
X0326506Y0071563D02*
X0327506Y0071563D01*
X0327506Y0070564D02*
X0326506Y0070564D01*
X0326506Y0069566D02*
X0327506Y0069566D01*
X0327506Y0068567D02*
X0326506Y0068567D01*
X0326506Y0067569D02*
X0327506Y0067569D01*
X0327506Y0064573D02*
X0326506Y0064573D01*
X0326506Y0063575D02*
X0327506Y0063575D01*
X0327506Y0062576D02*
X0326506Y0062576D01*
X0326506Y0061578D02*
X0327506Y0061578D01*
X0327506Y0060579D02*
X0326506Y0060579D01*
X0324177Y0060579D02*
X0323029Y0060579D01*
X0322547Y0061578D02*
X0322031Y0061578D01*
X0321553Y0062576D02*
X0321032Y0062576D01*
X0320877Y0063575D02*
X0320034Y0063575D01*
X0319978Y0064573D02*
X0320411Y0064573D01*
X0320117Y0065572D02*
X0319978Y0065572D01*
X0324028Y0059581D02*
X0338509Y0059581D01*
X0338138Y0059285D02*
X0337324Y0058471D01*
X0336606Y0057571D01*
X0335993Y0056596D01*
X0335494Y0055559D01*
X0335114Y0054472D01*
X0334857Y0053350D01*
X0334728Y0052206D01*
X0334728Y0052130D01*
X0344478Y0052130D01*
X0344478Y0051130D01*
X0334728Y0051130D01*
X0334728Y0051054D01*
X0334857Y0049910D01*
X0335114Y0048788D01*
X0335494Y0047701D01*
X0335993Y0046664D01*
X0336606Y0045689D01*
X0337324Y0044789D01*
X0338138Y0043975D01*
X0339038Y0043257D01*
X0340013Y0042645D01*
X0341050Y0042145D01*
X0342136Y0041765D01*
X0343259Y0041509D01*
X0344403Y0041380D01*
X0344478Y0041380D01*
X0344478Y0051130D01*
X0345478Y0051130D01*
X0345478Y0041380D01*
X0345554Y0041380D01*
X0346698Y0041509D01*
X0347821Y0041765D01*
X0348907Y0042145D01*
X0349944Y0042645D01*
X0350919Y0043257D01*
X0351819Y0043975D01*
X0352633Y0044789D01*
X0353351Y0045689D01*
X0353964Y0046664D01*
X0354463Y0047701D01*
X0354843Y0048788D01*
X0355100Y0049910D01*
X0355228Y0051054D01*
X0355228Y0051130D01*
X0345479Y0051130D01*
X0345479Y0052130D01*
X0355228Y0052130D01*
X0355228Y0052206D01*
X0355100Y0053350D01*
X0354843Y0054472D01*
X0354463Y0055559D01*
X0353964Y0056596D01*
X0353351Y0057571D01*
X0352633Y0058471D01*
X0351819Y0059285D01*
X0350919Y0060003D01*
X0349944Y0060615D01*
X0348907Y0061115D01*
X0347821Y0061495D01*
X0346698Y0061751D01*
X0345554Y0061880D01*
X0345478Y0061880D01*
X0345478Y0052130D01*
X0344478Y0052130D01*
X0344478Y0061880D01*
X0344403Y0061880D01*
X0343259Y0061751D01*
X0342136Y0061495D01*
X0341050Y0061115D01*
X0340013Y0060615D01*
X0339038Y0060003D01*
X0338138Y0059285D01*
X0337435Y0058582D02*
X0325026Y0058582D01*
X0326025Y0057584D02*
X0336616Y0057584D01*
X0335988Y0056585D02*
X0327023Y0056585D01*
X0328022Y0055587D02*
X0335507Y0055587D01*
X0335154Y0054588D02*
X0329020Y0054588D01*
X0329978Y0053590D02*
X0334912Y0053590D01*
X0334772Y0052591D02*
X0329978Y0052591D01*
X0329978Y0051593D02*
X0344478Y0051593D01*
X0344478Y0052591D02*
X0345478Y0052591D01*
X0345479Y0051593D02*
X0358986Y0051593D01*
X0359495Y0052591D02*
X0355185Y0052591D01*
X0355045Y0053590D02*
X0360004Y0053590D01*
X0360513Y0054588D02*
X0354803Y0054588D01*
X0354450Y0055587D02*
X0361021Y0055587D01*
X0361530Y0056585D02*
X0353969Y0056585D01*
X0353341Y0057584D02*
X0362039Y0057584D01*
X0362453Y0058582D02*
X0352522Y0058582D01*
X0351448Y0059581D02*
X0362778Y0059581D01*
X0363102Y0060579D02*
X0350001Y0060579D01*
X0347457Y0061578D02*
X0363426Y0061578D01*
X0363751Y0062576D02*
X0332460Y0062576D01*
X0333136Y0063575D02*
X0364075Y0063575D01*
X0364400Y0064573D02*
X0333602Y0064573D01*
X0331466Y0061578D02*
X0342500Y0061578D01*
X0344478Y0061578D02*
X0345478Y0061578D01*
X0345478Y0060579D02*
X0344478Y0060579D01*
X0344478Y0059581D02*
X0345478Y0059581D01*
X0345478Y0058582D02*
X0344478Y0058582D01*
X0344478Y0057584D02*
X0345478Y0057584D01*
X0345478Y0056585D02*
X0344478Y0056585D01*
X0344478Y0055587D02*
X0345478Y0055587D01*
X0345478Y0054588D02*
X0344478Y0054588D01*
X0344478Y0053590D02*
X0345478Y0053590D01*
X0345478Y0050594D02*
X0344478Y0050594D01*
X0344478Y0049596D02*
X0345478Y0049596D01*
X0345478Y0048597D02*
X0344478Y0048597D01*
X0344478Y0047599D02*
X0345478Y0047599D01*
X0345478Y0046600D02*
X0344478Y0046600D01*
X0344478Y0045602D02*
X0345478Y0045602D01*
X0345478Y0044603D02*
X0344478Y0044603D01*
X0344478Y0043605D02*
X0345478Y0043605D01*
X0345478Y0042606D02*
X0344478Y0042606D01*
X0344478Y0041608D02*
X0345478Y0041608D01*
X0347131Y0041608D02*
X0350834Y0041608D01*
X0349864Y0042606D02*
X0351833Y0042606D01*
X0351355Y0043605D02*
X0352831Y0043605D01*
X0352447Y0044603D02*
X0353830Y0044603D01*
X0353281Y0045602D02*
X0354700Y0045602D01*
X0355425Y0046600D02*
X0353924Y0046600D01*
X0354414Y0047599D02*
X0356151Y0047599D01*
X0356876Y0048597D02*
X0354777Y0048597D01*
X0355028Y0049596D02*
X0357601Y0049596D01*
X0358327Y0050594D02*
X0355177Y0050594D01*
X0349836Y0040609D02*
X0329978Y0040609D01*
X0329978Y0039611D02*
X0348785Y0039611D01*
X0347410Y0038612D02*
X0329978Y0038612D01*
X0329978Y0037614D02*
X0346036Y0037614D01*
X0344662Y0036615D02*
X0329978Y0036615D01*
X0329978Y0035617D02*
X0343287Y0035617D01*
X0341527Y0034618D02*
X0329978Y0034618D01*
X0329468Y0033620D02*
X0339567Y0033620D01*
X0337607Y0032621D02*
X0329078Y0032621D01*
X0328269Y0031623D02*
X0335425Y0031623D01*
X0332352Y0030624D02*
X0327271Y0030624D01*
X0329279Y0029626D02*
X0088851Y0029626D01*
X0090707Y0030624D02*
X0100929Y0030624D01*
X0100878Y0031623D02*
X0091967Y0031623D01*
X0092898Y0032621D02*
X0098987Y0032621D01*
X0097989Y0033620D02*
X0093622Y0033620D01*
X0094182Y0034618D02*
X0096990Y0034618D01*
X0096478Y0035617D02*
X0094608Y0035617D01*
X0094918Y0036615D02*
X0096478Y0036615D01*
X0096478Y0037614D02*
X0095122Y0037614D01*
X0095228Y0038612D02*
X0096478Y0038612D01*
X0109078Y0031623D02*
X0111688Y0031623D01*
X0112686Y0030624D02*
X0109028Y0030624D01*
X0117271Y0030624D02*
X0122686Y0030624D01*
X0121688Y0031623D02*
X0118269Y0031623D01*
X0127271Y0030624D02*
X0132686Y0030624D01*
X0131688Y0031623D02*
X0128269Y0031623D01*
X0137271Y0030624D02*
X0142686Y0030624D01*
X0141688Y0031623D02*
X0138269Y0031623D01*
X0147271Y0030624D02*
X0152686Y0030624D01*
X0151688Y0031623D02*
X0148269Y0031623D01*
X0157271Y0030624D02*
X0162686Y0030624D01*
X0161688Y0031623D02*
X0158269Y0031623D01*
X0167271Y0030624D02*
X0172686Y0030624D01*
X0171688Y0031623D02*
X0168269Y0031623D01*
X0177271Y0030624D02*
X0182686Y0030624D01*
X0181688Y0031623D02*
X0178269Y0031623D01*
X0187271Y0030624D02*
X0192686Y0030624D01*
X0191688Y0031623D02*
X0188269Y0031623D01*
X0197271Y0030624D02*
X0202686Y0030624D01*
X0201688Y0031623D02*
X0198269Y0031623D01*
X0207271Y0030624D02*
X0212686Y0030624D01*
X0211688Y0031623D02*
X0208269Y0031623D01*
X0217271Y0030624D02*
X0222686Y0030624D01*
X0221688Y0031623D02*
X0218269Y0031623D01*
X0227271Y0030624D02*
X0232686Y0030624D01*
X0231688Y0031623D02*
X0228269Y0031623D01*
X0237271Y0030624D02*
X0242686Y0030624D01*
X0241688Y0031623D02*
X0238269Y0031623D01*
X0247271Y0030624D02*
X0252686Y0030624D01*
X0251688Y0031623D02*
X0248269Y0031623D01*
X0257271Y0030624D02*
X0262686Y0030624D01*
X0261688Y0031623D02*
X0258269Y0031623D01*
X0267271Y0030624D02*
X0272686Y0030624D01*
X0271688Y0031623D02*
X0268269Y0031623D01*
X0277271Y0030624D02*
X0282686Y0030624D01*
X0281688Y0031623D02*
X0278269Y0031623D01*
X0287271Y0030624D02*
X0292686Y0030624D01*
X0291688Y0031623D02*
X0288269Y0031623D01*
X0297271Y0030624D02*
X0302686Y0030624D01*
X0301688Y0031623D02*
X0298269Y0031623D01*
X0307271Y0030624D02*
X0312686Y0030624D01*
X0311688Y0031623D02*
X0308269Y0031623D01*
X0317271Y0030624D02*
X0322686Y0030624D01*
X0321688Y0031623D02*
X0318269Y0031623D01*
X0323478Y0028627D02*
X0048317Y0028627D01*
X0084368Y0083126D02*
X0086927Y0085685D01*
X0088108Y0085685D01*
X0089290Y0085685D01*
X0091849Y0088244D01*
X0095589Y0085685D02*
X0099329Y0085685D01*
X0080628Y0085685D02*
X0076888Y0085685D01*
X0074845Y0103130D02*
X0068301Y0103130D01*
X0065274Y0106158D01*
X0063994Y0107437D01*
X0063994Y0111571D01*
X0061435Y0111571D01*
X0060943Y0112063D01*
X0058581Y0112063D01*
X0058581Y0116000D02*
X0060943Y0116000D01*
X0061435Y0116492D01*
X0063994Y0116492D01*
X0067242Y0116000D02*
X0067242Y0108126D01*
X0069211Y0106158D01*
X0074845Y0103130D02*
X0079841Y0108126D01*
X0079841Y0114032D01*
X0070490Y0116492D02*
X0070490Y0120035D01*
X0068128Y0122398D01*
X0067734Y0116492D02*
X0067242Y0116000D01*
X0067734Y0116492D02*
X0070490Y0116492D01*
X0139683Y0114327D02*
X0141750Y0114327D01*
X0142636Y0115213D01*
X0142636Y0127024D02*
X0141750Y0127910D01*
X0139683Y0127910D01*
X0139683Y0156551D02*
X0138797Y0157437D01*
X0138797Y0159504D01*
X0145589Y0166394D02*
X0145589Y0167870D01*
X0152380Y0159504D02*
X0152380Y0157437D01*
X0151494Y0156551D01*
X0131978Y0184098D02*
X0129101Y0184098D01*
X0129101Y0183630D01*
X0117478Y0183630D01*
X0114478Y0186630D01*
X0114478Y0205630D01*
X0116478Y0207630D01*
X0117478Y0207630D01*
X0121978Y0207630D01*
X0121978Y0206630D01*
X0117478Y0206630D01*
X0117478Y0203632D01*
X0117581Y0203251D01*
X0117778Y0202909D01*
X0118057Y0202630D01*
X0118400Y0202432D01*
X0118781Y0202330D01*
X0121979Y0202330D01*
X0121979Y0206630D01*
X0122978Y0206630D01*
X0122978Y0202330D01*
X0125568Y0202330D01*
X0125429Y0202237D01*
X0124871Y0201680D01*
X0124434Y0201025D01*
X0124132Y0200297D01*
X0124000Y0199630D01*
X0127478Y0199630D01*
X0127478Y0198630D01*
X0124000Y0198630D01*
X0124132Y0197963D01*
X0124434Y0197235D01*
X0124871Y0196580D01*
X0125022Y0196430D01*
X0122978Y0196430D01*
X0122978Y0192130D01*
X0121979Y0192130D01*
X0121979Y0196430D01*
X0118781Y0196430D01*
X0118400Y0196328D01*
X0118057Y0196130D01*
X0117778Y0195851D01*
X0117581Y0195509D01*
X0117478Y0195127D01*
X0117478Y0192130D01*
X0121978Y0192130D01*
X0121978Y0191130D01*
X0117478Y0191130D01*
X0117478Y0188132D01*
X0117581Y0187751D01*
X0117778Y0187409D01*
X0118057Y0187130D01*
X0118400Y0186932D01*
X0118781Y0186830D01*
X0121979Y0186830D01*
X0121979Y0191130D01*
X0122978Y0191130D01*
X0122978Y0186830D01*
X0126176Y0186830D01*
X0126557Y0186932D01*
X0126900Y0187130D01*
X0127179Y0187409D01*
X0127376Y0187751D01*
X0127478Y0188132D01*
X0127478Y0191130D01*
X0122979Y0191130D01*
X0122979Y0192130D01*
X0127478Y0192130D01*
X0127478Y0195127D01*
X0127472Y0195152D01*
X0127479Y0195151D01*
X0127479Y0198630D01*
X0128478Y0198630D01*
X0128478Y0195151D01*
X0128814Y0195218D01*
X0128782Y0195162D01*
X0128679Y0194780D01*
X0128679Y0192130D01*
X0132238Y0192130D01*
X0132238Y0191130D01*
X0128679Y0191130D01*
X0128679Y0188480D01*
X0128782Y0188098D01*
X0128979Y0187756D01*
X0129258Y0187477D01*
X0129600Y0187279D01*
X0129982Y0187177D01*
X0132238Y0187177D01*
X0132238Y0191130D01*
X0133238Y0191130D01*
X0133238Y0187177D01*
X0133478Y0187177D01*
X0133478Y0186630D01*
X0133431Y0186583D01*
X0131979Y0186583D01*
X0131979Y0185130D01*
X0131978Y0185130D01*
X0131978Y0184099D01*
X0131978Y0186583D01*
X0130403Y0186583D01*
X0130022Y0186480D01*
X0129680Y0186283D01*
X0129400Y0186004D01*
X0129203Y0185662D01*
X0129101Y0185280D01*
X0129101Y0184099D01*
X0131978Y0184099D01*
X0131978Y0184099D01*
X0131978Y0184098D01*
X0131978Y0184395D02*
X0131978Y0184395D01*
X0131978Y0185393D02*
X0131979Y0185393D01*
X0131978Y0186392D02*
X0131979Y0186392D01*
X0132238Y0187390D02*
X0133238Y0187390D01*
X0133238Y0188389D02*
X0132238Y0188389D01*
X0132238Y0189387D02*
X0133238Y0189387D01*
X0133238Y0190386D02*
X0132238Y0190386D01*
X0132238Y0191384D02*
X0122979Y0191384D01*
X0122978Y0190386D02*
X0121979Y0190386D01*
X0121978Y0191384D02*
X0114478Y0191384D01*
X0114478Y0190386D02*
X0117478Y0190386D01*
X0117478Y0189387D02*
X0114478Y0189387D01*
X0114478Y0188389D02*
X0117478Y0188389D01*
X0117797Y0187390D02*
X0114478Y0187390D01*
X0114717Y0186392D02*
X0129868Y0186392D01*
X0129408Y0187390D02*
X0127160Y0187390D01*
X0127478Y0188389D02*
X0128704Y0188389D01*
X0128679Y0189387D02*
X0127478Y0189387D01*
X0127478Y0190386D02*
X0128679Y0190386D01*
X0128679Y0192383D02*
X0127478Y0192383D01*
X0127478Y0193381D02*
X0128679Y0193381D01*
X0128679Y0194380D02*
X0127478Y0194380D01*
X0127479Y0195378D02*
X0128478Y0195378D01*
X0128478Y0196377D02*
X0127479Y0196377D01*
X0127479Y0197375D02*
X0128478Y0197375D01*
X0128478Y0198374D02*
X0127479Y0198374D01*
X0127478Y0199372D02*
X0114478Y0199372D01*
X0114478Y0198374D02*
X0124051Y0198374D01*
X0124376Y0197375D02*
X0114478Y0197375D01*
X0114478Y0196377D02*
X0118583Y0196377D01*
X0117546Y0195378D02*
X0114478Y0195378D01*
X0114478Y0194380D02*
X0117478Y0194380D01*
X0117478Y0193381D02*
X0114478Y0193381D01*
X0114478Y0192383D02*
X0117478Y0192383D01*
X0121979Y0192383D02*
X0122978Y0192383D01*
X0122978Y0193381D02*
X0121979Y0193381D01*
X0121979Y0194380D02*
X0122978Y0194380D01*
X0122978Y0195378D02*
X0121979Y0195378D01*
X0121979Y0196377D02*
X0122978Y0196377D01*
X0124163Y0200371D02*
X0114478Y0200371D01*
X0114478Y0201369D02*
X0124664Y0201369D01*
X0122978Y0202368D02*
X0121979Y0202368D01*
X0121979Y0203366D02*
X0122978Y0203366D01*
X0122978Y0204365D02*
X0121979Y0204365D01*
X0121979Y0205364D02*
X0122978Y0205364D01*
X0122978Y0206362D02*
X0121979Y0206362D01*
X0121978Y0207361D02*
X0116209Y0207361D01*
X0117478Y0207630D02*
X0117478Y0207630D01*
X0117478Y0206362D02*
X0115211Y0206362D01*
X0114478Y0205364D02*
X0117478Y0205364D01*
X0117478Y0204365D02*
X0114478Y0204365D01*
X0114478Y0203366D02*
X0117550Y0203366D01*
X0118639Y0202368D02*
X0114478Y0202368D01*
X0122979Y0206630D02*
X0122979Y0207630D01*
X0127478Y0207630D01*
X0128478Y0207630D01*
X0132978Y0207630D01*
X0132978Y0206630D01*
X0128478Y0206630D01*
X0128478Y0203632D01*
X0128581Y0203251D01*
X0128687Y0203067D01*
X0128478Y0203109D01*
X0128478Y0199630D01*
X0127479Y0199630D01*
X0127479Y0203109D01*
X0127270Y0203067D01*
X0127376Y0203251D01*
X0127478Y0203632D01*
X0127478Y0206630D01*
X0122979Y0206630D01*
X0122979Y0207361D02*
X0132978Y0207361D01*
X0132979Y0206630D02*
X0133978Y0206630D01*
X0133978Y0202330D01*
X0137176Y0202330D01*
X0137557Y0202432D01*
X0137900Y0202630D01*
X0138179Y0202909D01*
X0138376Y0203251D01*
X0138478Y0203632D01*
X0138478Y0206630D01*
X0133979Y0206630D01*
X0133979Y0207630D01*
X0138478Y0207630D01*
X0139478Y0207630D01*
X0139478Y0200130D01*
X0138478Y0199130D01*
X0136978Y0199130D01*
X0133931Y0196083D01*
X0133238Y0196083D01*
X0133238Y0192130D01*
X0132238Y0192130D01*
X0132238Y0196083D01*
X0130588Y0196083D01*
X0131085Y0196580D01*
X0131523Y0197235D01*
X0131825Y0197963D01*
X0131957Y0198630D01*
X0128479Y0198630D01*
X0128479Y0199630D01*
X0131957Y0199630D01*
X0131825Y0200297D01*
X0131523Y0201025D01*
X0131085Y0201680D01*
X0130528Y0202237D01*
X0130389Y0202330D01*
X0132979Y0202330D01*
X0132979Y0206630D01*
X0132979Y0206362D02*
X0133978Y0206362D01*
X0133978Y0205364D02*
X0132979Y0205364D01*
X0132979Y0204365D02*
X0133978Y0204365D01*
X0133978Y0203366D02*
X0132979Y0203366D01*
X0132979Y0202368D02*
X0133978Y0202368D01*
X0131293Y0201369D02*
X0139478Y0201369D01*
X0139478Y0200371D02*
X0131794Y0200371D01*
X0131906Y0198374D02*
X0136222Y0198374D01*
X0135224Y0197375D02*
X0131581Y0197375D01*
X0130882Y0196377D02*
X0134225Y0196377D01*
X0133238Y0195378D02*
X0132238Y0195378D01*
X0132238Y0194380D02*
X0133238Y0194380D01*
X0133238Y0193381D02*
X0132238Y0193381D01*
X0132238Y0192383D02*
X0133238Y0192383D01*
X0129131Y0185393D02*
X0115715Y0185393D01*
X0116714Y0184395D02*
X0129101Y0184395D01*
X0122978Y0187390D02*
X0121979Y0187390D01*
X0121979Y0188389D02*
X0122978Y0188389D01*
X0122978Y0189387D02*
X0121979Y0189387D01*
X0128479Y0199372D02*
X0138721Y0199372D01*
X0139478Y0202368D02*
X0137318Y0202368D01*
X0138407Y0203366D02*
X0139478Y0203366D01*
X0139478Y0204365D02*
X0138478Y0204365D01*
X0138478Y0205364D02*
X0139478Y0205364D01*
X0139478Y0206362D02*
X0138478Y0206362D01*
X0138478Y0207630D02*
X0138478Y0207630D01*
X0139478Y0207361D02*
X0133979Y0207361D01*
X0128478Y0207630D02*
X0128478Y0207630D01*
X0127478Y0207630D02*
X0127478Y0207630D01*
X0127478Y0206362D02*
X0128478Y0206362D01*
X0128478Y0205364D02*
X0127478Y0205364D01*
X0127478Y0204365D02*
X0128478Y0204365D01*
X0128550Y0203366D02*
X0127407Y0203366D01*
X0127479Y0202368D02*
X0128478Y0202368D01*
X0128478Y0201369D02*
X0127479Y0201369D01*
X0127479Y0200371D02*
X0128478Y0200371D01*
X0097188Y0221340D02*
X0091649Y0221340D01*
X0092672Y0222338D02*
X0097478Y0222338D01*
X0097478Y0223337D02*
X0093444Y0223337D01*
X0094046Y0224335D02*
X0097478Y0224335D01*
X0097478Y0225334D02*
X0094509Y0225334D01*
X0094854Y0226332D02*
X0097478Y0226332D01*
X0097478Y0227331D02*
X0095081Y0227331D01*
X0095203Y0228329D02*
X0097478Y0228329D01*
X0097478Y0229328D02*
X0085479Y0229328D01*
X0085478Y0230326D02*
X0084478Y0230326D01*
X0084478Y0229328D02*
X0072478Y0229328D01*
X0072478Y0230326D02*
X0074798Y0230326D01*
X0074966Y0231325D02*
X0072478Y0231325D01*
X0071785Y0232323D02*
X0075237Y0232323D01*
X0075621Y0233322D02*
X0070787Y0233322D01*
X0069788Y0234320D02*
X0076134Y0234320D01*
X0076804Y0235319D02*
X0068790Y0235319D01*
X0067791Y0236317D02*
X0077670Y0236317D01*
X0078804Y0237316D02*
X0041612Y0237316D01*
X0043685Y0238314D02*
X0080426Y0238314D01*
X0084478Y0238314D02*
X0085478Y0238314D01*
X0085478Y0237316D02*
X0084478Y0237316D01*
X0084478Y0236317D02*
X0085478Y0236317D01*
X0085478Y0235319D02*
X0084478Y0235319D01*
X0084478Y0234320D02*
X0085478Y0234320D01*
X0085478Y0233322D02*
X0084478Y0233322D01*
X0084478Y0232323D02*
X0085478Y0232323D01*
X0085478Y0231325D02*
X0084478Y0231325D01*
X0084478Y0228329D02*
X0085478Y0228329D01*
X0085478Y0227331D02*
X0084478Y0227331D01*
X0084478Y0226332D02*
X0085478Y0226332D01*
X0085478Y0225334D02*
X0084478Y0225334D01*
X0084478Y0224335D02*
X0085478Y0224335D01*
X0085478Y0223337D02*
X0084478Y0223337D01*
X0084478Y0222338D02*
X0085478Y0222338D01*
X0085478Y0221340D02*
X0084478Y0221340D01*
X0084478Y0220341D02*
X0085478Y0220341D01*
X0085478Y0219343D02*
X0084478Y0219343D01*
X0081915Y0219343D02*
X0077266Y0219343D01*
X0076267Y0220341D02*
X0079700Y0220341D01*
X0078307Y0221340D02*
X0075269Y0221340D01*
X0074270Y0222338D02*
X0077285Y0222338D01*
X0076513Y0223337D02*
X0073272Y0223337D01*
X0072478Y0224335D02*
X0075911Y0224335D01*
X0075447Y0225334D02*
X0072478Y0225334D01*
X0072478Y0226332D02*
X0075103Y0226332D01*
X0074876Y0227331D02*
X0072478Y0227331D01*
X0072478Y0228329D02*
X0074754Y0228329D01*
X0088042Y0219343D02*
X0095191Y0219343D01*
X0096190Y0220341D02*
X0090257Y0220341D01*
X0093194Y0217346D02*
X0079263Y0217346D01*
X0078264Y0218344D02*
X0094193Y0218344D01*
X0095159Y0230326D02*
X0097478Y0230326D01*
X0097478Y0231325D02*
X0094991Y0231325D01*
X0094720Y0232323D02*
X0098172Y0232323D01*
X0099170Y0233322D02*
X0094336Y0233322D01*
X0093823Y0234320D02*
X0100169Y0234320D01*
X0100878Y0235319D02*
X0093153Y0235319D01*
X0092287Y0236317D02*
X0101368Y0236317D01*
X0102366Y0237316D02*
X0091153Y0237316D01*
X0089531Y0238314D02*
X0330264Y0238314D01*
X0322366Y0237316D02*
X0317591Y0237316D01*
X0312366Y0237316D02*
X0307591Y0237316D01*
X0302366Y0237316D02*
X0297591Y0237316D01*
X0292366Y0237316D02*
X0287591Y0237316D01*
X0282366Y0237316D02*
X0277591Y0237316D01*
X0272366Y0237316D02*
X0267591Y0237316D01*
X0262366Y0237316D02*
X0257591Y0237316D01*
X0252366Y0237316D02*
X0247591Y0237316D01*
X0242366Y0237316D02*
X0237591Y0237316D01*
X0232366Y0237316D02*
X0227591Y0237316D01*
X0222366Y0237316D02*
X0217591Y0237316D01*
X0212366Y0237316D02*
X0207591Y0237316D01*
X0202366Y0237316D02*
X0197591Y0237316D01*
X0192366Y0237316D02*
X0187591Y0237316D01*
X0182366Y0237316D02*
X0177591Y0237316D01*
X0172366Y0237316D02*
X0167591Y0237316D01*
X0162366Y0237316D02*
X0157591Y0237316D01*
X0152366Y0237316D02*
X0147591Y0237316D01*
X0142366Y0237316D02*
X0137591Y0237316D01*
X0132366Y0237316D02*
X0127591Y0237316D01*
X0122366Y0237316D02*
X0117591Y0237316D01*
X0112366Y0237316D02*
X0107591Y0237316D01*
X0051330Y0195378D02*
X0048167Y0195378D01*
X0038868Y0213352D02*
X0038719Y0213352D01*
X0038719Y0214350D02*
X0038868Y0214350D01*
X0033978Y0216347D02*
X0032979Y0216347D01*
X0032979Y0217346D02*
X0033978Y0217346D01*
X0033978Y0218344D02*
X0032979Y0218344D01*
X0032979Y0219343D02*
X0033978Y0219343D01*
X0033978Y0220341D02*
X0032979Y0220341D01*
X0239978Y0115701D02*
X0239978Y0105598D01*
X0245738Y0097799D02*
X0247510Y0096028D01*
X0247510Y0092630D01*
X0247510Y0090598D01*
X0251478Y0086630D01*
X0251478Y0087130D01*
X0255010Y0090661D01*
X0255010Y0092630D01*
X0251447Y0092630D02*
X0251447Y0096028D01*
X0253219Y0097799D01*
X0260738Y0097799D01*
X0262510Y0096028D01*
X0262510Y0092630D01*
X0258947Y0092630D02*
X0258947Y0090661D01*
X0259978Y0089630D01*
X0265478Y0089630D01*
X0266447Y0090598D01*
X0266447Y0092630D01*
X0266447Y0096028D01*
X0268219Y0097799D01*
X0269478Y0099059D01*
X0269478Y0109161D01*
X0263719Y0116961D02*
X0261947Y0118732D01*
X0261947Y0122130D01*
X0261947Y0124661D01*
X0260978Y0125630D01*
X0256478Y0125630D01*
X0255478Y0125630D01*
X0254447Y0124598D01*
X0254447Y0122130D01*
X0258010Y0122130D02*
X0258010Y0118732D01*
X0256238Y0116961D01*
X0248719Y0116961D01*
X0246947Y0118732D01*
X0246947Y0122130D01*
X0250510Y0122130D02*
X0250510Y0124598D01*
X0249478Y0125630D01*
X0243978Y0125630D01*
X0243010Y0124661D01*
X0243010Y0122130D01*
X0243010Y0118732D01*
X0241238Y0116961D01*
X0239978Y0115701D01*
X0241478Y0085630D02*
X0238978Y0083130D01*
X0238978Y0073130D01*
X0241478Y0070630D01*
X0246478Y0065630D01*
X0256478Y0065630D01*
X0259978Y0062130D01*
X0276478Y0062130D01*
X0261478Y0065630D02*
X0258978Y0068130D01*
X0246978Y0068130D01*
X0243978Y0071130D01*
X0243978Y0078630D01*
X0241478Y0081130D01*
X0295478Y0086130D02*
X0295478Y0096130D01*
X0296478Y0097130D01*
X0298978Y0097130D01*
X0299526Y0096583D01*
X0299229Y0096583D01*
X0299229Y0094099D01*
X0299228Y0094099D01*
X0299228Y0096583D01*
X0297653Y0096583D01*
X0297272Y0096480D01*
X0296930Y0096283D01*
X0296650Y0096004D01*
X0296453Y0095662D01*
X0296351Y0095280D01*
X0296351Y0094099D01*
X0299228Y0094099D01*
X0299228Y0094098D01*
X0296351Y0094098D01*
X0296351Y0092917D01*
X0296453Y0092535D01*
X0296650Y0092193D01*
X0296930Y0091914D01*
X0297014Y0091865D01*
X0296751Y0091601D01*
X0296751Y0088722D01*
X0297395Y0088077D01*
X0300531Y0088077D01*
X0300978Y0087630D01*
X0302899Y0087630D01*
X0303578Y0086950D01*
X0304399Y0086130D01*
X0310058Y0086130D01*
X0310258Y0086330D01*
X0311156Y0086330D01*
X0312038Y0086695D01*
X0312622Y0087279D01*
X0312888Y0086638D01*
X0314032Y0085494D01*
X0315527Y0084874D01*
X0317146Y0084874D01*
X0318641Y0085494D01*
X0319747Y0086599D01*
X0319816Y0086530D01*
X0320816Y0085530D01*
X0324141Y0085530D01*
X0325078Y0086467D01*
X0325765Y0087154D01*
X0332816Y0087154D01*
X0333303Y0087641D01*
X0334970Y0087641D01*
X0335388Y0088060D01*
X0341025Y0088060D01*
X0341097Y0088131D01*
X0341097Y0088057D01*
X0341199Y0087675D01*
X0341396Y0087333D01*
X0341676Y0087054D01*
X0342018Y0086856D01*
X0342399Y0086754D01*
X0345746Y0086754D01*
X0345746Y0089041D01*
X0345746Y0089041D01*
X0345746Y0086754D01*
X0349093Y0086754D01*
X0349475Y0086856D01*
X0349817Y0087054D01*
X0350096Y0087333D01*
X0350294Y0087675D01*
X0350396Y0088057D01*
X0350396Y0089041D01*
X0345746Y0089041D01*
X0345746Y0089041D01*
X0345746Y0089042D02*
X0345746Y0091329D01*
X0345746Y0091600D01*
X0345746Y0091600D01*
X0345746Y0089042D01*
X0345746Y0089042D01*
X0345746Y0089041D02*
X0350396Y0089041D01*
X0350396Y0090026D01*
X0350317Y0090321D01*
X0350396Y0090616D01*
X0350396Y0091600D01*
X0345746Y0091600D01*
X0345746Y0091601D01*
X0345746Y0091872D01*
X0345746Y0094159D01*
X0345746Y0094159D01*
X0345746Y0091601D01*
X0345746Y0091601D01*
X0350396Y0091601D01*
X0350396Y0092585D01*
X0350317Y0092880D01*
X0350396Y0093175D01*
X0350396Y0094159D01*
X0345746Y0094159D01*
X0345746Y0094160D01*
X0350396Y0094160D01*
X0350396Y0095144D01*
X0350294Y0095526D01*
X0350233Y0095630D01*
X0350478Y0095630D01*
X0351426Y0094683D01*
X0351426Y0093605D01*
X0351939Y0093092D01*
X0351605Y0092899D01*
X0351325Y0092620D01*
X0351128Y0092278D01*
X0351026Y0091896D01*
X0351026Y0089640D01*
X0354978Y0089640D01*
X0354978Y0088640D01*
X0351026Y0088640D01*
X0351026Y0086383D01*
X0351128Y0086002D01*
X0351325Y0085660D01*
X0351605Y0085380D01*
X0351947Y0085183D01*
X0352328Y0085081D01*
X0354979Y0085081D01*
X0354979Y0088640D01*
X0355978Y0088640D01*
X0355978Y0085081D01*
X0355978Y0085081D01*
X0355978Y0084130D01*
X0350478Y0078630D01*
X0345278Y0078630D01*
X0341719Y0078630D01*
X0341719Y0079630D01*
X0345278Y0079630D01*
X0345278Y0082280D01*
X0345175Y0082662D01*
X0344978Y0083004D01*
X0344699Y0083283D01*
X0344357Y0083480D01*
X0343975Y0083583D01*
X0341719Y0083583D01*
X0341719Y0079630D01*
X0340719Y0079630D01*
X0340719Y0083583D01*
X0340478Y0083583D01*
X0340478Y0086130D01*
X0326478Y0086130D01*
X0324478Y0084130D01*
X0297478Y0084130D01*
X0295478Y0086130D01*
X0295478Y0086541D02*
X0303988Y0086541D01*
X0302989Y0087539D02*
X0295478Y0087539D01*
X0295478Y0088538D02*
X0296934Y0088538D01*
X0296751Y0089536D02*
X0295478Y0089536D01*
X0295478Y0090535D02*
X0296751Y0090535D01*
X0296751Y0091533D02*
X0295478Y0091533D01*
X0295478Y0092532D02*
X0296455Y0092532D01*
X0296351Y0093530D02*
X0295478Y0093530D01*
X0295478Y0094529D02*
X0296351Y0094529D01*
X0296417Y0095527D02*
X0295478Y0095527D01*
X0295874Y0096526D02*
X0297441Y0096526D01*
X0299228Y0096526D02*
X0299229Y0096526D01*
X0299228Y0095527D02*
X0299229Y0095527D01*
X0299228Y0094529D02*
X0299229Y0094529D01*
X0296066Y0085542D02*
X0313984Y0085542D01*
X0312985Y0086541D02*
X0311664Y0086541D01*
X0311478Y0080130D02*
X0311976Y0080130D01*
X0311889Y0079585D01*
X0315852Y0079585D01*
X0315852Y0078616D01*
X0311889Y0078616D01*
X0311978Y0078054D01*
X0312196Y0077385D01*
X0312515Y0076758D01*
X0312928Y0076189D01*
X0313426Y0075692D01*
X0313995Y0075279D01*
X0314621Y0074959D01*
X0315290Y0074742D01*
X0315852Y0074653D01*
X0315852Y0078616D01*
X0316821Y0078616D01*
X0316821Y0074653D01*
X0317383Y0074742D01*
X0318052Y0074959D01*
X0318679Y0075279D01*
X0319248Y0075692D01*
X0319745Y0076189D01*
X0320159Y0076758D01*
X0320478Y0077385D01*
X0320695Y0078054D01*
X0320784Y0078616D01*
X0316821Y0078616D01*
X0316821Y0079585D01*
X0320784Y0079585D01*
X0320698Y0080130D01*
X0323978Y0080130D01*
X0327978Y0084130D01*
X0334978Y0084130D01*
X0334978Y0083583D01*
X0334238Y0083583D01*
X0334238Y0079630D01*
X0333238Y0079630D01*
X0333238Y0078630D01*
X0329679Y0078630D01*
X0329679Y0078130D01*
X0322478Y0078130D01*
X0318978Y0074630D01*
X0314073Y0074630D01*
X0313838Y0074865D01*
X0313677Y0074931D01*
X0312180Y0076429D01*
X0312113Y0076589D01*
X0311478Y0077224D01*
X0311478Y0080130D01*
X0311478Y0079551D02*
X0315852Y0079551D01*
X0316821Y0079551D02*
X0333238Y0079551D01*
X0333238Y0079630D02*
X0329679Y0079630D01*
X0329679Y0082280D01*
X0329782Y0082662D01*
X0329979Y0083004D01*
X0330258Y0083283D01*
X0330600Y0083480D01*
X0330982Y0083583D01*
X0333238Y0083583D01*
X0333238Y0079630D01*
X0333238Y0080550D02*
X0334238Y0080550D01*
X0334238Y0081548D02*
X0333238Y0081548D01*
X0333238Y0082547D02*
X0334238Y0082547D01*
X0334238Y0083545D02*
X0333238Y0083545D01*
X0330841Y0083545D02*
X0327394Y0083545D01*
X0326395Y0082547D02*
X0329751Y0082547D01*
X0329679Y0081548D02*
X0325397Y0081548D01*
X0324398Y0080550D02*
X0329679Y0080550D01*
X0329679Y0078553D02*
X0320774Y0078553D01*
X0320533Y0077554D02*
X0321903Y0077554D01*
X0320904Y0076556D02*
X0320011Y0076556D01*
X0319906Y0075557D02*
X0319062Y0075557D01*
X0316821Y0075557D02*
X0315852Y0075557D01*
X0315852Y0076556D02*
X0316821Y0076556D01*
X0316821Y0077554D02*
X0315852Y0077554D01*
X0315852Y0078553D02*
X0316821Y0078553D01*
X0313612Y0075557D02*
X0313051Y0075557D01*
X0312662Y0076556D02*
X0312127Y0076556D01*
X0312141Y0077554D02*
X0311478Y0077554D01*
X0311478Y0078553D02*
X0311899Y0078553D01*
X0318690Y0085542D02*
X0320804Y0085542D01*
X0319805Y0086541D02*
X0319688Y0086541D01*
X0321069Y0087539D02*
X0323888Y0087539D01*
X0323478Y0087130D02*
X0321478Y0087130D01*
X0320478Y0088130D01*
X0320478Y0093130D01*
X0321978Y0094630D01*
X0324561Y0094630D01*
X0324561Y0094160D01*
X0329211Y0094160D01*
X0329211Y0094159D01*
X0329211Y0091872D01*
X0329211Y0091601D01*
X0329211Y0091601D01*
X0329211Y0094159D01*
X0329211Y0094159D01*
X0324561Y0094159D01*
X0324561Y0093175D01*
X0324640Y0092880D01*
X0324561Y0092585D01*
X0324561Y0091601D01*
X0329211Y0091601D01*
X0329211Y0091600D01*
X0324561Y0091600D01*
X0324561Y0090616D01*
X0324646Y0090298D01*
X0324478Y0090130D01*
X0324478Y0088130D01*
X0323478Y0087130D01*
X0324153Y0085542D02*
X0325891Y0085542D01*
X0325152Y0086541D02*
X0351026Y0086541D01*
X0351026Y0087539D02*
X0350215Y0087539D01*
X0350396Y0088538D02*
X0351026Y0088538D01*
X0350396Y0089536D02*
X0354978Y0089536D01*
X0354979Y0088538D02*
X0355978Y0088538D01*
X0355978Y0087539D02*
X0354979Y0087539D01*
X0354979Y0086541D02*
X0355978Y0086541D01*
X0355978Y0085542D02*
X0354979Y0085542D01*
X0355978Y0084544D02*
X0340478Y0084544D01*
X0340478Y0085542D02*
X0351443Y0085542D01*
X0354395Y0082547D02*
X0345206Y0082547D01*
X0345278Y0081548D02*
X0353397Y0081548D01*
X0352398Y0080550D02*
X0345278Y0080550D01*
X0345278Y0078630D02*
X0345278Y0078630D01*
X0341719Y0079551D02*
X0351400Y0079551D01*
X0355394Y0083545D02*
X0344116Y0083545D01*
X0341719Y0083545D02*
X0340719Y0083545D01*
X0340719Y0082547D02*
X0341719Y0082547D01*
X0341719Y0081548D02*
X0340719Y0081548D01*
X0340719Y0080550D02*
X0341719Y0080550D01*
X0341277Y0087539D02*
X0333201Y0087539D01*
X0329211Y0092532D02*
X0329211Y0092532D01*
X0329211Y0093530D02*
X0329211Y0093530D01*
X0324561Y0093530D02*
X0320879Y0093530D01*
X0320478Y0092532D02*
X0324561Y0092532D01*
X0324561Y0091533D02*
X0320478Y0091533D01*
X0320478Y0090535D02*
X0324583Y0090535D01*
X0324478Y0089536D02*
X0320478Y0089536D01*
X0320478Y0088538D02*
X0324478Y0088538D01*
X0324892Y0084544D02*
X0297065Y0084544D01*
X0321877Y0094529D02*
X0324561Y0094529D01*
X0345746Y0093530D02*
X0345746Y0093530D01*
X0345746Y0092532D02*
X0345746Y0092532D01*
X0345746Y0091533D02*
X0345746Y0091533D01*
X0345746Y0090535D02*
X0345746Y0090535D01*
X0345746Y0089536D02*
X0345746Y0089536D01*
X0345746Y0088538D02*
X0345746Y0088538D01*
X0345746Y0087539D02*
X0345746Y0087539D01*
X0350374Y0090535D02*
X0351026Y0090535D01*
X0351026Y0091533D02*
X0350396Y0091533D01*
X0350396Y0092532D02*
X0351275Y0092532D01*
X0351501Y0093530D02*
X0350396Y0093530D01*
X0350396Y0094529D02*
X0351426Y0094529D01*
X0350581Y0095527D02*
X0350293Y0095527D01*
X0321467Y0114422D02*
X0319978Y0115910D01*
X0319978Y0122130D01*
X0323978Y0126130D01*
X0329978Y0126130D01*
X0332078Y0124170D01*
X0332078Y0123613D01*
X0331650Y0124041D01*
X0330919Y0124602D01*
X0330121Y0125062D01*
X0329270Y0125415D01*
X0328380Y0125653D01*
X0327506Y0125768D01*
X0327506Y0119246D01*
X0326506Y0119246D01*
X0326506Y0118246D01*
X0319984Y0118246D01*
X0320099Y0117372D01*
X0320338Y0116482D01*
X0320690Y0115631D01*
X0321151Y0114833D01*
X0321467Y0114422D01*
X0321407Y0114499D02*
X0321389Y0114499D01*
X0320767Y0115497D02*
X0320391Y0115497D01*
X0320334Y0116496D02*
X0319978Y0116496D01*
X0319978Y0117495D02*
X0320083Y0117495D01*
X0319978Y0118493D02*
X0326506Y0118493D01*
X0326506Y0119246D02*
X0319984Y0119246D01*
X0320099Y0120120D01*
X0320338Y0121010D01*
X0320690Y0121861D01*
X0321151Y0122659D01*
X0321712Y0123390D01*
X0322363Y0124041D01*
X0323094Y0124602D01*
X0323892Y0125062D01*
X0324743Y0125415D01*
X0325632Y0125653D01*
X0326506Y0125768D01*
X0326506Y0119246D01*
X0326506Y0119492D02*
X0327506Y0119492D01*
X0327506Y0120490D02*
X0326506Y0120490D01*
X0326506Y0121489D02*
X0327506Y0121489D01*
X0327506Y0122487D02*
X0326506Y0122487D01*
X0326506Y0123486D02*
X0327506Y0123486D01*
X0327506Y0124484D02*
X0326506Y0124484D01*
X0326506Y0125483D02*
X0327506Y0125483D01*
X0329018Y0125483D02*
X0330672Y0125483D01*
X0331073Y0124484D02*
X0331742Y0124484D01*
X0324995Y0125483D02*
X0323331Y0125483D01*
X0322940Y0124484D02*
X0322333Y0124484D01*
X0321807Y0123486D02*
X0321334Y0123486D01*
X0321052Y0122487D02*
X0320336Y0122487D01*
X0320536Y0121489D02*
X0319978Y0121489D01*
X0319978Y0120490D02*
X0320198Y0120490D01*
X0320016Y0119492D02*
X0319978Y0119492D01*
X0313078Y0133430D02*
X0313956Y0134307D01*
X0321475Y0134307D01*
X0321475Y0137752D01*
X0322951Y0139228D01*
X0323241Y0142875D02*
X0326888Y0139228D01*
X0328364Y0137752D01*
X0328364Y0138343D02*
X0328364Y0134307D01*
X0331978Y0134469D02*
X0339796Y0134469D01*
X0339967Y0134568D02*
X0339624Y0134370D01*
X0339345Y0134091D01*
X0339148Y0133749D01*
X0339045Y0133367D01*
X0339045Y0132717D01*
X0339045Y0132630D01*
X0332978Y0132630D01*
X0331978Y0133630D01*
X0331978Y0134630D01*
X0332978Y0135630D01*
X0343478Y0135630D01*
X0343478Y0134670D01*
X0342219Y0134670D01*
X0342219Y0132717D01*
X0342218Y0132717D01*
X0342218Y0132717D01*
X0339045Y0132717D01*
X0342218Y0132717D01*
X0342218Y0134670D01*
X0340348Y0134670D01*
X0339967Y0134568D01*
X0339073Y0133471D02*
X0332138Y0133471D01*
X0332816Y0135468D02*
X0343478Y0135468D01*
X0342218Y0134469D02*
X0342219Y0134469D01*
X0342218Y0133471D02*
X0342219Y0133471D01*
X0334565Y0144543D02*
X0330331Y0140309D01*
X0329250Y0139228D01*
X0328364Y0138343D01*
X0329250Y0139228D02*
X0326888Y0139228D01*
X0323241Y0142875D02*
X0322754Y0142875D01*
X0313596Y0142875D01*
X0311927Y0144543D01*
X0311927Y0148081D01*
X0307078Y0152930D01*
X0297624Y0152930D01*
X0334565Y0153598D02*
X0334565Y0144543D01*
X0334565Y0153598D02*
X0344014Y0163047D01*
X0365314Y0150445D02*
X0365978Y0150445D01*
X0365978Y0143456D02*
X0365822Y0143456D01*
X0365978Y0133471D02*
X0364842Y0133471D01*
X0360979Y0133471D02*
X0360978Y0133471D01*
X0360524Y0131474D02*
X0360235Y0131474D01*
X0344048Y0073560D02*
X0329566Y0073560D01*
X0331321Y0072562D02*
X0345047Y0072562D01*
X0346045Y0071563D02*
X0332374Y0071563D01*
X0333071Y0070564D02*
X0347044Y0070564D01*
X0339956Y0060579D02*
X0329836Y0060579D01*
X0329978Y0050594D02*
X0334780Y0050594D01*
X0334929Y0049596D02*
X0329978Y0049596D01*
X0329978Y0048597D02*
X0335180Y0048597D01*
X0335543Y0047599D02*
X0329978Y0047599D01*
X0329978Y0046600D02*
X0336033Y0046600D01*
X0336676Y0045602D02*
X0329978Y0045602D01*
X0329978Y0044603D02*
X0337510Y0044603D01*
X0338602Y0043605D02*
X0329978Y0043605D01*
X0329978Y0042606D02*
X0340093Y0042606D01*
X0342826Y0041608D02*
X0329978Y0041608D01*
D66*
X0299478Y0073130D02*
X0293978Y0073130D01*
X0277482Y0089626D01*
X0277482Y0099630D01*
X0281478Y0103626D01*
X0281478Y0115630D01*
X0276478Y0120630D01*
X0289478Y0108130D02*
X0290475Y0107134D01*
X0290475Y0099630D01*
X0246478Y0133630D02*
X0238478Y0125630D01*
X0236478Y0125630D01*
X0246478Y0133630D02*
X0246478Y0142630D01*
X0251478Y0147630D01*
X0251478Y0160630D01*
X0256478Y0165630D01*
X0163278Y0200930D02*
X0155178Y0200930D01*
X0148978Y0207130D01*
X0106978Y0207130D02*
X0102478Y0207130D01*
X0100978Y0205630D01*
X0088978Y0193630D01*
X0076478Y0193630D01*
X0099478Y0191630D02*
X0106978Y0191630D01*
X0109578Y0075530D02*
X0076678Y0075530D01*
X0074601Y0073452D01*
X0074601Y0064130D01*
X0050978Y0064130D02*
X0042825Y0064130D01*
X0109578Y0075530D02*
X0119978Y0065130D01*
X0119978Y0049130D01*
X0124978Y0044130D01*
D67*
X0079841Y0096315D02*
X0079841Y0102221D01*
X0099821Y0105665D02*
X0101297Y0104189D01*
X0099821Y0105665D02*
X0099821Y0109701D01*
X0103266Y0113146D01*
X0103266Y0113785D01*
X0106711Y0109701D02*
X0106711Y0105665D01*
X0105234Y0104189D01*
X0106711Y0109701D02*
X0110943Y0109701D01*
X0151678Y0184130D02*
X0150778Y0185030D01*
X0151678Y0184130D02*
X0159549Y0184130D01*
X0163309Y0187890D01*
X0214978Y0199858D02*
X0218423Y0196413D01*
X0218423Y0194937D01*
X0224575Y0188785D01*
X0226051Y0188785D01*
X0229988Y0191246D02*
X0229988Y0192723D01*
X0226297Y0196413D01*
X0226297Y0200350D01*
X0224329Y0202319D01*
X0220392Y0202319D02*
X0216455Y0202319D01*
X0216393Y0202257D01*
X0214978Y0200843D01*
X0214978Y0199858D01*
X0302578Y0194630D02*
X0302578Y0190430D01*
X0304394Y0188614D01*
X0307243Y0188614D01*
X0307243Y0164992D01*
X0304078Y0161828D01*
X0304078Y0159230D01*
X0316722Y0146587D01*
X0323779Y0146587D01*
X0302578Y0194630D02*
X0305878Y0197930D01*
X0305878Y0200330D01*
X0306778Y0201230D01*
X0311278Y0201230D01*
X0313722Y0203673D01*
X0318660Y0203673D01*
X0321522Y0203673D01*
X0322978Y0205130D01*
X0330978Y0205130D01*
X0332478Y0206630D01*
D68*
X0360378Y0204230D03*
X0363578Y0202630D03*
X0363578Y0147630D03*
X0031078Y0183430D03*
X0031078Y0187930D03*
X0031078Y0193430D03*
X0031078Y0198330D03*
X0031078Y0202930D03*
X0031078Y0207830D03*
X0031078Y0213330D03*
X0031078Y0217830D03*
M02*
