G75*
%MOIN*%
%OFA0B0*%
%FSLAX25Y25*%
%IPPOS*%
%LPD*%
%AMOC8*
5,1,8,0,0,1.08239X$1,22.5*
%
%ADD10C,0.02400*%
%ADD11C,0.04800*%
%ADD12R,0.03556X0.02769*%
%ADD13R,0.02769X0.03556*%
%ADD14R,0.03950X0.03950*%
%ADD15R,0.08280X0.05131*%
%ADD16C,0.02769*%
%ADD17R,0.04934X0.05052*%
%ADD18R,0.05131X0.03162*%
%ADD19C,0.07200*%
%ADD20R,0.05524X0.04343*%
%ADD21R,0.01883X0.03556*%
%ADD22R,0.21469X0.21469*%
%ADD23R,0.03556X0.01883*%
%ADD24R,0.02847X0.01981*%
%ADD25R,0.02729X0.01981*%
%ADD26R,0.02769X0.02769*%
%ADD27R,0.06800X0.06800*%
%ADD28OC8,0.06800*%
%ADD29R,0.05918X0.06706*%
%ADD30R,0.05052X0.04934*%
%ADD31R,0.11430X0.12414*%
%ADD32C,0.05800*%
%ADD33R,0.10249X0.08280*%
%ADD34R,0.02375X0.03753*%
%ADD35R,0.03753X0.03753*%
%ADD36R,0.03753X0.02375*%
%ADD37R,0.04737X0.04737*%
%ADD38C,0.06706*%
%ADD39R,0.09461X0.03162*%
%ADD40R,0.09461X0.14580*%
%ADD41R,0.04934X0.04737*%
%ADD42R,0.04934X0.09461*%
%ADD43C,0.18300*%
%ADD44C,0.06737*%
%ADD45C,0.11855*%
%ADD46R,0.06312X0.03556*%
%ADD47R,0.04343X0.02375*%
%ADD48C,0.01765*%
%ADD49R,0.09461X0.08674*%
%ADD50C,0.09099*%
D10*
X0044478Y0037880D02*
X0044480Y0037989D01*
X0044486Y0038098D01*
X0044496Y0038206D01*
X0044510Y0038314D01*
X0044527Y0038422D01*
X0044549Y0038529D01*
X0044574Y0038635D01*
X0044604Y0038739D01*
X0044637Y0038843D01*
X0044674Y0038946D01*
X0044714Y0039047D01*
X0044758Y0039146D01*
X0044806Y0039244D01*
X0044858Y0039341D01*
X0044912Y0039435D01*
X0044970Y0039527D01*
X0045032Y0039617D01*
X0045097Y0039704D01*
X0045164Y0039790D01*
X0045235Y0039873D01*
X0045309Y0039953D01*
X0045386Y0040030D01*
X0045465Y0040105D01*
X0045547Y0040176D01*
X0045632Y0040245D01*
X0045719Y0040310D01*
X0045808Y0040373D01*
X0045900Y0040431D01*
X0045994Y0040487D01*
X0046089Y0040539D01*
X0046187Y0040588D01*
X0046286Y0040633D01*
X0046387Y0040675D01*
X0046489Y0040712D01*
X0046592Y0040746D01*
X0046697Y0040777D01*
X0046803Y0040803D01*
X0046909Y0040826D01*
X0047017Y0040844D01*
X0047125Y0040859D01*
X0047233Y0040870D01*
X0047342Y0040877D01*
X0047451Y0040880D01*
X0047560Y0040879D01*
X0047669Y0040874D01*
X0047777Y0040865D01*
X0047885Y0040852D01*
X0047993Y0040835D01*
X0048100Y0040815D01*
X0048206Y0040790D01*
X0048311Y0040762D01*
X0048415Y0040730D01*
X0048518Y0040694D01*
X0048620Y0040654D01*
X0048720Y0040611D01*
X0048818Y0040564D01*
X0048915Y0040514D01*
X0049009Y0040460D01*
X0049102Y0040402D01*
X0049193Y0040342D01*
X0049281Y0040278D01*
X0049367Y0040211D01*
X0049450Y0040141D01*
X0049531Y0040068D01*
X0049609Y0039992D01*
X0049684Y0039913D01*
X0049757Y0039831D01*
X0049826Y0039747D01*
X0049892Y0039661D01*
X0049955Y0039572D01*
X0050015Y0039481D01*
X0050072Y0039388D01*
X0050125Y0039293D01*
X0050174Y0039196D01*
X0050220Y0039097D01*
X0050262Y0038997D01*
X0050301Y0038895D01*
X0050336Y0038791D01*
X0050367Y0038687D01*
X0050395Y0038582D01*
X0050418Y0038475D01*
X0050438Y0038368D01*
X0050454Y0038260D01*
X0050466Y0038152D01*
X0050474Y0038043D01*
X0050478Y0037934D01*
X0050478Y0037826D01*
X0050474Y0037717D01*
X0050466Y0037608D01*
X0050454Y0037500D01*
X0050438Y0037392D01*
X0050418Y0037285D01*
X0050395Y0037178D01*
X0050367Y0037073D01*
X0050336Y0036969D01*
X0050301Y0036865D01*
X0050262Y0036763D01*
X0050220Y0036663D01*
X0050174Y0036564D01*
X0050125Y0036467D01*
X0050072Y0036372D01*
X0050015Y0036279D01*
X0049955Y0036188D01*
X0049892Y0036099D01*
X0049826Y0036013D01*
X0049757Y0035929D01*
X0049684Y0035847D01*
X0049609Y0035768D01*
X0049531Y0035692D01*
X0049450Y0035619D01*
X0049367Y0035549D01*
X0049281Y0035482D01*
X0049193Y0035418D01*
X0049102Y0035358D01*
X0049009Y0035300D01*
X0048915Y0035246D01*
X0048818Y0035196D01*
X0048720Y0035149D01*
X0048620Y0035106D01*
X0048518Y0035066D01*
X0048415Y0035030D01*
X0048311Y0034998D01*
X0048206Y0034970D01*
X0048100Y0034945D01*
X0047993Y0034925D01*
X0047885Y0034908D01*
X0047777Y0034895D01*
X0047669Y0034886D01*
X0047560Y0034881D01*
X0047451Y0034880D01*
X0047342Y0034883D01*
X0047233Y0034890D01*
X0047125Y0034901D01*
X0047017Y0034916D01*
X0046909Y0034934D01*
X0046803Y0034957D01*
X0046697Y0034983D01*
X0046592Y0035014D01*
X0046489Y0035048D01*
X0046387Y0035085D01*
X0046286Y0035127D01*
X0046187Y0035172D01*
X0046089Y0035221D01*
X0045994Y0035273D01*
X0045900Y0035329D01*
X0045808Y0035387D01*
X0045719Y0035450D01*
X0045632Y0035515D01*
X0045547Y0035584D01*
X0045465Y0035655D01*
X0045386Y0035730D01*
X0045309Y0035807D01*
X0045235Y0035887D01*
X0045164Y0035970D01*
X0045097Y0036056D01*
X0045032Y0036143D01*
X0044970Y0036233D01*
X0044912Y0036325D01*
X0044858Y0036419D01*
X0044806Y0036516D01*
X0044758Y0036614D01*
X0044714Y0036713D01*
X0044674Y0036814D01*
X0044637Y0036917D01*
X0044604Y0037021D01*
X0044574Y0037125D01*
X0044549Y0037231D01*
X0044527Y0037338D01*
X0044510Y0037446D01*
X0044496Y0037554D01*
X0044486Y0037662D01*
X0044480Y0037771D01*
X0044478Y0037880D01*
X0036478Y0227880D02*
X0036480Y0227989D01*
X0036486Y0228098D01*
X0036496Y0228206D01*
X0036510Y0228314D01*
X0036527Y0228422D01*
X0036549Y0228529D01*
X0036574Y0228635D01*
X0036604Y0228739D01*
X0036637Y0228843D01*
X0036674Y0228946D01*
X0036714Y0229047D01*
X0036758Y0229146D01*
X0036806Y0229244D01*
X0036858Y0229341D01*
X0036912Y0229435D01*
X0036970Y0229527D01*
X0037032Y0229617D01*
X0037097Y0229704D01*
X0037164Y0229790D01*
X0037235Y0229873D01*
X0037309Y0229953D01*
X0037386Y0230030D01*
X0037465Y0230105D01*
X0037547Y0230176D01*
X0037632Y0230245D01*
X0037719Y0230310D01*
X0037808Y0230373D01*
X0037900Y0230431D01*
X0037994Y0230487D01*
X0038089Y0230539D01*
X0038187Y0230588D01*
X0038286Y0230633D01*
X0038387Y0230675D01*
X0038489Y0230712D01*
X0038592Y0230746D01*
X0038697Y0230777D01*
X0038803Y0230803D01*
X0038909Y0230826D01*
X0039017Y0230844D01*
X0039125Y0230859D01*
X0039233Y0230870D01*
X0039342Y0230877D01*
X0039451Y0230880D01*
X0039560Y0230879D01*
X0039669Y0230874D01*
X0039777Y0230865D01*
X0039885Y0230852D01*
X0039993Y0230835D01*
X0040100Y0230815D01*
X0040206Y0230790D01*
X0040311Y0230762D01*
X0040415Y0230730D01*
X0040518Y0230694D01*
X0040620Y0230654D01*
X0040720Y0230611D01*
X0040818Y0230564D01*
X0040915Y0230514D01*
X0041009Y0230460D01*
X0041102Y0230402D01*
X0041193Y0230342D01*
X0041281Y0230278D01*
X0041367Y0230211D01*
X0041450Y0230141D01*
X0041531Y0230068D01*
X0041609Y0229992D01*
X0041684Y0229913D01*
X0041757Y0229831D01*
X0041826Y0229747D01*
X0041892Y0229661D01*
X0041955Y0229572D01*
X0042015Y0229481D01*
X0042072Y0229388D01*
X0042125Y0229293D01*
X0042174Y0229196D01*
X0042220Y0229097D01*
X0042262Y0228997D01*
X0042301Y0228895D01*
X0042336Y0228791D01*
X0042367Y0228687D01*
X0042395Y0228582D01*
X0042418Y0228475D01*
X0042438Y0228368D01*
X0042454Y0228260D01*
X0042466Y0228152D01*
X0042474Y0228043D01*
X0042478Y0227934D01*
X0042478Y0227826D01*
X0042474Y0227717D01*
X0042466Y0227608D01*
X0042454Y0227500D01*
X0042438Y0227392D01*
X0042418Y0227285D01*
X0042395Y0227178D01*
X0042367Y0227073D01*
X0042336Y0226969D01*
X0042301Y0226865D01*
X0042262Y0226763D01*
X0042220Y0226663D01*
X0042174Y0226564D01*
X0042125Y0226467D01*
X0042072Y0226372D01*
X0042015Y0226279D01*
X0041955Y0226188D01*
X0041892Y0226099D01*
X0041826Y0226013D01*
X0041757Y0225929D01*
X0041684Y0225847D01*
X0041609Y0225768D01*
X0041531Y0225692D01*
X0041450Y0225619D01*
X0041367Y0225549D01*
X0041281Y0225482D01*
X0041193Y0225418D01*
X0041102Y0225358D01*
X0041009Y0225300D01*
X0040915Y0225246D01*
X0040818Y0225196D01*
X0040720Y0225149D01*
X0040620Y0225106D01*
X0040518Y0225066D01*
X0040415Y0225030D01*
X0040311Y0224998D01*
X0040206Y0224970D01*
X0040100Y0224945D01*
X0039993Y0224925D01*
X0039885Y0224908D01*
X0039777Y0224895D01*
X0039669Y0224886D01*
X0039560Y0224881D01*
X0039451Y0224880D01*
X0039342Y0224883D01*
X0039233Y0224890D01*
X0039125Y0224901D01*
X0039017Y0224916D01*
X0038909Y0224934D01*
X0038803Y0224957D01*
X0038697Y0224983D01*
X0038592Y0225014D01*
X0038489Y0225048D01*
X0038387Y0225085D01*
X0038286Y0225127D01*
X0038187Y0225172D01*
X0038089Y0225221D01*
X0037994Y0225273D01*
X0037900Y0225329D01*
X0037808Y0225387D01*
X0037719Y0225450D01*
X0037632Y0225515D01*
X0037547Y0225584D01*
X0037465Y0225655D01*
X0037386Y0225730D01*
X0037309Y0225807D01*
X0037235Y0225887D01*
X0037164Y0225970D01*
X0037097Y0226056D01*
X0037032Y0226143D01*
X0036970Y0226233D01*
X0036912Y0226325D01*
X0036858Y0226419D01*
X0036806Y0226516D01*
X0036758Y0226614D01*
X0036714Y0226713D01*
X0036674Y0226814D01*
X0036637Y0226917D01*
X0036604Y0227021D01*
X0036574Y0227125D01*
X0036549Y0227231D01*
X0036527Y0227338D01*
X0036510Y0227446D01*
X0036496Y0227554D01*
X0036486Y0227662D01*
X0036480Y0227771D01*
X0036478Y0227880D01*
X0311978Y0056630D02*
X0311980Y0056739D01*
X0311986Y0056848D01*
X0311996Y0056956D01*
X0312010Y0057064D01*
X0312027Y0057172D01*
X0312049Y0057279D01*
X0312074Y0057385D01*
X0312104Y0057489D01*
X0312137Y0057593D01*
X0312174Y0057696D01*
X0312214Y0057797D01*
X0312258Y0057896D01*
X0312306Y0057994D01*
X0312358Y0058091D01*
X0312412Y0058185D01*
X0312470Y0058277D01*
X0312532Y0058367D01*
X0312597Y0058454D01*
X0312664Y0058540D01*
X0312735Y0058623D01*
X0312809Y0058703D01*
X0312886Y0058780D01*
X0312965Y0058855D01*
X0313047Y0058926D01*
X0313132Y0058995D01*
X0313219Y0059060D01*
X0313308Y0059123D01*
X0313400Y0059181D01*
X0313494Y0059237D01*
X0313589Y0059289D01*
X0313687Y0059338D01*
X0313786Y0059383D01*
X0313887Y0059425D01*
X0313989Y0059462D01*
X0314092Y0059496D01*
X0314197Y0059527D01*
X0314303Y0059553D01*
X0314409Y0059576D01*
X0314517Y0059594D01*
X0314625Y0059609D01*
X0314733Y0059620D01*
X0314842Y0059627D01*
X0314951Y0059630D01*
X0315060Y0059629D01*
X0315169Y0059624D01*
X0315277Y0059615D01*
X0315385Y0059602D01*
X0315493Y0059585D01*
X0315600Y0059565D01*
X0315706Y0059540D01*
X0315811Y0059512D01*
X0315915Y0059480D01*
X0316018Y0059444D01*
X0316120Y0059404D01*
X0316220Y0059361D01*
X0316318Y0059314D01*
X0316415Y0059264D01*
X0316509Y0059210D01*
X0316602Y0059152D01*
X0316693Y0059092D01*
X0316781Y0059028D01*
X0316867Y0058961D01*
X0316950Y0058891D01*
X0317031Y0058818D01*
X0317109Y0058742D01*
X0317184Y0058663D01*
X0317257Y0058581D01*
X0317326Y0058497D01*
X0317392Y0058411D01*
X0317455Y0058322D01*
X0317515Y0058231D01*
X0317572Y0058138D01*
X0317625Y0058043D01*
X0317674Y0057946D01*
X0317720Y0057847D01*
X0317762Y0057747D01*
X0317801Y0057645D01*
X0317836Y0057541D01*
X0317867Y0057437D01*
X0317895Y0057332D01*
X0317918Y0057225D01*
X0317938Y0057118D01*
X0317954Y0057010D01*
X0317966Y0056902D01*
X0317974Y0056793D01*
X0317978Y0056684D01*
X0317978Y0056576D01*
X0317974Y0056467D01*
X0317966Y0056358D01*
X0317954Y0056250D01*
X0317938Y0056142D01*
X0317918Y0056035D01*
X0317895Y0055928D01*
X0317867Y0055823D01*
X0317836Y0055719D01*
X0317801Y0055615D01*
X0317762Y0055513D01*
X0317720Y0055413D01*
X0317674Y0055314D01*
X0317625Y0055217D01*
X0317572Y0055122D01*
X0317515Y0055029D01*
X0317455Y0054938D01*
X0317392Y0054849D01*
X0317326Y0054763D01*
X0317257Y0054679D01*
X0317184Y0054597D01*
X0317109Y0054518D01*
X0317031Y0054442D01*
X0316950Y0054369D01*
X0316867Y0054299D01*
X0316781Y0054232D01*
X0316693Y0054168D01*
X0316602Y0054108D01*
X0316509Y0054050D01*
X0316415Y0053996D01*
X0316318Y0053946D01*
X0316220Y0053899D01*
X0316120Y0053856D01*
X0316018Y0053816D01*
X0315915Y0053780D01*
X0315811Y0053748D01*
X0315706Y0053720D01*
X0315600Y0053695D01*
X0315493Y0053675D01*
X0315385Y0053658D01*
X0315277Y0053645D01*
X0315169Y0053636D01*
X0315060Y0053631D01*
X0314951Y0053630D01*
X0314842Y0053633D01*
X0314733Y0053640D01*
X0314625Y0053651D01*
X0314517Y0053666D01*
X0314409Y0053684D01*
X0314303Y0053707D01*
X0314197Y0053733D01*
X0314092Y0053764D01*
X0313989Y0053798D01*
X0313887Y0053835D01*
X0313786Y0053877D01*
X0313687Y0053922D01*
X0313589Y0053971D01*
X0313494Y0054023D01*
X0313400Y0054079D01*
X0313308Y0054137D01*
X0313219Y0054200D01*
X0313132Y0054265D01*
X0313047Y0054334D01*
X0312965Y0054405D01*
X0312886Y0054480D01*
X0312809Y0054557D01*
X0312735Y0054637D01*
X0312664Y0054720D01*
X0312597Y0054806D01*
X0312532Y0054893D01*
X0312470Y0054983D01*
X0312412Y0055075D01*
X0312358Y0055169D01*
X0312306Y0055266D01*
X0312258Y0055364D01*
X0312214Y0055463D01*
X0312174Y0055564D01*
X0312137Y0055667D01*
X0312104Y0055771D01*
X0312074Y0055875D01*
X0312049Y0055981D01*
X0312027Y0056088D01*
X0312010Y0056196D01*
X0311996Y0056304D01*
X0311986Y0056412D01*
X0311980Y0056521D01*
X0311978Y0056630D01*
D11*
X0047478Y0037880D03*
X0039478Y0227880D03*
X0314978Y0056630D03*
D12*
X0292978Y0128161D03*
X0292978Y0132098D03*
X0344014Y0136473D03*
X0344014Y0140410D03*
X0344014Y0143756D03*
X0344014Y0147693D03*
X0327478Y0211661D03*
X0327478Y0215598D03*
X0322478Y0215598D03*
X0322478Y0211661D03*
X0317478Y0211661D03*
X0317478Y0215598D03*
X0312478Y0215598D03*
X0312478Y0211661D03*
X0307478Y0211661D03*
X0307478Y0215598D03*
X0302478Y0215598D03*
X0302478Y0211661D03*
X0297478Y0211661D03*
X0297478Y0215598D03*
X0292478Y0215598D03*
X0292478Y0211661D03*
X0249978Y0211661D03*
X0249978Y0215598D03*
X0244978Y0215598D03*
X0244978Y0211661D03*
X0239978Y0211661D03*
X0239978Y0215598D03*
X0156978Y0203598D03*
X0156978Y0199661D03*
X0149034Y0164425D03*
X0149034Y0160488D03*
X0142144Y0160488D03*
X0142144Y0164425D03*
X0139978Y0152098D03*
X0139978Y0148161D03*
X0144978Y0148161D03*
X0144978Y0152098D03*
X0173978Y0123598D03*
X0173978Y0119661D03*
X0173978Y0116598D03*
X0168978Y0116161D03*
X0173978Y0112661D03*
X0168978Y0120098D03*
X0173978Y0103598D03*
X0173978Y0099661D03*
X0168978Y0100098D03*
X0168978Y0096161D03*
X0173978Y0096598D03*
X0173978Y0092661D03*
X0079841Y0106994D03*
X0079841Y0110931D03*
X0080628Y0175055D03*
X0080628Y0178992D03*
X0075904Y0178992D03*
X0075904Y0175055D03*
X0071179Y0175055D03*
X0071179Y0178992D03*
X0066455Y0178992D03*
X0066455Y0175055D03*
X0061730Y0175055D03*
X0061730Y0178992D03*
X0085353Y0178992D03*
X0085353Y0175055D03*
X0090864Y0175055D03*
X0090864Y0178992D03*
X0096376Y0178992D03*
X0096376Y0175055D03*
X0052978Y0200161D03*
X0052978Y0204098D03*
X0050478Y0215161D03*
X0050478Y0219098D03*
X0055978Y0219098D03*
X0061478Y0219098D03*
X0061478Y0215161D03*
X0055978Y0215161D03*
X0066978Y0215161D03*
X0066978Y0219098D03*
D13*
X0067947Y0207630D03*
X0064010Y0207630D03*
X0104510Y0216130D03*
X0108447Y0216130D03*
X0111510Y0216130D03*
X0115447Y0216130D03*
X0143510Y0213130D03*
X0147447Y0213130D03*
X0147557Y0182142D03*
X0143620Y0182142D03*
X0124329Y0129189D03*
X0124329Y0125252D03*
X0120392Y0125252D03*
X0120392Y0129189D03*
X0120392Y0121315D03*
X0124329Y0121315D03*
X0124329Y0117378D03*
X0120392Y0117378D03*
X0135746Y0117673D03*
X0139683Y0117673D03*
X0139683Y0124563D03*
X0135746Y0124563D03*
X0095195Y0092772D03*
X0091258Y0092772D03*
X0084959Y0092772D03*
X0081022Y0092772D03*
X0104510Y0074630D03*
X0108447Y0074630D03*
X0119510Y0074630D03*
X0123447Y0074630D03*
X0138510Y0063630D03*
X0142447Y0063630D03*
X0123447Y0052630D03*
X0119510Y0052630D03*
X0108447Y0052630D03*
X0104510Y0052630D03*
X0044447Y0096130D03*
X0040510Y0096130D03*
X0053069Y0123087D03*
X0057006Y0123087D03*
X0057006Y0161669D03*
X0053069Y0161669D03*
X0167510Y0082630D03*
X0171447Y0082630D03*
X0171447Y0077630D03*
X0167510Y0077630D03*
X0167510Y0072630D03*
X0171447Y0072630D03*
X0171447Y0062630D03*
X0167510Y0062630D03*
X0167510Y0057630D03*
X0171447Y0057630D03*
X0171447Y0052630D03*
X0167510Y0052630D03*
X0297360Y0179189D03*
X0301297Y0179189D03*
X0356010Y0180130D03*
X0359947Y0180130D03*
X0359947Y0185130D03*
X0356010Y0185130D03*
X0356010Y0190130D03*
X0359947Y0190130D03*
X0359947Y0195130D03*
X0356010Y0195130D03*
X0356010Y0175130D03*
X0359947Y0175130D03*
X0359947Y0170130D03*
X0356010Y0170130D03*
X0356010Y0165130D03*
X0359947Y0165130D03*
X0359947Y0160130D03*
X0356010Y0160130D03*
X0356010Y0155130D03*
X0359947Y0155130D03*
X0348947Y0130630D03*
X0345010Y0130630D03*
D14*
X0105234Y0092772D03*
X0099329Y0092772D03*
X0076888Y0092772D03*
X0070982Y0092772D03*
X0045431Y0089130D03*
X0039526Y0089130D03*
X0037026Y0190380D03*
X0042931Y0190380D03*
X0042931Y0197880D03*
X0037026Y0197880D03*
X0037026Y0205380D03*
X0042931Y0205380D03*
X0042931Y0212880D03*
X0037026Y0212880D03*
D15*
X0157978Y0103051D03*
X0157978Y0093209D03*
D16*
X0183978Y0093130D03*
X0183978Y0088130D03*
X0188978Y0088130D03*
X0188978Y0093130D03*
X0193978Y0093130D03*
X0193978Y0088130D03*
X0198978Y0088130D03*
X0198978Y0093130D03*
X0198978Y0098130D03*
X0193978Y0098130D03*
X0188978Y0098130D03*
X0183978Y0098130D03*
X0183978Y0103130D03*
X0188978Y0103130D03*
X0193978Y0103130D03*
X0198978Y0103130D03*
X0198978Y0108130D03*
X0193978Y0108130D03*
X0188978Y0108130D03*
X0183978Y0108130D03*
X0183978Y0113130D03*
X0188978Y0113130D03*
X0193978Y0113130D03*
X0198978Y0113130D03*
X0198978Y0118130D03*
X0193978Y0118130D03*
X0188978Y0118130D03*
X0183978Y0118130D03*
X0183978Y0123130D03*
X0188978Y0123130D03*
X0193978Y0123130D03*
X0198978Y0123130D03*
X0198978Y0128130D03*
X0193978Y0128130D03*
X0188978Y0128130D03*
X0183978Y0128130D03*
X0183978Y0133130D03*
X0188978Y0133130D03*
X0193978Y0133130D03*
X0198978Y0133130D03*
X0198978Y0138130D03*
X0193978Y0138130D03*
X0188978Y0138130D03*
X0183978Y0138130D03*
X0183978Y0143130D03*
X0188978Y0143130D03*
X0193978Y0143130D03*
X0198978Y0143130D03*
X0198978Y0148130D03*
X0193978Y0148130D03*
X0188978Y0148130D03*
X0183978Y0148130D03*
X0183978Y0153130D03*
X0188978Y0153130D03*
X0193978Y0153130D03*
X0198978Y0153130D03*
X0198978Y0158130D03*
X0193978Y0158130D03*
X0188978Y0158130D03*
X0183978Y0158130D03*
X0183978Y0163130D03*
X0188978Y0163130D03*
X0193978Y0163130D03*
X0198978Y0163130D03*
X0203978Y0163130D03*
X0208978Y0163130D03*
X0213978Y0163130D03*
X0213978Y0158130D03*
X0208978Y0158130D03*
X0203978Y0158130D03*
X0203978Y0153130D03*
X0203978Y0148130D03*
X0208978Y0148130D03*
X0208978Y0153130D03*
X0213978Y0153130D03*
X0213978Y0148130D03*
X0213978Y0143130D03*
X0208978Y0143130D03*
X0203978Y0143130D03*
X0203978Y0138130D03*
X0208978Y0138130D03*
X0213978Y0138130D03*
X0213978Y0133130D03*
X0208978Y0133130D03*
X0203978Y0133130D03*
X0203978Y0128130D03*
X0208978Y0128130D03*
X0213978Y0128130D03*
X0213978Y0123130D03*
X0208978Y0123130D03*
X0203978Y0123130D03*
X0203978Y0118130D03*
X0208978Y0118130D03*
X0213978Y0118130D03*
X0213978Y0113130D03*
X0208978Y0113130D03*
X0203978Y0113130D03*
X0203978Y0108130D03*
X0208978Y0108130D03*
X0213978Y0108130D03*
X0213978Y0103130D03*
X0208978Y0103130D03*
X0203978Y0103130D03*
X0203978Y0098130D03*
X0208978Y0098130D03*
X0213978Y0098130D03*
X0213978Y0093130D03*
X0208978Y0093130D03*
X0203978Y0093130D03*
X0203978Y0088130D03*
X0208978Y0088130D03*
X0213978Y0088130D03*
X0213978Y0083130D03*
X0208978Y0083130D03*
X0203978Y0083130D03*
X0198978Y0083130D03*
X0193978Y0083130D03*
X0188978Y0083130D03*
X0183978Y0083130D03*
X0183978Y0078130D03*
X0188978Y0078130D03*
X0193978Y0078130D03*
X0198978Y0078130D03*
X0198978Y0073130D03*
X0193978Y0073130D03*
X0188978Y0073130D03*
X0183978Y0073130D03*
X0183978Y0068130D03*
X0188978Y0068130D03*
X0193978Y0068130D03*
X0198978Y0068130D03*
X0203978Y0068130D03*
X0208978Y0068130D03*
X0213978Y0068130D03*
X0213978Y0073130D03*
X0208978Y0073130D03*
X0203978Y0073130D03*
X0203978Y0078130D03*
X0208978Y0078130D03*
X0213978Y0078130D03*
X0218978Y0078130D03*
X0223978Y0078130D03*
X0228978Y0078130D03*
X0233978Y0078130D03*
X0233978Y0083130D03*
X0228978Y0083130D03*
X0223978Y0083130D03*
X0218978Y0083130D03*
X0218978Y0088130D03*
X0218978Y0093130D03*
X0223978Y0093130D03*
X0223978Y0088130D03*
X0228978Y0088130D03*
X0228978Y0093130D03*
X0233978Y0093130D03*
X0233978Y0088130D03*
X0238978Y0088130D03*
X0238978Y0093130D03*
X0243978Y0093130D03*
X0243978Y0088130D03*
X0248978Y0088130D03*
X0248978Y0093130D03*
X0248978Y0098130D03*
X0243978Y0098130D03*
X0238978Y0098130D03*
X0233978Y0098130D03*
X0228978Y0098130D03*
X0223978Y0098130D03*
X0218978Y0098130D03*
X0218978Y0103130D03*
X0223978Y0103130D03*
X0228978Y0103130D03*
X0233978Y0103130D03*
X0233978Y0108130D03*
X0228978Y0108130D03*
X0223978Y0108130D03*
X0218978Y0108130D03*
X0218978Y0113130D03*
X0223978Y0113130D03*
X0228978Y0113130D03*
X0233978Y0113130D03*
X0233978Y0118130D03*
X0228978Y0118130D03*
X0223978Y0118130D03*
X0218978Y0118130D03*
X0218978Y0123130D03*
X0223978Y0123130D03*
X0228978Y0123130D03*
X0233978Y0123130D03*
X0233978Y0128130D03*
X0228978Y0128130D03*
X0223978Y0128130D03*
X0218978Y0128130D03*
X0218978Y0133130D03*
X0223978Y0133130D03*
X0228978Y0133130D03*
X0233978Y0133130D03*
X0233978Y0138130D03*
X0228978Y0138130D03*
X0223978Y0138130D03*
X0218978Y0138130D03*
X0218978Y0143130D03*
X0223978Y0143130D03*
X0228978Y0143130D03*
X0233978Y0143130D03*
X0233978Y0148130D03*
X0228978Y0148130D03*
X0223978Y0148130D03*
X0218978Y0148130D03*
X0218978Y0153130D03*
X0223978Y0153130D03*
X0228978Y0153130D03*
X0233978Y0153130D03*
X0233978Y0158130D03*
X0228978Y0158130D03*
X0223978Y0158130D03*
X0218978Y0158130D03*
X0218978Y0163130D03*
X0223978Y0163130D03*
X0228978Y0163130D03*
X0233978Y0163130D03*
X0238978Y0163130D03*
X0243978Y0163130D03*
X0248978Y0163130D03*
X0248978Y0158130D03*
X0243978Y0158130D03*
X0238978Y0158130D03*
X0238978Y0153130D03*
X0238978Y0148130D03*
X0243978Y0148130D03*
X0243978Y0153130D03*
X0248978Y0153130D03*
X0248978Y0148130D03*
X0248978Y0143130D03*
X0243978Y0143130D03*
X0238978Y0143130D03*
X0238978Y0138130D03*
X0243978Y0138130D03*
X0248978Y0138130D03*
X0248978Y0133130D03*
X0243978Y0133130D03*
X0238978Y0133130D03*
X0238978Y0128130D03*
X0243978Y0128130D03*
X0248978Y0128130D03*
X0248978Y0123130D03*
X0243978Y0123130D03*
X0238978Y0123130D03*
X0238978Y0118130D03*
X0243978Y0118130D03*
X0248978Y0118130D03*
X0248978Y0113130D03*
X0243978Y0113130D03*
X0238978Y0113130D03*
X0238978Y0108130D03*
X0243978Y0108130D03*
X0248978Y0108130D03*
X0248978Y0103130D03*
X0243978Y0103130D03*
X0238978Y0103130D03*
X0253978Y0103130D03*
X0258978Y0103130D03*
X0263978Y0103130D03*
X0268978Y0103130D03*
X0268978Y0108130D03*
X0263978Y0108130D03*
X0258978Y0108130D03*
X0253978Y0108130D03*
X0253978Y0113130D03*
X0258978Y0113130D03*
X0263978Y0113130D03*
X0268978Y0113130D03*
X0268978Y0118130D03*
X0263978Y0118130D03*
X0258978Y0118130D03*
X0253978Y0118130D03*
X0253978Y0123130D03*
X0258978Y0123130D03*
X0263978Y0123130D03*
X0268978Y0123130D03*
X0268978Y0128130D03*
X0263978Y0128130D03*
X0258978Y0128130D03*
X0253978Y0128130D03*
X0253978Y0133130D03*
X0258978Y0133130D03*
X0263978Y0133130D03*
X0268978Y0133130D03*
X0268978Y0138130D03*
X0263978Y0138130D03*
X0258978Y0138130D03*
X0253978Y0138130D03*
X0253978Y0143130D03*
X0258978Y0143130D03*
X0263978Y0143130D03*
X0268978Y0143130D03*
X0268978Y0148130D03*
X0263978Y0148130D03*
X0258978Y0148130D03*
X0253978Y0148130D03*
X0253978Y0153130D03*
X0258978Y0153130D03*
X0263978Y0153130D03*
X0268978Y0153130D03*
X0268978Y0158130D03*
X0263978Y0158130D03*
X0258978Y0158130D03*
X0253978Y0158130D03*
X0253978Y0163130D03*
X0258978Y0163130D03*
X0263978Y0163130D03*
X0268978Y0163130D03*
X0273978Y0163130D03*
X0278978Y0163130D03*
X0278978Y0158130D03*
X0273978Y0158130D03*
X0273978Y0153130D03*
X0273978Y0148130D03*
X0278978Y0148130D03*
X0278978Y0153130D03*
X0278978Y0143130D03*
X0273978Y0143130D03*
X0273978Y0138130D03*
X0278978Y0138130D03*
X0278978Y0133130D03*
X0273978Y0133130D03*
X0273978Y0128130D03*
X0278978Y0128130D03*
X0278978Y0123130D03*
X0273978Y0123130D03*
X0273978Y0118130D03*
X0278978Y0118130D03*
X0278978Y0113130D03*
X0273978Y0113130D03*
X0273978Y0108130D03*
X0278978Y0108130D03*
X0278978Y0103130D03*
X0273978Y0103130D03*
X0273978Y0098130D03*
X0278978Y0098130D03*
X0278978Y0093130D03*
X0273978Y0093130D03*
X0273978Y0088130D03*
X0278978Y0088130D03*
X0278978Y0083130D03*
X0273978Y0083130D03*
X0268978Y0083130D03*
X0263978Y0083130D03*
X0258978Y0083130D03*
X0253978Y0083130D03*
X0248978Y0083130D03*
X0243978Y0083130D03*
X0238978Y0083130D03*
X0238978Y0078130D03*
X0243978Y0078130D03*
X0248978Y0078130D03*
X0248978Y0073130D03*
X0243978Y0073130D03*
X0238978Y0073130D03*
X0233978Y0073130D03*
X0228978Y0073130D03*
X0223978Y0073130D03*
X0218978Y0073130D03*
X0218978Y0068130D03*
X0223978Y0068130D03*
X0228978Y0068130D03*
X0233978Y0068130D03*
X0238978Y0068130D03*
X0243978Y0068130D03*
X0248978Y0068130D03*
X0253978Y0068130D03*
X0258978Y0068130D03*
X0263978Y0068130D03*
X0268978Y0068130D03*
X0268978Y0073130D03*
X0263978Y0073130D03*
X0258978Y0073130D03*
X0253978Y0073130D03*
X0253978Y0078130D03*
X0258978Y0078130D03*
X0263978Y0078130D03*
X0268978Y0078130D03*
X0273978Y0078130D03*
X0278978Y0078130D03*
X0278978Y0073130D03*
X0273978Y0073130D03*
X0273978Y0068130D03*
X0278978Y0068130D03*
X0268978Y0088130D03*
X0263978Y0088130D03*
X0258978Y0088130D03*
X0253978Y0088130D03*
X0253978Y0093130D03*
X0258978Y0093130D03*
X0263978Y0093130D03*
X0268978Y0093130D03*
X0268978Y0098130D03*
X0263978Y0098130D03*
X0258978Y0098130D03*
X0253978Y0098130D03*
D17*
X0155423Y0072630D03*
X0148534Y0072630D03*
X0345034Y0201130D03*
X0351923Y0201130D03*
D18*
X0120490Y0067370D03*
X0120490Y0059890D03*
X0109467Y0059890D03*
X0109467Y0063630D03*
X0109467Y0067370D03*
D19*
X0095478Y0068630D03*
X0085478Y0068630D03*
X0085478Y0058630D03*
X0095478Y0058630D03*
X0131978Y0063630D03*
D20*
X0066603Y0188677D03*
X0066603Y0194583D03*
X0050854Y0194583D03*
X0050854Y0188677D03*
X0050854Y0226177D03*
X0050854Y0232083D03*
X0066603Y0232083D03*
X0066603Y0226177D03*
X0317104Y0199583D03*
X0317104Y0193677D03*
X0332853Y0193677D03*
X0332853Y0199583D03*
D21*
X0332597Y0182732D03*
X0334565Y0182732D03*
X0336534Y0182732D03*
X0330628Y0182732D03*
X0328660Y0182732D03*
X0326691Y0182732D03*
X0324723Y0182732D03*
X0322754Y0182732D03*
X0320786Y0182732D03*
X0318817Y0182732D03*
X0316849Y0182732D03*
X0314880Y0182732D03*
X0312912Y0182732D03*
X0310943Y0182732D03*
X0308975Y0182732D03*
X0307006Y0182732D03*
X0307006Y0148087D03*
X0308975Y0148087D03*
X0310943Y0148087D03*
X0312912Y0148087D03*
X0314880Y0148087D03*
X0316849Y0148087D03*
X0318817Y0148087D03*
X0320786Y0148087D03*
X0322754Y0148087D03*
X0324723Y0148087D03*
X0326691Y0148087D03*
X0328660Y0148087D03*
X0330628Y0148087D03*
X0332597Y0148087D03*
X0334565Y0148087D03*
X0336534Y0148087D03*
D22*
X0321770Y0165410D03*
D23*
X0339093Y0166394D03*
X0339093Y0168362D03*
X0339093Y0170331D03*
X0339093Y0172299D03*
X0339093Y0174268D03*
X0339093Y0176236D03*
X0339093Y0178205D03*
X0339093Y0180173D03*
X0339093Y0164425D03*
X0339093Y0162457D03*
X0339093Y0160488D03*
X0339093Y0158520D03*
X0339093Y0156551D03*
X0339093Y0154583D03*
X0339093Y0152614D03*
X0339093Y0150646D03*
X0304447Y0150646D03*
X0304447Y0152614D03*
X0304447Y0154583D03*
X0304447Y0156551D03*
X0304447Y0158520D03*
X0304447Y0160488D03*
X0304447Y0162457D03*
X0304447Y0164425D03*
X0304447Y0166394D03*
X0304447Y0168362D03*
X0304447Y0170331D03*
X0304447Y0172299D03*
X0304447Y0174268D03*
X0304447Y0176236D03*
X0304447Y0178205D03*
X0304447Y0180173D03*
D24*
X0060975Y0200161D03*
D25*
X0060955Y0202130D03*
X0060955Y0204098D03*
X0058002Y0204098D03*
X0058002Y0202130D03*
X0058002Y0200161D03*
D26*
X0299478Y0134264D03*
X0299478Y0125996D03*
D27*
X0194978Y0056630D03*
X0104978Y0034130D03*
X0104978Y0224130D03*
D28*
X0114978Y0224130D03*
X0124978Y0224130D03*
X0134978Y0224130D03*
X0144978Y0224130D03*
X0154978Y0224130D03*
X0164978Y0224130D03*
X0174978Y0224130D03*
X0184978Y0224130D03*
X0194978Y0224130D03*
X0204978Y0224130D03*
X0214978Y0224130D03*
X0224978Y0224130D03*
X0234978Y0224130D03*
X0244978Y0224130D03*
X0254978Y0224130D03*
X0264978Y0224130D03*
X0274978Y0224130D03*
X0284978Y0224130D03*
X0294978Y0224130D03*
X0304978Y0224130D03*
X0314978Y0224130D03*
X0324978Y0224130D03*
X0324978Y0234130D03*
X0314978Y0234130D03*
X0304978Y0234130D03*
X0294978Y0234130D03*
X0284978Y0234130D03*
X0274978Y0234130D03*
X0264978Y0234130D03*
X0254978Y0234130D03*
X0244978Y0234130D03*
X0234978Y0234130D03*
X0224978Y0234130D03*
X0214978Y0234130D03*
X0204978Y0234130D03*
X0194978Y0234130D03*
X0184978Y0234130D03*
X0174978Y0234130D03*
X0164978Y0234130D03*
X0154978Y0234130D03*
X0144978Y0234130D03*
X0134978Y0234130D03*
X0124978Y0234130D03*
X0114978Y0234130D03*
X0104978Y0234130D03*
X0204978Y0056630D03*
X0214978Y0056630D03*
X0224978Y0056630D03*
X0234978Y0056630D03*
X0244978Y0056630D03*
X0244978Y0044130D03*
X0234978Y0044130D03*
X0224978Y0044130D03*
X0214978Y0044130D03*
X0204978Y0044130D03*
X0194978Y0044130D03*
X0184978Y0044130D03*
X0174978Y0044130D03*
X0164978Y0044130D03*
X0154978Y0044130D03*
X0144978Y0044130D03*
X0134978Y0044130D03*
X0124978Y0044130D03*
X0114978Y0044130D03*
X0104978Y0044130D03*
X0114978Y0034130D03*
X0124978Y0034130D03*
X0134978Y0034130D03*
X0144978Y0034130D03*
X0154978Y0034130D03*
X0164978Y0034130D03*
X0174978Y0034130D03*
X0184978Y0034130D03*
X0194978Y0034130D03*
X0204978Y0034130D03*
X0214978Y0034130D03*
X0224978Y0034130D03*
X0234978Y0034130D03*
X0244978Y0034130D03*
X0254978Y0034130D03*
X0264978Y0034130D03*
X0264978Y0044130D03*
X0254978Y0044130D03*
X0274978Y0044130D03*
X0274978Y0034130D03*
X0284978Y0034130D03*
X0294978Y0034130D03*
X0294978Y0044130D03*
X0284978Y0044130D03*
X0304978Y0044130D03*
X0314978Y0044130D03*
X0314978Y0034130D03*
X0304978Y0034130D03*
X0324978Y0034130D03*
X0324978Y0044130D03*
D29*
X0302219Y0092130D03*
X0294738Y0092130D03*
D30*
X0338478Y0127185D03*
X0338478Y0134075D03*
X0348478Y0158185D03*
X0348478Y0165075D03*
X0126978Y0183685D03*
X0126978Y0190575D03*
X0119478Y0198185D03*
X0119478Y0205075D03*
D31*
X0299478Y0081917D03*
X0299478Y0055343D03*
D32*
X0176578Y0056630D03*
X0097557Y0108520D03*
X0093227Y0104189D03*
X0055727Y0136177D03*
X0050215Y0139622D03*
X0120146Y0137900D03*
X0125313Y0141345D03*
X0120146Y0144789D03*
X0126691Y0150646D03*
D33*
X0157978Y0125807D03*
X0157978Y0110453D03*
D34*
X0107400Y0117575D03*
X0104644Y0117575D03*
X0101888Y0117575D03*
X0099132Y0117575D03*
X0096376Y0117575D03*
X0093620Y0117575D03*
X0090864Y0117575D03*
X0088108Y0117575D03*
X0085353Y0117575D03*
X0082597Y0117575D03*
X0079841Y0117575D03*
X0077085Y0117575D03*
X0074329Y0117575D03*
X0071573Y0117575D03*
X0068817Y0117575D03*
X0068817Y0167181D03*
X0071573Y0167181D03*
X0074329Y0167181D03*
X0077085Y0167181D03*
X0079841Y0167181D03*
X0082597Y0167181D03*
X0085353Y0167181D03*
X0088108Y0167181D03*
X0090864Y0167181D03*
X0093620Y0167181D03*
X0096376Y0167181D03*
X0099132Y0167181D03*
X0101888Y0167181D03*
X0104644Y0167181D03*
X0107400Y0167181D03*
D35*
X0111829Y0165902D03*
X0064388Y0165902D03*
X0064388Y0118854D03*
X0111829Y0118854D03*
D36*
X0112912Y0123087D03*
X0112912Y0125843D03*
X0112912Y0128598D03*
X0112912Y0131354D03*
X0112912Y0134110D03*
X0112912Y0136866D03*
X0112912Y0139622D03*
X0112912Y0142378D03*
X0112912Y0145134D03*
X0112912Y0147890D03*
X0112912Y0150646D03*
X0112912Y0153402D03*
X0112912Y0156158D03*
X0112912Y0158913D03*
X0112912Y0161669D03*
X0063305Y0161669D03*
X0063305Y0158913D03*
X0063305Y0156158D03*
X0063305Y0153402D03*
X0063305Y0150646D03*
X0063305Y0147890D03*
X0063305Y0145134D03*
X0063305Y0142378D03*
X0063305Y0139622D03*
X0063305Y0136866D03*
X0063305Y0134110D03*
X0063305Y0131354D03*
X0063305Y0128598D03*
X0063305Y0125843D03*
X0063305Y0123087D03*
D37*
X0072951Y0127221D03*
X0072951Y0132732D03*
X0078463Y0132732D03*
X0083975Y0132732D03*
X0083975Y0127221D03*
X0078463Y0127221D03*
X0092242Y0127221D03*
X0092242Y0132732D03*
X0097754Y0132732D03*
X0103266Y0132732D03*
X0103266Y0127221D03*
X0097754Y0127221D03*
X0097754Y0138244D03*
X0103266Y0138244D03*
X0103266Y0146512D03*
X0097754Y0146512D03*
X0097754Y0152024D03*
X0103266Y0152024D03*
X0103266Y0157535D03*
X0097754Y0157535D03*
X0092242Y0157535D03*
X0092242Y0152024D03*
X0092242Y0146512D03*
X0083975Y0146512D03*
X0078463Y0146512D03*
X0078463Y0152024D03*
X0083975Y0152024D03*
X0083975Y0157535D03*
X0078463Y0157535D03*
X0072951Y0157535D03*
X0072951Y0152024D03*
X0072951Y0146512D03*
X0072951Y0138244D03*
X0078463Y0138244D03*
X0083975Y0138244D03*
X0092242Y0138244D03*
D38*
X0358026Y0137835D02*
X0363931Y0137835D01*
X0363931Y0113425D02*
X0358026Y0113425D01*
D39*
X0108683Y0189130D03*
X0108683Y0194130D03*
X0108683Y0199130D03*
X0108683Y0204130D03*
X0108683Y0209130D03*
D40*
X0084274Y0199130D03*
D41*
X0046770Y0166689D03*
X0046770Y0118067D03*
D42*
X0052577Y0112063D03*
X0040963Y0112063D03*
X0040963Y0172693D03*
X0052577Y0172693D03*
D43*
X0084978Y0229130D03*
X0084978Y0039130D03*
X0344978Y0051630D03*
X0344978Y0216630D03*
D44*
X0316337Y0106660D03*
X0316337Y0096817D03*
X0316337Y0088943D03*
X0316337Y0079100D03*
D45*
X0327006Y0067014D03*
X0327006Y0118746D03*
D46*
X0149809Y0197890D03*
X0141148Y0197890D03*
X0141148Y0201630D03*
X0141148Y0205370D03*
X0149809Y0205370D03*
D47*
X0147648Y0066189D03*
X0147648Y0061071D03*
X0156309Y0061071D03*
X0156309Y0063630D03*
X0156309Y0066189D03*
D48*
X0197016Y0182880D03*
X0198984Y0182880D03*
X0198984Y0184848D03*
X0197016Y0184848D03*
X0197016Y0186817D03*
X0198984Y0186817D03*
X0198984Y0188785D03*
X0197016Y0188785D03*
X0197016Y0190754D03*
X0198984Y0190754D03*
X0198984Y0192723D03*
X0198984Y0194691D03*
X0197016Y0194691D03*
X0197016Y0192723D03*
X0200953Y0192723D03*
X0200953Y0194691D03*
X0200953Y0196660D03*
X0200953Y0198628D03*
X0200953Y0200597D03*
X0200953Y0202565D03*
X0200953Y0204534D03*
X0200953Y0206502D03*
X0202921Y0206502D03*
X0202921Y0204534D03*
X0204890Y0204534D03*
X0204890Y0206502D03*
X0206858Y0206502D03*
X0206858Y0204534D03*
X0208827Y0204534D03*
X0208827Y0206502D03*
X0210795Y0206502D03*
X0210795Y0204534D03*
X0212764Y0204534D03*
X0212764Y0206502D03*
X0214732Y0206502D03*
X0214732Y0204534D03*
X0216701Y0204534D03*
X0216701Y0206502D03*
X0218669Y0206502D03*
X0218669Y0204534D03*
X0220638Y0204534D03*
X0220638Y0206502D03*
X0222606Y0206502D03*
X0222606Y0204534D03*
X0222606Y0202565D03*
X0220638Y0202565D03*
X0220638Y0200597D03*
X0222606Y0200597D03*
X0222606Y0198628D03*
X0220638Y0198628D03*
X0220638Y0196660D03*
X0222606Y0196660D03*
X0222606Y0194691D03*
X0220638Y0194691D03*
X0220638Y0192723D03*
X0222606Y0192723D03*
X0222606Y0190754D03*
X0220638Y0190754D03*
X0220638Y0188785D03*
X0220638Y0186817D03*
X0222606Y0186817D03*
X0222606Y0188785D03*
X0222606Y0184848D03*
X0222606Y0182880D03*
X0220638Y0182880D03*
X0220638Y0184848D03*
X0218669Y0184848D03*
X0218669Y0182880D03*
X0216701Y0182880D03*
X0216701Y0184848D03*
X0214732Y0184848D03*
X0214732Y0182880D03*
X0212764Y0182880D03*
X0212764Y0184848D03*
X0210795Y0184848D03*
X0210795Y0182880D03*
X0208827Y0182880D03*
X0208827Y0184848D03*
X0206858Y0184848D03*
X0206858Y0182880D03*
X0204890Y0182880D03*
X0204890Y0184848D03*
X0202921Y0184848D03*
X0202921Y0182880D03*
X0200953Y0182880D03*
X0200953Y0184848D03*
X0200953Y0186817D03*
X0202921Y0186817D03*
X0202921Y0188785D03*
X0200953Y0188785D03*
X0200953Y0190754D03*
X0204890Y0190754D03*
X0206858Y0190754D03*
X0208827Y0190754D03*
X0210795Y0190754D03*
X0212764Y0190754D03*
X0214732Y0190754D03*
X0214732Y0192723D03*
X0214732Y0194691D03*
X0214732Y0196660D03*
X0214732Y0198628D03*
X0214732Y0200597D03*
X0212764Y0200597D03*
X0210795Y0200597D03*
X0208827Y0200597D03*
X0206858Y0200597D03*
X0204890Y0200597D03*
X0204890Y0198628D03*
X0204890Y0196660D03*
X0204890Y0194691D03*
X0204890Y0192723D03*
X0204890Y0186817D03*
X0206858Y0186817D03*
X0208827Y0186817D03*
X0210795Y0186817D03*
X0212764Y0186817D03*
X0214732Y0186817D03*
X0216701Y0186817D03*
X0218669Y0186817D03*
X0218669Y0188785D03*
X0218669Y0190754D03*
X0218669Y0192723D03*
X0218669Y0194691D03*
X0218669Y0196660D03*
X0218669Y0198628D03*
X0218669Y0200597D03*
X0218669Y0202565D03*
X0218669Y0208471D03*
X0216701Y0208471D03*
X0214732Y0208471D03*
X0212764Y0208471D03*
X0210795Y0208471D03*
X0208827Y0208471D03*
X0206858Y0208471D03*
X0204890Y0208471D03*
X0202921Y0208471D03*
X0200953Y0208471D03*
X0198984Y0208471D03*
X0197016Y0208471D03*
X0197016Y0206502D03*
X0198984Y0206502D03*
X0198984Y0204534D03*
X0197016Y0204534D03*
X0197016Y0202565D03*
X0198984Y0202565D03*
X0198984Y0200597D03*
X0197016Y0200597D03*
X0197016Y0198628D03*
X0198984Y0198628D03*
X0198984Y0196660D03*
X0197016Y0196660D03*
X0220638Y0208471D03*
X0222606Y0208471D03*
D49*
X0129978Y0211535D03*
X0129978Y0199724D03*
D50*
X0074601Y0068280D02*
X0074601Y0059980D01*
X0066939Y0045626D02*
X0058640Y0045626D01*
X0050978Y0059980D02*
X0050978Y0068280D01*
M02*
