G75*
%MOIN*%
%OFA0B0*%
%FSLAX25Y25*%
%IPPOS*%
%LPD*%
%AMOC8*
5,1,8,0,0,1.08239X$1,22.5*
%
%ADD10C,0.00800*%
%ADD11C,0.00600*%
%ADD12C,0.00500*%
%ADD13C,0.01200*%
%ADD14C,0.00200*%
%ADD15C,0.00100*%
%ADD16C,0.00150*%
%ADD17C,0.01000*%
D10*
X0170068Y0159131D02*
X0170768Y0159831D01*
X0172170Y0159831D01*
X0172870Y0160532D01*
X0172170Y0161232D01*
X0170068Y0161232D01*
X0170068Y0159131D02*
X0170768Y0158430D01*
X0172870Y0158430D01*
X0174672Y0159131D02*
X0175372Y0159831D01*
X0176773Y0159831D01*
X0177474Y0160532D01*
X0176773Y0161232D01*
X0174672Y0161232D01*
X0174672Y0159131D02*
X0175372Y0158430D01*
X0177474Y0158430D01*
X0179276Y0159831D02*
X0182078Y0159831D01*
X0182078Y0159131D02*
X0182078Y0160532D01*
X0181377Y0161232D01*
X0179976Y0161232D01*
X0179276Y0160532D01*
X0179276Y0159831D01*
X0179976Y0158430D02*
X0181377Y0158430D01*
X0182078Y0159131D01*
X0183746Y0158430D02*
X0185147Y0158430D01*
X0184447Y0158430D02*
X0184447Y0162634D01*
X0185147Y0162634D01*
X0186949Y0160532D02*
X0186949Y0159831D01*
X0189751Y0159831D01*
X0189751Y0159131D02*
X0189751Y0160532D01*
X0189051Y0161232D01*
X0187649Y0161232D01*
X0186949Y0160532D01*
X0187649Y0158430D02*
X0189051Y0158430D01*
X0189751Y0159131D01*
X0191486Y0161232D02*
X0192187Y0161232D01*
X0193588Y0159831D01*
X0193588Y0158430D02*
X0193588Y0161232D01*
X0195956Y0161232D02*
X0195956Y0158430D01*
X0195256Y0158430D02*
X0196657Y0158430D01*
X0198459Y0158430D02*
X0198459Y0162634D01*
X0196657Y0161232D02*
X0195956Y0161232D01*
X0195956Y0162634D02*
X0195956Y0163334D01*
X0199860Y0159831D02*
X0198459Y0158430D01*
X0199860Y0159831D02*
X0201261Y0158430D01*
X0201261Y0162634D01*
X0207600Y0161232D02*
X0209701Y0159831D01*
X0207600Y0158430D01*
X0209701Y0158430D02*
X0209701Y0162634D01*
X0211503Y0161232D02*
X0213605Y0161232D01*
X0214305Y0160532D01*
X0214305Y0159131D01*
X0213605Y0158430D01*
X0211503Y0158430D01*
X0216107Y0158430D02*
X0216107Y0160532D01*
X0216808Y0161232D01*
X0218209Y0161232D01*
X0218209Y0159831D02*
X0216107Y0159831D01*
X0216107Y0158430D02*
X0218209Y0158430D01*
X0218909Y0159131D01*
X0218209Y0159831D01*
X0220577Y0158430D02*
X0221979Y0158430D01*
X0221278Y0158430D02*
X0221278Y0162634D01*
X0221979Y0162634D01*
X0223780Y0161933D02*
X0223780Y0161232D01*
X0224481Y0160532D01*
X0226583Y0160532D01*
X0226583Y0162634D02*
X0224481Y0162634D01*
X0223780Y0161933D01*
X0224481Y0160532D02*
X0223780Y0159831D01*
X0223780Y0159131D01*
X0224481Y0158430D01*
X0226583Y0158430D01*
X0226583Y0162634D01*
X0232988Y0160532D02*
X0232988Y0159831D01*
X0235790Y0159831D01*
X0235790Y0159131D02*
X0235790Y0160532D01*
X0235090Y0161232D01*
X0233689Y0161232D01*
X0232988Y0160532D01*
X0233689Y0158430D02*
X0235090Y0158430D01*
X0235790Y0159131D01*
X0237592Y0158430D02*
X0237592Y0160532D01*
X0238293Y0161232D01*
X0240394Y0161232D01*
X0240394Y0158430D01*
X0242196Y0159131D02*
X0242196Y0160532D01*
X0242896Y0161232D01*
X0244298Y0161232D01*
X0244998Y0160532D01*
X0244998Y0159131D01*
X0244298Y0158430D01*
X0242896Y0158430D01*
X0242196Y0159131D01*
X0246800Y0159131D02*
X0246800Y0159831D01*
X0247500Y0160532D01*
X0249602Y0160532D01*
X0251404Y0160532D02*
X0251404Y0159831D01*
X0254206Y0159831D01*
X0254206Y0159131D02*
X0254206Y0160532D01*
X0253505Y0161232D01*
X0252104Y0161232D01*
X0251404Y0160532D01*
X0252104Y0158430D02*
X0253505Y0158430D01*
X0254206Y0159131D01*
X0255874Y0158430D02*
X0257275Y0158430D01*
X0256575Y0158430D02*
X0256575Y0162634D01*
X0257275Y0162634D01*
X0259077Y0161232D02*
X0261179Y0161232D01*
X0261879Y0160532D01*
X0261879Y0159131D01*
X0261179Y0158430D01*
X0259077Y0158430D01*
X0259077Y0157729D02*
X0259077Y0161232D01*
X0259077Y0157729D02*
X0259777Y0157029D01*
X0260478Y0157029D01*
X0263681Y0158430D02*
X0263681Y0160532D01*
X0264381Y0161232D01*
X0265783Y0161232D01*
X0265783Y0159831D02*
X0263681Y0159831D01*
X0263681Y0158430D02*
X0265783Y0158430D01*
X0266483Y0159131D01*
X0265783Y0159831D01*
X0268285Y0159831D02*
X0271087Y0159831D01*
X0271087Y0159131D02*
X0271087Y0160532D01*
X0270387Y0161232D01*
X0268985Y0161232D01*
X0268285Y0160532D01*
X0268285Y0159831D01*
X0268985Y0158430D02*
X0270387Y0158430D01*
X0271087Y0159131D01*
X0272889Y0159131D02*
X0273589Y0158430D01*
X0275691Y0158430D01*
X0275691Y0162634D01*
X0273589Y0162634D01*
X0272889Y0161933D01*
X0272889Y0161232D01*
X0273589Y0160532D01*
X0275691Y0160532D01*
X0273589Y0160532D02*
X0272889Y0159831D01*
X0272889Y0159131D01*
X0249602Y0158430D02*
X0247500Y0158430D01*
X0246800Y0159131D01*
X0247500Y0160532D02*
X0246800Y0161232D01*
X0246800Y0161933D01*
X0247500Y0162634D01*
X0249602Y0162634D01*
X0249602Y0158430D01*
X0224837Y0108181D02*
X0220624Y0108181D01*
X0220624Y0103181D01*
X0224837Y0103181D01*
X0224837Y0108181D01*
X0280435Y0101992D02*
X0287522Y0101992D01*
X0287522Y0097268D02*
X0280435Y0097268D01*
D11*
X0175878Y0153030D02*
X0175878Y0155299D01*
X0174744Y0156433D01*
X0173610Y0155299D01*
X0173610Y0153030D01*
X0172195Y0153597D02*
X0171628Y0153030D01*
X0170494Y0153030D01*
X0169927Y0153597D01*
X0169927Y0154731D01*
X0170494Y0155299D01*
X0171061Y0155299D01*
X0172195Y0154731D01*
X0172195Y0156433D01*
X0169927Y0156433D01*
X0173610Y0154731D02*
X0175878Y0154731D01*
X0152478Y0157535D02*
X0149801Y0157535D01*
X0147282Y0157535D02*
X0143896Y0157535D01*
X0141376Y0157535D02*
X0138699Y0157535D01*
X0138699Y0158244D01*
X0140311Y0156158D02*
X0140313Y0156191D01*
X0140319Y0156223D01*
X0140328Y0156255D01*
X0140342Y0156285D01*
X0140358Y0156313D01*
X0140378Y0156339D01*
X0140401Y0156363D01*
X0140427Y0156384D01*
X0140455Y0156401D01*
X0140485Y0156416D01*
X0140516Y0156426D01*
X0140548Y0156433D01*
X0140581Y0156436D01*
X0140614Y0156435D01*
X0140646Y0156430D01*
X0140678Y0156421D01*
X0140709Y0156409D01*
X0140737Y0156393D01*
X0140764Y0156374D01*
X0140788Y0156352D01*
X0140810Y0156327D01*
X0140828Y0156299D01*
X0140843Y0156270D01*
X0140855Y0156239D01*
X0140863Y0156207D01*
X0140867Y0156174D01*
X0140867Y0156142D01*
X0140863Y0156109D01*
X0140855Y0156077D01*
X0140843Y0156046D01*
X0140828Y0156017D01*
X0140810Y0155989D01*
X0140788Y0155964D01*
X0140764Y0155942D01*
X0140737Y0155923D01*
X0140709Y0155907D01*
X0140678Y0155895D01*
X0140646Y0155886D01*
X0140614Y0155881D01*
X0140581Y0155880D01*
X0140548Y0155883D01*
X0140516Y0155890D01*
X0140485Y0155900D01*
X0140455Y0155915D01*
X0140427Y0155932D01*
X0140401Y0155953D01*
X0140378Y0155977D01*
X0140358Y0156003D01*
X0140342Y0156031D01*
X0140328Y0156061D01*
X0140319Y0156093D01*
X0140313Y0156125D01*
X0140311Y0156158D01*
X0152478Y0157535D02*
X0152478Y0158244D01*
X0152478Y0174543D02*
X0152478Y0175252D01*
X0149801Y0175252D01*
X0147282Y0175252D02*
X0143896Y0175252D01*
X0141376Y0175252D02*
X0138699Y0175252D01*
X0138699Y0174543D01*
X0156378Y0186030D02*
X0156378Y0188230D01*
X0156378Y0186030D02*
X0159578Y0186030D01*
X0156378Y0195030D02*
X0156378Y0197230D01*
X0159578Y0197230D01*
X0141652Y0128008D02*
X0141652Y0125331D01*
X0141652Y0122811D02*
X0141652Y0119425D01*
X0141652Y0116906D02*
X0141652Y0114228D01*
X0140943Y0114228D01*
X0142752Y0116118D02*
X0142754Y0116151D01*
X0142760Y0116183D01*
X0142769Y0116215D01*
X0142783Y0116245D01*
X0142799Y0116273D01*
X0142819Y0116299D01*
X0142842Y0116323D01*
X0142868Y0116344D01*
X0142896Y0116361D01*
X0142926Y0116376D01*
X0142957Y0116386D01*
X0142989Y0116393D01*
X0143022Y0116396D01*
X0143055Y0116395D01*
X0143087Y0116390D01*
X0143119Y0116381D01*
X0143150Y0116369D01*
X0143178Y0116353D01*
X0143205Y0116334D01*
X0143229Y0116312D01*
X0143251Y0116287D01*
X0143269Y0116259D01*
X0143284Y0116230D01*
X0143296Y0116199D01*
X0143304Y0116167D01*
X0143308Y0116134D01*
X0143308Y0116102D01*
X0143304Y0116069D01*
X0143296Y0116037D01*
X0143284Y0116006D01*
X0143269Y0115977D01*
X0143251Y0115949D01*
X0143229Y0115924D01*
X0143205Y0115902D01*
X0143178Y0115883D01*
X0143150Y0115867D01*
X0143119Y0115855D01*
X0143087Y0115846D01*
X0143055Y0115841D01*
X0143022Y0115840D01*
X0142989Y0115843D01*
X0142957Y0115850D01*
X0142926Y0115860D01*
X0142896Y0115875D01*
X0142868Y0115892D01*
X0142842Y0115913D01*
X0142819Y0115937D01*
X0142799Y0115963D01*
X0142783Y0115991D01*
X0142769Y0116021D01*
X0142760Y0116053D01*
X0142754Y0116085D01*
X0142752Y0116118D01*
X0141652Y0128008D02*
X0140943Y0128008D01*
X0124644Y0128008D02*
X0123935Y0128008D01*
X0123935Y0125331D01*
X0123935Y0122811D02*
X0123935Y0119425D01*
X0123935Y0116906D02*
X0123935Y0114228D01*
X0124644Y0114228D01*
D12*
X0036335Y0068830D02*
X0036335Y0068380D01*
X0036335Y0068830D02*
X0034534Y0070632D01*
X0034534Y0071082D01*
X0036335Y0071082D01*
X0038381Y0071082D02*
X0038381Y0068380D01*
X0039282Y0068380D02*
X0037480Y0068380D01*
X0039282Y0070182D02*
X0038381Y0071082D01*
X0040427Y0070632D02*
X0040427Y0069731D01*
X0040877Y0069281D01*
X0042228Y0069281D01*
X0041328Y0069281D02*
X0040427Y0068380D01*
X0042228Y0068380D02*
X0042228Y0071082D01*
X0040877Y0071082D01*
X0040427Y0070632D01*
X0077980Y0078330D02*
X0078431Y0077880D01*
X0079332Y0077880D01*
X0079782Y0078330D01*
X0078881Y0079231D02*
X0078431Y0079231D01*
X0077980Y0078781D01*
X0077980Y0078330D01*
X0078431Y0079231D02*
X0077980Y0079682D01*
X0077980Y0080132D01*
X0078431Y0080582D01*
X0079332Y0080582D01*
X0079782Y0080132D01*
X0080927Y0080582D02*
X0082728Y0080582D01*
X0081828Y0080582D02*
X0081828Y0077880D01*
X0081927Y0081453D02*
X0078069Y0081453D01*
X0078069Y0083638D01*
X0078069Y0087732D02*
X0078069Y0089917D01*
X0081927Y0089917D01*
X0083187Y0086197D02*
X0083187Y0085173D01*
X0093030Y0085173D02*
X0093030Y0086197D01*
X0094290Y0089917D02*
X0098148Y0089917D01*
X0098148Y0087732D01*
X0098148Y0083638D02*
X0098148Y0081453D01*
X0094290Y0081453D01*
X0093324Y0079882D02*
X0093324Y0077180D01*
X0092873Y0078531D02*
X0094675Y0078531D01*
X0093324Y0079882D01*
X0095820Y0079882D02*
X0097622Y0079882D01*
X0096721Y0079882D02*
X0096721Y0077180D01*
X0089280Y0094040D02*
X0087479Y0094040D01*
X0087028Y0094491D01*
X0087028Y0095392D01*
X0087479Y0095842D01*
X0087028Y0096987D02*
X0087028Y0098788D01*
X0087028Y0097888D02*
X0089731Y0097888D01*
X0088830Y0096987D01*
X0089280Y0095842D02*
X0089731Y0095392D01*
X0089731Y0094491D01*
X0089280Y0094040D01*
X0088830Y0099933D02*
X0089731Y0100834D01*
X0087028Y0100834D01*
X0087028Y0099933D02*
X0087028Y0101735D01*
X0087828Y0105830D02*
X0087828Y0107632D01*
X0088728Y0106731D02*
X0086927Y0106731D01*
X0083728Y0112780D02*
X0083728Y0115482D01*
X0082377Y0115482D01*
X0081927Y0115032D01*
X0081927Y0114131D01*
X0082377Y0113681D01*
X0083728Y0113681D01*
X0082828Y0113681D02*
X0081927Y0112780D01*
X0080782Y0113230D02*
X0080332Y0112780D01*
X0079431Y0112780D01*
X0078980Y0113230D01*
X0078980Y0115032D01*
X0079431Y0115482D01*
X0080332Y0115482D01*
X0080782Y0115032D01*
X0080782Y0114582D01*
X0080332Y0114131D01*
X0078980Y0114131D01*
X0077835Y0114582D02*
X0076935Y0115482D01*
X0076935Y0112780D01*
X0077835Y0112780D02*
X0076034Y0112780D01*
X0067833Y0110095D02*
X0066652Y0110095D01*
X0066770Y0103482D02*
X0066320Y0103032D01*
X0066320Y0102582D01*
X0068122Y0100780D01*
X0066320Y0100780D01*
X0065175Y0102131D02*
X0063373Y0102131D01*
X0063824Y0100780D02*
X0063824Y0103482D01*
X0065175Y0102131D01*
X0066770Y0103482D02*
X0067671Y0103482D01*
X0068122Y0103032D01*
X0069267Y0103032D02*
X0069717Y0103482D01*
X0070618Y0103482D01*
X0071068Y0103032D01*
X0071068Y0101230D01*
X0070618Y0100780D01*
X0069717Y0100780D01*
X0069267Y0101230D01*
X0055933Y0110182D02*
X0055933Y0111533D01*
X0055483Y0111983D01*
X0054582Y0111983D01*
X0054132Y0111533D01*
X0054132Y0110182D01*
X0054132Y0111082D02*
X0053231Y0111983D01*
X0053681Y0113128D02*
X0053231Y0113578D01*
X0053231Y0114479D01*
X0053681Y0114930D01*
X0055483Y0114930D01*
X0055933Y0114479D01*
X0055933Y0113578D01*
X0055483Y0113128D01*
X0055032Y0113128D01*
X0054582Y0113578D01*
X0054582Y0114930D01*
X0053681Y0116075D02*
X0055483Y0117876D01*
X0053681Y0117876D01*
X0053231Y0117426D01*
X0053231Y0116525D01*
X0053681Y0116075D01*
X0055483Y0116075D01*
X0055933Y0116525D01*
X0055933Y0117426D01*
X0055483Y0117876D01*
X0060943Y0119347D02*
X0060945Y0119374D01*
X0060951Y0119401D01*
X0060960Y0119427D01*
X0060973Y0119451D01*
X0060989Y0119474D01*
X0061008Y0119493D01*
X0061030Y0119510D01*
X0061054Y0119524D01*
X0061079Y0119534D01*
X0061106Y0119541D01*
X0061133Y0119544D01*
X0061161Y0119543D01*
X0061188Y0119538D01*
X0061214Y0119530D01*
X0061238Y0119518D01*
X0061261Y0119502D01*
X0061282Y0119484D01*
X0061299Y0119463D01*
X0061314Y0119439D01*
X0061325Y0119414D01*
X0061333Y0119388D01*
X0061337Y0119361D01*
X0061337Y0119333D01*
X0061333Y0119306D01*
X0061325Y0119280D01*
X0061314Y0119255D01*
X0061299Y0119231D01*
X0061282Y0119210D01*
X0061261Y0119192D01*
X0061239Y0119176D01*
X0061214Y0119164D01*
X0061188Y0119156D01*
X0061161Y0119151D01*
X0061133Y0119150D01*
X0061106Y0119153D01*
X0061079Y0119160D01*
X0061054Y0119170D01*
X0061030Y0119184D01*
X0061008Y0119201D01*
X0060989Y0119220D01*
X0060973Y0119243D01*
X0060960Y0119267D01*
X0060951Y0119293D01*
X0060945Y0119320D01*
X0060943Y0119347D01*
X0062851Y0119960D02*
X0064652Y0119960D01*
X0062851Y0121762D01*
X0062851Y0122212D01*
X0063301Y0122663D01*
X0064202Y0122663D01*
X0064652Y0122212D01*
X0065797Y0122212D02*
X0066248Y0122663D01*
X0067148Y0122663D01*
X0067599Y0122212D01*
X0067599Y0120411D01*
X0067148Y0119960D01*
X0066248Y0119960D01*
X0065797Y0120411D01*
X0066652Y0117969D02*
X0067833Y0117969D01*
X0069194Y0119960D02*
X0070095Y0119960D01*
X0070545Y0120411D01*
X0070095Y0121311D02*
X0070545Y0121762D01*
X0070545Y0122212D01*
X0070095Y0122663D01*
X0069194Y0122663D01*
X0068744Y0122212D01*
X0069194Y0121311D02*
X0068744Y0120861D01*
X0068744Y0120411D01*
X0069194Y0119960D01*
X0069194Y0121311D02*
X0070095Y0121311D01*
X0071690Y0120411D02*
X0071690Y0122212D01*
X0072141Y0122663D01*
X0073041Y0122663D01*
X0073492Y0122212D01*
X0073492Y0120411D01*
X0073041Y0119960D01*
X0072141Y0119960D01*
X0071690Y0120411D01*
X0088128Y0121182D02*
X0089029Y0120281D01*
X0089029Y0120731D02*
X0089029Y0119380D01*
X0088128Y0119380D02*
X0090831Y0119380D01*
X0090831Y0120731D01*
X0090380Y0121182D01*
X0089480Y0121182D01*
X0089029Y0120731D01*
X0088128Y0122327D02*
X0088128Y0124128D01*
X0088128Y0123227D02*
X0090831Y0123227D01*
X0089930Y0122327D01*
X0090380Y0125273D02*
X0088579Y0125273D01*
X0090380Y0127075D01*
X0088579Y0127075D01*
X0088128Y0126624D01*
X0088128Y0125723D01*
X0088579Y0125273D01*
X0090380Y0125273D02*
X0090831Y0125723D01*
X0090831Y0126624D01*
X0090380Y0127075D01*
X0093628Y0126575D02*
X0093628Y0124773D01*
X0093628Y0125674D02*
X0096331Y0125674D01*
X0095430Y0124773D01*
X0093628Y0123628D02*
X0093628Y0121827D01*
X0093628Y0122727D02*
X0096331Y0122727D01*
X0095430Y0121827D01*
X0094980Y0120682D02*
X0094529Y0120231D01*
X0094529Y0118880D01*
X0093628Y0118880D02*
X0096331Y0118880D01*
X0096331Y0120231D01*
X0095880Y0120682D01*
X0094980Y0120682D01*
X0094529Y0119781D02*
X0093628Y0120682D01*
X0100512Y0115794D02*
X0100512Y0113092D01*
X0101413Y0113092D02*
X0099611Y0113092D01*
X0101413Y0114893D02*
X0100512Y0115794D01*
X0102558Y0115794D02*
X0103459Y0115344D01*
X0104359Y0114443D01*
X0103008Y0114443D01*
X0102558Y0113993D01*
X0102558Y0113542D01*
X0103008Y0113092D01*
X0103909Y0113092D01*
X0104359Y0113542D01*
X0104359Y0114443D01*
X0105504Y0115344D02*
X0105955Y0115794D01*
X0106855Y0115794D01*
X0107306Y0115344D01*
X0107306Y0113542D01*
X0106855Y0113092D01*
X0105955Y0113092D01*
X0105504Y0113542D01*
X0103266Y0111701D02*
X0103266Y0107701D01*
X0102539Y0101468D02*
X0103440Y0101018D01*
X0104340Y0100117D01*
X0102989Y0100117D01*
X0102539Y0099667D01*
X0102539Y0099216D01*
X0102989Y0098766D01*
X0103890Y0098766D01*
X0104340Y0099216D01*
X0104340Y0100117D01*
X0105485Y0101018D02*
X0105936Y0101468D01*
X0106837Y0101468D01*
X0107287Y0101018D01*
X0107287Y0099216D01*
X0106837Y0098766D01*
X0105936Y0098766D01*
X0105485Y0099216D01*
X0101394Y0099216D02*
X0100944Y0098766D01*
X0100043Y0098766D01*
X0099592Y0099216D01*
X0099592Y0099667D01*
X0100043Y0100117D01*
X0100493Y0100117D01*
X0100043Y0100117D02*
X0099592Y0100567D01*
X0099592Y0101018D01*
X0100043Y0101468D01*
X0100944Y0101468D01*
X0101394Y0101018D01*
X0129185Y0108768D02*
X0130986Y0108768D01*
X0130085Y0108768D02*
X0130085Y0111470D01*
X0130986Y0110570D01*
X0132131Y0108768D02*
X0133933Y0108768D01*
X0133032Y0108768D02*
X0133032Y0111470D01*
X0133933Y0110570D01*
X0135078Y0111020D02*
X0135528Y0111470D01*
X0136429Y0111470D01*
X0136879Y0111020D01*
X0136879Y0109219D01*
X0136429Y0108768D01*
X0135528Y0108768D01*
X0135078Y0109219D01*
X0137943Y0108768D02*
X0138843Y0108768D01*
X0138393Y0108768D02*
X0138393Y0111470D01*
X0138843Y0111470D02*
X0137943Y0111470D01*
X0159478Y0112130D02*
X0159478Y0108130D01*
X0159478Y0104130D02*
X0159478Y0100130D01*
X0165873Y0101531D02*
X0167675Y0101531D01*
X0166324Y0102882D01*
X0166324Y0100180D01*
X0168820Y0100630D02*
X0169270Y0100180D01*
X0170171Y0100180D01*
X0170622Y0100630D01*
X0171767Y0100180D02*
X0173568Y0100180D01*
X0172667Y0100180D02*
X0172667Y0102882D01*
X0173568Y0101982D01*
X0174713Y0102432D02*
X0174713Y0101531D01*
X0175163Y0101081D01*
X0176515Y0101081D01*
X0176515Y0100180D02*
X0176515Y0102882D01*
X0175163Y0102882D01*
X0174713Y0102432D01*
X0175614Y0101081D02*
X0174713Y0100180D01*
X0170622Y0102432D02*
X0170171Y0102882D01*
X0169270Y0102882D01*
X0168820Y0102432D01*
X0168820Y0101982D01*
X0169270Y0101531D01*
X0168820Y0101081D01*
X0168820Y0100630D01*
X0169270Y0101531D02*
X0169721Y0101531D01*
X0169770Y0108180D02*
X0170671Y0108180D01*
X0171122Y0108630D01*
X0172267Y0108180D02*
X0174068Y0108180D01*
X0173167Y0108180D02*
X0173167Y0110882D01*
X0174068Y0109982D01*
X0175213Y0110432D02*
X0175213Y0109531D01*
X0175663Y0109081D01*
X0177015Y0109081D01*
X0177015Y0108180D02*
X0177015Y0110882D01*
X0175663Y0110882D01*
X0175213Y0110432D01*
X0176114Y0109081D02*
X0175213Y0108180D01*
X0171122Y0110432D02*
X0170671Y0110882D01*
X0169770Y0110882D01*
X0169320Y0110432D01*
X0169320Y0109982D01*
X0169770Y0109531D01*
X0169320Y0109081D01*
X0169320Y0108630D01*
X0169770Y0108180D01*
X0169770Y0109531D02*
X0170221Y0109531D01*
X0168175Y0109531D02*
X0166824Y0109531D01*
X0166373Y0109081D01*
X0166373Y0108630D01*
X0166824Y0108180D01*
X0167725Y0108180D01*
X0168175Y0108630D01*
X0168175Y0109531D01*
X0167274Y0110432D01*
X0166373Y0110882D01*
X0167324Y0116680D02*
X0168225Y0116680D01*
X0168675Y0117130D01*
X0168675Y0118031D02*
X0167774Y0118482D01*
X0167324Y0118482D01*
X0166873Y0118031D01*
X0166873Y0117130D01*
X0167324Y0116680D01*
X0168675Y0118031D02*
X0168675Y0119382D01*
X0166873Y0119382D01*
X0169820Y0118932D02*
X0169820Y0118482D01*
X0170270Y0118031D01*
X0169820Y0117581D01*
X0169820Y0117130D01*
X0170270Y0116680D01*
X0171171Y0116680D01*
X0171622Y0117130D01*
X0172767Y0116680D02*
X0174568Y0116680D01*
X0173667Y0116680D02*
X0173667Y0119382D01*
X0174568Y0118482D01*
X0175713Y0118932D02*
X0175713Y0118031D01*
X0176163Y0117581D01*
X0177515Y0117581D01*
X0177515Y0116680D02*
X0177515Y0119382D01*
X0176163Y0119382D01*
X0175713Y0118932D01*
X0176614Y0117581D02*
X0175713Y0116680D01*
X0171622Y0118932D02*
X0171171Y0119382D01*
X0170270Y0119382D01*
X0169820Y0118932D01*
X0170270Y0118031D02*
X0170721Y0118031D01*
X0170171Y0125180D02*
X0170622Y0125630D01*
X0170171Y0125180D02*
X0169270Y0125180D01*
X0168820Y0125630D01*
X0168820Y0126081D01*
X0169270Y0126531D01*
X0169721Y0126531D01*
X0169270Y0126531D02*
X0168820Y0126982D01*
X0168820Y0127432D01*
X0169270Y0127882D01*
X0170171Y0127882D01*
X0170622Y0127432D01*
X0172667Y0127882D02*
X0172667Y0125180D01*
X0171767Y0125180D02*
X0173568Y0125180D01*
X0174713Y0125180D02*
X0175614Y0126081D01*
X0175163Y0126081D02*
X0176515Y0126081D01*
X0176515Y0125180D02*
X0176515Y0127882D01*
X0175163Y0127882D01*
X0174713Y0127432D01*
X0174713Y0126531D01*
X0175163Y0126081D01*
X0173568Y0126982D02*
X0172667Y0127882D01*
X0168231Y0129594D02*
X0168231Y0130945D01*
X0167780Y0131395D01*
X0166880Y0131395D01*
X0166429Y0130945D01*
X0166429Y0129594D01*
X0165528Y0129594D02*
X0168231Y0129594D01*
X0166429Y0130495D02*
X0165528Y0131395D01*
X0165528Y0132540D02*
X0165528Y0134342D01*
X0165528Y0133441D02*
X0168231Y0133441D01*
X0167330Y0132540D01*
X0167780Y0135487D02*
X0168231Y0135937D01*
X0168231Y0136838D01*
X0167780Y0137288D01*
X0167330Y0137288D01*
X0165528Y0135487D01*
X0165528Y0137288D01*
X0165528Y0138433D02*
X0165979Y0138433D01*
X0167780Y0140235D01*
X0168231Y0140235D01*
X0168231Y0138433D01*
X0160231Y0139384D02*
X0160231Y0140285D01*
X0159780Y0140735D01*
X0159330Y0140735D01*
X0158880Y0140285D01*
X0158880Y0139384D01*
X0159330Y0138933D01*
X0159780Y0138933D01*
X0160231Y0139384D01*
X0158880Y0139384D02*
X0158429Y0138933D01*
X0157979Y0138933D01*
X0157528Y0139384D01*
X0157528Y0140285D01*
X0157979Y0140735D01*
X0158429Y0140735D01*
X0158880Y0140285D01*
X0159330Y0137788D02*
X0159780Y0137788D01*
X0160231Y0137338D01*
X0160231Y0136437D01*
X0159780Y0135987D01*
X0159330Y0137788D02*
X0157528Y0135987D01*
X0157528Y0137788D01*
X0157528Y0134842D02*
X0157528Y0133040D01*
X0157528Y0133941D02*
X0160231Y0133941D01*
X0159330Y0133040D01*
X0158880Y0131895D02*
X0158429Y0131445D01*
X0158429Y0130094D01*
X0157528Y0130094D02*
X0160231Y0130094D01*
X0160231Y0131445D01*
X0159780Y0131895D01*
X0158880Y0131895D01*
X0158429Y0130995D02*
X0157528Y0131895D01*
X0159478Y0128130D02*
X0159478Y0124130D01*
X0159478Y0120130D02*
X0159478Y0116130D01*
X0165873Y0125180D02*
X0167675Y0125180D01*
X0166774Y0125180D02*
X0166774Y0127882D01*
X0167675Y0126982D01*
X0152231Y0129594D02*
X0152231Y0130945D01*
X0151780Y0131395D01*
X0150880Y0131395D01*
X0150429Y0130945D01*
X0150429Y0129594D01*
X0149528Y0129594D02*
X0152231Y0129594D01*
X0150429Y0130495D02*
X0149528Y0131395D01*
X0149528Y0132540D02*
X0149528Y0134342D01*
X0149528Y0133441D02*
X0152231Y0133441D01*
X0151330Y0132540D01*
X0151780Y0135487D02*
X0152231Y0135937D01*
X0152231Y0136838D01*
X0151780Y0137288D01*
X0151330Y0137288D01*
X0149528Y0135487D01*
X0149528Y0137288D01*
X0149979Y0138433D02*
X0149528Y0138884D01*
X0149528Y0139785D01*
X0149979Y0140235D01*
X0151780Y0140235D01*
X0152231Y0139785D01*
X0152231Y0138884D01*
X0151780Y0138433D01*
X0151330Y0138433D01*
X0150880Y0138884D01*
X0150880Y0140235D01*
X0144231Y0140285D02*
X0143780Y0140735D01*
X0141979Y0138933D01*
X0141528Y0139384D01*
X0141528Y0140285D01*
X0141979Y0140735D01*
X0143780Y0140735D01*
X0144231Y0140285D02*
X0144231Y0139384D01*
X0143780Y0138933D01*
X0141979Y0138933D01*
X0141979Y0137788D02*
X0141528Y0137338D01*
X0141528Y0136437D01*
X0141979Y0135987D01*
X0141528Y0134842D02*
X0141528Y0133040D01*
X0141528Y0133941D02*
X0144231Y0133941D01*
X0143330Y0133040D01*
X0142880Y0131895D02*
X0142429Y0131445D01*
X0142429Y0130094D01*
X0141528Y0130094D02*
X0144231Y0130094D01*
X0144231Y0131445D01*
X0143780Y0131895D01*
X0142880Y0131895D01*
X0142429Y0130995D02*
X0141528Y0131895D01*
X0143780Y0135987D02*
X0144231Y0136437D01*
X0144231Y0137338D01*
X0143780Y0137788D01*
X0143330Y0137788D01*
X0142880Y0137338D01*
X0142429Y0137788D01*
X0141979Y0137788D01*
X0142880Y0137338D02*
X0142880Y0136888D01*
X0141478Y0147130D02*
X0145478Y0147130D01*
X0149478Y0147130D02*
X0153478Y0147130D01*
X0157478Y0147130D02*
X0161478Y0147130D01*
X0165478Y0146630D02*
X0169478Y0146630D01*
X0194334Y0128382D02*
X0194334Y0127932D01*
X0196135Y0126130D01*
X0196135Y0125680D01*
X0197280Y0125680D02*
X0199082Y0125680D01*
X0197280Y0127482D01*
X0197280Y0127932D01*
X0197731Y0128382D01*
X0198632Y0128382D01*
X0199082Y0127932D01*
X0200227Y0127932D02*
X0200227Y0127031D01*
X0200677Y0126581D01*
X0202028Y0126581D01*
X0201128Y0126581D02*
X0200227Y0125680D01*
X0202028Y0125680D02*
X0202028Y0128382D01*
X0200677Y0128382D01*
X0200227Y0127932D01*
X0196135Y0128382D02*
X0194334Y0128382D01*
X0201587Y0117582D02*
X0202488Y0117132D01*
X0203389Y0116231D01*
X0202038Y0116231D01*
X0201587Y0115781D01*
X0201587Y0115330D01*
X0202038Y0114880D01*
X0202939Y0114880D01*
X0203389Y0115330D01*
X0203389Y0116231D01*
X0204534Y0116682D02*
X0206335Y0114880D01*
X0204534Y0114880D01*
X0204534Y0116682D02*
X0204534Y0117132D01*
X0204984Y0117582D01*
X0205885Y0117582D01*
X0206335Y0117132D01*
X0208381Y0117582D02*
X0208381Y0114880D01*
X0209282Y0114880D02*
X0207480Y0114880D01*
X0209282Y0116682D02*
X0208381Y0117582D01*
X0208978Y0119130D02*
X0208978Y0123130D01*
X0210877Y0117582D02*
X0210427Y0117132D01*
X0210427Y0116231D01*
X0210877Y0115781D01*
X0212228Y0115781D01*
X0211328Y0115781D02*
X0210427Y0114880D01*
X0212228Y0114880D02*
X0212228Y0117582D01*
X0210877Y0117582D01*
X0215779Y0112773D02*
X0217580Y0114575D01*
X0218031Y0114575D01*
X0218031Y0112773D01*
X0218031Y0111178D02*
X0216680Y0109827D01*
X0216680Y0111628D01*
X0218031Y0111178D02*
X0215328Y0111178D01*
X0215328Y0112773D02*
X0215779Y0112773D01*
X0215779Y0108682D02*
X0215328Y0108231D01*
X0215328Y0107330D01*
X0215779Y0106880D01*
X0217580Y0106880D01*
X0218031Y0107330D01*
X0218031Y0108231D01*
X0217580Y0108682D01*
X0219973Y0109280D02*
X0221775Y0109280D01*
X0220874Y0109280D02*
X0220874Y0111982D01*
X0221775Y0111082D01*
X0222920Y0111532D02*
X0223370Y0111982D01*
X0224271Y0111982D01*
X0224722Y0111532D01*
X0224722Y0109730D01*
X0224271Y0109280D01*
X0223370Y0109280D01*
X0222920Y0109730D01*
X0225867Y0109730D02*
X0226317Y0109280D01*
X0227218Y0109280D01*
X0227668Y0109730D01*
X0227218Y0110631D02*
X0226317Y0110631D01*
X0225867Y0110181D01*
X0225867Y0109730D01*
X0227218Y0110631D02*
X0227668Y0111082D01*
X0227668Y0111532D01*
X0227218Y0111982D01*
X0226317Y0111982D01*
X0225867Y0111532D01*
X0228813Y0111532D02*
X0228813Y0109730D01*
X0229263Y0109280D01*
X0230164Y0109280D01*
X0230615Y0109730D01*
X0230615Y0111532D01*
X0230164Y0111982D01*
X0229263Y0111982D01*
X0228813Y0111532D01*
X0227278Y0106567D02*
X0224679Y0106567D01*
X0221057Y0103339D02*
X0221057Y0101921D01*
X0224679Y0098693D02*
X0227278Y0098693D01*
X0230900Y0101921D02*
X0230900Y0103339D01*
X0234528Y0102242D02*
X0235429Y0101341D01*
X0235429Y0101792D02*
X0235429Y0100440D01*
X0234528Y0100440D02*
X0237231Y0100440D01*
X0237231Y0101792D01*
X0236780Y0102242D01*
X0235880Y0102242D01*
X0235429Y0101792D01*
X0235880Y0103387D02*
X0235880Y0105188D01*
X0237231Y0104738D02*
X0235880Y0103387D01*
X0237231Y0104738D02*
X0234528Y0104738D01*
X0234528Y0106333D02*
X0234979Y0106333D01*
X0236780Y0108135D01*
X0237231Y0108135D01*
X0237231Y0106333D01*
X0238431Y0111680D02*
X0238431Y0112581D01*
X0238431Y0112130D02*
X0235728Y0112130D01*
X0235728Y0111680D02*
X0235728Y0112581D01*
X0236179Y0113644D02*
X0235728Y0114095D01*
X0235728Y0114995D01*
X0236179Y0115446D01*
X0236179Y0116591D02*
X0235728Y0117041D01*
X0235728Y0117942D01*
X0236179Y0118392D01*
X0237080Y0118392D01*
X0237530Y0117942D01*
X0237530Y0117492D01*
X0237080Y0116591D01*
X0238431Y0116591D01*
X0238431Y0118392D01*
X0237980Y0115446D02*
X0238431Y0114995D01*
X0238431Y0114095D01*
X0237980Y0113644D01*
X0236179Y0113644D01*
X0239184Y0124880D02*
X0240085Y0124880D01*
X0240535Y0125330D01*
X0240535Y0126231D02*
X0239635Y0126682D01*
X0239184Y0126682D01*
X0238734Y0126231D01*
X0238734Y0125330D01*
X0239184Y0124880D01*
X0240535Y0126231D02*
X0240535Y0127582D01*
X0238734Y0127582D01*
X0241680Y0126231D02*
X0243482Y0126231D01*
X0242131Y0127582D01*
X0242131Y0124880D01*
X0244627Y0124880D02*
X0245528Y0125781D01*
X0245077Y0125781D02*
X0246428Y0125781D01*
X0246428Y0124880D02*
X0246428Y0127582D01*
X0245077Y0127582D01*
X0244627Y0127132D01*
X0244627Y0126231D01*
X0245077Y0125781D01*
X0248734Y0125781D02*
X0249184Y0126231D01*
X0250535Y0126231D01*
X0250535Y0125330D01*
X0250085Y0124880D01*
X0249184Y0124880D01*
X0248734Y0125330D01*
X0248734Y0125781D01*
X0249635Y0127132D02*
X0250535Y0126231D01*
X0251680Y0126231D02*
X0253482Y0126231D01*
X0252131Y0127582D01*
X0252131Y0124880D01*
X0254627Y0124880D02*
X0255528Y0125781D01*
X0255077Y0125781D02*
X0256428Y0125781D01*
X0256428Y0124880D02*
X0256428Y0127582D01*
X0255077Y0127582D01*
X0254627Y0127132D01*
X0254627Y0126231D01*
X0255077Y0125781D01*
X0258734Y0126231D02*
X0260535Y0126231D01*
X0259184Y0127582D01*
X0259184Y0124880D01*
X0261680Y0126231D02*
X0263482Y0126231D01*
X0262131Y0127582D01*
X0262131Y0124880D01*
X0264627Y0124880D02*
X0265528Y0125781D01*
X0265077Y0125781D02*
X0266428Y0125781D01*
X0266428Y0124880D02*
X0266428Y0127582D01*
X0265077Y0127582D01*
X0264627Y0127132D01*
X0264627Y0126231D01*
X0265077Y0125781D01*
X0267674Y0119982D02*
X0267674Y0117280D01*
X0268575Y0117280D02*
X0266773Y0117280D01*
X0268575Y0119082D02*
X0267674Y0119982D01*
X0269720Y0119982D02*
X0271522Y0119982D01*
X0270621Y0119982D02*
X0270621Y0117280D01*
X0272528Y0115375D02*
X0272528Y0113573D01*
X0272528Y0114474D02*
X0275231Y0114474D01*
X0274330Y0113573D01*
X0273880Y0112428D02*
X0272979Y0112428D01*
X0272528Y0111978D01*
X0272528Y0111077D01*
X0272979Y0110627D01*
X0273880Y0110627D02*
X0274330Y0111527D01*
X0274330Y0111978D01*
X0273880Y0112428D01*
X0275231Y0112428D02*
X0275231Y0110627D01*
X0273880Y0110627D01*
X0273880Y0109482D02*
X0273429Y0109031D01*
X0273429Y0107680D01*
X0272528Y0107680D02*
X0275231Y0107680D01*
X0275231Y0109031D01*
X0274780Y0109482D01*
X0273880Y0109482D01*
X0273429Y0108581D02*
X0272528Y0109482D01*
X0272229Y0102535D02*
X0272680Y0102085D01*
X0272680Y0100733D01*
X0271779Y0100733D01*
X0271328Y0101184D01*
X0271328Y0102085D01*
X0271779Y0102535D01*
X0272229Y0102535D01*
X0273580Y0101634D02*
X0272680Y0100733D01*
X0273580Y0101634D02*
X0274031Y0102535D01*
X0273580Y0099588D02*
X0274031Y0099138D01*
X0274031Y0098237D01*
X0273580Y0097787D01*
X0271779Y0097787D01*
X0271328Y0098237D01*
X0271328Y0099138D01*
X0271779Y0099588D01*
X0271328Y0096723D02*
X0271328Y0095823D01*
X0271328Y0096273D02*
X0274031Y0096273D01*
X0274031Y0095823D02*
X0274031Y0096723D01*
X0282381Y0094382D02*
X0282381Y0091680D01*
X0283282Y0091680D02*
X0281480Y0091680D01*
X0283282Y0093482D02*
X0282381Y0094382D01*
X0284427Y0094382D02*
X0286228Y0094382D01*
X0286228Y0091680D01*
X0286228Y0093031D02*
X0285328Y0093031D01*
X0293728Y0092338D02*
X0293728Y0091437D01*
X0294179Y0090987D01*
X0295080Y0090987D02*
X0295530Y0091888D01*
X0295530Y0092338D01*
X0295080Y0092788D01*
X0294179Y0092788D01*
X0293728Y0092338D01*
X0294179Y0093933D02*
X0294629Y0093933D01*
X0295080Y0094384D01*
X0295080Y0095285D01*
X0294629Y0095735D01*
X0294179Y0095735D01*
X0293728Y0095285D01*
X0293728Y0094384D01*
X0294179Y0093933D01*
X0295080Y0094384D02*
X0295530Y0093933D01*
X0295980Y0093933D01*
X0296431Y0094384D01*
X0296431Y0095285D01*
X0295980Y0095735D01*
X0295530Y0095735D01*
X0295080Y0095285D01*
X0296431Y0092788D02*
X0296431Y0090987D01*
X0295080Y0090987D01*
X0295980Y0089842D02*
X0296431Y0089392D01*
X0296431Y0088491D01*
X0295980Y0088040D01*
X0294179Y0088040D01*
X0293728Y0088491D01*
X0293728Y0089392D01*
X0294179Y0089842D01*
X0303760Y0088652D02*
X0307697Y0088652D01*
X0309328Y0089291D02*
X0309328Y0090192D01*
X0309779Y0090642D01*
X0309328Y0091787D02*
X0309328Y0093588D01*
X0309328Y0092688D02*
X0312031Y0092688D01*
X0311130Y0091787D01*
X0311580Y0090642D02*
X0312031Y0090192D01*
X0312031Y0089291D01*
X0311580Y0088840D01*
X0309779Y0088840D01*
X0309328Y0089291D01*
X0309328Y0087777D02*
X0309328Y0086876D01*
X0309328Y0087326D02*
X0312031Y0087326D01*
X0312031Y0086876D02*
X0312031Y0087777D01*
X0312031Y0094733D02*
X0310680Y0094733D01*
X0311130Y0095634D01*
X0311130Y0096085D01*
X0310680Y0096535D01*
X0309779Y0096535D01*
X0309328Y0096085D01*
X0309328Y0095184D01*
X0309779Y0094733D01*
X0308071Y0095600D02*
X0308073Y0095619D01*
X0308078Y0095638D01*
X0308088Y0095654D01*
X0308100Y0095669D01*
X0308115Y0095681D01*
X0308131Y0095691D01*
X0308150Y0095696D01*
X0308169Y0095698D01*
X0308188Y0095696D01*
X0308207Y0095691D01*
X0308223Y0095681D01*
X0308238Y0095669D01*
X0308250Y0095654D01*
X0308260Y0095638D01*
X0308265Y0095619D01*
X0308267Y0095600D01*
X0308265Y0095581D01*
X0308260Y0095562D01*
X0308250Y0095546D01*
X0308238Y0095531D01*
X0308223Y0095519D01*
X0308207Y0095509D01*
X0308188Y0095504D01*
X0308169Y0095502D01*
X0308150Y0095504D01*
X0308131Y0095509D01*
X0308115Y0095519D01*
X0308100Y0095531D01*
X0308088Y0095546D01*
X0308078Y0095562D01*
X0308073Y0095581D01*
X0308071Y0095600D01*
X0307697Y0095108D02*
X0303760Y0095108D01*
X0312031Y0094733D02*
X0312031Y0096535D01*
X0323273Y0103730D02*
X0323273Y0105532D01*
X0323724Y0105982D01*
X0324625Y0105982D01*
X0325075Y0105532D01*
X0325075Y0105082D01*
X0324625Y0104631D01*
X0323273Y0104631D01*
X0323273Y0103730D02*
X0323724Y0103280D01*
X0324625Y0103280D01*
X0325075Y0103730D01*
X0326220Y0103280D02*
X0328022Y0103280D01*
X0327121Y0103280D02*
X0327121Y0105982D01*
X0328022Y0105082D01*
X0329167Y0105532D02*
X0329167Y0104631D01*
X0329617Y0104181D01*
X0330968Y0104181D01*
X0330067Y0104181D02*
X0329167Y0103280D01*
X0330968Y0103280D02*
X0330968Y0105982D01*
X0329617Y0105982D01*
X0329167Y0105532D01*
X0331573Y0098785D02*
X0343384Y0098785D01*
X0343384Y0098195D01*
X0343889Y0103280D02*
X0342087Y0105082D01*
X0342087Y0105532D01*
X0342538Y0105982D01*
X0343439Y0105982D01*
X0343889Y0105532D01*
X0345034Y0105532D02*
X0345484Y0105982D01*
X0346385Y0105982D01*
X0346835Y0105532D01*
X0345034Y0105532D02*
X0345034Y0105082D01*
X0346835Y0103280D01*
X0345034Y0103280D01*
X0343889Y0103280D02*
X0342087Y0103280D01*
X0347980Y0103280D02*
X0349782Y0103280D01*
X0348881Y0103280D02*
X0348881Y0105982D01*
X0349782Y0105082D01*
X0350927Y0105532D02*
X0350927Y0104631D01*
X0351377Y0104181D01*
X0352728Y0104181D01*
X0351828Y0104181D02*
X0350927Y0103280D01*
X0352728Y0103280D02*
X0352728Y0105982D01*
X0351377Y0105982D01*
X0350927Y0105532D01*
X0351411Y0112835D02*
X0354463Y0112835D01*
X0344091Y0112839D02*
X0340506Y0112835D01*
X0340506Y0117362D01*
X0329722Y0128089D02*
X0328821Y0128089D01*
X0328370Y0128539D01*
X0327225Y0128539D02*
X0326775Y0128089D01*
X0325874Y0128089D01*
X0325424Y0128539D01*
X0325424Y0129440D01*
X0325874Y0129890D01*
X0326325Y0129890D01*
X0327225Y0129440D01*
X0327225Y0130791D01*
X0325424Y0130791D01*
X0324279Y0130791D02*
X0322477Y0130791D01*
X0322477Y0130341D01*
X0324279Y0128539D01*
X0324279Y0128089D01*
X0324919Y0132307D02*
X0324919Y0136307D01*
X0329564Y0138559D02*
X0330014Y0138108D01*
X0330915Y0138108D01*
X0331366Y0138559D01*
X0329564Y0140360D01*
X0329564Y0138559D01*
X0329564Y0140360D02*
X0330014Y0140811D01*
X0330915Y0140811D01*
X0331366Y0140360D01*
X0331366Y0138559D01*
X0332511Y0138559D02*
X0332511Y0139459D01*
X0332961Y0139910D01*
X0333411Y0139910D01*
X0334312Y0139459D01*
X0334312Y0140811D01*
X0332511Y0140811D01*
X0332511Y0138559D02*
X0332961Y0138108D01*
X0333862Y0138108D01*
X0334312Y0138559D01*
X0335457Y0138559D02*
X0335907Y0138108D01*
X0336808Y0138108D01*
X0337259Y0138559D01*
X0337259Y0140360D01*
X0336808Y0140811D01*
X0335907Y0140811D01*
X0335457Y0140360D01*
X0340506Y0138425D02*
X0340506Y0133898D01*
X0340506Y0138425D02*
X0344091Y0138425D01*
X0351411Y0138425D02*
X0354463Y0138425D01*
X0347164Y0146587D02*
X0328385Y0146587D01*
X0319172Y0146587D02*
X0308424Y0146587D01*
X0308424Y0158595D01*
X0302978Y0165630D02*
X0303978Y0166630D01*
X0303978Y0204630D01*
X0308478Y0209130D01*
X0329478Y0209130D01*
X0330978Y0210630D01*
X0334973Y0207321D02*
X0335424Y0207771D01*
X0336325Y0207771D01*
X0336775Y0207321D01*
X0337920Y0207771D02*
X0339722Y0205069D01*
X0337920Y0205069D02*
X0339722Y0207771D01*
X0336775Y0205069D02*
X0334973Y0206871D01*
X0334973Y0207321D01*
X0334973Y0205069D02*
X0336775Y0205069D01*
X0347164Y0203673D02*
X0323267Y0203673D01*
X0314054Y0203673D02*
X0308424Y0203673D01*
X0308424Y0200327D01*
X0308424Y0196980D02*
X0308424Y0191665D01*
X0302728Y0191730D02*
X0302278Y0191280D01*
X0301377Y0191280D01*
X0300927Y0191730D01*
X0299782Y0191730D02*
X0299332Y0191280D01*
X0298431Y0191280D01*
X0297980Y0191730D01*
X0297980Y0192181D01*
X0298431Y0192631D01*
X0298881Y0192631D01*
X0298431Y0192631D02*
X0297980Y0193082D01*
X0297980Y0193532D01*
X0298431Y0193982D01*
X0299332Y0193982D01*
X0299782Y0193532D01*
X0300927Y0193532D02*
X0301377Y0193982D01*
X0302278Y0193982D01*
X0302728Y0193532D01*
X0302728Y0191730D01*
X0302278Y0190482D02*
X0302728Y0190032D01*
X0302728Y0188230D01*
X0302278Y0187780D01*
X0301377Y0187780D01*
X0300927Y0188230D01*
X0299782Y0188230D02*
X0299332Y0187780D01*
X0298431Y0187780D01*
X0297980Y0188230D01*
X0297980Y0188681D01*
X0298431Y0189131D01*
X0298881Y0189131D01*
X0298431Y0189131D02*
X0297980Y0189582D01*
X0297980Y0190032D01*
X0298431Y0190482D01*
X0299332Y0190482D01*
X0299782Y0190032D01*
X0300927Y0190032D02*
X0301377Y0190482D01*
X0302278Y0190482D01*
X0302278Y0194780D02*
X0301377Y0194780D01*
X0300927Y0195230D01*
X0302278Y0194780D02*
X0302728Y0195230D01*
X0302728Y0197032D01*
X0302278Y0197482D01*
X0301377Y0197482D01*
X0300927Y0197032D01*
X0301377Y0198280D02*
X0300927Y0198730D01*
X0301377Y0198280D02*
X0302278Y0198280D01*
X0302728Y0198730D01*
X0302728Y0200532D01*
X0302278Y0200982D01*
X0301377Y0200982D01*
X0300927Y0200532D01*
X0301377Y0201780D02*
X0300927Y0202230D01*
X0301377Y0201780D02*
X0302278Y0201780D01*
X0302728Y0202230D01*
X0302728Y0204032D01*
X0302278Y0204482D01*
X0301377Y0204482D01*
X0300927Y0204032D01*
X0300927Y0205280D02*
X0301828Y0206181D01*
X0301377Y0206181D02*
X0302728Y0206181D01*
X0302728Y0205280D02*
X0302728Y0207982D01*
X0301377Y0207982D01*
X0300927Y0207532D01*
X0300927Y0206631D01*
X0301377Y0206181D01*
X0299782Y0206181D02*
X0299332Y0206631D01*
X0298431Y0206631D01*
X0297980Y0206181D01*
X0297980Y0205730D01*
X0298431Y0205280D01*
X0299332Y0205280D01*
X0299782Y0205730D01*
X0299782Y0206181D01*
X0299332Y0206631D02*
X0299782Y0207082D01*
X0299782Y0207532D01*
X0299332Y0207982D01*
X0298431Y0207982D01*
X0297980Y0207532D01*
X0297980Y0207082D01*
X0298431Y0206631D01*
X0296835Y0206181D02*
X0296385Y0206631D01*
X0295484Y0206631D01*
X0295034Y0206181D01*
X0295034Y0205730D01*
X0295484Y0205280D01*
X0296385Y0205280D01*
X0296835Y0205730D01*
X0296835Y0206181D01*
X0296385Y0206631D02*
X0296835Y0207082D01*
X0296835Y0207532D01*
X0296385Y0207982D01*
X0295484Y0207982D01*
X0295034Y0207532D01*
X0295034Y0207082D01*
X0295484Y0206631D01*
X0295484Y0204482D02*
X0295034Y0204032D01*
X0296835Y0202230D01*
X0296385Y0201780D01*
X0295484Y0201780D01*
X0295034Y0202230D01*
X0295034Y0204032D01*
X0295484Y0204482D02*
X0296385Y0204482D01*
X0296835Y0204032D01*
X0296835Y0202230D01*
X0297980Y0203131D02*
X0299782Y0203131D01*
X0298431Y0204482D01*
X0298431Y0201780D01*
X0298431Y0200982D02*
X0299782Y0199631D01*
X0297980Y0199631D01*
X0296835Y0200082D02*
X0295935Y0200982D01*
X0295935Y0198280D01*
X0296835Y0198280D02*
X0295034Y0198280D01*
X0295484Y0197482D02*
X0296385Y0197482D01*
X0296835Y0197032D01*
X0295484Y0197482D02*
X0295034Y0197032D01*
X0295034Y0196582D01*
X0296835Y0194780D01*
X0295034Y0194780D01*
X0295484Y0193982D02*
X0296385Y0193982D01*
X0296835Y0193532D01*
X0296835Y0193082D01*
X0296385Y0192631D01*
X0295034Y0192631D01*
X0295034Y0191730D02*
X0295034Y0193532D01*
X0295484Y0193982D01*
X0295034Y0191730D02*
X0295484Y0191280D01*
X0296385Y0191280D01*
X0296835Y0191730D01*
X0296385Y0190482D02*
X0296835Y0190032D01*
X0296835Y0189582D01*
X0296385Y0189131D01*
X0295484Y0189131D01*
X0295034Y0188681D01*
X0295034Y0188230D01*
X0295484Y0187780D01*
X0296385Y0187780D01*
X0296835Y0188230D01*
X0296835Y0188681D01*
X0296385Y0189131D01*
X0295484Y0189131D02*
X0295034Y0189582D01*
X0295034Y0190032D01*
X0295484Y0190482D01*
X0296385Y0190482D01*
X0298431Y0194780D02*
X0298431Y0197482D01*
X0299782Y0196131D01*
X0297980Y0196131D01*
X0298431Y0198280D02*
X0298431Y0200982D01*
X0293478Y0204630D02*
X0288978Y0209130D01*
X0270978Y0209130D01*
X0269978Y0210130D01*
X0269978Y0216630D01*
X0284478Y0203630D02*
X0285978Y0202130D01*
X0285978Y0188130D01*
X0280478Y0182630D01*
X0280478Y0167130D01*
X0281978Y0165630D01*
X0291478Y0165630D01*
X0290728Y0166780D02*
X0290728Y0169482D01*
X0289377Y0169482D01*
X0288927Y0169032D01*
X0288927Y0168131D01*
X0289377Y0167681D01*
X0290728Y0167681D01*
X0289828Y0167681D02*
X0288927Y0166780D01*
X0287782Y0167230D02*
X0287782Y0168131D01*
X0286431Y0168131D01*
X0285980Y0167681D01*
X0285980Y0167230D01*
X0286431Y0166780D01*
X0287332Y0166780D01*
X0287782Y0167230D01*
X0287782Y0168131D02*
X0286881Y0169032D01*
X0285980Y0169482D01*
X0286431Y0170280D02*
X0285980Y0170730D01*
X0285980Y0171181D01*
X0286431Y0171631D01*
X0287782Y0171631D01*
X0287782Y0170730D01*
X0287332Y0170280D01*
X0286431Y0170280D01*
X0284835Y0170730D02*
X0284385Y0170280D01*
X0283484Y0170280D01*
X0283034Y0170730D01*
X0283034Y0171631D01*
X0283484Y0172082D01*
X0283935Y0172082D01*
X0284835Y0171631D01*
X0284835Y0172982D01*
X0283034Y0172982D01*
X0283484Y0173780D02*
X0284385Y0173780D01*
X0284835Y0174230D01*
X0284835Y0174681D01*
X0284385Y0175131D01*
X0283484Y0175131D01*
X0283034Y0174681D01*
X0283034Y0174230D01*
X0283484Y0173780D01*
X0283484Y0175131D02*
X0283034Y0175582D01*
X0283034Y0176032D01*
X0283484Y0176482D01*
X0284385Y0176482D01*
X0284835Y0176032D01*
X0284835Y0175582D01*
X0284385Y0175131D01*
X0285980Y0175131D02*
X0285980Y0174230D01*
X0286431Y0173780D01*
X0287332Y0173780D01*
X0287782Y0174230D01*
X0287782Y0175131D02*
X0286881Y0175582D01*
X0286431Y0175582D01*
X0285980Y0175131D01*
X0285980Y0176482D02*
X0287782Y0176482D01*
X0287782Y0175131D01*
X0288927Y0175131D02*
X0289377Y0174681D01*
X0290728Y0174681D01*
X0289828Y0174681D02*
X0288927Y0173780D01*
X0289377Y0172982D02*
X0288927Y0172532D01*
X0288927Y0171631D01*
X0289377Y0171181D01*
X0290728Y0171181D01*
X0289828Y0171181D02*
X0288927Y0170280D01*
X0287782Y0171631D02*
X0286881Y0172532D01*
X0285980Y0172982D01*
X0289377Y0172982D02*
X0290728Y0172982D01*
X0290728Y0170280D01*
X0293478Y0167630D02*
X0293478Y0204630D01*
X0284478Y0203630D02*
X0246478Y0203630D01*
X0244478Y0205630D01*
X0244478Y0216630D01*
X0239268Y0208382D02*
X0237917Y0208382D01*
X0237467Y0207932D01*
X0237467Y0207031D01*
X0237917Y0206581D01*
X0239268Y0206581D01*
X0238367Y0206581D02*
X0237467Y0205680D01*
X0237917Y0204782D02*
X0237467Y0204332D01*
X0237467Y0203431D01*
X0237917Y0202981D01*
X0239268Y0202981D01*
X0238367Y0202981D02*
X0237467Y0202080D01*
X0237917Y0201182D02*
X0237467Y0200732D01*
X0237467Y0199831D01*
X0237917Y0199381D01*
X0239268Y0199381D01*
X0238367Y0199381D02*
X0237467Y0198480D01*
X0237917Y0197582D02*
X0237467Y0197132D01*
X0237467Y0196231D01*
X0237917Y0195781D01*
X0239268Y0195781D01*
X0238367Y0195781D02*
X0237467Y0194880D01*
X0237917Y0193982D02*
X0237467Y0193532D01*
X0237467Y0192631D01*
X0237917Y0192181D01*
X0239268Y0192181D01*
X0238367Y0192181D02*
X0237467Y0191280D01*
X0237917Y0190382D02*
X0237467Y0189932D01*
X0237467Y0189031D01*
X0237917Y0188581D01*
X0239268Y0188581D01*
X0238367Y0188581D02*
X0237467Y0187680D01*
X0236322Y0187680D02*
X0234520Y0187680D01*
X0235421Y0187680D02*
X0235421Y0190382D01*
X0236322Y0189482D01*
X0236322Y0191280D02*
X0234520Y0191280D01*
X0235421Y0191280D02*
X0235421Y0193982D01*
X0236322Y0193082D01*
X0236322Y0194880D02*
X0234520Y0196682D01*
X0234520Y0197132D01*
X0234970Y0197582D01*
X0235871Y0197582D01*
X0236322Y0197132D01*
X0236322Y0198480D02*
X0234520Y0200282D01*
X0234520Y0200732D01*
X0234970Y0201182D01*
X0235871Y0201182D01*
X0236322Y0200732D01*
X0235871Y0202080D02*
X0236322Y0202530D01*
X0235871Y0202080D02*
X0234970Y0202080D01*
X0234520Y0202530D01*
X0234520Y0202981D01*
X0234970Y0203431D01*
X0235421Y0203431D01*
X0234970Y0203431D02*
X0234520Y0203882D01*
X0234520Y0204332D01*
X0234970Y0204782D01*
X0235871Y0204782D01*
X0236322Y0204332D01*
X0235871Y0205680D02*
X0236322Y0206130D01*
X0235871Y0205680D02*
X0234970Y0205680D01*
X0234520Y0206130D01*
X0234520Y0206581D01*
X0234970Y0207031D01*
X0235421Y0207031D01*
X0234970Y0207031D02*
X0234520Y0207482D01*
X0234520Y0207932D01*
X0234970Y0208382D01*
X0235871Y0208382D01*
X0236322Y0207932D01*
X0239268Y0208382D02*
X0239268Y0205680D01*
X0239268Y0204782D02*
X0237917Y0204782D01*
X0239268Y0204782D02*
X0239268Y0202080D01*
X0239268Y0201182D02*
X0237917Y0201182D01*
X0239268Y0201182D02*
X0239268Y0198480D01*
X0239268Y0197582D02*
X0237917Y0197582D01*
X0239268Y0197582D02*
X0239268Y0194880D01*
X0239268Y0193982D02*
X0237917Y0193982D01*
X0239268Y0193982D02*
X0239268Y0191280D01*
X0239268Y0190382D02*
X0237917Y0190382D01*
X0239268Y0190382D02*
X0239268Y0187680D01*
X0239478Y0186630D02*
X0231078Y0186630D01*
X0229878Y0187830D01*
X0229878Y0207030D01*
X0227878Y0209030D01*
X0200278Y0209030D01*
X0198678Y0210630D01*
X0193331Y0210040D02*
X0193331Y0211392D01*
X0192880Y0211842D01*
X0191980Y0211842D01*
X0191529Y0211392D01*
X0191529Y0210040D01*
X0190628Y0210040D02*
X0193331Y0210040D01*
X0191529Y0210941D02*
X0190628Y0211842D01*
X0190628Y0212987D02*
X0190628Y0214788D01*
X0190628Y0213888D02*
X0193331Y0213888D01*
X0192430Y0212987D01*
X0191980Y0215933D02*
X0191079Y0215933D01*
X0190628Y0216384D01*
X0190628Y0217285D01*
X0191079Y0217735D01*
X0191529Y0217735D01*
X0191980Y0217285D01*
X0191980Y0215933D01*
X0192880Y0216834D01*
X0193331Y0217735D01*
X0185831Y0217785D02*
X0185380Y0218235D01*
X0184930Y0218235D01*
X0184480Y0217785D01*
X0184480Y0216884D01*
X0184930Y0216433D01*
X0185380Y0216433D01*
X0185831Y0216884D01*
X0185831Y0217785D01*
X0184480Y0217785D02*
X0184029Y0218235D01*
X0183579Y0218235D01*
X0183128Y0217785D01*
X0183128Y0216884D01*
X0183579Y0216433D01*
X0184029Y0216433D01*
X0184480Y0216884D01*
X0184930Y0215288D02*
X0183128Y0213487D01*
X0183128Y0215288D01*
X0184930Y0215288D02*
X0185380Y0215288D01*
X0185831Y0214838D01*
X0185831Y0213937D01*
X0185380Y0213487D01*
X0185380Y0212342D02*
X0184480Y0212342D01*
X0184029Y0211892D01*
X0184029Y0210540D01*
X0183128Y0210540D02*
X0185831Y0210540D01*
X0185831Y0211892D01*
X0185380Y0212342D01*
X0184029Y0211441D02*
X0183128Y0212342D01*
X0183385Y0202982D02*
X0183835Y0202532D01*
X0183385Y0202982D02*
X0182484Y0202982D01*
X0182034Y0202532D01*
X0182034Y0202082D01*
X0183835Y0200280D01*
X0182034Y0200280D01*
X0184980Y0200280D02*
X0186782Y0200280D01*
X0185881Y0200280D02*
X0185881Y0202982D01*
X0186782Y0202082D01*
X0187927Y0202532D02*
X0188377Y0202982D01*
X0189278Y0202982D01*
X0189728Y0202532D01*
X0189728Y0200730D01*
X0189278Y0200280D01*
X0188377Y0200280D01*
X0187927Y0200730D01*
X0197508Y0198335D02*
X0197508Y0204335D01*
X0197508Y0194492D02*
X0197508Y0188492D01*
X0189228Y0190230D02*
X0188778Y0189780D01*
X0187877Y0189780D01*
X0187427Y0190230D01*
X0186282Y0190230D02*
X0184480Y0192032D01*
X0184480Y0192482D01*
X0186282Y0192482D01*
X0187427Y0192032D02*
X0187877Y0192482D01*
X0188778Y0192482D01*
X0189228Y0192032D01*
X0189228Y0190230D01*
X0186282Y0190230D02*
X0186282Y0189780D01*
X0187377Y0185482D02*
X0186927Y0185032D01*
X0186927Y0184131D01*
X0187377Y0183681D01*
X0188728Y0183681D01*
X0187828Y0183681D02*
X0186927Y0182780D01*
X0185782Y0182780D02*
X0183980Y0182780D01*
X0184881Y0182780D02*
X0184881Y0185482D01*
X0185782Y0184582D01*
X0187377Y0185482D02*
X0188728Y0185482D01*
X0188728Y0182780D01*
X0182835Y0183230D02*
X0182835Y0183681D01*
X0182385Y0184131D01*
X0181484Y0184131D01*
X0181034Y0183681D01*
X0181034Y0183230D01*
X0181484Y0182780D01*
X0182385Y0182780D01*
X0182835Y0183230D01*
X0182385Y0184131D02*
X0182835Y0184582D01*
X0182835Y0185032D01*
X0182385Y0185482D01*
X0181484Y0185482D01*
X0181034Y0185032D01*
X0181034Y0184582D01*
X0181484Y0184131D01*
X0180980Y0174836D02*
X0182782Y0174836D01*
X0182782Y0173485D01*
X0181881Y0173935D01*
X0181431Y0173935D01*
X0180980Y0173485D01*
X0180980Y0172584D01*
X0181431Y0172134D01*
X0182332Y0172134D01*
X0182782Y0172584D01*
X0183927Y0172134D02*
X0185728Y0172134D01*
X0183927Y0173935D01*
X0183927Y0174385D01*
X0184377Y0174836D01*
X0185278Y0174836D01*
X0185728Y0174385D01*
X0186873Y0174385D02*
X0186873Y0173485D01*
X0187324Y0173034D01*
X0188675Y0173034D01*
X0188675Y0172134D02*
X0188675Y0174836D01*
X0187324Y0174836D01*
X0186873Y0174385D01*
X0187774Y0173034D02*
X0186873Y0172134D01*
X0198373Y0179130D02*
X0198373Y0180932D01*
X0198824Y0181382D01*
X0199725Y0181382D01*
X0200175Y0180932D01*
X0200175Y0180482D01*
X0199725Y0180031D01*
X0198373Y0180031D01*
X0198373Y0179130D02*
X0198824Y0178680D01*
X0199725Y0178680D01*
X0200175Y0179130D01*
X0201320Y0179130D02*
X0201320Y0179581D01*
X0201770Y0180031D01*
X0203122Y0180031D01*
X0203122Y0179130D01*
X0202671Y0178680D01*
X0201770Y0178680D01*
X0201320Y0179130D01*
X0202221Y0180932D02*
X0203122Y0180031D01*
X0202221Y0180932D02*
X0201320Y0181382D01*
X0204267Y0180932D02*
X0204717Y0181382D01*
X0205618Y0181382D01*
X0206068Y0180932D01*
X0206068Y0179130D01*
X0205618Y0178680D01*
X0204717Y0178680D01*
X0204267Y0179130D01*
X0210824Y0183780D02*
X0210824Y0186482D01*
X0212175Y0185131D01*
X0210373Y0185131D01*
X0213320Y0183780D02*
X0215122Y0183780D01*
X0214221Y0183780D02*
X0214221Y0186482D01*
X0215122Y0185582D01*
X0216267Y0186032D02*
X0216717Y0186482D01*
X0217618Y0186482D01*
X0218068Y0186032D01*
X0218068Y0184230D01*
X0217618Y0183780D01*
X0216717Y0183780D01*
X0216267Y0184230D01*
X0214978Y0182189D02*
X0214978Y0176189D01*
X0215877Y0169982D02*
X0216778Y0169982D01*
X0217228Y0169532D01*
X0217228Y0167730D01*
X0216778Y0167280D01*
X0215877Y0167280D01*
X0215427Y0167730D01*
X0214282Y0167280D02*
X0212480Y0167280D01*
X0213381Y0167280D02*
X0213381Y0169982D01*
X0214282Y0169082D01*
X0215427Y0169532D02*
X0215877Y0169982D01*
X0211335Y0169532D02*
X0210885Y0169982D01*
X0209984Y0169982D01*
X0209534Y0169532D01*
X0209534Y0169082D01*
X0209984Y0168631D01*
X0209534Y0168181D01*
X0209534Y0167730D01*
X0209984Y0167280D01*
X0210885Y0167280D01*
X0211335Y0167730D01*
X0210435Y0168631D02*
X0209984Y0168631D01*
X0223628Y0181880D02*
X0226331Y0181880D01*
X0226331Y0183231D01*
X0225880Y0183682D01*
X0224980Y0183682D01*
X0224529Y0183231D01*
X0224529Y0181880D01*
X0224529Y0182781D02*
X0223628Y0183682D01*
X0224079Y0184827D02*
X0223628Y0185277D01*
X0223628Y0186178D01*
X0224079Y0186628D01*
X0224529Y0186628D01*
X0224980Y0186178D01*
X0224980Y0185727D01*
X0224980Y0186178D02*
X0225430Y0186628D01*
X0225880Y0186628D01*
X0226331Y0186178D01*
X0226331Y0185277D01*
X0225880Y0184827D01*
X0225880Y0187773D02*
X0226331Y0188223D01*
X0226331Y0189124D01*
X0225880Y0189575D01*
X0225430Y0189575D01*
X0224980Y0189124D01*
X0224529Y0189575D01*
X0224079Y0189575D01*
X0223628Y0189124D01*
X0223628Y0188223D01*
X0224079Y0187773D01*
X0224980Y0188674D02*
X0224980Y0189124D01*
X0220622Y0189730D02*
X0220622Y0191532D01*
X0220171Y0191982D01*
X0219270Y0191982D01*
X0218820Y0191532D01*
X0217675Y0191532D02*
X0217675Y0191082D01*
X0217225Y0190631D01*
X0215873Y0190631D01*
X0215873Y0189730D02*
X0215873Y0191532D01*
X0216324Y0191982D01*
X0217225Y0191982D01*
X0217675Y0191532D01*
X0217675Y0189730D02*
X0217225Y0189280D01*
X0216324Y0189280D01*
X0215873Y0189730D01*
X0218820Y0189730D02*
X0219270Y0189280D01*
X0220171Y0189280D01*
X0220622Y0189730D01*
X0222360Y0193413D02*
X0222360Y0199413D01*
X0222622Y0204780D02*
X0220820Y0204780D01*
X0221721Y0204780D02*
X0221721Y0207482D01*
X0222622Y0206582D01*
X0223767Y0207032D02*
X0224217Y0207482D01*
X0225118Y0207482D01*
X0225568Y0207032D01*
X0225568Y0205230D01*
X0225118Y0204780D01*
X0224217Y0204780D01*
X0223767Y0205230D01*
X0219675Y0205230D02*
X0219675Y0204780D01*
X0219675Y0205230D02*
X0217873Y0207032D01*
X0217873Y0207482D01*
X0219675Y0207482D01*
X0231573Y0205680D02*
X0233375Y0205680D01*
X0232474Y0205680D02*
X0232474Y0208382D01*
X0233375Y0207482D01*
X0232925Y0204782D02*
X0232024Y0204782D01*
X0231573Y0204332D01*
X0233375Y0202530D01*
X0232925Y0202080D01*
X0232024Y0202080D01*
X0231573Y0202530D01*
X0231573Y0204332D01*
X0232925Y0204782D02*
X0233375Y0204332D01*
X0233375Y0202530D01*
X0232925Y0201182D02*
X0232024Y0201182D01*
X0231573Y0200732D01*
X0231573Y0200282D01*
X0232024Y0199831D01*
X0231573Y0199381D01*
X0231573Y0198930D01*
X0232024Y0198480D01*
X0232925Y0198480D01*
X0233375Y0198930D01*
X0234520Y0198480D02*
X0236322Y0198480D01*
X0233375Y0197132D02*
X0233375Y0195330D01*
X0231573Y0197132D01*
X0231573Y0195330D01*
X0232024Y0194880D01*
X0232925Y0194880D01*
X0233375Y0195330D01*
X0234520Y0194880D02*
X0236322Y0194880D01*
X0233375Y0193532D02*
X0232925Y0193982D01*
X0232024Y0193982D01*
X0231573Y0193532D01*
X0231573Y0193082D01*
X0233375Y0191280D01*
X0231573Y0191280D01*
X0232024Y0190382D02*
X0231573Y0189932D01*
X0231573Y0189482D01*
X0232024Y0189031D01*
X0231573Y0188581D01*
X0231573Y0188130D01*
X0232024Y0187680D01*
X0232925Y0187680D01*
X0233375Y0188130D01*
X0232474Y0189031D02*
X0232024Y0189031D01*
X0232024Y0190382D02*
X0232925Y0190382D01*
X0233375Y0189932D01*
X0237910Y0183567D02*
X0241847Y0183567D01*
X0237418Y0180732D02*
X0237418Y0178528D01*
X0237418Y0175693D02*
X0241847Y0175693D01*
X0241913Y0173982D02*
X0242814Y0173982D01*
X0243264Y0173532D01*
X0243264Y0171730D01*
X0242814Y0171280D01*
X0241913Y0171280D01*
X0241463Y0171730D01*
X0240318Y0171730D02*
X0239867Y0171280D01*
X0238966Y0171280D01*
X0238516Y0171730D01*
X0238516Y0172181D01*
X0238966Y0172631D01*
X0239417Y0172631D01*
X0238966Y0172631D02*
X0238516Y0173082D01*
X0238516Y0173532D01*
X0238966Y0173982D01*
X0239867Y0173982D01*
X0240318Y0173532D01*
X0241463Y0173532D02*
X0241913Y0173982D01*
X0244328Y0173982D02*
X0245228Y0173982D01*
X0244778Y0173982D02*
X0244778Y0171280D01*
X0245228Y0171280D02*
X0244328Y0171280D01*
X0234568Y0170532D02*
X0234568Y0168730D01*
X0234118Y0168280D01*
X0233217Y0168280D01*
X0232767Y0168730D01*
X0231622Y0168280D02*
X0229820Y0168280D01*
X0230721Y0168280D02*
X0230721Y0170982D01*
X0231622Y0170082D01*
X0232767Y0170532D02*
X0233217Y0170982D01*
X0234118Y0170982D01*
X0234568Y0170532D01*
X0234568Y0167482D02*
X0233217Y0167482D01*
X0232767Y0167032D01*
X0232767Y0166131D01*
X0233217Y0165681D01*
X0234568Y0165681D01*
X0233667Y0165681D02*
X0232767Y0164780D01*
X0231622Y0164780D02*
X0229820Y0166582D01*
X0229820Y0167032D01*
X0230270Y0167482D01*
X0231171Y0167482D01*
X0231622Y0167032D01*
X0231622Y0164780D02*
X0229820Y0164780D01*
X0228675Y0165230D02*
X0228225Y0164780D01*
X0227324Y0164780D01*
X0226873Y0165230D01*
X0226873Y0167032D01*
X0227324Y0167482D01*
X0228225Y0167482D01*
X0228675Y0167032D01*
X0228675Y0166582D01*
X0228225Y0166131D01*
X0226873Y0166131D01*
X0227324Y0168280D02*
X0228225Y0168280D01*
X0228675Y0168730D01*
X0228675Y0169631D02*
X0227774Y0170082D01*
X0227324Y0170082D01*
X0226873Y0169631D01*
X0226873Y0168730D01*
X0227324Y0168280D01*
X0228675Y0169631D02*
X0228675Y0170982D01*
X0226873Y0170982D01*
X0234568Y0167482D02*
X0234568Y0164780D01*
X0246579Y0187040D02*
X0246128Y0187491D01*
X0246128Y0188392D01*
X0246579Y0188842D01*
X0246128Y0189987D02*
X0247930Y0191788D01*
X0248380Y0191788D01*
X0248831Y0191338D01*
X0248831Y0190437D01*
X0248380Y0189987D01*
X0248380Y0188842D02*
X0248831Y0188392D01*
X0248831Y0187491D01*
X0248380Y0187040D01*
X0246579Y0187040D01*
X0246128Y0189987D02*
X0246128Y0191788D01*
X0246579Y0192933D02*
X0247029Y0192933D01*
X0247480Y0193384D01*
X0247480Y0194285D01*
X0247029Y0194735D01*
X0246579Y0194735D01*
X0246128Y0194285D01*
X0246128Y0193384D01*
X0246579Y0192933D01*
X0247480Y0193384D02*
X0247930Y0192933D01*
X0248380Y0192933D01*
X0248831Y0193384D01*
X0248831Y0194285D01*
X0248380Y0194735D01*
X0247930Y0194735D01*
X0247480Y0194285D01*
X0251128Y0194735D02*
X0251128Y0192933D01*
X0251128Y0193834D02*
X0253831Y0193834D01*
X0252930Y0192933D01*
X0252930Y0191788D02*
X0252480Y0191338D01*
X0252029Y0191788D01*
X0251579Y0191788D01*
X0251128Y0191338D01*
X0251128Y0190437D01*
X0251579Y0189987D01*
X0251579Y0188842D02*
X0251128Y0188392D01*
X0251128Y0187491D01*
X0251579Y0187040D01*
X0253380Y0187040D01*
X0253831Y0187491D01*
X0253831Y0188392D01*
X0253380Y0188842D01*
X0253380Y0189987D02*
X0253831Y0190437D01*
X0253831Y0191338D01*
X0253380Y0191788D01*
X0252930Y0191788D01*
X0252480Y0191338D02*
X0252480Y0190888D01*
X0256128Y0191788D02*
X0256128Y0189987D01*
X0257930Y0191788D01*
X0258380Y0191788D01*
X0258831Y0191338D01*
X0258831Y0190437D01*
X0258380Y0189987D01*
X0258380Y0188842D02*
X0258831Y0188392D01*
X0258831Y0187491D01*
X0258380Y0187040D01*
X0256579Y0187040D01*
X0256128Y0187491D01*
X0256128Y0188392D01*
X0256579Y0188842D01*
X0256579Y0192933D02*
X0256128Y0193384D01*
X0256128Y0194285D01*
X0256579Y0194735D01*
X0258380Y0194735D01*
X0258831Y0194285D01*
X0258831Y0193384D01*
X0258380Y0192933D01*
X0257930Y0192933D01*
X0257480Y0193384D01*
X0257480Y0194735D01*
X0261128Y0194785D02*
X0261128Y0193884D01*
X0261579Y0193433D01*
X0263380Y0195235D01*
X0261579Y0195235D01*
X0261128Y0194785D01*
X0261579Y0193433D02*
X0263380Y0193433D01*
X0263831Y0193884D01*
X0263831Y0194785D01*
X0263380Y0195235D01*
X0266128Y0195235D02*
X0266128Y0193433D01*
X0267930Y0195235D01*
X0268380Y0195235D01*
X0268831Y0194785D01*
X0268831Y0193884D01*
X0268380Y0193433D01*
X0268380Y0192288D02*
X0267930Y0192288D01*
X0267480Y0191838D01*
X0267029Y0192288D01*
X0266579Y0192288D01*
X0266128Y0191838D01*
X0266128Y0190937D01*
X0266579Y0190487D01*
X0266579Y0189342D02*
X0266128Y0188892D01*
X0266128Y0187991D01*
X0266579Y0187540D01*
X0268380Y0187540D01*
X0268831Y0187991D01*
X0268831Y0188892D01*
X0268380Y0189342D01*
X0268380Y0190487D02*
X0268831Y0190937D01*
X0268831Y0191838D01*
X0268380Y0192288D01*
X0267480Y0191838D02*
X0267480Y0191388D01*
X0271128Y0191338D02*
X0271128Y0190437D01*
X0271579Y0189987D01*
X0271579Y0188842D02*
X0271128Y0188392D01*
X0271128Y0187491D01*
X0271579Y0187040D01*
X0273380Y0187040D01*
X0273831Y0187491D01*
X0273831Y0188392D01*
X0273380Y0188842D01*
X0273380Y0189987D02*
X0273831Y0190437D01*
X0273831Y0191338D01*
X0273380Y0191788D01*
X0272930Y0191788D01*
X0272480Y0191338D01*
X0272029Y0191788D01*
X0271579Y0191788D01*
X0271128Y0191338D01*
X0272480Y0191338D02*
X0272480Y0190888D01*
X0273380Y0192933D02*
X0273831Y0193384D01*
X0273831Y0194285D01*
X0273380Y0194735D01*
X0272930Y0194735D01*
X0272480Y0194285D01*
X0272029Y0194735D01*
X0271579Y0194735D01*
X0271128Y0194285D01*
X0271128Y0193384D01*
X0271579Y0192933D01*
X0272480Y0193834D02*
X0272480Y0194285D01*
X0276128Y0194285D02*
X0278831Y0194285D01*
X0277480Y0192933D01*
X0277480Y0194735D01*
X0277930Y0191788D02*
X0277480Y0191338D01*
X0277029Y0191788D01*
X0276579Y0191788D01*
X0276128Y0191338D01*
X0276128Y0190437D01*
X0276579Y0189987D01*
X0276579Y0188842D02*
X0276128Y0188392D01*
X0276128Y0187491D01*
X0276579Y0187040D01*
X0278380Y0187040D01*
X0278831Y0187491D01*
X0278831Y0188392D01*
X0278380Y0188842D01*
X0278380Y0189987D02*
X0278831Y0190437D01*
X0278831Y0191338D01*
X0278380Y0191788D01*
X0277930Y0191788D01*
X0277480Y0191338D02*
X0277480Y0190888D01*
X0281128Y0191338D02*
X0281128Y0190437D01*
X0281579Y0189987D01*
X0281579Y0188842D02*
X0281128Y0188392D01*
X0281128Y0187491D01*
X0281579Y0187040D01*
X0283380Y0187040D01*
X0283831Y0187491D01*
X0283831Y0188392D01*
X0283380Y0188842D01*
X0283380Y0189987D02*
X0283831Y0190437D01*
X0283831Y0191338D01*
X0283380Y0191788D01*
X0282930Y0191788D01*
X0282480Y0191338D01*
X0282029Y0191788D01*
X0281579Y0191788D01*
X0281128Y0191338D01*
X0282480Y0191338D02*
X0282480Y0190888D01*
X0282480Y0192933D02*
X0282930Y0193834D01*
X0282930Y0194285D01*
X0282480Y0194735D01*
X0281579Y0194735D01*
X0281128Y0194285D01*
X0281128Y0193384D01*
X0281579Y0192933D01*
X0282480Y0192933D02*
X0283831Y0192933D01*
X0283831Y0194735D01*
X0295034Y0186982D02*
X0295034Y0186532D01*
X0296835Y0184730D01*
X0296835Y0184280D01*
X0297980Y0184730D02*
X0298431Y0184280D01*
X0299332Y0184280D01*
X0299782Y0184730D01*
X0300927Y0184730D02*
X0301377Y0184280D01*
X0302278Y0184280D01*
X0302728Y0184730D01*
X0302728Y0186532D01*
X0302278Y0186982D01*
X0301377Y0186982D01*
X0300927Y0186532D01*
X0299782Y0186532D02*
X0299332Y0186982D01*
X0298431Y0186982D01*
X0297980Y0186532D01*
X0297980Y0186082D01*
X0298431Y0185631D01*
X0297980Y0185181D01*
X0297980Y0184730D01*
X0298431Y0185631D02*
X0298881Y0185631D01*
X0298431Y0183482D02*
X0297980Y0183032D01*
X0297980Y0182582D01*
X0298431Y0182131D01*
X0297980Y0181681D01*
X0297980Y0181230D01*
X0298431Y0180780D01*
X0299332Y0180780D01*
X0299782Y0181230D01*
X0300927Y0181230D02*
X0301377Y0180780D01*
X0302278Y0180780D01*
X0302728Y0181230D01*
X0302728Y0183032D01*
X0302278Y0183482D01*
X0301377Y0183482D01*
X0300927Y0183032D01*
X0299782Y0183032D02*
X0299332Y0183482D01*
X0298431Y0183482D01*
X0298431Y0182131D02*
X0298881Y0182131D01*
X0296835Y0182131D02*
X0295484Y0182131D01*
X0295034Y0181681D01*
X0295034Y0181230D01*
X0295484Y0180780D01*
X0296385Y0180780D01*
X0296835Y0181230D01*
X0296835Y0182131D01*
X0295935Y0183032D01*
X0295034Y0183482D01*
X0295034Y0186982D02*
X0296835Y0186982D01*
X0295935Y0179982D02*
X0295935Y0177280D01*
X0296835Y0177280D02*
X0295034Y0177280D01*
X0295484Y0176482D02*
X0296385Y0176482D01*
X0296835Y0176032D01*
X0296835Y0175582D01*
X0296385Y0175131D01*
X0295034Y0175131D01*
X0295034Y0174230D02*
X0295034Y0176032D01*
X0295484Y0176482D01*
X0295034Y0174230D02*
X0295484Y0173780D01*
X0296385Y0173780D01*
X0296835Y0174230D01*
X0297980Y0174230D02*
X0297980Y0174681D01*
X0298431Y0175131D01*
X0299782Y0175131D01*
X0299782Y0174230D01*
X0299332Y0173780D01*
X0298431Y0173780D01*
X0297980Y0174230D01*
X0297980Y0172982D02*
X0298881Y0172532D01*
X0299782Y0171631D01*
X0298431Y0171631D01*
X0297980Y0171181D01*
X0297980Y0170730D01*
X0298431Y0170280D01*
X0299332Y0170280D01*
X0299782Y0170730D01*
X0299782Y0171631D01*
X0300927Y0171631D02*
X0301377Y0171181D01*
X0302728Y0171181D01*
X0301828Y0171181D02*
X0300927Y0170280D01*
X0301377Y0169482D02*
X0300927Y0169032D01*
X0300927Y0168131D01*
X0301377Y0167681D01*
X0302728Y0167681D01*
X0301828Y0167681D02*
X0300927Y0166780D01*
X0299782Y0167230D02*
X0299782Y0168131D01*
X0298431Y0168131D01*
X0297980Y0167681D01*
X0297980Y0167230D01*
X0298431Y0166780D01*
X0299332Y0166780D01*
X0299782Y0167230D01*
X0299782Y0168131D02*
X0298881Y0169032D01*
X0297980Y0169482D01*
X0296835Y0169482D02*
X0295034Y0169482D01*
X0295034Y0169032D01*
X0296835Y0167230D01*
X0296835Y0166780D01*
X0295478Y0165630D02*
X0302978Y0165630D01*
X0302728Y0166780D02*
X0302728Y0169482D01*
X0301377Y0169482D01*
X0302728Y0170280D02*
X0302728Y0172982D01*
X0301377Y0172982D01*
X0300927Y0172532D01*
X0300927Y0171631D01*
X0300927Y0173780D02*
X0301828Y0174681D01*
X0301377Y0174681D02*
X0302728Y0174681D01*
X0302728Y0173780D02*
X0302728Y0176482D01*
X0301377Y0176482D01*
X0300927Y0176032D01*
X0300927Y0175131D01*
X0301377Y0174681D01*
X0299782Y0175131D02*
X0298881Y0176032D01*
X0297980Y0176482D01*
X0299782Y0177280D02*
X0299782Y0177730D01*
X0297980Y0179532D01*
X0297980Y0179982D01*
X0299782Y0179982D01*
X0300927Y0179532D02*
X0300927Y0178631D01*
X0301377Y0178181D01*
X0302728Y0178181D01*
X0301828Y0178181D02*
X0300927Y0177280D01*
X0302728Y0177280D02*
X0302728Y0179982D01*
X0301377Y0179982D01*
X0300927Y0179532D01*
X0296835Y0179082D02*
X0295935Y0179982D01*
X0290728Y0179982D02*
X0290728Y0177280D01*
X0290728Y0176482D02*
X0289377Y0176482D01*
X0288927Y0176032D01*
X0288927Y0175131D01*
X0288927Y0177280D02*
X0289828Y0178181D01*
X0289377Y0178181D02*
X0290728Y0178181D01*
X0289377Y0178181D02*
X0288927Y0178631D01*
X0288927Y0179532D01*
X0289377Y0179982D01*
X0290728Y0179982D01*
X0290278Y0180780D02*
X0289377Y0180780D01*
X0288927Y0181230D01*
X0287782Y0180780D02*
X0285980Y0182582D01*
X0285980Y0183032D01*
X0286431Y0183482D01*
X0287332Y0183482D01*
X0287782Y0183032D01*
X0288927Y0183032D02*
X0289377Y0183482D01*
X0290278Y0183482D01*
X0290728Y0183032D01*
X0290728Y0181230D01*
X0290278Y0180780D01*
X0287782Y0180780D02*
X0285980Y0180780D01*
X0285980Y0179982D02*
X0287782Y0179982D01*
X0287782Y0178631D01*
X0286881Y0179082D01*
X0286431Y0179082D01*
X0285980Y0178631D01*
X0285980Y0177730D01*
X0286431Y0177280D01*
X0287332Y0177280D01*
X0287782Y0177730D01*
X0284835Y0177730D02*
X0283034Y0179532D01*
X0283034Y0179982D01*
X0284835Y0179982D01*
X0284835Y0180780D02*
X0284835Y0181230D01*
X0283034Y0183032D01*
X0283034Y0183482D01*
X0284835Y0183482D01*
X0284835Y0177730D02*
X0284835Y0177280D01*
X0290728Y0176482D02*
X0290728Y0173780D01*
X0295034Y0172532D02*
X0295034Y0172082D01*
X0295484Y0171631D01*
X0295034Y0171181D01*
X0295034Y0170730D01*
X0295484Y0170280D01*
X0296385Y0170280D01*
X0296835Y0170730D01*
X0295935Y0171631D02*
X0295484Y0171631D01*
X0295034Y0172532D02*
X0295484Y0172982D01*
X0296385Y0172982D01*
X0296835Y0172532D01*
X0308424Y0168043D02*
X0308424Y0185563D01*
X0284835Y0168582D02*
X0283935Y0169482D01*
X0283935Y0166780D01*
X0284835Y0166780D02*
X0283034Y0166780D01*
X0283053Y0160356D02*
X0283954Y0160356D01*
X0284404Y0159905D01*
X0285549Y0160356D02*
X0287351Y0160356D01*
X0287351Y0159004D01*
X0286450Y0159455D01*
X0286000Y0159455D01*
X0285549Y0159004D01*
X0285549Y0158104D01*
X0286000Y0157653D01*
X0286900Y0157653D01*
X0287351Y0158104D01*
X0288496Y0158104D02*
X0288946Y0157653D01*
X0289847Y0157653D01*
X0290297Y0158104D01*
X0290297Y0159905D01*
X0289847Y0160356D01*
X0288946Y0160356D01*
X0288496Y0159905D01*
X0284404Y0157653D02*
X0282603Y0159455D01*
X0282603Y0159905D01*
X0283053Y0160356D01*
X0282603Y0157653D02*
X0284404Y0157653D01*
X0284532Y0154041D02*
X0284532Y0152690D01*
X0283631Y0153141D01*
X0283181Y0153141D01*
X0282730Y0152690D01*
X0282730Y0151789D01*
X0283181Y0151339D01*
X0284082Y0151339D01*
X0284532Y0151789D01*
X0285677Y0151789D02*
X0286127Y0151339D01*
X0287028Y0151339D01*
X0287478Y0151789D01*
X0287478Y0153591D01*
X0287028Y0154041D01*
X0286127Y0154041D01*
X0285677Y0153591D01*
X0284532Y0154041D02*
X0282730Y0154041D01*
X0281585Y0152690D02*
X0279784Y0152690D01*
X0280234Y0151339D02*
X0280234Y0154041D01*
X0281585Y0152690D01*
X0277675Y0144347D02*
X0276967Y0144347D01*
X0276967Y0133323D01*
X0277675Y0133323D01*
X0275901Y0133770D02*
X0275901Y0134671D01*
X0275901Y0134220D02*
X0273199Y0134220D01*
X0273199Y0133770D02*
X0273199Y0134671D01*
X0273649Y0135734D02*
X0273199Y0136184D01*
X0273199Y0137085D01*
X0273649Y0137536D01*
X0273199Y0138681D02*
X0273199Y0140482D01*
X0273199Y0139581D02*
X0275901Y0139581D01*
X0275000Y0138681D01*
X0275450Y0137536D02*
X0275901Y0137085D01*
X0275901Y0136184D01*
X0275450Y0135734D01*
X0273649Y0135734D01*
X0273649Y0141627D02*
X0273199Y0142078D01*
X0273199Y0142978D01*
X0273649Y0143429D01*
X0274099Y0143429D01*
X0274550Y0142978D01*
X0274550Y0142528D01*
X0274550Y0142978D02*
X0275000Y0143429D01*
X0275450Y0143429D01*
X0275901Y0142978D01*
X0275901Y0142078D01*
X0275450Y0141627D01*
X0287872Y0144347D02*
X0288581Y0144347D01*
X0288581Y0133323D01*
X0287872Y0133323D01*
X0289054Y0132693D02*
X0289056Y0132718D01*
X0289062Y0132742D01*
X0289071Y0132764D01*
X0289084Y0132785D01*
X0289100Y0132804D01*
X0289119Y0132820D01*
X0289140Y0132833D01*
X0289162Y0132842D01*
X0289186Y0132848D01*
X0289211Y0132850D01*
X0289236Y0132848D01*
X0289260Y0132842D01*
X0289282Y0132833D01*
X0289303Y0132820D01*
X0289322Y0132804D01*
X0289338Y0132785D01*
X0289351Y0132764D01*
X0289360Y0132742D01*
X0289366Y0132718D01*
X0289368Y0132693D01*
X0289366Y0132668D01*
X0289360Y0132644D01*
X0289351Y0132622D01*
X0289338Y0132601D01*
X0289322Y0132582D01*
X0289303Y0132566D01*
X0289282Y0132553D01*
X0289260Y0132544D01*
X0289236Y0132538D01*
X0289211Y0132536D01*
X0289186Y0132538D01*
X0289162Y0132544D01*
X0289140Y0132553D01*
X0289119Y0132566D01*
X0289100Y0132582D01*
X0289084Y0132601D01*
X0289071Y0132622D01*
X0289062Y0132644D01*
X0289056Y0132668D01*
X0289054Y0132693D01*
X0291722Y0133279D02*
X0292173Y0132829D01*
X0292623Y0132829D01*
X0293073Y0133279D01*
X0293073Y0134180D01*
X0292623Y0134630D01*
X0292173Y0134630D01*
X0291722Y0134180D01*
X0291722Y0133279D01*
X0293073Y0133279D02*
X0293524Y0132829D01*
X0293974Y0132829D01*
X0294424Y0133279D01*
X0294424Y0134180D01*
X0293974Y0134630D01*
X0293524Y0134630D01*
X0293073Y0134180D01*
X0293073Y0131684D02*
X0293073Y0129882D01*
X0294424Y0131233D01*
X0291722Y0131233D01*
X0292173Y0128737D02*
X0291722Y0128287D01*
X0291722Y0127386D01*
X0292173Y0126936D01*
X0293974Y0126936D01*
X0294424Y0127386D01*
X0294424Y0128287D01*
X0293974Y0128737D01*
X0297110Y0128978D02*
X0299813Y0128978D01*
X0299813Y0130329D01*
X0299362Y0130780D01*
X0298462Y0130780D01*
X0298011Y0130329D01*
X0298011Y0128978D01*
X0298011Y0129879D02*
X0297110Y0130780D01*
X0297110Y0131925D02*
X0297110Y0133726D01*
X0297110Y0132825D02*
X0299813Y0132825D01*
X0298912Y0131925D01*
X0298912Y0134871D02*
X0299813Y0135772D01*
X0297110Y0135772D01*
X0297110Y0134871D02*
X0297110Y0136673D01*
X0297561Y0137818D02*
X0298011Y0137818D01*
X0298462Y0138268D01*
X0298462Y0139169D01*
X0298011Y0139619D01*
X0297561Y0139619D01*
X0297110Y0139169D01*
X0297110Y0138268D01*
X0297561Y0137818D01*
X0298462Y0138268D02*
X0298912Y0137818D01*
X0299362Y0137818D01*
X0299813Y0138268D01*
X0299813Y0139169D01*
X0299362Y0139619D01*
X0298912Y0139619D01*
X0298462Y0139169D01*
X0299024Y0143980D02*
X0298574Y0144430D01*
X0298574Y0144881D01*
X0299024Y0145331D01*
X0300375Y0145331D01*
X0300375Y0144430D01*
X0299925Y0143980D01*
X0299024Y0143980D01*
X0300375Y0145331D02*
X0299475Y0146232D01*
X0298574Y0146682D01*
X0301520Y0146232D02*
X0301520Y0145782D01*
X0301971Y0145331D01*
X0303322Y0145331D01*
X0303322Y0143980D02*
X0303322Y0146682D01*
X0301971Y0146682D01*
X0301520Y0146232D01*
X0301971Y0145331D02*
X0301520Y0144881D01*
X0301520Y0144430D01*
X0301971Y0143980D01*
X0303322Y0143980D01*
X0305368Y0145331D02*
X0306268Y0145331D01*
X0306268Y0143980D02*
X0306268Y0146682D01*
X0304467Y0146682D01*
X0310058Y0140119D02*
X0309607Y0139669D01*
X0309607Y0138768D01*
X0310058Y0138318D01*
X0310958Y0138318D02*
X0311409Y0139218D01*
X0311409Y0139669D01*
X0310958Y0140119D01*
X0310058Y0140119D01*
X0310958Y0138318D02*
X0312310Y0138318D01*
X0312310Y0140119D01*
X0309607Y0137173D02*
X0309607Y0135371D01*
X0309607Y0136272D02*
X0312310Y0136272D01*
X0311409Y0135371D01*
X0309607Y0134226D02*
X0309607Y0132425D01*
X0309607Y0133325D02*
X0312310Y0133325D01*
X0311409Y0132425D01*
X0311859Y0131280D02*
X0310958Y0131280D01*
X0310508Y0130829D01*
X0310508Y0129478D01*
X0309607Y0129478D02*
X0312310Y0129478D01*
X0312310Y0130829D01*
X0311859Y0131280D01*
X0310508Y0130379D02*
X0309607Y0131280D01*
X0305037Y0128205D02*
X0305039Y0128232D01*
X0305045Y0128259D01*
X0305054Y0128285D01*
X0305067Y0128309D01*
X0305083Y0128332D01*
X0305102Y0128351D01*
X0305124Y0128368D01*
X0305148Y0128382D01*
X0305173Y0128392D01*
X0305200Y0128399D01*
X0305227Y0128402D01*
X0305255Y0128401D01*
X0305282Y0128396D01*
X0305308Y0128388D01*
X0305332Y0128376D01*
X0305355Y0128360D01*
X0305376Y0128342D01*
X0305393Y0128321D01*
X0305408Y0128297D01*
X0305419Y0128272D01*
X0305427Y0128246D01*
X0305431Y0128219D01*
X0305431Y0128191D01*
X0305427Y0128164D01*
X0305419Y0128138D01*
X0305408Y0128113D01*
X0305393Y0128089D01*
X0305376Y0128068D01*
X0305355Y0128050D01*
X0305333Y0128034D01*
X0305308Y0128022D01*
X0305282Y0128014D01*
X0305255Y0128009D01*
X0305227Y0128008D01*
X0305200Y0128011D01*
X0305173Y0128018D01*
X0305148Y0128028D01*
X0305124Y0128042D01*
X0305102Y0128059D01*
X0305083Y0128078D01*
X0305067Y0128101D01*
X0305054Y0128125D01*
X0305045Y0128151D01*
X0305039Y0128178D01*
X0305037Y0128205D01*
X0298475Y0124006D02*
X0298025Y0124456D01*
X0297574Y0124456D01*
X0297124Y0124006D01*
X0297124Y0123105D01*
X0297574Y0122655D01*
X0298025Y0122655D01*
X0298475Y0123105D01*
X0298475Y0124006D01*
X0297124Y0124006D02*
X0296673Y0124456D01*
X0296223Y0124456D01*
X0295773Y0124006D01*
X0295773Y0123105D01*
X0296223Y0122655D01*
X0296673Y0122655D01*
X0297124Y0123105D01*
X0298025Y0121510D02*
X0298475Y0121059D01*
X0298475Y0120159D01*
X0298025Y0119708D01*
X0296223Y0119708D01*
X0295773Y0120159D01*
X0295773Y0121059D01*
X0296223Y0121510D01*
X0295773Y0118645D02*
X0295773Y0117744D01*
X0295773Y0118194D02*
X0298475Y0118194D01*
X0298475Y0117744D02*
X0298475Y0118645D01*
X0298042Y0111256D02*
X0297591Y0111256D01*
X0295790Y0109455D01*
X0295340Y0109455D01*
X0295790Y0108310D02*
X0295340Y0107859D01*
X0295340Y0106959D01*
X0295790Y0106508D01*
X0297591Y0106508D01*
X0298042Y0106959D01*
X0298042Y0107859D01*
X0297591Y0108310D01*
X0298042Y0109455D02*
X0298042Y0111256D01*
X0298042Y0105445D02*
X0298042Y0104544D01*
X0298042Y0104994D02*
X0295340Y0104994D01*
X0295340Y0104544D02*
X0295340Y0105445D01*
X0305037Y0113638D02*
X0305039Y0113665D01*
X0305045Y0113692D01*
X0305054Y0113718D01*
X0305067Y0113742D01*
X0305083Y0113765D01*
X0305102Y0113784D01*
X0305124Y0113801D01*
X0305148Y0113815D01*
X0305173Y0113825D01*
X0305200Y0113832D01*
X0305227Y0113835D01*
X0305255Y0113834D01*
X0305282Y0113829D01*
X0305308Y0113821D01*
X0305332Y0113809D01*
X0305355Y0113793D01*
X0305376Y0113775D01*
X0305393Y0113754D01*
X0305408Y0113730D01*
X0305419Y0113705D01*
X0305427Y0113679D01*
X0305431Y0113652D01*
X0305431Y0113624D01*
X0305427Y0113597D01*
X0305419Y0113571D01*
X0305408Y0113546D01*
X0305393Y0113522D01*
X0305376Y0113501D01*
X0305355Y0113483D01*
X0305333Y0113467D01*
X0305308Y0113455D01*
X0305282Y0113447D01*
X0305255Y0113442D01*
X0305227Y0113441D01*
X0305200Y0113444D01*
X0305173Y0113451D01*
X0305148Y0113461D01*
X0305124Y0113475D01*
X0305102Y0113492D01*
X0305083Y0113511D01*
X0305067Y0113534D01*
X0305054Y0113558D01*
X0305045Y0113584D01*
X0305039Y0113611D01*
X0305037Y0113638D01*
X0315649Y0125488D02*
X0318351Y0125488D01*
X0318351Y0126839D01*
X0317901Y0127289D01*
X0317000Y0127289D01*
X0316550Y0126839D01*
X0316550Y0125488D01*
X0316550Y0126388D02*
X0315649Y0127289D01*
X0315649Y0128434D02*
X0315649Y0130236D01*
X0315649Y0129335D02*
X0318351Y0129335D01*
X0317451Y0128434D01*
X0317451Y0131381D02*
X0318351Y0132281D01*
X0315649Y0132281D01*
X0315649Y0131381D02*
X0315649Y0133182D01*
X0316099Y0134327D02*
X0315649Y0134778D01*
X0315649Y0135678D01*
X0316099Y0136129D01*
X0317901Y0136129D01*
X0318351Y0135678D01*
X0318351Y0134778D01*
X0317901Y0134327D01*
X0317451Y0134327D01*
X0317000Y0134778D01*
X0317000Y0136129D01*
X0328370Y0130341D02*
X0328821Y0130791D01*
X0329722Y0130791D01*
X0330172Y0130341D01*
X0330172Y0128539D01*
X0329722Y0128089D01*
X0365590Y0146587D02*
X0367479Y0146587D01*
X0367479Y0203673D01*
X0365590Y0203673D01*
X0336728Y0224131D02*
X0334927Y0224131D01*
X0333782Y0224131D02*
X0332881Y0224582D01*
X0332431Y0224582D01*
X0331980Y0224131D01*
X0331980Y0223230D01*
X0332431Y0222780D01*
X0333332Y0222780D01*
X0333782Y0223230D01*
X0333782Y0224131D02*
X0333782Y0225482D01*
X0331980Y0225482D01*
X0335377Y0225482D02*
X0336728Y0224131D01*
X0335377Y0222780D02*
X0335377Y0225482D01*
X0335377Y0232780D02*
X0335377Y0235482D01*
X0336728Y0234131D01*
X0334927Y0234131D01*
X0333782Y0234131D02*
X0332431Y0234131D01*
X0331980Y0233681D01*
X0331980Y0233230D01*
X0332431Y0232780D01*
X0333332Y0232780D01*
X0333782Y0233230D01*
X0333782Y0234131D01*
X0332881Y0235032D01*
X0331980Y0235482D01*
X0263831Y0191838D02*
X0263380Y0192288D01*
X0262930Y0192288D01*
X0262480Y0191838D01*
X0262029Y0192288D01*
X0261579Y0192288D01*
X0261128Y0191838D01*
X0261128Y0190937D01*
X0261579Y0190487D01*
X0261579Y0189342D02*
X0261128Y0188892D01*
X0261128Y0187991D01*
X0261579Y0187540D01*
X0263380Y0187540D01*
X0263831Y0187991D01*
X0263831Y0188892D01*
X0263380Y0189342D01*
X0263380Y0190487D02*
X0263831Y0190937D01*
X0263831Y0191838D01*
X0262480Y0191838D02*
X0262480Y0191388D01*
X0233375Y0197132D02*
X0232925Y0197582D01*
X0232024Y0197582D01*
X0231573Y0197132D01*
X0232024Y0199831D02*
X0232474Y0199831D01*
X0233375Y0200732D02*
X0232925Y0201182D01*
X0171131Y0192585D02*
X0170680Y0193035D01*
X0170230Y0193035D01*
X0169780Y0192585D01*
X0169780Y0191684D01*
X0170230Y0191233D01*
X0170680Y0191233D01*
X0171131Y0191684D01*
X0171131Y0192585D01*
X0169780Y0192585D02*
X0169329Y0193035D01*
X0168879Y0193035D01*
X0168428Y0192585D01*
X0168428Y0191684D01*
X0168879Y0191233D01*
X0169329Y0191233D01*
X0169780Y0191684D01*
X0170680Y0190088D02*
X0171131Y0189638D01*
X0171131Y0188287D01*
X0168428Y0188287D01*
X0168428Y0189638D01*
X0168879Y0190088D01*
X0170680Y0190088D01*
X0160578Y0180130D02*
X0160578Y0176130D01*
X0161370Y0174382D02*
X0160920Y0173932D01*
X0160920Y0173482D01*
X0161370Y0173031D01*
X0162271Y0173031D01*
X0162722Y0173482D01*
X0162722Y0173932D01*
X0162271Y0174382D01*
X0161370Y0174382D01*
X0161370Y0173031D02*
X0160920Y0172581D01*
X0160920Y0172130D01*
X0161370Y0171680D01*
X0162271Y0171680D01*
X0162722Y0172130D01*
X0162722Y0172581D01*
X0162271Y0173031D01*
X0163867Y0173031D02*
X0164317Y0172581D01*
X0165668Y0172581D01*
X0164767Y0172581D02*
X0163867Y0171680D01*
X0163867Y0173031D02*
X0163867Y0173932D01*
X0164317Y0174382D01*
X0165668Y0174382D01*
X0165668Y0171680D01*
X0159775Y0172130D02*
X0159325Y0171680D01*
X0158424Y0171680D01*
X0157973Y0172130D01*
X0157973Y0172581D01*
X0158424Y0173031D01*
X0159775Y0173031D01*
X0159775Y0172130D01*
X0159775Y0173031D02*
X0158874Y0173932D01*
X0157973Y0174382D01*
X0152568Y0177880D02*
X0152568Y0180582D01*
X0151217Y0180582D01*
X0150767Y0180132D01*
X0150767Y0179231D01*
X0151217Y0178781D01*
X0152568Y0178781D01*
X0151667Y0178781D02*
X0150767Y0177880D01*
X0149622Y0178330D02*
X0149171Y0177880D01*
X0148270Y0177880D01*
X0147820Y0178330D01*
X0147820Y0180132D01*
X0148270Y0180582D01*
X0149171Y0180582D01*
X0149622Y0180132D01*
X0149622Y0179682D01*
X0149171Y0179231D01*
X0147820Y0179231D01*
X0146675Y0179231D02*
X0145774Y0179682D01*
X0145324Y0179682D01*
X0144873Y0179231D01*
X0144873Y0178330D01*
X0145324Y0177880D01*
X0146225Y0177880D01*
X0146675Y0178330D01*
X0146675Y0179231D02*
X0146675Y0180582D01*
X0144873Y0180582D01*
X0141831Y0180937D02*
X0141831Y0181838D01*
X0141380Y0182288D01*
X0140930Y0182288D01*
X0140480Y0181838D01*
X0140480Y0180937D01*
X0140930Y0180487D01*
X0141380Y0180487D01*
X0141831Y0180937D01*
X0140480Y0180937D02*
X0140029Y0180487D01*
X0139579Y0180487D01*
X0139128Y0180937D01*
X0139128Y0181838D01*
X0139579Y0182288D01*
X0140029Y0182288D01*
X0140480Y0181838D01*
X0140930Y0183433D02*
X0140480Y0183884D01*
X0140480Y0185235D01*
X0141380Y0185235D02*
X0139579Y0185235D01*
X0139128Y0184785D01*
X0139128Y0183884D01*
X0139579Y0183433D01*
X0140930Y0183433D02*
X0141380Y0183433D01*
X0141831Y0183884D01*
X0141831Y0184785D01*
X0141380Y0185235D01*
X0141380Y0179342D02*
X0140480Y0179342D01*
X0140029Y0178892D01*
X0140029Y0177540D01*
X0139128Y0177540D02*
X0141831Y0177540D01*
X0141831Y0178892D01*
X0141380Y0179342D01*
X0140029Y0178441D02*
X0139128Y0179342D01*
X0129731Y0178392D02*
X0129280Y0178842D01*
X0128380Y0178842D01*
X0127929Y0178392D01*
X0127929Y0177040D01*
X0127028Y0177040D02*
X0129731Y0177040D01*
X0129731Y0178392D01*
X0129280Y0179987D02*
X0128830Y0179987D01*
X0128380Y0180437D01*
X0128380Y0181788D01*
X0129280Y0181788D02*
X0127479Y0181788D01*
X0127028Y0181338D01*
X0127028Y0180437D01*
X0127479Y0179987D01*
X0127028Y0178842D02*
X0127929Y0177941D01*
X0129280Y0179987D02*
X0129731Y0180437D01*
X0129731Y0181338D01*
X0129280Y0181788D01*
X0129731Y0182933D02*
X0129731Y0184735D01*
X0129280Y0184735D01*
X0127479Y0182933D01*
X0127028Y0182933D01*
X0126678Y0185630D02*
X0126678Y0197630D01*
X0118178Y0197630D01*
X0102778Y0197630D01*
X0102778Y0185630D01*
X0118178Y0185630D01*
X0126678Y0185630D01*
X0118178Y0185630D02*
X0118178Y0197630D01*
X0118178Y0201130D02*
X0126678Y0201130D01*
X0126678Y0213130D01*
X0118178Y0213130D01*
X0102778Y0213130D01*
X0102778Y0201130D01*
X0118178Y0201130D01*
X0118178Y0213130D01*
X0115728Y0214380D02*
X0114377Y0214380D01*
X0113927Y0214830D01*
X0113927Y0216632D01*
X0114377Y0217082D01*
X0115728Y0217082D01*
X0115728Y0214380D01*
X0112782Y0215731D02*
X0111431Y0217082D01*
X0111431Y0214380D01*
X0110980Y0215731D02*
X0112782Y0215731D01*
X0098728Y0222780D02*
X0096927Y0222780D01*
X0097828Y0222780D02*
X0097828Y0225482D01*
X0098728Y0224582D01*
X0098728Y0232780D02*
X0096927Y0232780D01*
X0098728Y0232780D02*
X0096927Y0234582D01*
X0096927Y0235032D01*
X0097377Y0235482D01*
X0098278Y0235482D01*
X0098728Y0235032D01*
X0129278Y0213130D02*
X0129278Y0201130D01*
X0137778Y0201130D01*
X0153178Y0201130D01*
X0153178Y0213130D01*
X0137778Y0213130D01*
X0129278Y0213130D01*
X0137778Y0213130D02*
X0137778Y0201130D01*
X0137171Y0199382D02*
X0137622Y0198932D01*
X0137171Y0199382D02*
X0136270Y0199382D01*
X0135820Y0198932D01*
X0135820Y0198482D01*
X0137622Y0196680D01*
X0135820Y0196680D01*
X0134675Y0197130D02*
X0134225Y0196680D01*
X0133324Y0196680D01*
X0132873Y0197130D01*
X0132873Y0197581D01*
X0133324Y0198031D01*
X0133774Y0198031D01*
X0133324Y0198031D02*
X0132873Y0198482D01*
X0132873Y0198932D01*
X0133324Y0199382D01*
X0134225Y0199382D01*
X0134675Y0198932D01*
X0138767Y0198932D02*
X0139217Y0199382D01*
X0140568Y0199382D01*
X0140568Y0196680D01*
X0140568Y0197581D02*
X0139217Y0197581D01*
X0138767Y0198031D01*
X0138767Y0198932D01*
X0141713Y0199382D02*
X0143515Y0199382D01*
X0142614Y0199382D02*
X0142614Y0196680D01*
X0145428Y0196673D02*
X0145428Y0198475D01*
X0145428Y0197574D02*
X0148131Y0197574D01*
X0147230Y0196673D01*
X0147230Y0195528D02*
X0146780Y0195078D01*
X0146780Y0193727D01*
X0146780Y0195078D02*
X0146329Y0195528D01*
X0145879Y0195528D01*
X0145428Y0195078D01*
X0145428Y0193727D01*
X0148131Y0193727D01*
X0148131Y0195078D01*
X0147680Y0195528D01*
X0147230Y0195528D01*
X0148131Y0192582D02*
X0148131Y0190780D01*
X0145428Y0190780D01*
X0146780Y0190780D02*
X0146780Y0191681D01*
X0134962Y0170669D02*
X0133161Y0168867D01*
X0132710Y0169318D01*
X0132710Y0170218D01*
X0133161Y0170669D01*
X0134962Y0170669D01*
X0135413Y0170218D01*
X0135413Y0169318D01*
X0134962Y0168867D01*
X0133161Y0168867D01*
X0132710Y0167722D02*
X0132710Y0165921D01*
X0132710Y0166822D02*
X0135413Y0166822D01*
X0134512Y0165921D01*
X0134962Y0164776D02*
X0135413Y0164325D01*
X0135413Y0163425D01*
X0134962Y0162974D01*
X0133161Y0162974D01*
X0132710Y0163425D01*
X0132710Y0164325D01*
X0133161Y0164776D01*
X0132710Y0161911D02*
X0132710Y0161010D01*
X0132710Y0161460D02*
X0135413Y0161460D01*
X0135413Y0161010D02*
X0135413Y0161911D01*
X0106053Y0169506D02*
X0106053Y0170857D01*
X0105602Y0171307D01*
X0104702Y0171307D01*
X0104251Y0170857D01*
X0104251Y0169506D01*
X0103351Y0169506D02*
X0106053Y0169506D01*
X0104251Y0170406D02*
X0103351Y0171307D01*
X0103351Y0172452D02*
X0103351Y0174254D01*
X0103351Y0173353D02*
X0106053Y0173353D01*
X0105152Y0172452D01*
X0105602Y0175399D02*
X0103801Y0175399D01*
X0105602Y0177200D01*
X0103801Y0177200D01*
X0103351Y0176750D01*
X0103351Y0175849D01*
X0103801Y0175399D01*
X0105602Y0175399D02*
X0106053Y0175849D01*
X0106053Y0176750D01*
X0105602Y0177200D01*
X0106053Y0178345D02*
X0104702Y0178345D01*
X0105152Y0179246D01*
X0105152Y0179696D01*
X0104702Y0180147D01*
X0103801Y0180147D01*
X0103351Y0179696D01*
X0103351Y0178796D01*
X0103801Y0178345D01*
X0106053Y0178345D02*
X0106053Y0180147D01*
X0111873Y0182630D02*
X0112324Y0182180D01*
X0113225Y0182180D01*
X0113675Y0182630D01*
X0114820Y0182630D02*
X0114820Y0184432D01*
X0115270Y0184882D01*
X0116622Y0184882D01*
X0116622Y0182180D01*
X0115270Y0182180D01*
X0114820Y0182630D01*
X0113675Y0184432D02*
X0113225Y0184882D01*
X0112324Y0184882D01*
X0111873Y0184432D01*
X0111873Y0183982D01*
X0112324Y0183531D01*
X0111873Y0183081D01*
X0111873Y0182630D01*
X0112324Y0183531D02*
X0112774Y0183531D01*
X0091473Y0179496D02*
X0091473Y0178596D01*
X0091022Y0178145D01*
X0091022Y0177000D02*
X0089221Y0175199D01*
X0088770Y0175649D01*
X0088770Y0176550D01*
X0089221Y0177000D01*
X0091022Y0177000D01*
X0091473Y0176550D01*
X0091473Y0175649D01*
X0091022Y0175199D01*
X0089221Y0175199D01*
X0088770Y0174054D02*
X0088770Y0172252D01*
X0088770Y0173153D02*
X0091473Y0173153D01*
X0090572Y0172252D01*
X0091022Y0171107D02*
X0090121Y0171107D01*
X0089671Y0170657D01*
X0089671Y0169306D01*
X0089671Y0170206D02*
X0088770Y0171107D01*
X0088770Y0169306D02*
X0091473Y0169306D01*
X0091473Y0170657D01*
X0091022Y0171107D01*
X0086705Y0175177D02*
X0086705Y0176528D01*
X0086254Y0176978D01*
X0085354Y0176978D01*
X0084903Y0176528D01*
X0084903Y0175177D01*
X0084903Y0176077D02*
X0084003Y0176978D01*
X0084453Y0178123D02*
X0084003Y0178574D01*
X0084003Y0179474D01*
X0084453Y0179925D01*
X0086254Y0179925D01*
X0086705Y0179474D01*
X0086705Y0178574D01*
X0086254Y0178123D01*
X0085804Y0178123D01*
X0085354Y0178574D01*
X0085354Y0179925D01*
X0085804Y0181070D02*
X0086254Y0181070D01*
X0086705Y0181520D01*
X0086705Y0182421D01*
X0086254Y0182871D01*
X0085804Y0182871D01*
X0085354Y0182421D01*
X0085354Y0181520D01*
X0085804Y0181070D01*
X0085354Y0181520D02*
X0084903Y0181070D01*
X0084453Y0181070D01*
X0084003Y0181520D01*
X0084003Y0182421D01*
X0084453Y0182871D01*
X0084903Y0182871D01*
X0085354Y0182421D01*
X0081980Y0182421D02*
X0081980Y0181520D01*
X0081530Y0181070D01*
X0081080Y0181070D01*
X0080629Y0181520D01*
X0080629Y0182871D01*
X0079728Y0182871D02*
X0081530Y0182871D01*
X0081980Y0182421D01*
X0079728Y0182871D02*
X0079278Y0182421D01*
X0079278Y0181520D01*
X0079728Y0181070D01*
X0079728Y0179925D02*
X0081530Y0179925D01*
X0081980Y0179474D01*
X0081980Y0178574D01*
X0081530Y0178123D01*
X0081080Y0178123D01*
X0080629Y0178574D01*
X0080629Y0179925D01*
X0079728Y0179925D02*
X0079278Y0179474D01*
X0079278Y0178574D01*
X0079728Y0178123D01*
X0079278Y0176978D02*
X0080179Y0176077D01*
X0080179Y0176528D02*
X0080179Y0175177D01*
X0079278Y0175177D02*
X0081980Y0175177D01*
X0081980Y0176528D01*
X0081530Y0176978D01*
X0080629Y0176978D01*
X0080179Y0176528D01*
X0077256Y0176077D02*
X0074554Y0176077D01*
X0074554Y0175177D02*
X0074554Y0176978D01*
X0075004Y0178123D02*
X0076806Y0179925D01*
X0075004Y0179925D01*
X0074554Y0179474D01*
X0074554Y0178574D01*
X0075004Y0178123D01*
X0076806Y0178123D01*
X0077256Y0178574D01*
X0077256Y0179474D01*
X0076806Y0179925D01*
X0076355Y0181070D02*
X0077256Y0181970D01*
X0074554Y0181970D01*
X0074554Y0181070D02*
X0074554Y0182871D01*
X0072532Y0182421D02*
X0072532Y0181520D01*
X0072081Y0181070D01*
X0072081Y0179925D02*
X0070280Y0178123D01*
X0069829Y0178574D01*
X0069829Y0179474D01*
X0070280Y0179925D01*
X0072081Y0179925D01*
X0072532Y0179474D01*
X0072532Y0178574D01*
X0072081Y0178123D01*
X0070280Y0178123D01*
X0069829Y0176978D02*
X0069829Y0175177D01*
X0069829Y0176077D02*
X0072532Y0176077D01*
X0071631Y0175177D01*
X0072081Y0174032D02*
X0071180Y0174032D01*
X0070730Y0173581D01*
X0070730Y0172230D01*
X0069829Y0172230D02*
X0072532Y0172230D01*
X0072532Y0173581D01*
X0072081Y0174032D01*
X0070730Y0173131D02*
X0069829Y0174032D01*
X0074554Y0174032D02*
X0075454Y0173131D01*
X0075454Y0173581D02*
X0075454Y0172230D01*
X0074554Y0172230D02*
X0077256Y0172230D01*
X0077256Y0173581D01*
X0076806Y0174032D01*
X0075905Y0174032D01*
X0075454Y0173581D01*
X0076355Y0175177D02*
X0077256Y0176077D01*
X0084003Y0175177D02*
X0086705Y0175177D01*
X0089221Y0178145D02*
X0088770Y0178596D01*
X0088770Y0179496D01*
X0089221Y0179947D01*
X0089671Y0179947D01*
X0090121Y0179496D01*
X0090121Y0179046D01*
X0090121Y0179496D02*
X0090572Y0179947D01*
X0091022Y0179947D01*
X0091473Y0179496D01*
X0072532Y0182421D02*
X0072081Y0182871D01*
X0071631Y0182871D01*
X0069829Y0181070D01*
X0069829Y0182871D01*
X0050407Y0186116D02*
X0047705Y0187918D01*
X0049056Y0189063D02*
X0049056Y0190864D01*
X0047705Y0190414D02*
X0050407Y0190414D01*
X0049056Y0189063D01*
X0050407Y0187918D02*
X0047705Y0186116D01*
X0044699Y0193228D02*
X0044699Y0194055D01*
X0039699Y0185866D02*
X0037888Y0185866D01*
X0029069Y0185866D02*
X0027770Y0185866D01*
X0027770Y0215394D01*
X0029069Y0215394D01*
X0037888Y0215394D02*
X0039699Y0215394D01*
X0044699Y0208032D02*
X0044699Y0207205D01*
X0138980Y0214380D02*
X0140782Y0214380D01*
X0138980Y0216182D01*
X0138980Y0216632D01*
X0139431Y0217082D01*
X0140332Y0217082D01*
X0140782Y0216632D01*
X0141927Y0216632D02*
X0142377Y0217082D01*
X0143728Y0217082D01*
X0143728Y0214380D01*
X0142377Y0214380D01*
X0141927Y0214830D01*
X0141927Y0216632D01*
X0219184Y0136782D02*
X0220535Y0135431D01*
X0218734Y0135431D01*
X0219184Y0134080D02*
X0219184Y0136782D01*
X0221680Y0136782D02*
X0223482Y0136782D01*
X0223482Y0135431D01*
X0222581Y0135882D01*
X0222131Y0135882D01*
X0221680Y0135431D01*
X0221680Y0134530D01*
X0222131Y0134080D01*
X0223032Y0134080D01*
X0223482Y0134530D01*
X0224627Y0134080D02*
X0225528Y0134981D01*
X0225077Y0134981D02*
X0226428Y0134981D01*
X0226428Y0134080D02*
X0226428Y0136782D01*
X0225077Y0136782D01*
X0224627Y0136332D01*
X0224627Y0135431D01*
X0225077Y0134981D01*
X0248734Y0127582D02*
X0249635Y0127132D01*
X0241980Y0098935D02*
X0241530Y0098935D01*
X0239728Y0097133D01*
X0239728Y0098935D01*
X0241980Y0098935D02*
X0242431Y0098485D01*
X0242431Y0097584D01*
X0241980Y0097133D01*
X0242431Y0095988D02*
X0242431Y0094187D01*
X0242431Y0095088D02*
X0239728Y0095088D01*
X0244524Y0089982D02*
X0244073Y0089532D01*
X0244073Y0089082D01*
X0244524Y0088631D01*
X0245425Y0088631D01*
X0245875Y0089082D01*
X0245875Y0089532D01*
X0245425Y0089982D01*
X0244524Y0089982D01*
X0244524Y0088631D02*
X0244073Y0088181D01*
X0244073Y0087730D01*
X0244524Y0087280D01*
X0245425Y0087280D01*
X0245875Y0087730D01*
X0245875Y0088181D01*
X0245425Y0088631D01*
X0247020Y0088631D02*
X0248822Y0088631D01*
X0247470Y0089982D01*
X0247470Y0087280D01*
X0249967Y0087280D02*
X0250867Y0088181D01*
X0250417Y0088181D02*
X0251768Y0088181D01*
X0251768Y0087280D02*
X0251768Y0089982D01*
X0250417Y0089982D01*
X0249967Y0089532D01*
X0249967Y0088631D01*
X0250417Y0088181D01*
X0253173Y0087330D02*
X0253173Y0089132D01*
X0254975Y0087330D01*
X0254525Y0086880D01*
X0253624Y0086880D01*
X0253173Y0087330D01*
X0253173Y0089132D02*
X0253624Y0089582D01*
X0254525Y0089582D01*
X0254975Y0089132D01*
X0254975Y0087330D01*
X0256120Y0087330D02*
X0256570Y0086880D01*
X0257471Y0086880D01*
X0257922Y0087330D01*
X0257922Y0088231D02*
X0257021Y0088682D01*
X0256570Y0088682D01*
X0256120Y0088231D01*
X0256120Y0087330D01*
X0257922Y0088231D02*
X0257922Y0089582D01*
X0256120Y0089582D01*
X0259067Y0089132D02*
X0259067Y0088231D01*
X0259517Y0087781D01*
X0260868Y0087781D01*
X0259967Y0087781D02*
X0259067Y0086880D01*
X0260868Y0086880D02*
X0260868Y0089582D01*
X0259517Y0089582D01*
X0259067Y0089132D01*
X0264773Y0089532D02*
X0264773Y0087730D01*
X0265224Y0087280D01*
X0266125Y0087280D01*
X0266575Y0087730D01*
X0266125Y0088631D02*
X0264773Y0088631D01*
X0264773Y0089532D02*
X0265224Y0089982D01*
X0266125Y0089982D01*
X0266575Y0089532D01*
X0266575Y0089082D01*
X0266125Y0088631D01*
X0267720Y0088631D02*
X0269522Y0088631D01*
X0268170Y0089982D01*
X0268170Y0087280D01*
X0270667Y0087280D02*
X0271567Y0088181D01*
X0271117Y0088181D02*
X0272468Y0088181D01*
X0272468Y0087280D02*
X0272468Y0089982D01*
X0271117Y0089982D01*
X0270667Y0089532D01*
X0270667Y0088631D01*
X0271117Y0088181D01*
X0276724Y0082082D02*
X0277625Y0082082D01*
X0278075Y0081632D01*
X0279220Y0081632D02*
X0279670Y0082082D01*
X0280571Y0082082D01*
X0281022Y0081632D01*
X0282167Y0081632D02*
X0282167Y0080731D01*
X0282617Y0080281D01*
X0283968Y0080281D01*
X0283067Y0080281D02*
X0282167Y0079380D01*
X0281022Y0079380D02*
X0279220Y0081182D01*
X0279220Y0081632D01*
X0279220Y0079380D02*
X0281022Y0079380D01*
X0280171Y0077082D02*
X0280622Y0076632D01*
X0280171Y0077082D02*
X0279270Y0077082D01*
X0278820Y0076632D01*
X0278820Y0076182D01*
X0280622Y0074380D01*
X0278820Y0074380D01*
X0277675Y0074380D02*
X0275873Y0074380D01*
X0276774Y0074380D02*
X0276774Y0077082D01*
X0277675Y0076182D01*
X0278075Y0079380D02*
X0276273Y0079380D01*
X0276273Y0081182D02*
X0276273Y0081632D01*
X0276724Y0082082D01*
X0276273Y0081182D02*
X0278075Y0079380D01*
X0281767Y0076632D02*
X0281767Y0075731D01*
X0282217Y0075281D01*
X0283568Y0075281D01*
X0282667Y0075281D02*
X0281767Y0074380D01*
X0283568Y0074380D02*
X0283568Y0077082D01*
X0282217Y0077082D01*
X0281767Y0076632D01*
X0283968Y0079380D02*
X0283968Y0082082D01*
X0282617Y0082082D01*
X0282167Y0081632D01*
X0282517Y0072182D02*
X0282067Y0071732D01*
X0282067Y0070831D01*
X0282517Y0070381D01*
X0283868Y0070381D01*
X0282967Y0070381D02*
X0282067Y0069480D01*
X0280922Y0069480D02*
X0279120Y0071282D01*
X0279120Y0071732D01*
X0279570Y0072182D01*
X0280471Y0072182D01*
X0280922Y0071732D01*
X0282517Y0072182D02*
X0283868Y0072182D01*
X0283868Y0069480D01*
X0280922Y0069480D02*
X0279120Y0069480D01*
X0277975Y0070831D02*
X0276173Y0070831D01*
X0276624Y0069480D02*
X0276624Y0072182D01*
X0277975Y0070831D01*
X0290528Y0063973D02*
X0290979Y0063973D01*
X0292780Y0065775D01*
X0293231Y0065775D01*
X0293231Y0063973D01*
X0292780Y0062828D02*
X0292330Y0062828D01*
X0291880Y0062378D01*
X0291880Y0061027D01*
X0291880Y0062378D02*
X0291429Y0062828D01*
X0290979Y0062828D01*
X0290528Y0062378D01*
X0290528Y0061027D01*
X0293231Y0061027D01*
X0293231Y0062378D01*
X0292780Y0062828D01*
X0293231Y0059882D02*
X0293231Y0058080D01*
X0290528Y0058080D01*
X0291880Y0058080D02*
X0291880Y0058981D01*
X0295928Y0058480D02*
X0298631Y0058480D01*
X0298631Y0059831D01*
X0298180Y0060282D01*
X0297280Y0060282D01*
X0296829Y0059831D01*
X0296829Y0058480D01*
X0296829Y0059381D02*
X0295928Y0060282D01*
X0295928Y0061427D02*
X0295928Y0063228D01*
X0295928Y0062327D02*
X0298631Y0062327D01*
X0297730Y0061427D01*
X0297280Y0064373D02*
X0297280Y0066175D01*
X0298631Y0065724D02*
X0297280Y0064373D01*
X0298631Y0065724D02*
X0295928Y0065724D01*
X0301028Y0065523D02*
X0301479Y0065073D01*
X0301929Y0065073D01*
X0302380Y0065523D01*
X0302380Y0066424D01*
X0301929Y0066875D01*
X0301479Y0066875D01*
X0301028Y0066424D01*
X0301028Y0065523D01*
X0302380Y0065523D02*
X0302830Y0065073D01*
X0303280Y0065073D01*
X0303731Y0065523D01*
X0303731Y0066424D01*
X0303280Y0066875D01*
X0302830Y0066875D01*
X0302380Y0066424D01*
X0302830Y0063928D02*
X0302380Y0063478D01*
X0301929Y0063928D01*
X0301479Y0063928D01*
X0301028Y0063478D01*
X0301028Y0062577D01*
X0301479Y0062127D01*
X0301028Y0060982D02*
X0301929Y0060081D01*
X0301929Y0060531D02*
X0301929Y0059180D01*
X0301028Y0059180D02*
X0303731Y0059180D01*
X0303731Y0060531D01*
X0303280Y0060982D01*
X0302380Y0060982D01*
X0301929Y0060531D01*
X0303280Y0062127D02*
X0303731Y0062577D01*
X0303731Y0063478D01*
X0303280Y0063928D01*
X0302830Y0063928D01*
X0302380Y0063478D02*
X0302380Y0063027D01*
X0306228Y0062278D02*
X0306228Y0061377D01*
X0306679Y0060927D01*
X0306228Y0059782D02*
X0307129Y0058881D01*
X0307129Y0059331D02*
X0307129Y0057980D01*
X0306228Y0057980D02*
X0308931Y0057980D01*
X0308931Y0059331D01*
X0308480Y0059782D01*
X0307580Y0059782D01*
X0307129Y0059331D01*
X0308480Y0060927D02*
X0308931Y0061377D01*
X0308931Y0062278D01*
X0308480Y0062728D01*
X0308030Y0062728D01*
X0307580Y0062278D01*
X0307129Y0062728D01*
X0306679Y0062728D01*
X0306228Y0062278D01*
X0307580Y0062278D02*
X0307580Y0061827D01*
X0307580Y0063873D02*
X0307580Y0065224D01*
X0307129Y0065675D01*
X0306679Y0065675D01*
X0306228Y0065224D01*
X0306228Y0064323D01*
X0306679Y0063873D01*
X0307580Y0063873D01*
X0308480Y0064774D01*
X0308931Y0065675D01*
X0335573Y0083280D02*
X0337375Y0083280D01*
X0335573Y0085082D01*
X0335573Y0085532D01*
X0336024Y0085982D01*
X0336925Y0085982D01*
X0337375Y0085532D01*
X0339421Y0085982D02*
X0339421Y0083280D01*
X0340322Y0083280D02*
X0338520Y0083280D01*
X0340322Y0085082D02*
X0339421Y0085982D01*
X0341467Y0085532D02*
X0341917Y0085982D01*
X0342818Y0085982D01*
X0343268Y0085532D01*
X0343268Y0083730D01*
X0342818Y0083280D01*
X0341917Y0083280D01*
X0341467Y0083730D01*
X0344332Y0083280D02*
X0345232Y0083280D01*
X0344782Y0083280D02*
X0344782Y0085982D01*
X0345232Y0085982D02*
X0344332Y0085982D01*
X0343384Y0086974D02*
X0331573Y0086974D01*
X0331573Y0087565D01*
X0343384Y0087565D02*
X0343384Y0086974D01*
X0331573Y0098195D02*
X0331573Y0098785D01*
X0360128Y0097324D02*
X0362831Y0097324D01*
X0361480Y0095973D01*
X0361480Y0097775D01*
X0361930Y0094828D02*
X0361480Y0094378D01*
X0361480Y0093027D01*
X0361480Y0094378D02*
X0361029Y0094828D01*
X0360579Y0094828D01*
X0360128Y0094378D01*
X0360128Y0093027D01*
X0362831Y0093027D01*
X0362831Y0094378D01*
X0362380Y0094828D01*
X0361930Y0094828D01*
X0362831Y0091882D02*
X0362831Y0090080D01*
X0360128Y0090080D01*
X0361480Y0090080D02*
X0361480Y0090981D01*
X0367490Y0112835D02*
X0367671Y0112835D01*
X0367671Y0138425D01*
X0367490Y0138425D01*
X0294179Y0150930D02*
X0294179Y0154930D01*
X0212428Y0097932D02*
X0212428Y0096130D01*
X0211978Y0095680D01*
X0211077Y0095680D01*
X0210627Y0096130D01*
X0209482Y0097031D02*
X0207680Y0097031D01*
X0206535Y0097482D02*
X0206085Y0097031D01*
X0204734Y0097031D01*
X0204734Y0096130D02*
X0204734Y0097932D01*
X0205184Y0098382D01*
X0206085Y0098382D01*
X0206535Y0097932D01*
X0206535Y0097482D01*
X0206535Y0096130D02*
X0206085Y0095680D01*
X0205184Y0095680D01*
X0204734Y0096130D01*
X0208131Y0095680D02*
X0208131Y0098382D01*
X0209482Y0097031D01*
X0210627Y0097932D02*
X0211077Y0098382D01*
X0211978Y0098382D01*
X0212428Y0097932D01*
X0212620Y0092067D02*
X0220337Y0092067D01*
X0220337Y0084193D01*
X0212620Y0084193D01*
X0212620Y0092067D01*
X0220691Y0092658D02*
X0220693Y0092688D01*
X0220699Y0092718D01*
X0220708Y0092747D01*
X0220721Y0092774D01*
X0220738Y0092799D01*
X0220757Y0092822D01*
X0220780Y0092843D01*
X0220805Y0092860D01*
X0220831Y0092874D01*
X0220860Y0092884D01*
X0220889Y0092891D01*
X0220919Y0092894D01*
X0220950Y0092893D01*
X0220980Y0092888D01*
X0221009Y0092879D01*
X0221036Y0092867D01*
X0221062Y0092852D01*
X0221086Y0092833D01*
X0221107Y0092811D01*
X0221125Y0092787D01*
X0221140Y0092760D01*
X0221151Y0092732D01*
X0221159Y0092703D01*
X0221163Y0092673D01*
X0221163Y0092643D01*
X0221159Y0092613D01*
X0221151Y0092584D01*
X0221140Y0092556D01*
X0221125Y0092529D01*
X0221107Y0092505D01*
X0221086Y0092483D01*
X0221062Y0092464D01*
X0221036Y0092449D01*
X0221009Y0092437D01*
X0220980Y0092428D01*
X0220950Y0092423D01*
X0220919Y0092422D01*
X0220889Y0092425D01*
X0220860Y0092432D01*
X0220831Y0092442D01*
X0220805Y0092456D01*
X0220780Y0092473D01*
X0220757Y0092494D01*
X0220738Y0092517D01*
X0220721Y0092542D01*
X0220708Y0092569D01*
X0220699Y0092598D01*
X0220693Y0092628D01*
X0220691Y0092658D01*
X0225628Y0091685D02*
X0225628Y0090784D01*
X0226079Y0090333D01*
X0227880Y0092135D01*
X0226079Y0092135D01*
X0225628Y0091685D01*
X0226079Y0090333D02*
X0227880Y0090333D01*
X0228331Y0090784D01*
X0228331Y0091685D01*
X0227880Y0092135D01*
X0225628Y0089188D02*
X0225628Y0087387D01*
X0225628Y0088288D02*
X0228331Y0088288D01*
X0227430Y0087387D01*
X0225628Y0086242D02*
X0225628Y0084440D01*
X0225628Y0085341D02*
X0228331Y0085341D01*
X0227430Y0084440D01*
X0226980Y0083295D02*
X0226529Y0082845D01*
X0226529Y0081494D01*
X0225628Y0081494D02*
X0228331Y0081494D01*
X0228331Y0082845D01*
X0227880Y0083295D01*
X0226980Y0083295D01*
X0226529Y0082395D02*
X0225628Y0083295D01*
X0221228Y0082382D02*
X0220328Y0082382D01*
X0220778Y0082382D02*
X0220778Y0079680D01*
X0221228Y0079680D02*
X0220328Y0079680D01*
X0219264Y0080130D02*
X0218814Y0079680D01*
X0217913Y0079680D01*
X0217463Y0080130D01*
X0216318Y0079680D02*
X0214516Y0079680D01*
X0215417Y0079680D02*
X0215417Y0082382D01*
X0216318Y0081482D01*
X0217463Y0081932D02*
X0217913Y0082382D01*
X0218814Y0082382D01*
X0219264Y0081932D01*
X0219264Y0080130D01*
X0213371Y0080130D02*
X0213371Y0079680D01*
X0213371Y0080130D02*
X0211570Y0081932D01*
X0211570Y0082382D01*
X0213371Y0082382D01*
X0230128Y0081984D02*
X0230579Y0081533D01*
X0230128Y0081984D02*
X0230128Y0082885D01*
X0230579Y0083335D01*
X0231029Y0083335D01*
X0231480Y0082885D01*
X0231480Y0082434D01*
X0231480Y0082885D02*
X0231930Y0083335D01*
X0232380Y0083335D01*
X0232831Y0082885D01*
X0232831Y0081984D01*
X0232380Y0081533D01*
X0232380Y0080388D02*
X0232831Y0079938D01*
X0232831Y0079037D01*
X0232380Y0078587D01*
X0232380Y0080388D02*
X0231930Y0080388D01*
X0230128Y0078587D01*
X0230128Y0080388D01*
X0230128Y0077442D02*
X0230128Y0075640D01*
X0230128Y0076541D02*
X0232831Y0076541D01*
X0231930Y0075640D01*
X0231480Y0074495D02*
X0231029Y0074045D01*
X0231029Y0072694D01*
X0230128Y0072694D02*
X0232831Y0072694D01*
X0232831Y0074045D01*
X0232380Y0074495D01*
X0231480Y0074495D01*
X0231029Y0073595D02*
X0230128Y0074495D01*
X0182731Y0067285D02*
X0182731Y0066384D01*
X0182280Y0065933D01*
X0182280Y0064788D02*
X0181380Y0064788D01*
X0180929Y0064338D01*
X0180929Y0062987D01*
X0180028Y0062987D02*
X0182731Y0062987D01*
X0182731Y0064338D01*
X0182280Y0064788D01*
X0180028Y0065933D02*
X0181830Y0067735D01*
X0182280Y0067735D01*
X0182731Y0067285D01*
X0180028Y0067735D02*
X0180028Y0065933D01*
X0161381Y0052606D02*
X0157878Y0052606D01*
X0157878Y0051438D02*
X0157878Y0053774D01*
X0157078Y0054730D02*
X0157078Y0050530D01*
X0144578Y0050530D01*
X0144578Y0054730D01*
X0157078Y0054730D01*
X0160214Y0051438D02*
X0161381Y0052606D01*
X0098728Y0045032D02*
X0098278Y0045482D01*
X0097377Y0045482D01*
X0096927Y0045032D01*
X0096927Y0044582D01*
X0098728Y0042780D01*
X0096927Y0042780D01*
X0097828Y0035482D02*
X0097828Y0032780D01*
X0098728Y0032780D02*
X0096927Y0032780D01*
X0098728Y0034582D02*
X0097828Y0035482D01*
X0055933Y0110182D02*
X0053231Y0110182D01*
X0331980Y0045482D02*
X0332881Y0045032D01*
X0333782Y0044131D01*
X0332431Y0044131D01*
X0331980Y0043681D01*
X0331980Y0043230D01*
X0332431Y0042780D01*
X0333332Y0042780D01*
X0333782Y0043230D01*
X0333782Y0044131D01*
X0334927Y0044131D02*
X0336728Y0044131D01*
X0335377Y0045482D01*
X0335377Y0042780D01*
X0335377Y0035482D02*
X0336728Y0034131D01*
X0334927Y0034131D01*
X0333782Y0034131D02*
X0332881Y0034582D01*
X0332431Y0034582D01*
X0331980Y0034131D01*
X0331980Y0033230D01*
X0332431Y0032780D01*
X0333332Y0032780D01*
X0333782Y0033230D01*
X0333782Y0034131D02*
X0333782Y0035482D01*
X0331980Y0035482D01*
X0335377Y0035482D02*
X0335377Y0032780D01*
X0337184Y0070480D02*
X0338085Y0070480D01*
X0338535Y0070930D01*
X0339680Y0070930D02*
X0339680Y0071381D01*
X0340131Y0071831D01*
X0341482Y0071831D01*
X0341482Y0070480D02*
X0341482Y0073182D01*
X0340131Y0073182D01*
X0339680Y0072732D01*
X0339680Y0072282D01*
X0340131Y0071831D01*
X0339680Y0070930D02*
X0340131Y0070480D01*
X0341482Y0070480D01*
X0343528Y0071831D02*
X0344428Y0071831D01*
X0344428Y0070480D02*
X0344428Y0073182D01*
X0342627Y0073182D01*
X0338535Y0072732D02*
X0338085Y0073182D01*
X0337184Y0073182D01*
X0336734Y0072732D01*
X0336734Y0072282D01*
X0337184Y0071831D01*
X0336734Y0071381D01*
X0336734Y0070930D01*
X0337184Y0070480D01*
X0337184Y0071831D02*
X0337635Y0071831D01*
D13*
X0329998Y0085793D02*
X0330000Y0085832D01*
X0330006Y0085871D01*
X0330016Y0085909D01*
X0330029Y0085946D01*
X0330046Y0085981D01*
X0330066Y0086015D01*
X0330090Y0086046D01*
X0330117Y0086075D01*
X0330146Y0086101D01*
X0330178Y0086124D01*
X0330212Y0086144D01*
X0330248Y0086160D01*
X0330285Y0086172D01*
X0330324Y0086181D01*
X0330363Y0086186D01*
X0330402Y0086187D01*
X0330441Y0086184D01*
X0330480Y0086177D01*
X0330517Y0086166D01*
X0330554Y0086152D01*
X0330589Y0086134D01*
X0330622Y0086113D01*
X0330653Y0086088D01*
X0330681Y0086061D01*
X0330706Y0086031D01*
X0330728Y0085998D01*
X0330747Y0085964D01*
X0330762Y0085928D01*
X0330774Y0085890D01*
X0330782Y0085852D01*
X0330786Y0085813D01*
X0330786Y0085773D01*
X0330782Y0085734D01*
X0330774Y0085696D01*
X0330762Y0085658D01*
X0330747Y0085622D01*
X0330728Y0085588D01*
X0330706Y0085555D01*
X0330681Y0085525D01*
X0330653Y0085498D01*
X0330622Y0085473D01*
X0330589Y0085452D01*
X0330554Y0085434D01*
X0330517Y0085420D01*
X0330480Y0085409D01*
X0330441Y0085402D01*
X0330402Y0085399D01*
X0330363Y0085400D01*
X0330324Y0085405D01*
X0330285Y0085414D01*
X0330248Y0085426D01*
X0330212Y0085442D01*
X0330178Y0085462D01*
X0330146Y0085485D01*
X0330117Y0085511D01*
X0330090Y0085540D01*
X0330066Y0085571D01*
X0330046Y0085605D01*
X0330029Y0085640D01*
X0330016Y0085677D01*
X0330006Y0085715D01*
X0330000Y0085754D01*
X0329998Y0085793D01*
D14*
X0341762Y0114363D02*
X0341762Y0115298D01*
X0341762Y0114830D02*
X0343163Y0114830D01*
X0342696Y0114363D01*
X0342696Y0134493D02*
X0343163Y0134960D01*
X0341762Y0134960D01*
X0341762Y0134493D02*
X0341762Y0135427D01*
X0341995Y0135966D02*
X0341762Y0136200D01*
X0341762Y0136667D01*
X0341995Y0136900D01*
X0342930Y0136900D01*
X0343163Y0136667D01*
X0343163Y0136200D01*
X0342930Y0135966D01*
X0342696Y0135966D01*
X0342463Y0136200D01*
X0342463Y0136900D01*
D15*
X0027130Y0195769D02*
X0026229Y0195769D01*
X0026229Y0196370D01*
X0026379Y0196690D02*
X0026680Y0196690D01*
X0026830Y0196840D01*
X0026830Y0197290D01*
X0027130Y0197290D02*
X0026229Y0197290D01*
X0026229Y0196840D01*
X0026379Y0196690D01*
X0026680Y0196069D02*
X0026680Y0195769D01*
X0027130Y0195769D02*
X0027130Y0196370D01*
X0026680Y0197611D02*
X0026379Y0197611D01*
X0026229Y0197761D01*
X0026229Y0198211D01*
X0026079Y0198211D02*
X0026830Y0198211D01*
X0026830Y0197761D01*
X0026680Y0197611D01*
X0025929Y0197911D02*
X0025929Y0198061D01*
X0026079Y0198211D01*
X0026379Y0198531D02*
X0026680Y0198531D01*
X0026830Y0198682D01*
X0026830Y0198982D01*
X0026680Y0199132D01*
X0026530Y0199132D01*
X0026530Y0198531D01*
X0026379Y0198531D02*
X0026229Y0198682D01*
X0026229Y0198982D01*
X0026379Y0200373D02*
X0026229Y0200523D01*
X0026229Y0200823D01*
X0026379Y0200974D01*
X0026680Y0200974D01*
X0026830Y0200823D01*
X0026830Y0200523D01*
X0026680Y0200373D01*
X0026379Y0200373D01*
X0026680Y0201294D02*
X0026680Y0201594D01*
X0026980Y0201444D02*
X0027130Y0201594D01*
X0026980Y0201444D02*
X0026229Y0201444D01*
X0026229Y0202828D02*
X0027130Y0202828D01*
X0027130Y0203279D01*
X0026980Y0203429D01*
X0026680Y0203429D01*
X0026530Y0203279D01*
X0026530Y0202828D01*
X0026379Y0203749D02*
X0026229Y0203899D01*
X0026229Y0204200D01*
X0026379Y0204350D01*
X0026229Y0204670D02*
X0026229Y0205120D01*
X0026379Y0205270D01*
X0026530Y0205270D01*
X0026680Y0205120D01*
X0026680Y0204670D01*
X0026980Y0204350D02*
X0027130Y0204200D01*
X0027130Y0203899D01*
X0026980Y0203749D01*
X0026379Y0203749D01*
X0026229Y0204670D02*
X0027130Y0204670D01*
X0027130Y0205120D01*
X0026980Y0205270D01*
X0026830Y0205270D01*
X0026680Y0205120D01*
D16*
X0026786Y0206535D02*
X0027179Y0206929D01*
X0026786Y0207323D01*
X0027179Y0206929D02*
X0026195Y0206929D01*
X0026786Y0208110D02*
X0027179Y0208504D01*
X0026786Y0208898D01*
X0027179Y0208504D02*
X0026195Y0208504D01*
X0026786Y0209685D02*
X0027179Y0210079D01*
X0026786Y0210473D01*
X0027179Y0210079D02*
X0026195Y0210079D01*
X0026786Y0211260D02*
X0027179Y0211654D01*
X0026786Y0212047D01*
X0027179Y0211654D02*
X0026195Y0211654D01*
X0026786Y0212835D02*
X0027179Y0213228D01*
X0026786Y0213622D01*
X0027179Y0213228D02*
X0026195Y0213228D01*
X0026786Y0194724D02*
X0027179Y0194331D01*
X0026786Y0193937D01*
X0027179Y0194331D02*
X0026195Y0194331D01*
X0026786Y0193150D02*
X0027179Y0192756D01*
X0026786Y0192362D01*
X0027179Y0192756D02*
X0026195Y0192756D01*
X0026786Y0191575D02*
X0027179Y0191181D01*
X0026786Y0190787D01*
X0027179Y0191181D02*
X0026195Y0191181D01*
X0026786Y0190000D02*
X0027179Y0189606D01*
X0026786Y0189213D01*
X0027179Y0189606D02*
X0026195Y0189606D01*
X0026786Y0188425D02*
X0027179Y0188032D01*
X0026786Y0187638D01*
X0027179Y0188032D02*
X0026195Y0188032D01*
D17*
X0243984Y0184630D02*
X0243986Y0184669D01*
X0243992Y0184708D01*
X0244002Y0184746D01*
X0244015Y0184783D01*
X0244032Y0184818D01*
X0244052Y0184852D01*
X0244076Y0184883D01*
X0244103Y0184912D01*
X0244132Y0184938D01*
X0244164Y0184961D01*
X0244198Y0184981D01*
X0244234Y0184997D01*
X0244271Y0185009D01*
X0244310Y0185018D01*
X0244349Y0185023D01*
X0244388Y0185024D01*
X0244427Y0185021D01*
X0244466Y0185014D01*
X0244503Y0185003D01*
X0244540Y0184989D01*
X0244575Y0184971D01*
X0244608Y0184950D01*
X0244639Y0184925D01*
X0244667Y0184898D01*
X0244692Y0184868D01*
X0244714Y0184835D01*
X0244733Y0184801D01*
X0244748Y0184765D01*
X0244760Y0184727D01*
X0244768Y0184689D01*
X0244772Y0184650D01*
X0244772Y0184610D01*
X0244768Y0184571D01*
X0244760Y0184533D01*
X0244748Y0184495D01*
X0244733Y0184459D01*
X0244714Y0184425D01*
X0244692Y0184392D01*
X0244667Y0184362D01*
X0244639Y0184335D01*
X0244608Y0184310D01*
X0244575Y0184289D01*
X0244540Y0184271D01*
X0244503Y0184257D01*
X0244466Y0184246D01*
X0244427Y0184239D01*
X0244388Y0184236D01*
X0244349Y0184237D01*
X0244310Y0184242D01*
X0244271Y0184251D01*
X0244234Y0184263D01*
X0244198Y0184279D01*
X0244164Y0184299D01*
X0244132Y0184322D01*
X0244103Y0184348D01*
X0244076Y0184377D01*
X0244052Y0184408D01*
X0244032Y0184442D01*
X0244015Y0184477D01*
X0244002Y0184514D01*
X0243992Y0184552D01*
X0243986Y0184591D01*
X0243984Y0184630D01*
M02*
