G75*
%MOIN*%
%OFA0B0*%
%FSLAX25Y25*%
%IPPOS*%
%LPD*%
%AMOC8*
5,1,8,0,0,1.08239X$1,22.5*
%
%ADD10C,0.00000*%
D10*
X0052478Y0026630D02*
X0317478Y0026630D01*
X0318686Y0026645D01*
X0319894Y0026688D01*
X0321100Y0026761D01*
X0322304Y0026863D01*
X0323505Y0026995D01*
X0324702Y0027155D01*
X0325896Y0027344D01*
X0327084Y0027561D01*
X0328267Y0027808D01*
X0329444Y0028083D01*
X0330613Y0028386D01*
X0331775Y0028718D01*
X0332929Y0029077D01*
X0334073Y0029464D01*
X0335208Y0029879D01*
X0336333Y0030321D01*
X0337446Y0030790D01*
X0338548Y0031286D01*
X0339638Y0031809D01*
X0340714Y0032357D01*
X0341777Y0032932D01*
X0342826Y0033532D01*
X0343860Y0034157D01*
X0344879Y0034806D01*
X0345881Y0035481D01*
X0346867Y0036179D01*
X0347836Y0036901D01*
X0348787Y0037646D01*
X0349720Y0038414D01*
X0350634Y0039204D01*
X0351529Y0040017D01*
X0352404Y0040850D01*
X0353258Y0041704D01*
X0354091Y0042579D01*
X0354904Y0043474D01*
X0355694Y0044388D01*
X0356462Y0045321D01*
X0357207Y0046272D01*
X0357929Y0047241D01*
X0358627Y0048227D01*
X0359302Y0049229D01*
X0359951Y0050248D01*
X0360576Y0051282D01*
X0361176Y0052331D01*
X0361751Y0053394D01*
X0362299Y0054470D01*
X0362822Y0055560D01*
X0363318Y0056662D01*
X0363787Y0057775D01*
X0364229Y0058900D01*
X0364644Y0060035D01*
X0365031Y0061179D01*
X0365390Y0062333D01*
X0365722Y0063495D01*
X0366025Y0064664D01*
X0366300Y0065841D01*
X0366547Y0067024D01*
X0366764Y0068212D01*
X0366953Y0069406D01*
X0367113Y0070603D01*
X0367245Y0071804D01*
X0367347Y0073008D01*
X0367420Y0074214D01*
X0367463Y0075422D01*
X0367478Y0076630D01*
X0367478Y0191630D01*
X0367463Y0192838D01*
X0367420Y0194046D01*
X0367347Y0195252D01*
X0367245Y0196456D01*
X0367113Y0197657D01*
X0366953Y0198854D01*
X0366764Y0200048D01*
X0366547Y0201236D01*
X0366300Y0202419D01*
X0366025Y0203596D01*
X0365722Y0204765D01*
X0365390Y0205927D01*
X0365031Y0207081D01*
X0364644Y0208225D01*
X0364229Y0209360D01*
X0363787Y0210485D01*
X0363318Y0211598D01*
X0362822Y0212700D01*
X0362299Y0213790D01*
X0361751Y0214866D01*
X0361176Y0215929D01*
X0360576Y0216978D01*
X0359951Y0218012D01*
X0359302Y0219031D01*
X0358627Y0220033D01*
X0357929Y0221019D01*
X0357207Y0221988D01*
X0356462Y0222939D01*
X0355694Y0223872D01*
X0354904Y0224786D01*
X0354091Y0225681D01*
X0353258Y0226556D01*
X0352404Y0227410D01*
X0351529Y0228243D01*
X0350634Y0229056D01*
X0349720Y0229846D01*
X0348787Y0230614D01*
X0347836Y0231359D01*
X0346867Y0232081D01*
X0345881Y0232779D01*
X0344879Y0233454D01*
X0343860Y0234103D01*
X0342826Y0234728D01*
X0341777Y0235328D01*
X0340714Y0235903D01*
X0339638Y0236451D01*
X0338548Y0236974D01*
X0337446Y0237470D01*
X0336333Y0237939D01*
X0335208Y0238381D01*
X0334073Y0238796D01*
X0332929Y0239183D01*
X0331775Y0239542D01*
X0330613Y0239874D01*
X0329444Y0240177D01*
X0328267Y0240452D01*
X0327084Y0240699D01*
X0325896Y0240916D01*
X0324702Y0241105D01*
X0323505Y0241265D01*
X0322304Y0241397D01*
X0321100Y0241499D01*
X0319894Y0241572D01*
X0318686Y0241615D01*
X0317478Y0241630D01*
X0052478Y0241630D01*
X0051874Y0241623D01*
X0051270Y0241601D01*
X0050667Y0241564D01*
X0050065Y0241513D01*
X0049465Y0241448D01*
X0048866Y0241368D01*
X0048269Y0241273D01*
X0047675Y0241164D01*
X0047083Y0241041D01*
X0046495Y0240904D01*
X0045910Y0240752D01*
X0045329Y0240586D01*
X0044753Y0240406D01*
X0044180Y0240213D01*
X0043613Y0240005D01*
X0043051Y0239784D01*
X0042494Y0239550D01*
X0041943Y0239302D01*
X0041398Y0239041D01*
X0040860Y0238766D01*
X0040328Y0238479D01*
X0039804Y0238179D01*
X0039287Y0237867D01*
X0038778Y0237542D01*
X0038276Y0237205D01*
X0037783Y0236855D01*
X0037299Y0236494D01*
X0036823Y0236122D01*
X0036357Y0235738D01*
X0035900Y0235343D01*
X0035453Y0234937D01*
X0035015Y0234520D01*
X0034588Y0234093D01*
X0034171Y0233655D01*
X0033765Y0233208D01*
X0033370Y0232751D01*
X0032986Y0232285D01*
X0032614Y0231809D01*
X0032253Y0231325D01*
X0031903Y0230832D01*
X0031566Y0230330D01*
X0031241Y0229821D01*
X0030929Y0229304D01*
X0030629Y0228780D01*
X0030342Y0228248D01*
X0030067Y0227710D01*
X0029806Y0227165D01*
X0029558Y0226614D01*
X0029324Y0226057D01*
X0029103Y0225495D01*
X0028895Y0224928D01*
X0028702Y0224355D01*
X0028522Y0223779D01*
X0028356Y0223198D01*
X0028204Y0222613D01*
X0028067Y0222025D01*
X0027944Y0221433D01*
X0027835Y0220839D01*
X0027740Y0220242D01*
X0027660Y0219643D01*
X0027595Y0219043D01*
X0027544Y0218441D01*
X0027507Y0217838D01*
X0027485Y0217234D01*
X0027478Y0216630D01*
X0027478Y0051630D01*
X0049478Y0060130D02*
X0049478Y0068130D01*
X0049480Y0068206D01*
X0049486Y0068282D01*
X0049495Y0068357D01*
X0049509Y0068432D01*
X0049526Y0068506D01*
X0049547Y0068579D01*
X0049571Y0068651D01*
X0049600Y0068722D01*
X0049631Y0068791D01*
X0049666Y0068858D01*
X0049705Y0068923D01*
X0049747Y0068987D01*
X0049792Y0069048D01*
X0049840Y0069107D01*
X0049891Y0069163D01*
X0049945Y0069217D01*
X0050001Y0069268D01*
X0050060Y0069316D01*
X0050121Y0069361D01*
X0050185Y0069403D01*
X0050250Y0069442D01*
X0050317Y0069477D01*
X0050386Y0069508D01*
X0050457Y0069537D01*
X0050529Y0069561D01*
X0050602Y0069582D01*
X0050676Y0069599D01*
X0050751Y0069613D01*
X0050826Y0069622D01*
X0050902Y0069628D01*
X0050978Y0069630D01*
X0051054Y0069628D01*
X0051130Y0069622D01*
X0051205Y0069613D01*
X0051280Y0069599D01*
X0051354Y0069582D01*
X0051427Y0069561D01*
X0051499Y0069537D01*
X0051570Y0069508D01*
X0051639Y0069477D01*
X0051706Y0069442D01*
X0051771Y0069403D01*
X0051835Y0069361D01*
X0051896Y0069316D01*
X0051955Y0069268D01*
X0052011Y0069217D01*
X0052065Y0069163D01*
X0052116Y0069107D01*
X0052164Y0069048D01*
X0052209Y0068987D01*
X0052251Y0068923D01*
X0052290Y0068858D01*
X0052325Y0068791D01*
X0052356Y0068722D01*
X0052385Y0068651D01*
X0052409Y0068579D01*
X0052430Y0068506D01*
X0052447Y0068432D01*
X0052461Y0068357D01*
X0052470Y0068282D01*
X0052476Y0068206D01*
X0052478Y0068130D01*
X0052478Y0060130D01*
X0052476Y0060054D01*
X0052470Y0059978D01*
X0052461Y0059903D01*
X0052447Y0059828D01*
X0052430Y0059754D01*
X0052409Y0059681D01*
X0052385Y0059609D01*
X0052356Y0059538D01*
X0052325Y0059469D01*
X0052290Y0059402D01*
X0052251Y0059337D01*
X0052209Y0059273D01*
X0052164Y0059212D01*
X0052116Y0059153D01*
X0052065Y0059097D01*
X0052011Y0059043D01*
X0051955Y0058992D01*
X0051896Y0058944D01*
X0051835Y0058899D01*
X0051771Y0058857D01*
X0051706Y0058818D01*
X0051639Y0058783D01*
X0051570Y0058752D01*
X0051499Y0058723D01*
X0051427Y0058699D01*
X0051354Y0058678D01*
X0051280Y0058661D01*
X0051205Y0058647D01*
X0051130Y0058638D01*
X0051054Y0058632D01*
X0050978Y0058630D01*
X0050902Y0058632D01*
X0050826Y0058638D01*
X0050751Y0058647D01*
X0050676Y0058661D01*
X0050602Y0058678D01*
X0050529Y0058699D01*
X0050457Y0058723D01*
X0050386Y0058752D01*
X0050317Y0058783D01*
X0050250Y0058818D01*
X0050185Y0058857D01*
X0050121Y0058899D01*
X0050060Y0058944D01*
X0050001Y0058992D01*
X0049945Y0059043D01*
X0049891Y0059097D01*
X0049840Y0059153D01*
X0049792Y0059212D01*
X0049747Y0059273D01*
X0049705Y0059337D01*
X0049666Y0059402D01*
X0049631Y0059469D01*
X0049600Y0059538D01*
X0049571Y0059609D01*
X0049547Y0059681D01*
X0049526Y0059754D01*
X0049509Y0059828D01*
X0049495Y0059903D01*
X0049486Y0059978D01*
X0049480Y0060054D01*
X0049478Y0060130D01*
X0027478Y0051630D02*
X0027485Y0051026D01*
X0027507Y0050422D01*
X0027544Y0049819D01*
X0027595Y0049217D01*
X0027660Y0048617D01*
X0027740Y0048018D01*
X0027835Y0047421D01*
X0027944Y0046827D01*
X0028067Y0046235D01*
X0028204Y0045647D01*
X0028356Y0045062D01*
X0028522Y0044481D01*
X0028702Y0043905D01*
X0028895Y0043332D01*
X0029103Y0042765D01*
X0029324Y0042203D01*
X0029558Y0041646D01*
X0029806Y0041095D01*
X0030067Y0040550D01*
X0030342Y0040012D01*
X0030629Y0039480D01*
X0030929Y0038956D01*
X0031241Y0038439D01*
X0031566Y0037930D01*
X0031903Y0037428D01*
X0032253Y0036935D01*
X0032614Y0036451D01*
X0032986Y0035975D01*
X0033370Y0035509D01*
X0033765Y0035052D01*
X0034171Y0034605D01*
X0034588Y0034167D01*
X0035015Y0033740D01*
X0035453Y0033323D01*
X0035900Y0032917D01*
X0036357Y0032522D01*
X0036823Y0032138D01*
X0037299Y0031766D01*
X0037783Y0031405D01*
X0038276Y0031055D01*
X0038778Y0030718D01*
X0039287Y0030393D01*
X0039804Y0030081D01*
X0040328Y0029781D01*
X0040860Y0029494D01*
X0041398Y0029219D01*
X0041943Y0028958D01*
X0042494Y0028710D01*
X0043051Y0028476D01*
X0043613Y0028255D01*
X0044180Y0028047D01*
X0044753Y0027854D01*
X0045329Y0027674D01*
X0045910Y0027508D01*
X0046495Y0027356D01*
X0047083Y0027219D01*
X0047675Y0027096D01*
X0048269Y0026987D01*
X0048866Y0026892D01*
X0049465Y0026812D01*
X0050065Y0026747D01*
X0050667Y0026696D01*
X0051270Y0026659D01*
X0051874Y0026637D01*
X0052478Y0026630D01*
X0058790Y0044126D02*
X0066790Y0044126D01*
X0066866Y0044128D01*
X0066942Y0044134D01*
X0067017Y0044143D01*
X0067092Y0044157D01*
X0067166Y0044174D01*
X0067239Y0044195D01*
X0067311Y0044219D01*
X0067382Y0044248D01*
X0067451Y0044279D01*
X0067518Y0044314D01*
X0067583Y0044353D01*
X0067647Y0044395D01*
X0067708Y0044440D01*
X0067767Y0044488D01*
X0067823Y0044539D01*
X0067877Y0044593D01*
X0067928Y0044649D01*
X0067976Y0044708D01*
X0068021Y0044769D01*
X0068063Y0044833D01*
X0068102Y0044898D01*
X0068137Y0044965D01*
X0068168Y0045034D01*
X0068197Y0045105D01*
X0068221Y0045177D01*
X0068242Y0045250D01*
X0068259Y0045324D01*
X0068273Y0045399D01*
X0068282Y0045474D01*
X0068288Y0045550D01*
X0068290Y0045626D01*
X0068288Y0045702D01*
X0068282Y0045778D01*
X0068273Y0045853D01*
X0068259Y0045928D01*
X0068242Y0046002D01*
X0068221Y0046075D01*
X0068197Y0046147D01*
X0068168Y0046218D01*
X0068137Y0046287D01*
X0068102Y0046354D01*
X0068063Y0046419D01*
X0068021Y0046483D01*
X0067976Y0046544D01*
X0067928Y0046603D01*
X0067877Y0046659D01*
X0067823Y0046713D01*
X0067767Y0046764D01*
X0067708Y0046812D01*
X0067647Y0046857D01*
X0067583Y0046899D01*
X0067518Y0046938D01*
X0067451Y0046973D01*
X0067382Y0047004D01*
X0067311Y0047033D01*
X0067239Y0047057D01*
X0067166Y0047078D01*
X0067092Y0047095D01*
X0067017Y0047109D01*
X0066942Y0047118D01*
X0066866Y0047124D01*
X0066790Y0047126D01*
X0058790Y0047126D01*
X0058714Y0047124D01*
X0058638Y0047118D01*
X0058563Y0047109D01*
X0058488Y0047095D01*
X0058414Y0047078D01*
X0058341Y0047057D01*
X0058269Y0047033D01*
X0058198Y0047004D01*
X0058129Y0046973D01*
X0058062Y0046938D01*
X0057997Y0046899D01*
X0057933Y0046857D01*
X0057872Y0046812D01*
X0057813Y0046764D01*
X0057757Y0046713D01*
X0057703Y0046659D01*
X0057652Y0046603D01*
X0057604Y0046544D01*
X0057559Y0046483D01*
X0057517Y0046419D01*
X0057478Y0046354D01*
X0057443Y0046287D01*
X0057412Y0046218D01*
X0057383Y0046147D01*
X0057359Y0046075D01*
X0057338Y0046002D01*
X0057321Y0045928D01*
X0057307Y0045853D01*
X0057298Y0045778D01*
X0057292Y0045702D01*
X0057290Y0045626D01*
X0057292Y0045550D01*
X0057298Y0045474D01*
X0057307Y0045399D01*
X0057321Y0045324D01*
X0057338Y0045250D01*
X0057359Y0045177D01*
X0057383Y0045105D01*
X0057412Y0045034D01*
X0057443Y0044965D01*
X0057478Y0044898D01*
X0057517Y0044833D01*
X0057559Y0044769D01*
X0057604Y0044708D01*
X0057652Y0044649D01*
X0057703Y0044593D01*
X0057757Y0044539D01*
X0057813Y0044488D01*
X0057872Y0044440D01*
X0057933Y0044395D01*
X0057997Y0044353D01*
X0058062Y0044314D01*
X0058129Y0044279D01*
X0058198Y0044248D01*
X0058269Y0044219D01*
X0058341Y0044195D01*
X0058414Y0044174D01*
X0058488Y0044157D01*
X0058563Y0044143D01*
X0058638Y0044134D01*
X0058714Y0044128D01*
X0058790Y0044126D01*
X0073101Y0059130D02*
X0073101Y0069130D01*
X0073103Y0069206D01*
X0073109Y0069282D01*
X0073118Y0069357D01*
X0073132Y0069432D01*
X0073149Y0069506D01*
X0073170Y0069579D01*
X0073194Y0069651D01*
X0073223Y0069722D01*
X0073254Y0069791D01*
X0073289Y0069858D01*
X0073328Y0069923D01*
X0073370Y0069987D01*
X0073415Y0070048D01*
X0073463Y0070107D01*
X0073514Y0070163D01*
X0073568Y0070217D01*
X0073624Y0070268D01*
X0073683Y0070316D01*
X0073744Y0070361D01*
X0073808Y0070403D01*
X0073873Y0070442D01*
X0073940Y0070477D01*
X0074009Y0070508D01*
X0074080Y0070537D01*
X0074152Y0070561D01*
X0074225Y0070582D01*
X0074299Y0070599D01*
X0074374Y0070613D01*
X0074449Y0070622D01*
X0074525Y0070628D01*
X0074601Y0070630D01*
X0074677Y0070628D01*
X0074753Y0070622D01*
X0074828Y0070613D01*
X0074903Y0070599D01*
X0074977Y0070582D01*
X0075050Y0070561D01*
X0075122Y0070537D01*
X0075193Y0070508D01*
X0075262Y0070477D01*
X0075329Y0070442D01*
X0075394Y0070403D01*
X0075458Y0070361D01*
X0075519Y0070316D01*
X0075578Y0070268D01*
X0075634Y0070217D01*
X0075688Y0070163D01*
X0075739Y0070107D01*
X0075787Y0070048D01*
X0075832Y0069987D01*
X0075874Y0069923D01*
X0075913Y0069858D01*
X0075948Y0069791D01*
X0075979Y0069722D01*
X0076008Y0069651D01*
X0076032Y0069579D01*
X0076053Y0069506D01*
X0076070Y0069432D01*
X0076084Y0069357D01*
X0076093Y0069282D01*
X0076099Y0069206D01*
X0076101Y0069130D01*
X0076101Y0059130D01*
X0076099Y0059054D01*
X0076093Y0058978D01*
X0076084Y0058903D01*
X0076070Y0058828D01*
X0076053Y0058754D01*
X0076032Y0058681D01*
X0076008Y0058609D01*
X0075979Y0058538D01*
X0075948Y0058469D01*
X0075913Y0058402D01*
X0075874Y0058337D01*
X0075832Y0058273D01*
X0075787Y0058212D01*
X0075739Y0058153D01*
X0075688Y0058097D01*
X0075634Y0058043D01*
X0075578Y0057992D01*
X0075519Y0057944D01*
X0075458Y0057899D01*
X0075394Y0057857D01*
X0075329Y0057818D01*
X0075262Y0057783D01*
X0075193Y0057752D01*
X0075122Y0057723D01*
X0075050Y0057699D01*
X0074977Y0057678D01*
X0074903Y0057661D01*
X0074828Y0057647D01*
X0074753Y0057638D01*
X0074677Y0057632D01*
X0074601Y0057630D01*
X0074525Y0057632D01*
X0074449Y0057638D01*
X0074374Y0057647D01*
X0074299Y0057661D01*
X0074225Y0057678D01*
X0074152Y0057699D01*
X0074080Y0057723D01*
X0074009Y0057752D01*
X0073940Y0057783D01*
X0073873Y0057818D01*
X0073808Y0057857D01*
X0073744Y0057899D01*
X0073683Y0057944D01*
X0073624Y0057992D01*
X0073568Y0058043D01*
X0073514Y0058097D01*
X0073463Y0058153D01*
X0073415Y0058212D01*
X0073370Y0058273D01*
X0073328Y0058337D01*
X0073289Y0058402D01*
X0073254Y0058469D01*
X0073223Y0058538D01*
X0073194Y0058609D01*
X0073170Y0058681D01*
X0073149Y0058754D01*
X0073132Y0058828D01*
X0073118Y0058903D01*
X0073109Y0058978D01*
X0073103Y0059054D01*
X0073101Y0059130D01*
X0359228Y0112675D02*
X0362733Y0112675D01*
X0362787Y0112677D01*
X0362840Y0112683D01*
X0362892Y0112692D01*
X0362944Y0112705D01*
X0362995Y0112722D01*
X0363045Y0112743D01*
X0363092Y0112767D01*
X0363138Y0112794D01*
X0363182Y0112825D01*
X0363224Y0112858D01*
X0363263Y0112895D01*
X0363300Y0112934D01*
X0363333Y0112976D01*
X0363364Y0113020D01*
X0363391Y0113066D01*
X0363415Y0113113D01*
X0363436Y0113163D01*
X0363453Y0113214D01*
X0363466Y0113266D01*
X0363475Y0113318D01*
X0363481Y0113371D01*
X0363483Y0113425D01*
X0363481Y0113479D01*
X0363475Y0113532D01*
X0363466Y0113584D01*
X0363453Y0113636D01*
X0363436Y0113687D01*
X0363415Y0113737D01*
X0363391Y0113784D01*
X0363364Y0113830D01*
X0363333Y0113874D01*
X0363300Y0113916D01*
X0363263Y0113955D01*
X0363224Y0113992D01*
X0363182Y0114025D01*
X0363138Y0114056D01*
X0363092Y0114083D01*
X0363045Y0114107D01*
X0362995Y0114128D01*
X0362944Y0114145D01*
X0362892Y0114158D01*
X0362840Y0114167D01*
X0362787Y0114173D01*
X0362733Y0114175D01*
X0359228Y0114175D01*
X0359174Y0114173D01*
X0359121Y0114167D01*
X0359069Y0114158D01*
X0359017Y0114145D01*
X0358966Y0114128D01*
X0358916Y0114107D01*
X0358869Y0114083D01*
X0358823Y0114056D01*
X0358779Y0114025D01*
X0358737Y0113992D01*
X0358698Y0113955D01*
X0358661Y0113916D01*
X0358628Y0113874D01*
X0358597Y0113830D01*
X0358570Y0113784D01*
X0358546Y0113737D01*
X0358525Y0113687D01*
X0358508Y0113636D01*
X0358495Y0113584D01*
X0358486Y0113532D01*
X0358480Y0113479D01*
X0358478Y0113425D01*
X0358480Y0113371D01*
X0358486Y0113318D01*
X0358495Y0113266D01*
X0358508Y0113214D01*
X0358525Y0113163D01*
X0358546Y0113113D01*
X0358570Y0113066D01*
X0358597Y0113020D01*
X0358628Y0112976D01*
X0358661Y0112934D01*
X0358698Y0112895D01*
X0358737Y0112858D01*
X0358779Y0112825D01*
X0358823Y0112794D01*
X0358869Y0112767D01*
X0358916Y0112743D01*
X0358966Y0112722D01*
X0359017Y0112705D01*
X0359069Y0112692D01*
X0359121Y0112683D01*
X0359174Y0112677D01*
X0359228Y0112675D01*
X0359228Y0137084D02*
X0362733Y0137084D01*
X0362787Y0137086D01*
X0362840Y0137092D01*
X0362892Y0137101D01*
X0362944Y0137114D01*
X0362995Y0137131D01*
X0363045Y0137152D01*
X0363092Y0137176D01*
X0363138Y0137203D01*
X0363182Y0137234D01*
X0363224Y0137267D01*
X0363263Y0137304D01*
X0363300Y0137343D01*
X0363333Y0137385D01*
X0363364Y0137429D01*
X0363391Y0137475D01*
X0363415Y0137522D01*
X0363436Y0137572D01*
X0363453Y0137623D01*
X0363466Y0137675D01*
X0363475Y0137727D01*
X0363481Y0137780D01*
X0363483Y0137834D01*
X0363481Y0137888D01*
X0363475Y0137941D01*
X0363466Y0137993D01*
X0363453Y0138045D01*
X0363436Y0138096D01*
X0363415Y0138146D01*
X0363391Y0138193D01*
X0363364Y0138239D01*
X0363333Y0138283D01*
X0363300Y0138325D01*
X0363263Y0138364D01*
X0363224Y0138401D01*
X0363182Y0138434D01*
X0363138Y0138465D01*
X0363092Y0138492D01*
X0363045Y0138516D01*
X0362995Y0138537D01*
X0362944Y0138554D01*
X0362892Y0138567D01*
X0362840Y0138576D01*
X0362787Y0138582D01*
X0362733Y0138584D01*
X0359228Y0138584D01*
X0359174Y0138582D01*
X0359121Y0138576D01*
X0359069Y0138567D01*
X0359017Y0138554D01*
X0358966Y0138537D01*
X0358916Y0138516D01*
X0358869Y0138492D01*
X0358823Y0138465D01*
X0358779Y0138434D01*
X0358737Y0138401D01*
X0358698Y0138364D01*
X0358661Y0138325D01*
X0358628Y0138283D01*
X0358597Y0138239D01*
X0358570Y0138193D01*
X0358546Y0138146D01*
X0358525Y0138096D01*
X0358508Y0138045D01*
X0358495Y0137993D01*
X0358486Y0137941D01*
X0358480Y0137888D01*
X0358478Y0137834D01*
X0358480Y0137780D01*
X0358486Y0137727D01*
X0358495Y0137675D01*
X0358508Y0137623D01*
X0358525Y0137572D01*
X0358546Y0137522D01*
X0358570Y0137475D01*
X0358597Y0137429D01*
X0358628Y0137385D01*
X0358661Y0137343D01*
X0358698Y0137304D01*
X0358737Y0137267D01*
X0358779Y0137234D01*
X0358823Y0137203D01*
X0358869Y0137176D01*
X0358916Y0137152D01*
X0358966Y0137131D01*
X0359017Y0137114D01*
X0359069Y0137101D01*
X0359121Y0137092D01*
X0359174Y0137086D01*
X0359228Y0137084D01*
M02*
