G75*
%MOIN*%
%OFA0B0*%
%FSLAX25Y25*%
%IPPOS*%
%LPD*%
%AMOC8*
5,1,8,0,0,1.08239X$1,22.5*
%
%ADD10R,0.01969X0.02756*%
%ADD11R,0.02756X0.01969*%
%ADD12R,0.05118X0.06299*%
%ADD13R,0.02756X0.03937*%
%ADD14R,0.03937X0.05512*%
%ADD15C,0.04000*%
%ADD16R,0.01870X0.00787*%
%ADD17R,0.06299X0.01575*%
%ADD18R,0.06181X0.07441*%
%ADD19R,0.02047X0.01181*%
%ADD20R,0.01929X0.01181*%
%ADD21R,0.03150X0.01181*%
%ADD22R,0.02559X0.03346*%
%ADD23R,0.01181X0.06299*%
%ADD24R,0.04724X0.07087*%
%ADD25R,0.04134X0.04252*%
%ADD26R,0.05118X0.05906*%
%ADD27R,0.05906X0.05118*%
%ADD28R,0.11000X0.02800*%
%ADD29R,0.05906X0.04331*%
%ADD30R,0.01772X0.03543*%
%ADD31R,0.07874X0.03543*%
%ADD32R,0.03543X0.01969*%
%ADD33R,0.03740X0.04724*%
%ADD34R,0.03346X0.00906*%
%ADD35R,0.03936X0.00906*%
%ADD36R,0.06000X0.09500*%
%ADD37R,0.01102X0.03346*%
%ADD38R,0.03346X0.01102*%
%ADD39R,0.08071X0.12008*%
%ADD40R,0.12008X0.08071*%
%ADD41R,0.03937X0.03937*%
%ADD42R,0.05512X0.03937*%
%ADD43R,0.06299X0.08268*%
%ADD44R,0.07480X0.07087*%
%ADD45R,0.07480X0.07480*%
%ADD46R,0.05315X0.01575*%
%ADD47R,0.03543X0.01575*%
%ADD48R,0.03543X0.02756*%
%ADD49R,0.03937X0.04331*%
%ADD50R,0.04331X0.03937*%
%ADD51R,0.07000X0.06600*%
%ADD52R,0.08661X0.07874*%
D10*
X0101297Y0104189D03*
X0105234Y0104189D03*
X0081809Y0117969D03*
X0077872Y0117969D03*
X0069211Y0106158D03*
X0065274Y0106158D03*
X0191356Y0173284D03*
X0195293Y0173284D03*
X0195293Y0183864D03*
X0191356Y0183864D03*
X0199723Y0183864D03*
X0203660Y0183864D03*
X0213010Y0173037D03*
X0216947Y0173037D03*
X0228010Y0173930D03*
X0231947Y0173930D03*
X0231947Y0179630D03*
X0228010Y0179630D03*
X0228010Y0185330D03*
X0231947Y0185330D03*
X0224329Y0202319D03*
X0220392Y0202319D03*
X0292210Y0158930D03*
X0296147Y0158930D03*
X0296147Y0146930D03*
X0292210Y0146930D03*
X0315077Y0139228D03*
X0319014Y0139228D03*
X0322951Y0139228D03*
X0326888Y0139228D03*
X0327447Y0100130D03*
X0323510Y0100130D03*
X0346510Y0100630D03*
X0350447Y0100630D03*
X0273447Y0080630D03*
X0269510Y0080630D03*
X0269510Y0075630D03*
X0273447Y0075630D03*
X0273447Y0070630D03*
X0269510Y0070630D03*
X0266447Y0092630D03*
X0262510Y0092630D03*
X0258947Y0092630D03*
X0255010Y0092630D03*
X0251447Y0092630D03*
X0247510Y0092630D03*
X0227947Y0094630D03*
X0224010Y0094630D03*
X0218447Y0096630D03*
X0214510Y0096630D03*
X0243010Y0122130D03*
X0246947Y0122130D03*
X0250510Y0122130D03*
X0254447Y0122130D03*
X0258010Y0122130D03*
X0261947Y0122130D03*
X0232447Y0135630D03*
X0228510Y0135630D03*
X0208447Y0127130D03*
X0204510Y0127130D03*
D11*
X0216478Y0104598D03*
X0216478Y0100661D03*
X0231478Y0090098D03*
X0231478Y0086161D03*
X0239978Y0101661D03*
X0239978Y0105598D03*
X0269478Y0109161D03*
X0269478Y0113098D03*
X0299228Y0094098D03*
X0299228Y0090161D03*
X0297478Y0055598D03*
X0297478Y0051661D03*
X0302478Y0051661D03*
X0302478Y0055598D03*
X0307478Y0055598D03*
X0307478Y0051661D03*
X0292478Y0051661D03*
X0292478Y0055598D03*
X0293278Y0136861D03*
X0293278Y0140798D03*
X0301888Y0141787D03*
X0301888Y0137850D03*
X0307006Y0137850D03*
X0307006Y0141787D03*
X0282478Y0197161D03*
X0282478Y0201098D03*
X0277478Y0201098D03*
X0277478Y0197161D03*
X0272478Y0197161D03*
X0272478Y0201098D03*
X0267478Y0201098D03*
X0267478Y0197161D03*
X0262478Y0197161D03*
X0262478Y0201098D03*
X0257478Y0201098D03*
X0257478Y0197161D03*
X0252478Y0197161D03*
X0252478Y0201098D03*
X0247478Y0201098D03*
X0247478Y0197161D03*
X0247478Y0211661D03*
X0247478Y0215598D03*
X0252478Y0215598D03*
X0252478Y0211661D03*
X0257478Y0211661D03*
X0257478Y0215598D03*
X0262478Y0215598D03*
X0262478Y0211661D03*
X0267478Y0211661D03*
X0267478Y0215598D03*
X0272478Y0215598D03*
X0272478Y0211661D03*
X0277478Y0211661D03*
X0277478Y0215598D03*
X0282478Y0215598D03*
X0282478Y0211661D03*
X0287478Y0211661D03*
X0287478Y0215598D03*
X0292478Y0215598D03*
X0292478Y0211661D03*
X0297478Y0211661D03*
X0297478Y0215598D03*
X0302478Y0215598D03*
X0302478Y0211661D03*
X0307478Y0211661D03*
X0307478Y0215598D03*
X0312478Y0215598D03*
X0312478Y0211661D03*
X0317478Y0211661D03*
X0317478Y0215598D03*
X0322478Y0215598D03*
X0322478Y0211661D03*
X0327478Y0211661D03*
X0327478Y0215598D03*
X0232978Y0215598D03*
X0232978Y0211661D03*
X0227978Y0211661D03*
X0227978Y0215598D03*
X0222978Y0215598D03*
X0222978Y0211661D03*
X0214978Y0211661D03*
X0214978Y0215598D03*
X0209478Y0215598D03*
X0209478Y0211661D03*
X0202478Y0211661D03*
X0202478Y0215598D03*
X0195478Y0215598D03*
X0195478Y0211661D03*
X0188478Y0211661D03*
X0188478Y0215598D03*
X0147478Y0187098D03*
X0147478Y0183161D03*
X0136478Y0184098D03*
X0136478Y0180161D03*
X0131978Y0180161D03*
X0131978Y0184098D03*
X0101101Y0184110D03*
X0101101Y0180173D03*
X0093620Y0180173D03*
X0093620Y0184110D03*
X0085353Y0184898D03*
X0085353Y0188835D03*
X0080628Y0188835D03*
X0080628Y0184898D03*
X0075904Y0184898D03*
X0075904Y0188835D03*
X0071179Y0188835D03*
X0071179Y0184898D03*
X0089683Y0116787D03*
X0089683Y0112850D03*
X0094801Y0112850D03*
X0094801Y0116787D03*
X0058581Y0116000D03*
X0058581Y0112063D03*
D12*
X0193571Y0191492D03*
X0201445Y0191492D03*
X0201445Y0201335D03*
X0193571Y0201335D03*
X0218423Y0196413D03*
X0226297Y0196413D03*
X0218916Y0179189D03*
X0211041Y0179189D03*
D13*
X0241238Y0116961D03*
X0248719Y0116961D03*
X0244978Y0108299D03*
X0260738Y0097799D03*
X0268219Y0097799D03*
X0264478Y0106461D03*
D14*
X0259978Y0108299D03*
X0256238Y0116961D03*
X0263719Y0116961D03*
X0249478Y0106461D03*
X0245738Y0097799D03*
X0253219Y0097799D03*
D15*
X0062678Y0057130D03*
X0315478Y0053630D03*
X0332362Y0199237D03*
D16*
X0303807Y0126630D03*
X0303807Y0124661D03*
X0303807Y0122693D03*
X0303807Y0120724D03*
X0303807Y0118756D03*
X0300756Y0118756D03*
X0300756Y0120724D03*
X0300756Y0122693D03*
X0300756Y0124661D03*
X0300756Y0126630D03*
X0300756Y0112063D03*
X0300756Y0110095D03*
X0300756Y0108126D03*
X0300756Y0106158D03*
X0300756Y0104189D03*
X0303807Y0104189D03*
X0303807Y0106158D03*
X0303807Y0108126D03*
X0303807Y0110095D03*
X0303807Y0112063D03*
D17*
X0329211Y0096719D03*
X0329211Y0094160D03*
X0329211Y0091600D03*
X0329211Y0089041D03*
X0345746Y0089041D03*
X0345746Y0091600D03*
X0345746Y0094160D03*
X0345746Y0096719D03*
D18*
X0337478Y0092880D03*
D19*
X0307225Y0093848D03*
D20*
X0307205Y0091880D03*
X0307205Y0089911D03*
X0304252Y0089911D03*
X0304252Y0091880D03*
X0304252Y0093848D03*
D21*
X0222581Y0091083D03*
X0222581Y0089114D03*
X0222581Y0087146D03*
X0222581Y0085177D03*
X0210376Y0085177D03*
X0210376Y0087146D03*
X0210376Y0089114D03*
X0210376Y0091083D03*
D22*
X0222730Y0099579D03*
X0229227Y0099579D03*
X0229227Y0105681D03*
X0222730Y0105681D03*
D23*
X0278935Y0132142D03*
X0281494Y0132142D03*
X0284053Y0132142D03*
X0286612Y0132142D03*
X0286612Y0145528D03*
X0284053Y0145528D03*
X0281494Y0145528D03*
X0278935Y0145528D03*
D24*
X0277482Y0099630D03*
X0290475Y0099630D03*
D25*
X0321475Y0134307D03*
X0328364Y0134307D03*
X0297624Y0152930D03*
X0290734Y0152930D03*
X0106711Y0109701D03*
X0099821Y0109701D03*
D26*
X0042825Y0064130D03*
X0036132Y0064130D03*
X0132738Y0191630D03*
X0140219Y0191630D03*
X0333738Y0079130D03*
X0341219Y0079130D03*
D27*
X0355478Y0089140D03*
X0355478Y0096620D03*
D28*
X0172128Y0097630D03*
X0172128Y0092630D03*
X0172128Y0087630D03*
X0172128Y0082630D03*
X0172128Y0077630D03*
X0172128Y0072630D03*
X0172128Y0067630D03*
X0172128Y0062630D03*
X0172128Y0057630D03*
X0172128Y0052630D03*
X0150828Y0052630D03*
X0150828Y0057630D03*
X0150828Y0062630D03*
X0150828Y0067630D03*
X0150828Y0072630D03*
X0150828Y0077630D03*
X0150828Y0082630D03*
X0150828Y0087630D03*
X0150828Y0092630D03*
X0150828Y0097630D03*
D29*
X0361967Y0146833D03*
X0361967Y0203427D03*
D30*
X0356987Y0203673D03*
X0354231Y0203673D03*
X0351475Y0203673D03*
X0348719Y0203673D03*
X0348719Y0146587D03*
X0351475Y0146587D03*
X0354231Y0146587D03*
X0356987Y0146587D03*
D31*
X0323779Y0146587D03*
X0318660Y0203673D03*
D32*
X0309408Y0198654D03*
X0309408Y0160268D03*
D33*
X0307243Y0164992D03*
X0307243Y0188614D03*
D34*
X0342218Y0132717D03*
X0342218Y0131142D03*
X0342218Y0129567D03*
X0342218Y0127992D03*
X0342218Y0126417D03*
X0342218Y0124843D03*
X0342218Y0123268D03*
X0342218Y0121693D03*
X0342218Y0120118D03*
X0342218Y0118543D03*
D35*
X0347041Y0119331D03*
X0347041Y0120906D03*
X0347041Y0122480D03*
X0347041Y0124055D03*
X0347041Y0125630D03*
X0347041Y0127205D03*
X0347041Y0128780D03*
X0347041Y0130354D03*
X0347041Y0131929D03*
D36*
X0347750Y0139213D03*
X0347750Y0112047D03*
D37*
X0148541Y0157634D03*
X0142636Y0157634D03*
X0142636Y0175154D03*
X0148541Y0175154D03*
X0139683Y0127910D03*
X0137715Y0127910D03*
X0135746Y0127910D03*
X0133778Y0127910D03*
X0131809Y0127910D03*
X0129841Y0127910D03*
X0127872Y0127910D03*
X0125904Y0127910D03*
X0125904Y0114327D03*
X0127872Y0114327D03*
X0129841Y0114327D03*
X0131809Y0114327D03*
X0133778Y0114327D03*
X0135746Y0114327D03*
X0137715Y0114327D03*
X0139683Y0114327D03*
D38*
X0141553Y0118165D03*
X0141553Y0124071D03*
X0124034Y0124071D03*
X0124034Y0118165D03*
X0138797Y0159504D03*
X0138797Y0161473D03*
X0138797Y0163441D03*
X0138797Y0165410D03*
X0138797Y0167378D03*
X0138797Y0169347D03*
X0138797Y0171315D03*
X0138797Y0173284D03*
X0152380Y0173284D03*
X0152380Y0171315D03*
X0152380Y0169347D03*
X0152380Y0167378D03*
X0152380Y0165410D03*
X0152380Y0163441D03*
X0152380Y0161473D03*
X0152380Y0159504D03*
D39*
X0145589Y0166394D03*
D40*
X0132793Y0121118D03*
D41*
X0070490Y0116492D03*
X0070490Y0111571D03*
X0063994Y0111571D03*
X0063994Y0116492D03*
D42*
X0163309Y0187890D03*
X0163309Y0195370D03*
X0154648Y0191630D03*
D43*
X0043518Y0188425D03*
X0043518Y0212835D03*
D44*
X0033478Y0215591D03*
X0033478Y0185669D03*
D45*
X0033478Y0195906D03*
X0033478Y0205354D03*
D46*
X0044010Y0205748D03*
X0044010Y0203189D03*
X0044010Y0200630D03*
X0044010Y0198071D03*
X0044010Y0195512D03*
D47*
X0235548Y0182189D03*
X0235548Y0177071D03*
X0244209Y0177071D03*
X0244209Y0179630D03*
X0244209Y0182189D03*
D48*
X0099329Y0085685D03*
X0091849Y0083126D03*
X0091849Y0088244D03*
X0084368Y0088244D03*
X0084368Y0083126D03*
X0076888Y0085685D03*
D49*
X0156132Y0102130D03*
X0162825Y0102130D03*
X0162825Y0110130D03*
X0156132Y0110130D03*
X0156132Y0118130D03*
X0162825Y0118130D03*
X0162825Y0126130D03*
X0156132Y0126130D03*
X0205632Y0121130D03*
X0212325Y0121130D03*
X0163925Y0178130D03*
X0157232Y0178130D03*
D50*
X0159478Y0150476D03*
X0159478Y0143784D03*
X0151478Y0143784D03*
X0151478Y0150476D03*
X0143478Y0150476D03*
X0143478Y0143784D03*
X0167478Y0143284D03*
X0167478Y0149976D03*
D51*
X0122478Y0191630D03*
X0106978Y0191630D03*
X0106978Y0207130D03*
X0122478Y0207130D03*
X0133478Y0207130D03*
X0148978Y0207130D03*
D52*
X0079841Y0108126D03*
X0079841Y0096315D03*
M02*
