G75*
%MOIN*%
%OFA0B0*%
%FSLAX25Y25*%
%IPPOS*%
%LPD*%
%AMOC8*
5,1,8,0,0,1.08239X$1,22.5*
%
%ADD10C,0.05200*%
%ADD11C,0.05000*%
%ADD12C,0.06000*%
%ADD13C,0.03500*%
%ADD14C,0.15000*%
%ADD15C,0.05937*%
%ADD16C,0.11055*%
%ADD17C,0.08299*%
%ADD18C,0.02600*%
%ADD19C,0.03200*%
%ADD20C,0.00600*%
%ADD21C,0.01000*%
%ADD22C,0.03200*%
%ADD23C,0.01600*%
D10*
X0085478Y0058630D03*
X0095478Y0058630D03*
X0095478Y0068630D03*
X0085478Y0068630D03*
X0131978Y0063630D03*
D11*
X0134978Y0044130D03*
X0124978Y0044130D03*
X0114978Y0044130D03*
X0104978Y0044130D03*
X0104978Y0034130D03*
X0114978Y0034130D03*
X0124978Y0034130D03*
X0134978Y0034130D03*
X0144978Y0034130D03*
X0154978Y0034130D03*
X0154978Y0044130D03*
X0144978Y0044130D03*
X0164978Y0044130D03*
X0174978Y0044130D03*
X0174978Y0034130D03*
X0164978Y0034130D03*
X0184978Y0034130D03*
X0194978Y0034130D03*
X0194978Y0044130D03*
X0184978Y0044130D03*
X0204978Y0044130D03*
X0204978Y0034130D03*
X0214978Y0034130D03*
X0224978Y0034130D03*
X0224978Y0044130D03*
X0214978Y0044130D03*
X0234978Y0044130D03*
X0244978Y0044130D03*
X0244978Y0034130D03*
X0234978Y0034130D03*
X0254978Y0034130D03*
X0264978Y0034130D03*
X0264978Y0044130D03*
X0254978Y0044130D03*
X0274978Y0044130D03*
X0274978Y0034130D03*
X0284978Y0034130D03*
X0294978Y0034130D03*
X0294978Y0044130D03*
X0284978Y0044130D03*
X0304978Y0044130D03*
X0314978Y0044130D03*
X0314978Y0034130D03*
X0304978Y0034130D03*
X0324978Y0034130D03*
X0324978Y0044130D03*
X0324978Y0224130D03*
X0314978Y0224130D03*
X0304978Y0224130D03*
X0294978Y0224130D03*
X0284978Y0224130D03*
X0274978Y0224130D03*
X0264978Y0224130D03*
X0254978Y0224130D03*
X0244978Y0224130D03*
X0234978Y0224130D03*
X0224978Y0224130D03*
X0214978Y0224130D03*
X0204978Y0224130D03*
X0194978Y0224130D03*
X0184978Y0224130D03*
X0174978Y0224130D03*
X0164978Y0224130D03*
X0154978Y0224130D03*
X0144978Y0224130D03*
X0134978Y0224130D03*
X0124978Y0224130D03*
X0114978Y0224130D03*
X0104978Y0224130D03*
X0104978Y0234130D03*
X0114978Y0234130D03*
X0124978Y0234130D03*
X0134978Y0234130D03*
X0144978Y0234130D03*
X0154978Y0234130D03*
X0164978Y0234130D03*
X0174978Y0234130D03*
X0184978Y0234130D03*
X0194978Y0234130D03*
X0204978Y0234130D03*
X0214978Y0234130D03*
X0224978Y0234130D03*
X0234978Y0234130D03*
X0244978Y0234130D03*
X0254978Y0234130D03*
X0264978Y0234130D03*
X0274978Y0234130D03*
X0284978Y0234130D03*
X0294978Y0234130D03*
X0304978Y0234130D03*
X0314978Y0234130D03*
X0324978Y0234130D03*
D12*
X0244978Y0056630D03*
X0234978Y0056630D03*
X0224978Y0056630D03*
X0214978Y0056630D03*
X0204978Y0056630D03*
X0194978Y0056630D03*
D13*
X0360978Y0113425D03*
X0360978Y0137835D03*
D14*
X0344978Y0216630D03*
X0344978Y0051630D03*
X0084978Y0039130D03*
X0084978Y0229130D03*
D15*
X0316337Y0106660D03*
X0316337Y0096817D03*
X0316337Y0088943D03*
X0316337Y0079100D03*
D16*
X0327006Y0067014D03*
X0327006Y0118746D03*
D17*
X0062790Y0045626D03*
X0074601Y0064130D03*
X0050978Y0064130D03*
D18*
X0080628Y0085685D03*
X0088108Y0085685D03*
X0088108Y0089228D03*
X0088108Y0092772D03*
X0095589Y0085685D03*
X0088108Y0082142D03*
X0101478Y0063630D03*
X0104978Y0063630D03*
X0114478Y0061630D03*
X0114478Y0065630D03*
X0125978Y0055630D03*
X0137578Y0056330D03*
X0142578Y0058630D03*
X0142878Y0050330D03*
X0162478Y0052630D03*
X0164978Y0055130D03*
X0162478Y0057630D03*
X0164978Y0060130D03*
X0162478Y0062630D03*
X0164978Y0070130D03*
X0164978Y0075130D03*
X0162478Y0077630D03*
X0164978Y0080130D03*
X0162478Y0082630D03*
X0164978Y0085130D03*
X0162478Y0087630D03*
X0179478Y0075130D03*
X0181478Y0070630D03*
X0186478Y0070630D03*
X0186478Y0075130D03*
X0191478Y0075130D03*
X0191478Y0070630D03*
X0201478Y0075130D03*
X0206478Y0075130D03*
X0206478Y0070630D03*
X0211478Y0070630D03*
X0211478Y0065630D03*
X0211478Y0075130D03*
X0216478Y0075130D03*
X0221478Y0075130D03*
X0226478Y0075130D03*
X0231478Y0075130D03*
X0226478Y0070630D03*
X0226478Y0065630D03*
X0231478Y0065630D03*
X0236228Y0065630D03*
X0241478Y0070630D03*
X0241478Y0075130D03*
X0241478Y0081130D03*
X0241478Y0085630D03*
X0236478Y0085630D03*
X0226478Y0085630D03*
X0226478Y0081130D03*
X0221478Y0081130D03*
X0216478Y0081130D03*
X0211478Y0081130D03*
X0206478Y0081130D03*
X0206478Y0085130D03*
X0201478Y0081130D03*
X0191478Y0081130D03*
X0186478Y0081130D03*
X0181478Y0085630D03*
X0181478Y0095630D03*
X0191478Y0095130D03*
X0191478Y0091130D03*
X0196478Y0091130D03*
X0196478Y0095130D03*
X0201478Y0095130D03*
X0201478Y0091130D03*
X0206478Y0091130D03*
X0206478Y0095130D03*
X0211478Y0095130D03*
X0216728Y0090130D03*
X0216478Y0085630D03*
X0231478Y0095630D03*
X0226478Y0110630D03*
X0221478Y0110630D03*
X0216478Y0110630D03*
X0211478Y0115630D03*
X0206478Y0110130D03*
X0206478Y0105630D03*
X0201478Y0105630D03*
X0201478Y0110130D03*
X0196478Y0110130D03*
X0196478Y0106130D03*
X0191478Y0106130D03*
X0191478Y0110130D03*
X0191478Y0116130D03*
X0196478Y0116130D03*
X0201478Y0116130D03*
X0196478Y0120130D03*
X0191478Y0120130D03*
X0191478Y0130630D03*
X0196478Y0130630D03*
X0201478Y0130630D03*
X0206478Y0130630D03*
X0206478Y0135130D03*
X0201478Y0135130D03*
X0196478Y0136130D03*
X0196478Y0140130D03*
X0196478Y0146130D03*
X0196478Y0150130D03*
X0191478Y0150130D03*
X0191478Y0146130D03*
X0201478Y0146130D03*
X0201478Y0150130D03*
X0206478Y0150630D03*
X0206478Y0146130D03*
X0211478Y0145630D03*
X0215978Y0145630D03*
X0215978Y0150630D03*
X0211478Y0150630D03*
X0211478Y0155630D03*
X0215978Y0155630D03*
X0206478Y0155630D03*
X0195978Y0155630D03*
X0178378Y0161930D03*
X0175978Y0164330D03*
X0173578Y0166730D03*
X0188404Y0173284D03*
X0198246Y0173284D03*
X0203660Y0177959D03*
X0205874Y0180419D03*
X0198984Y0180419D03*
X0194555Y0180419D03*
X0190126Y0180419D03*
X0186778Y0194330D03*
X0186778Y0197930D03*
X0186778Y0201230D03*
X0193571Y0206994D03*
X0198978Y0213130D03*
X0205978Y0213130D03*
X0214978Y0219130D03*
X0219978Y0219130D03*
X0224978Y0219130D03*
X0229978Y0219130D03*
X0219978Y0227630D03*
X0244978Y0207230D03*
X0247478Y0204730D03*
X0249978Y0207730D03*
X0252478Y0204130D03*
X0257478Y0204130D03*
X0262478Y0204130D03*
X0259978Y0208630D03*
X0257478Y0218630D03*
X0252478Y0218630D03*
X0262478Y0218630D03*
X0267478Y0218630D03*
X0272478Y0218630D03*
X0277478Y0218630D03*
X0282478Y0218630D03*
X0287478Y0218630D03*
X0292478Y0218630D03*
X0297478Y0218630D03*
X0302478Y0218630D03*
X0307478Y0218630D03*
X0312478Y0218630D03*
X0317478Y0218630D03*
X0322478Y0218630D03*
X0327478Y0218630D03*
X0327478Y0229130D03*
X0307078Y0207830D03*
X0298978Y0202630D03*
X0298978Y0199130D03*
X0298978Y0195630D03*
X0306978Y0193630D03*
X0310478Y0193630D03*
X0317278Y0188030D03*
X0320278Y0189830D03*
X0323878Y0189830D03*
X0326878Y0191630D03*
X0326878Y0188030D03*
X0331678Y0189830D03*
X0334978Y0189830D03*
X0338278Y0189830D03*
X0338278Y0186530D03*
X0343978Y0192230D03*
X0343978Y0195530D03*
X0340678Y0195530D03*
X0347278Y0195530D03*
X0346678Y0186530D03*
X0347878Y0183530D03*
X0352978Y0182630D03*
X0352978Y0179130D03*
X0352978Y0175630D03*
X0352978Y0172130D03*
X0349978Y0169130D03*
X0352978Y0165130D03*
X0352978Y0160130D03*
X0348778Y0153530D03*
X0346378Y0151130D03*
X0342778Y0151730D03*
X0344014Y0159504D03*
X0344014Y0163047D03*
X0342734Y0176236D03*
X0329644Y0173284D03*
X0326691Y0170331D03*
X0323738Y0173284D03*
X0321770Y0170331D03*
X0319801Y0173284D03*
X0316849Y0170331D03*
X0319801Y0167378D03*
X0316849Y0165410D03*
X0319801Y0163441D03*
X0321770Y0160488D03*
X0323738Y0157535D03*
X0319801Y0157535D03*
X0316849Y0160488D03*
X0313896Y0157535D03*
X0313896Y0163441D03*
X0313896Y0167378D03*
X0313896Y0173284D03*
X0323738Y0167378D03*
X0326691Y0165410D03*
X0329644Y0167378D03*
X0329644Y0163441D03*
X0326691Y0160488D03*
X0329644Y0157535D03*
X0323738Y0163441D03*
X0300778Y0158030D03*
X0295478Y0165130D03*
X0299329Y0168953D03*
X0299329Y0172299D03*
X0299329Y0175646D03*
X0299329Y0182732D03*
X0304447Y0182732D03*
X0311261Y0187579D03*
X0321770Y0186079D03*
X0324978Y0198630D03*
X0352978Y0186630D03*
X0359578Y0198530D03*
X0356478Y0199930D03*
X0360378Y0204230D03*
X0363578Y0202630D03*
X0354778Y0150530D03*
X0360378Y0147630D03*
X0363578Y0147630D03*
X0351978Y0132830D03*
X0354478Y0130430D03*
X0357778Y0129230D03*
X0361378Y0129230D03*
X0361378Y0125630D03*
X0361378Y0122030D03*
X0357778Y0122030D03*
X0354478Y0120830D03*
X0337078Y0122330D03*
X0332878Y0126830D03*
X0338278Y0110930D03*
X0335278Y0107930D03*
X0339978Y0104630D03*
X0339978Y0100630D03*
X0325478Y0104630D03*
X0306809Y0106354D03*
X0306809Y0102811D03*
X0306809Y0109898D03*
X0306809Y0113441D03*
X0306809Y0117378D03*
X0306809Y0120921D03*
X0306809Y0124465D03*
X0306809Y0128008D03*
X0303778Y0130430D03*
X0307378Y0132830D03*
X0304447Y0134898D03*
X0313078Y0133430D03*
X0311927Y0141000D03*
X0311927Y0144543D03*
X0306219Y0144740D03*
X0302675Y0144740D03*
X0297778Y0142130D03*
X0296578Y0138830D03*
X0289478Y0133130D03*
X0285978Y0125130D03*
X0285978Y0118130D03*
X0289478Y0118130D03*
X0297754Y0122693D03*
X0297754Y0108126D03*
X0285978Y0090130D03*
X0271478Y0086130D03*
X0266478Y0076380D03*
X0261478Y0076380D03*
X0256478Y0076380D03*
X0256478Y0070630D03*
X0256478Y0065630D03*
X0261478Y0065630D03*
X0261478Y0070630D03*
X0266478Y0070630D03*
X0266478Y0065630D03*
X0276478Y0062130D03*
X0276478Y0070630D03*
X0276478Y0076380D03*
X0283678Y0070130D03*
X0286078Y0067730D03*
X0288478Y0065330D03*
X0290978Y0063130D03*
X0294978Y0063130D03*
X0299978Y0063130D03*
X0303978Y0063130D03*
X0310078Y0069230D03*
X0312478Y0072830D03*
X0310078Y0075230D03*
X0306478Y0075230D03*
X0304078Y0071630D03*
X0314878Y0068030D03*
X0314878Y0064430D03*
X0310678Y0088730D03*
X0349678Y0071930D03*
X0353278Y0071930D03*
X0355478Y0101630D03*
X0340078Y0142430D03*
X0334565Y0144543D03*
X0322754Y0142875D03*
X0301297Y0148284D03*
X0273478Y0170630D03*
X0269478Y0170630D03*
X0264178Y0182330D03*
X0261778Y0184730D03*
X0274978Y0186630D03*
X0277478Y0189130D03*
X0279978Y0191630D03*
X0282478Y0194130D03*
X0289478Y0193630D03*
X0289478Y0197130D03*
X0289478Y0200630D03*
X0289478Y0204130D03*
X0272478Y0208630D03*
X0264978Y0194130D03*
X0252478Y0194130D03*
X0241378Y0201830D03*
X0229988Y0191246D03*
X0226051Y0188785D03*
X0216393Y0189093D03*
X0212272Y0193215D03*
X0209811Y0195675D03*
X0207351Y0193215D03*
X0212272Y0198136D03*
X0216393Y0202257D03*
X0224575Y0181158D03*
X0224575Y0177221D03*
X0220392Y0173037D03*
X0209565Y0173037D03*
X0230478Y0165630D03*
X0239878Y0176030D03*
X0239878Y0179630D03*
X0240978Y0155630D03*
X0236978Y0155630D03*
X0240978Y0150630D03*
X0241978Y0145630D03*
X0246978Y0150630D03*
X0246978Y0155630D03*
X0256478Y0150630D03*
X0256478Y0145630D03*
X0256478Y0140630D03*
X0251478Y0140630D03*
X0251478Y0135630D03*
X0256478Y0135630D03*
X0261478Y0135130D03*
X0266478Y0135130D03*
X0266478Y0141130D03*
X0261478Y0141130D03*
X0261478Y0145130D03*
X0266478Y0145130D03*
X0266478Y0151130D03*
X0261478Y0151130D03*
X0241978Y0140630D03*
X0241978Y0135630D03*
X0236478Y0135630D03*
X0235978Y0140630D03*
X0230978Y0140630D03*
X0226478Y0140630D03*
X0226478Y0145130D03*
X0230978Y0145630D03*
X0235978Y0145630D03*
X0226478Y0151130D03*
X0226478Y0155630D03*
X0221478Y0145630D03*
X0221478Y0140630D03*
X0215978Y0140630D03*
X0211278Y0135130D03*
X0211278Y0130630D03*
X0221478Y0135630D03*
X0236478Y0125630D03*
X0256478Y0125630D03*
X0251478Y0111130D03*
X0255978Y0105630D03*
X0251478Y0086630D03*
X0251878Y0054230D03*
X0255178Y0054230D03*
X0219978Y0048630D03*
X0199978Y0050730D03*
X0198978Y0061530D03*
X0186778Y0060230D03*
X0186778Y0056930D03*
X0181378Y0056630D03*
X0179978Y0052630D03*
X0181378Y0060230D03*
X0164978Y0050130D03*
X0139978Y0098030D03*
X0126642Y0102910D03*
X0126642Y0106354D03*
X0126642Y0109799D03*
X0132793Y0121118D03*
X0142636Y0121118D03*
X0145397Y0118165D03*
X0142636Y0115213D03*
X0150178Y0109430D03*
X0150878Y0122030D03*
X0142636Y0127024D03*
X0140278Y0134630D03*
X0140278Y0137930D03*
X0143578Y0137930D03*
X0146878Y0137930D03*
X0146878Y0134330D03*
X0137878Y0140330D03*
X0137878Y0143630D03*
X0127378Y0133130D03*
X0108089Y0132732D03*
X0108089Y0127221D03*
X0108089Y0122398D03*
X0103266Y0122398D03*
X0097754Y0122398D03*
X0092242Y0122398D03*
X0088108Y0122398D03*
X0083975Y0122398D03*
X0078463Y0122398D03*
X0072951Y0122398D03*
X0068128Y0122398D03*
X0068128Y0127221D03*
X0068128Y0132732D03*
X0068128Y0138244D03*
X0068128Y0142378D03*
X0068128Y0146512D03*
X0072951Y0142378D03*
X0078463Y0142378D03*
X0083975Y0142378D03*
X0088108Y0142378D03*
X0088108Y0146512D03*
X0092242Y0142378D03*
X0097754Y0142378D03*
X0103266Y0142378D03*
X0108089Y0142378D03*
X0108089Y0146512D03*
X0108089Y0152024D03*
X0108089Y0157535D03*
X0108089Y0162358D03*
X0103266Y0162358D03*
X0097754Y0162358D03*
X0092242Y0162358D03*
X0088108Y0162358D03*
X0083975Y0162358D03*
X0078463Y0162358D03*
X0072951Y0162358D03*
X0068128Y0162358D03*
X0068128Y0157535D03*
X0068128Y0152024D03*
X0059860Y0157535D03*
X0056416Y0157535D03*
X0052971Y0157535D03*
X0047459Y0157535D03*
X0044014Y0157535D03*
X0040569Y0157535D03*
X0040569Y0161669D03*
X0044014Y0161669D03*
X0040569Y0165803D03*
X0045392Y0171315D03*
X0048148Y0171315D03*
X0048148Y0174071D03*
X0045392Y0174071D03*
X0052971Y0165803D03*
X0056416Y0165803D03*
X0059860Y0165803D03*
X0058187Y0170724D03*
X0058187Y0174661D03*
X0058187Y0178598D03*
X0055038Y0182048D03*
X0058728Y0189630D03*
X0058728Y0194880D03*
X0065978Y0203189D03*
X0070478Y0200630D03*
X0074478Y0198071D03*
X0059478Y0207630D03*
X0061478Y0222130D03*
X0055978Y0222130D03*
X0050478Y0222130D03*
X0058728Y0227630D03*
X0058728Y0232630D03*
X0066978Y0222130D03*
X0090978Y0208630D03*
X0101478Y0199130D03*
X0090978Y0189630D03*
X0090077Y0182142D03*
X0097164Y0182142D03*
X0082990Y0181748D03*
X0078266Y0181748D03*
X0073541Y0181748D03*
X0068817Y0181748D03*
X0064093Y0181748D03*
X0088108Y0157535D03*
X0088108Y0152024D03*
X0088108Y0138244D03*
X0088108Y0132732D03*
X0088108Y0127221D03*
X0079841Y0114032D03*
X0074329Y0114032D03*
X0087321Y0109701D03*
X0090864Y0109701D03*
X0103266Y0113785D03*
X0110943Y0109701D03*
X0079841Y0102221D03*
X0059860Y0118953D03*
X0056416Y0118953D03*
X0052971Y0118953D03*
X0048148Y0113441D03*
X0048148Y0110685D03*
X0045392Y0110685D03*
X0045392Y0113441D03*
X0040569Y0118953D03*
X0040569Y0123087D03*
X0044014Y0123087D03*
X0044014Y0127221D03*
X0047459Y0127221D03*
X0052971Y0127221D03*
X0056416Y0127221D03*
X0059860Y0127221D03*
X0040569Y0127221D03*
X0047478Y0096130D03*
X0048978Y0089130D03*
X0108089Y0138244D03*
X0139683Y0156551D03*
X0151494Y0156551D03*
X0145589Y0167870D03*
X0156078Y0171830D03*
X0147557Y0178697D03*
X0143620Y0178697D03*
X0139978Y0182130D03*
X0134228Y0177130D03*
X0127978Y0179630D03*
X0150778Y0185030D03*
X0149478Y0201630D03*
X0141978Y0209130D03*
X0160678Y0205030D03*
X0184378Y0211430D03*
X0176578Y0137030D03*
X0174178Y0134630D03*
X0171778Y0137030D03*
X0176578Y0132230D03*
X0172078Y0128030D03*
X0171978Y0107130D03*
X0031078Y0183430D03*
X0031078Y0187930D03*
X0031078Y0193430D03*
X0031078Y0198330D03*
X0031078Y0202930D03*
X0031078Y0207830D03*
X0031078Y0213330D03*
X0031078Y0217830D03*
D19*
X0052978Y0207630D03*
X0076478Y0193630D03*
X0099478Y0191630D03*
X0100978Y0205630D03*
X0147478Y0191630D03*
X0163278Y0200930D03*
X0179978Y0152630D03*
X0179978Y0148630D03*
X0175978Y0107630D03*
X0142567Y0094996D03*
X0241478Y0166630D03*
X0256478Y0165630D03*
X0263978Y0166630D03*
X0271478Y0165630D03*
X0276478Y0120630D03*
X0276478Y0110630D03*
X0289478Y0108130D03*
X0322478Y0088630D03*
X0337478Y0092880D03*
X0299478Y0073130D03*
X0333478Y0134130D03*
D20*
X0331978Y0138530D02*
X0322225Y0148284D01*
X0301297Y0148284D01*
X0300510Y0166591D02*
X0298148Y0166591D01*
X0295195Y0169543D01*
X0278165Y0169543D01*
X0274378Y0173330D01*
X0256678Y0173330D01*
X0235978Y0194030D01*
X0235978Y0217130D01*
X0239378Y0220530D01*
X0239378Y0229730D01*
X0234978Y0234130D01*
X0230578Y0228530D02*
X0230578Y0222030D01*
X0234778Y0217830D01*
X0234778Y0193430D01*
X0259378Y0168830D01*
X0259378Y0153530D01*
X0256478Y0150630D01*
X0236478Y0135630D02*
X0233978Y0133130D01*
X0219178Y0133130D01*
X0209578Y0142730D01*
X0195778Y0142730D01*
X0187678Y0134630D01*
X0187678Y0127130D01*
X0160078Y0099530D01*
X0160078Y0069230D01*
X0179978Y0049330D01*
X0179978Y0039130D01*
X0174978Y0034130D01*
X0164978Y0034130D02*
X0160578Y0038530D01*
X0160578Y0046830D01*
X0156478Y0050930D01*
X0156478Y0101330D01*
X0184078Y0128930D01*
X0184078Y0136430D01*
X0187678Y0140030D01*
X0187678Y0156530D01*
X0182278Y0161930D01*
X0178378Y0161930D01*
X0175978Y0161030D02*
X0175978Y0164330D01*
X0175978Y0161030D02*
X0177478Y0159530D01*
X0182878Y0159530D01*
X0186478Y0155930D01*
X0186478Y0140630D01*
X0182878Y0137030D01*
X0182878Y0129530D01*
X0155278Y0101930D01*
X0155278Y0050430D01*
X0159378Y0046330D01*
X0159378Y0038530D01*
X0154978Y0034130D01*
X0154978Y0044130D02*
X0154978Y0048830D01*
X0154078Y0049730D01*
X0154078Y0102530D01*
X0181678Y0130130D01*
X0181678Y0137630D01*
X0185278Y0141230D01*
X0185278Y0155330D01*
X0182278Y0158330D01*
X0176878Y0158330D01*
X0173578Y0161630D01*
X0173578Y0166730D01*
X0171178Y0162230D02*
X0176278Y0157130D01*
X0181678Y0157130D01*
X0184078Y0154730D01*
X0184078Y0141830D01*
X0180478Y0138230D01*
X0180478Y0130730D01*
X0152878Y0103130D01*
X0152878Y0052030D01*
X0144978Y0044130D01*
X0157678Y0051430D02*
X0164978Y0044130D01*
X0163378Y0047630D02*
X0171478Y0047630D01*
X0174978Y0044130D01*
X0163378Y0047630D02*
X0158878Y0052130D01*
X0158878Y0100130D01*
X0186478Y0127730D01*
X0186478Y0135230D01*
X0195178Y0143930D01*
X0209778Y0143930D01*
X0211478Y0145630D01*
X0215978Y0145630D02*
X0218378Y0148030D01*
X0218378Y0156430D01*
X0206278Y0168530D01*
X0186178Y0168530D01*
X0179378Y0175330D01*
X0179378Y0219730D01*
X0174978Y0224130D01*
X0170578Y0221930D02*
X0178178Y0214330D01*
X0178178Y0174730D01*
X0185578Y0167330D01*
X0205678Y0167330D01*
X0214378Y0158630D01*
X0214378Y0157230D01*
X0215978Y0155630D01*
X0211478Y0150630D02*
X0208878Y0153230D01*
X0191278Y0153230D01*
X0189178Y0151130D01*
X0189178Y0139730D01*
X0185278Y0135830D01*
X0185278Y0128330D01*
X0157678Y0100730D01*
X0157678Y0051430D01*
X0182778Y0064230D02*
X0166878Y0080130D01*
X0164978Y0080130D01*
X0166178Y0082630D02*
X0162478Y0082630D01*
X0164978Y0085130D02*
X0177878Y0098030D01*
X0244678Y0098030D01*
X0259978Y0113330D01*
X0284678Y0113330D01*
X0289478Y0118130D01*
X0306478Y0097730D02*
X0310378Y0101630D01*
X0322478Y0101630D01*
X0325478Y0104630D01*
X0338278Y0110930D02*
X0341278Y0113930D01*
X0341278Y0124130D01*
X0337978Y0127430D01*
X0337978Y0135830D01*
X0335278Y0138530D01*
X0331978Y0138530D01*
X0332578Y0139730D02*
X0335878Y0139730D01*
X0339178Y0136430D01*
X0339178Y0128030D01*
X0342478Y0124730D01*
X0342478Y0079430D01*
X0340378Y0077330D01*
X0323278Y0077330D01*
X0318778Y0072830D01*
X0312478Y0072830D01*
X0310078Y0073130D02*
X0310078Y0075230D01*
X0310078Y0073130D02*
X0307678Y0070730D01*
X0307678Y0068030D01*
X0317878Y0057830D01*
X0331978Y0057830D01*
X0344278Y0070130D01*
X0344278Y0074030D01*
X0347278Y0077030D01*
X0347278Y0127130D01*
X0343978Y0130430D01*
X0343978Y0143630D01*
X0337978Y0149630D01*
X0337978Y0153830D01*
X0340678Y0156530D01*
X0344278Y0156530D01*
X0346378Y0158630D01*
X0346378Y0163530D01*
X0349278Y0166430D01*
X0350878Y0166430D01*
X0352978Y0168530D01*
X0352978Y0172130D01*
X0352978Y0175630D02*
X0351378Y0175630D01*
X0336778Y0161030D01*
X0336778Y0149030D01*
X0342778Y0143030D01*
X0342778Y0129830D01*
X0346078Y0126530D01*
X0346078Y0077630D01*
X0343078Y0074630D01*
X0343078Y0070730D01*
X0331378Y0059030D01*
X0320278Y0059030D01*
X0314878Y0064430D01*
X0317278Y0063830D02*
X0317278Y0065630D01*
X0314878Y0068030D01*
X0318178Y0070430D02*
X0311278Y0070430D01*
X0310078Y0069230D01*
X0306478Y0067430D02*
X0306478Y0075230D01*
X0304078Y0071630D02*
X0305278Y0070430D01*
X0305278Y0066830D01*
X0316678Y0055430D01*
X0333178Y0055430D01*
X0346678Y0068930D01*
X0346678Y0072830D01*
X0349678Y0075830D01*
X0349678Y0128330D01*
X0346378Y0131630D01*
X0346378Y0144830D01*
X0340378Y0150830D01*
X0340378Y0152630D01*
X0341878Y0154130D01*
X0345478Y0154130D01*
X0351478Y0160130D01*
X0352978Y0160130D01*
X0347578Y0158030D02*
X0344878Y0155330D01*
X0341278Y0155330D01*
X0339178Y0153230D01*
X0339178Y0150230D01*
X0345178Y0144230D01*
X0345178Y0131030D01*
X0348478Y0127730D01*
X0348478Y0076430D01*
X0345478Y0073430D01*
X0345478Y0069530D01*
X0332578Y0056630D01*
X0317278Y0056630D01*
X0306478Y0067430D01*
X0317278Y0063830D02*
X0320878Y0060230D01*
X0330778Y0060230D01*
X0341878Y0071330D01*
X0341878Y0075230D01*
X0344878Y0078230D01*
X0344878Y0125930D01*
X0341578Y0129230D01*
X0341578Y0137630D01*
X0337078Y0142130D01*
X0334978Y0142130D01*
X0333778Y0142130D01*
X0332278Y0143630D01*
X0332278Y0145730D01*
X0335578Y0149030D01*
X0335578Y0161630D01*
X0352978Y0179030D01*
X0352978Y0179130D01*
X0352978Y0182630D02*
X0346378Y0176030D01*
X0346378Y0174230D01*
X0334378Y0162230D01*
X0334378Y0149630D01*
X0331078Y0146330D01*
X0331078Y0143030D01*
X0333178Y0140930D01*
X0336478Y0140930D01*
X0340378Y0137030D01*
X0340378Y0128630D01*
X0343678Y0125330D01*
X0343678Y0078830D01*
X0340978Y0076130D01*
X0323878Y0076130D01*
X0318178Y0070430D01*
X0288478Y0070430D02*
X0288478Y0065330D01*
X0286078Y0067730D02*
X0286078Y0071030D01*
X0284578Y0072530D01*
X0282478Y0072530D01*
X0281278Y0071330D01*
X0281278Y0068930D01*
X0282478Y0067730D01*
X0282478Y0050030D01*
X0279378Y0046930D01*
X0279378Y0042030D01*
X0277478Y0040130D01*
X0250978Y0040130D01*
X0244978Y0034130D01*
X0254978Y0034130D02*
X0259478Y0038630D01*
X0277978Y0038630D01*
X0280578Y0041230D01*
X0280578Y0046330D01*
X0283678Y0049430D01*
X0283678Y0070130D01*
X0285178Y0073730D02*
X0281878Y0073730D01*
X0280078Y0071930D01*
X0280078Y0068030D01*
X0281278Y0066830D01*
X0281278Y0053030D01*
X0277378Y0049130D01*
X0239978Y0049130D01*
X0234978Y0044130D01*
X0213978Y0064630D02*
X0213978Y0068130D01*
X0211478Y0070630D01*
X0210178Y0072830D02*
X0259278Y0072830D01*
X0261478Y0070630D01*
X0259128Y0074030D02*
X0255178Y0074030D01*
X0251678Y0077530D01*
X0210378Y0077530D01*
X0208978Y0076130D01*
X0208978Y0074230D01*
X0207628Y0072880D01*
X0193728Y0072880D01*
X0191478Y0070630D01*
X0188878Y0068230D02*
X0194078Y0068230D01*
X0196478Y0070630D01*
X0206478Y0070630D01*
X0207578Y0068230D02*
X0208978Y0069630D01*
X0208978Y0071630D01*
X0210178Y0072830D01*
X0206478Y0075130D02*
X0204078Y0077530D01*
X0195878Y0077530D01*
X0194678Y0078730D01*
X0188878Y0078730D01*
X0186478Y0081130D01*
X0188878Y0077530D02*
X0194078Y0077530D01*
X0196478Y0075130D01*
X0201478Y0075130D01*
X0196478Y0078730D02*
X0254128Y0078730D01*
X0256478Y0076380D01*
X0259128Y0074030D02*
X0261478Y0076380D01*
X0283428Y0083380D02*
X0297778Y0097730D01*
X0306478Y0097730D01*
X0283428Y0083380D02*
X0215228Y0083380D01*
X0211478Y0087130D01*
X0211478Y0095130D01*
X0196478Y0078730D02*
X0194078Y0081130D01*
X0191478Y0081130D01*
X0188878Y0077530D02*
X0186478Y0075130D01*
X0186478Y0070630D02*
X0188878Y0068230D01*
X0185078Y0067030D02*
X0194678Y0067030D01*
X0195878Y0068230D01*
X0207578Y0068230D01*
X0211478Y0065630D02*
X0183178Y0065630D01*
X0166178Y0082630D01*
X0181478Y0070630D02*
X0185078Y0067030D01*
X0182778Y0064230D02*
X0209378Y0064230D01*
X0210478Y0063130D01*
X0212478Y0063130D01*
X0213978Y0064630D01*
X0285178Y0073730D02*
X0288478Y0070430D01*
X0349678Y0071930D02*
X0350878Y0073130D01*
X0350878Y0128930D01*
X0347578Y0132230D01*
X0347578Y0144830D01*
X0349078Y0146330D01*
X0349078Y0149630D01*
X0347578Y0151130D01*
X0346378Y0151130D01*
X0348778Y0152030D02*
X0350278Y0150530D01*
X0350278Y0145730D01*
X0348778Y0144230D01*
X0348778Y0132830D01*
X0352078Y0129530D01*
X0352078Y0073130D01*
X0353278Y0071930D01*
X0332578Y0139730D02*
X0329878Y0142430D01*
X0329878Y0146930D01*
X0333178Y0150230D01*
X0333178Y0162830D01*
X0345178Y0174830D01*
X0345178Y0176630D01*
X0350578Y0182030D01*
X0350578Y0184230D01*
X0352978Y0186630D01*
X0331678Y0188630D02*
X0331678Y0189830D01*
X0331678Y0188630D02*
X0320878Y0177830D01*
X0311749Y0177830D01*
X0300510Y0166591D01*
X0299329Y0168953D02*
X0297360Y0170921D01*
X0278587Y0170921D01*
X0274978Y0174530D01*
X0257278Y0174530D01*
X0238978Y0192830D01*
X0238978Y0218130D01*
X0244978Y0224130D01*
X0257478Y0218630D02*
X0247478Y0208630D01*
X0247478Y0204730D01*
X0244978Y0207230D02*
X0244978Y0190430D01*
X0258478Y0176930D01*
X0276178Y0176930D01*
X0279478Y0173630D01*
X0279526Y0173677D01*
X0297360Y0173677D01*
X0299329Y0175646D01*
X0299329Y0172299D02*
X0279009Y0172299D01*
X0275578Y0175730D01*
X0257878Y0175730D01*
X0241378Y0192230D01*
X0241378Y0201830D01*
X0252478Y0204130D02*
X0252478Y0208630D01*
X0262478Y0218630D01*
X0267478Y0218630D02*
X0261478Y0212630D01*
X0260578Y0212630D01*
X0257478Y0209530D01*
X0257478Y0204130D01*
X0262478Y0204130D02*
X0262478Y0210030D01*
X0269978Y0217530D01*
X0269978Y0221630D01*
X0272478Y0224130D01*
X0274978Y0224130D01*
X0282478Y0218630D02*
X0277478Y0213630D01*
X0277478Y0189130D01*
X0279978Y0191630D02*
X0279978Y0211130D01*
X0287478Y0218630D01*
X0292478Y0218630D02*
X0282478Y0208630D01*
X0282478Y0194130D01*
X0284878Y0191330D02*
X0297178Y0179030D01*
X0320278Y0179030D01*
X0326878Y0185630D01*
X0326878Y0188030D01*
X0324178Y0187130D02*
X0323878Y0187430D01*
X0323878Y0189830D01*
X0324178Y0187130D02*
X0324178Y0184730D01*
X0319678Y0180230D01*
X0297778Y0180230D01*
X0286078Y0191930D01*
X0286078Y0197230D01*
X0289478Y0200630D01*
X0291778Y0202930D01*
X0291778Y0207930D01*
X0302478Y0218630D01*
X0303878Y0215030D02*
X0300778Y0215030D01*
X0292978Y0207230D01*
X0292978Y0200630D01*
X0289478Y0197130D01*
X0287278Y0194930D01*
X0287278Y0192530D01*
X0294778Y0185030D01*
X0305278Y0185030D01*
X0307678Y0182630D01*
X0315178Y0182630D01*
X0320278Y0187730D01*
X0320278Y0189830D01*
X0317278Y0188030D02*
X0317278Y0186530D01*
X0314578Y0183830D01*
X0308278Y0183830D01*
X0305878Y0186230D01*
X0295378Y0186230D01*
X0289478Y0192130D01*
X0289478Y0193630D01*
X0294178Y0198330D01*
X0294178Y0206630D01*
X0301378Y0213830D01*
X0307678Y0213830D01*
X0312478Y0218630D01*
X0317478Y0218630D02*
X0311478Y0212630D01*
X0301978Y0212630D01*
X0295378Y0206030D01*
X0295378Y0199230D01*
X0298978Y0195630D01*
X0298978Y0199130D02*
X0296578Y0201530D01*
X0296578Y0205430D01*
X0302578Y0211430D01*
X0315278Y0211430D01*
X0322478Y0218630D01*
X0327478Y0218630D02*
X0319078Y0210230D01*
X0303178Y0210230D01*
X0297778Y0204830D01*
X0297778Y0203830D01*
X0298978Y0202630D01*
X0298978Y0199130D02*
X0301478Y0199130D01*
X0306978Y0193630D01*
X0290478Y0205130D02*
X0290478Y0211630D01*
X0297478Y0218630D01*
X0303878Y0215030D02*
X0307478Y0218630D01*
X0290478Y0205130D02*
X0289478Y0204130D01*
X0284878Y0199530D01*
X0284878Y0191330D01*
X0239878Y0179630D02*
X0233478Y0173230D01*
X0233478Y0139130D01*
X0232478Y0138130D01*
X0218478Y0138130D01*
X0215978Y0140630D01*
X0225478Y0151130D02*
X0226478Y0151130D01*
X0225478Y0151130D02*
X0206878Y0169730D01*
X0186778Y0169730D01*
X0180578Y0175930D01*
X0180578Y0219730D01*
X0184978Y0224130D01*
X0189378Y0221930D02*
X0181778Y0214330D01*
X0181778Y0176530D01*
X0187378Y0170930D01*
X0207478Y0170930D01*
X0222778Y0155630D01*
X0226478Y0155630D01*
X0171178Y0162230D02*
X0171178Y0201230D01*
X0153778Y0218630D01*
X0098278Y0218630D01*
X0094678Y0215030D01*
X0078178Y0215030D01*
X0065578Y0227630D01*
X0058728Y0227630D01*
X0073541Y0181748D02*
X0070392Y0178598D01*
X0058187Y0178598D01*
X0058187Y0174661D02*
X0071179Y0174661D01*
X0078266Y0181748D01*
X0082990Y0181748D02*
X0071967Y0170724D01*
X0058187Y0170724D01*
X0087321Y0109701D02*
X0090478Y0106543D01*
X0090478Y0091598D01*
X0088108Y0089228D01*
X0091678Y0085712D02*
X0088108Y0082142D01*
X0091678Y0085712D02*
X0091678Y0107330D01*
X0090864Y0108144D01*
X0090864Y0109701D01*
X0143578Y0137930D02*
X0167278Y0161630D01*
X0167278Y0170330D01*
X0156478Y0181130D01*
X0146053Y0181130D01*
X0143620Y0178697D01*
X0198978Y0213130D02*
X0204978Y0219130D01*
X0204978Y0224130D01*
X0209378Y0226930D02*
X0209378Y0216530D01*
X0205978Y0213130D01*
X0213478Y0219130D02*
X0214978Y0219130D01*
X0213478Y0219130D02*
X0210578Y0222030D01*
X0210578Y0228530D01*
X0204978Y0234130D01*
X0207678Y0228630D02*
X0200478Y0228630D01*
X0194978Y0234130D01*
X0189378Y0229730D02*
X0189378Y0221930D01*
X0189378Y0229730D02*
X0184978Y0234130D01*
X0174978Y0234130D02*
X0170578Y0229730D01*
X0170578Y0221930D01*
X0207678Y0228630D02*
X0209378Y0226930D01*
X0214978Y0224130D02*
X0219978Y0219130D01*
X0224978Y0219130D02*
X0224978Y0224130D01*
X0229378Y0227930D02*
X0229378Y0219730D01*
X0229978Y0219130D01*
X0229378Y0227930D02*
X0227278Y0230030D01*
X0219078Y0230030D01*
X0214978Y0234130D01*
X0224978Y0234130D02*
X0230578Y0228530D01*
X0347578Y0162830D02*
X0347578Y0158030D01*
X0348778Y0153530D02*
X0348778Y0152030D01*
X0347578Y0162830D02*
X0349878Y0165130D01*
X0352978Y0165130D01*
D21*
X0328599Y0137030D02*
X0322754Y0142875D01*
X0328599Y0137030D02*
X0334678Y0137030D01*
X0336478Y0135230D01*
X0336478Y0126830D01*
X0339778Y0123530D01*
X0339778Y0116930D01*
X0335278Y0112430D01*
X0335278Y0107930D01*
X0285978Y0090130D02*
X0270478Y0105630D01*
X0255978Y0105630D01*
X0236478Y0086130D01*
X0236478Y0085630D01*
X0251478Y0111130D02*
X0251478Y0116630D01*
X0238478Y0129630D01*
X0235478Y0129630D01*
X0233478Y0127630D01*
X0209478Y0127630D01*
X0206478Y0130630D01*
X0206478Y0135130D01*
X0139978Y0098030D02*
X0137978Y0096030D01*
X0137978Y0063230D01*
X0142578Y0058630D01*
X0121978Y0183830D02*
X0120778Y0185030D01*
X0121978Y0186230D01*
X0120778Y0185030D02*
X0058019Y0185030D01*
X0055038Y0182048D01*
D22*
X0175978Y0110630D02*
X0175978Y0107630D01*
X0175978Y0110630D02*
X0189478Y0124130D01*
X0234978Y0124130D01*
X0236478Y0125630D01*
X0289478Y0108130D02*
X0293978Y0112630D01*
X0293978Y0126791D01*
X0302085Y0134898D01*
X0304447Y0134898D01*
X0306679Y0137130D01*
X0319978Y0137130D01*
X0322978Y0134130D01*
X0333478Y0134130D01*
D23*
X0160678Y0205030D02*
X0151878Y0213830D01*
X0139678Y0213830D01*
X0121978Y0196130D01*
X0121978Y0186230D01*
X0121978Y0183830D01*
X0121978Y0174256D01*
X0139683Y0156551D01*
X0142473Y0147530D02*
X0151494Y0156551D01*
X0151494Y0169014D01*
X0147178Y0173330D01*
X0129478Y0173330D01*
X0124978Y0177830D01*
X0124978Y0192530D01*
X0141578Y0209130D01*
X0141978Y0209130D01*
X0142473Y0147530D02*
X0137278Y0147530D01*
X0134278Y0144530D01*
X0134278Y0136130D01*
X0142636Y0127773D01*
X0142636Y0127024D01*
X0142636Y0126187D01*
X0137578Y0121130D01*
X0137578Y0119330D01*
X0132034Y0113785D01*
X0103266Y0113785D01*
M02*
