%
M48
M72
T01C0.0150
T02C0.0160
T03C0.0200
T04C0.0300
T05C0.0320
T06C0.0394
T07C0.0400
T08C0.0630
T09C0.0906
T10C0.1250
%
T01
X36098Y11343
X36098Y13783
T02
X35198Y13283
X35448Y13043
X35778Y12923
X36138Y12923
X36138Y12563
X36138Y12203
X35778Y12203
X35448Y12083
X33708Y12233
X33288Y12683
X33828Y11093
X33528Y10793
X33998Y10463
X33998Y10063
X32548Y10463
X30681Y10635
X30681Y10281
X30681Y10990
X30681Y11344
X30681Y11738
X30681Y12092
X30681Y12446
X30681Y12801
X30378Y13043
X30738Y13283
X30445Y13490
X31308Y13343
X31193Y14100
X31193Y14454
X30622Y14474
X30268Y14474
X29778Y14213
X29658Y13883
X28948Y13313
X28598Y12513
X28598Y11813
X28948Y11813
X29775Y12269
X29775Y10813
X28598Y9013
X27148Y8613
X27648Y7638
X27648Y7063
X28368Y7013
X28608Y6773
X28848Y6533
X29098Y6313
X29498Y6313
X29998Y6313
X30398Y6313
X31008Y6923
X31248Y7283
X31008Y7523
X30648Y7523
X30408Y7163
X31488Y6803
X31488Y6443
X31068Y8873
X34968Y7193
X35328Y7193
X35548Y10163
X34008Y14243
X33457Y14454
X34278Y15173
X34638Y15113
X34878Y15353
X35478Y15053
X36038Y14763
X36358Y14763
X35298Y16013
X35298Y16513
X34998Y16913
X35298Y17213
X35298Y17563
X35298Y17913
X35298Y18263
X35298Y18663
X34788Y18353
X34668Y18653
X34398Y19223
X34398Y19553
X34728Y19553
X34068Y19553
X33828Y18983
X33828Y18653
X33498Y18983
X33168Y18983
X32688Y19163
X32388Y18983
X32688Y18803
X32177Y18608
X32028Y18983
X31728Y18803
X31126Y18758
X30445Y18273
X29933Y18273
X29933Y17565
X29933Y17230
X29933Y16895
X29548Y16513
X30078Y15803
X30130Y14828
X31390Y15754
X31685Y16049
X31980Y16344
X31685Y16541
X31980Y16738
X32177Y17033
X32374Y16738
X32669Y16541
X32374Y16344
X32177Y16049
X32374Y15754
X31980Y15754
X32669Y16049
X32964Y16344
X32964Y16738
X32669Y17033
X32374Y17328
X31980Y17328
X31685Y17033
X31390Y16738
X31390Y16344
X31390Y17328
X32964Y17328
X34273Y17624
X34401Y16305
X34401Y15950
X32964Y15754
X32275Y14287
X27348Y17063
X26948Y17063
X26418Y18233
X26178Y18473
X27498Y18663
X27748Y18913
X27998Y19163
X28248Y19413
X28948Y19363
X28948Y19713
X28948Y20063
X28948Y20413
X29898Y20263
X29898Y19913
X29898Y19563
X30698Y19363
X31048Y19363
X32498Y19863
X30708Y20783
X30748Y21863
X30248Y21863
X29748Y21863
X29248Y21863
X28748Y21863
X28248Y21863
X27748Y21863
X27248Y21863
X26748Y21863
X26248Y21863
X25748Y21863
X25248Y21863
X24998Y20773
X24748Y20473
X24498Y20723
X24138Y20183
X25248Y20413
X25748Y20413
X26248Y20413
X25998Y20863
X27248Y20863
X26498Y19413
X25248Y19413
X23988Y17963
X23988Y17603
X23048Y16563
X22039Y17304
X22457Y17722
X22457Y18116
X22605Y18879
X22999Y19125
X21639Y18909
X21227Y19321
X20981Y19568
X21227Y19814
X21639Y20226
X20598Y21313
X19898Y21313
X19357Y20699
X18678Y20123
X18678Y19793
X18678Y19433
X19013Y18042
X19456Y18042
X19898Y18042
X20366Y17796
X20587Y18042
X20957Y17304
X19825Y17328
X18840Y17328
X17598Y16433
X17838Y16193
X17358Y16673
X15608Y17183
X14756Y17870
X14362Y17870
X13998Y18213
X13423Y17713
X12798Y17963
X14559Y16787
X15149Y15655
X13968Y15655
X13788Y14363
X13788Y14033
X14028Y13793
X14358Y13793
X14688Y13793
X14688Y13433
X14028Y13463
X14264Y12702
X14264Y12112
X14540Y11817
X14264Y11521
X15018Y10943
X15088Y12203
X13279Y12112
X12664Y10980
X12664Y10635
X12664Y10291
X13998Y9803
X16248Y8763
X16498Y8513
X16248Y8263
X16498Y8013
X16248Y7763
X16498Y7513
X16498Y7013
X16248Y6263
X16498Y6013
X16248Y5763
X16498Y5513
X16248Y5263
X16498Y5013
X17998Y5263
X18138Y5663
X18678Y5693
X18678Y6023
X18138Y6023
X18148Y7063
X18648Y7063
X18648Y7513
X19148Y7513
X19148Y7063
X20148Y7513
X20648Y7513
X20648Y7063
X21148Y7063
X21148Y6563
X21148Y7513
X21648Y7513
X22148Y7513
X22648Y7513
X23148Y7513
X22648Y7063
X22648Y6563
X23148Y6563
X23623Y6563
X24148Y7063
X24148Y7513
X24148Y8113
X24148Y8563
X23648Y8563
X22648Y8563
X22648Y8113
X22148Y8113
X21648Y8113
X21148Y8113
X20648Y8113
X20648Y8513
X20148Y8113
X19148Y8113
X18648Y8113
X18148Y8563
X18148Y9563
X19148Y9513
X19148Y9113
X19648Y9113
X19648Y9513
X20148Y9513
X20148Y9113
X20648Y9113
X20648Y9513
X21148Y9513
X21673Y9013
X21648Y8563
X23148Y9563
X22648Y11063
X22148Y11063
X21648Y11063
X21148Y11563
X20648Y11013
X20648Y10563
X20148Y10563
X20148Y11013
X19648Y11013
X19648Y10613
X19148Y10613
X19148Y11013
X19148Y11613
X19648Y11613
X20148Y11613
X19648Y12013
X19148Y12013
X19148Y13063
X19648Y13063
X20148Y13063
X20648Y13063
X20648Y13513
X20148Y13513
X19648Y13613
X19648Y14013
X19648Y14613
X19648Y15013
X20148Y15013
X20148Y14613
X20648Y14613
X20648Y15063
X21148Y15063
X21598Y15063
X21598Y14563
X21148Y14563
X21598Y14063
X22148Y14063
X22648Y14063
X23098Y14063
X23598Y14063
X23598Y14563
X23098Y14563
X22648Y14513
X22148Y14563
X22648Y15113
X22648Y15563
X23698Y15563
X24098Y15563
X24098Y15063
X24198Y14563
X24698Y15063
X24698Y15563
X25648Y15063
X25648Y14563
X25648Y14063
X25148Y14063
X25148Y13563
X25648Y13563
X26148Y13513
X26648Y13513
X26648Y14113
X26148Y14113
X26148Y14513
X26648Y14513
X26648Y15113
X26148Y15113
X24198Y14063
X24198Y13563
X23648Y13563
X23648Y12563
X22148Y13563
X21128Y13513
X21128Y13063
X19148Y14613
X19148Y15013
X19598Y15563
X20648Y15563
X21148Y15563
X21598Y15563
X17658Y13703
X17418Y13463
X17658Y13223
X17208Y12803
X17178Y13703
X17198Y10713
X17948Y7513
X19898Y6153
X19998Y5073
X21998Y4863
X25188Y5423
X25518Y5423
X25648Y6563
X25648Y7063
X26148Y7063
X26648Y7063
X26648Y6563
X26148Y6563
X26148Y7638
X26648Y7638
X25648Y7638
X25148Y8663
X25598Y10563
X25148Y11113
X25648Y12563
X27648Y6213
X14258Y5863
X13758Y5633
X14288Y5033
X12598Y5563
X11448Y6163
X11448Y6563
X10498Y6363
X10148Y6363
X8811Y8214
X8811Y8569
X8811Y8923
X8811Y9277
X9559Y8569
X8063Y8569
X7984Y10222
X8732Y10970
X9086Y10970
X7984Y11403
X7433Y11403
X7295Y12240
X6813Y12240
X6813Y12722
X6813Y13273
X6813Y13824
X6813Y14238
X6813Y14651
X7295Y14238
X7846Y14238
X8397Y14238
X8811Y14238
X8811Y14651
X9224Y14238
X9775Y14238
X10327Y14238
X10809Y14238
X10809Y14651
X10809Y15202
X10809Y15754
X10809Y16236
X10327Y16236
X9775Y16236
X9224Y16236
X8811Y16236
X8397Y16236
X7846Y16236
X7295Y16236
X6813Y16236
X6813Y15754
X6813Y15202
X5986Y15754
X5642Y15754
X5297Y15754
X4746Y15754
X4401Y15754
X4057Y15754
X4057Y16167
X4401Y16167
X4057Y16580
X4539Y17132
X4539Y17407
X4815Y17407
X4815Y17132
X5297Y16580
X5642Y16580
X5986Y16580
X5819Y17072
X5819Y17466
X5819Y17860
X5504Y18205
X5873Y18963
X5873Y19488
X6598Y20319
X7048Y20063
X7448Y19807
X5948Y20763
X6148Y22213
X5598Y22213
X5048Y22213
X5873Y22763
X5873Y23263
X6698Y22213
X9098Y20863
X10148Y19913
X9098Y18963
X9008Y18214
X9716Y18214
X8299Y18175
X7827Y18175
X7354Y18175
X6882Y18175
X6409Y18175
X8811Y15754
X8811Y15202
X8811Y13824
X8811Y13273
X8811Y12722
X8811Y12240
X9224Y12240
X9775Y12240
X10327Y12240
X10809Y12240
X10809Y12722
X10809Y13273
X10809Y13824
X12738Y13313
X10327Y11379
X11094Y10970
X8397Y12240
X7846Y12240
X5986Y11895
X5642Y11895
X5297Y11895
X4815Y11344
X4815Y11069
X4539Y11069
X4539Y11344
X4057Y11895
X4057Y12309
X4401Y12309
X4401Y12722
X4057Y12722
X4746Y12722
X5297Y12722
X5642Y12722
X5986Y12722
X4748Y9613
X4898Y8913
X3108Y18343
X3108Y18793
X3108Y19343
X3108Y19833
X3108Y20293
X3108Y20783
X3108Y21333
X3108Y21783
X14198Y20913
X14948Y20163
X16068Y20503
X18438Y21143
X20735Y19321
X21498Y21913
X21998Y21913
X22498Y21913
X22998Y21913
X21998Y22763
X15078Y18503
X31248Y21863
X31748Y21863
X32248Y21863
X32748Y21863
X32748Y22913
X36038Y20423
X36358Y20263
X35958Y19853
X35648Y19993
T03
X27148Y16563
X26398Y16663
X25648Y16563
X24148Y16663
X17998Y15263
X17998Y14863
X17598Y10763
X14257Y9500
X14748Y19163
X16328Y20093
X10098Y20563
X9948Y19163
X7648Y19363
X5298Y20763
X27648Y12063
X27648Y11063
X28948Y10813
X32248Y8863
X33748Y9288
X29948Y7313
X33348Y13413
T04
X32498Y22413
X31498Y22413
X30498Y22413
X29498Y22413
X28498Y22413
X27498Y22413
X26498Y22413
X25498Y22413
X24498Y22413
X23498Y22413
X22498Y22413
X21498Y22413
X20498Y22413
X19498Y22413
X18498Y22413
X17498Y22413
X16498Y22413
X15498Y22413
X14498Y22413
X13498Y22413
X12498Y22413
X11498Y22413
X10498Y22413
X10498Y23413
X11498Y23413
X12498Y23413
X13498Y23413
X14498Y23413
X15498Y23413
X16498Y23413
X17498Y23413
X18498Y23413
X19498Y23413
X20498Y23413
X21498Y23413
X22498Y23413
X23498Y23413
X24498Y23413
X25498Y23413
X26498Y23413
X27498Y23413
X28498Y23413
X29498Y23413
X30498Y23413
X31498Y23413
X32498Y23413
X32498Y4413
X32498Y3413
X31498Y3413
X30498Y3413
X30498Y4413
X31498Y4413
X29498Y4413
X28498Y4413
X28498Y3413
X29498Y3413
X27498Y3413
X27498Y4413
X26498Y4413
X25498Y4413
X25498Y3413
X26498Y3413
X24498Y3413
X23498Y3413
X23498Y4413
X24498Y4413
X22498Y4413
X21498Y4413
X21498Y3413
X22498Y3413
X20498Y3413
X20498Y4413
X19498Y4413
X18498Y4413
X18498Y3413
X19498Y3413
X17498Y3413
X16498Y3413
X16498Y4413
X17498Y4413
X15498Y4413
X14498Y4413
X14498Y3413
X15498Y3413
X13498Y3413
X12498Y3413
X12498Y4413
X13498Y4413
X11498Y4413
X11498Y3413
X10498Y3413
X10498Y4413
T05
X9548Y5863
X8548Y5863
X8548Y6863
X9548Y6863
X13198Y6363
T06
X31634Y7910
X31634Y8894
X31634Y9682
X31634Y10666
T07
X24498Y5663
X23498Y5663
X22498Y5663
X21498Y5663
X20498Y5663
X19498Y5663
T08
X6279Y4563
X7460Y6413
X5098Y6413
T09
X32701Y6701
X32701Y11875
T10
X34498Y5163
X34498Y21663
X8498Y22913
X8498Y3913
M30
