G75*
%MOIN*%
%OFA0B0*%
%FSLAX25Y25*%
%IPPOS*%
%LPD*%
%AMOC8*
5,1,8,0,0,1.08239X$1,22.5*
%
%ADD10R,0.02769X0.03556*%
%ADD11R,0.03556X0.02769*%
%ADD12R,0.05918X0.07099*%
%ADD13R,0.03556X0.04737*%
%ADD14C,0.07200*%
%ADD15R,0.04737X0.06312*%
%ADD16C,0.02400*%
%ADD17C,0.04800*%
%ADD18R,0.02670X0.01587*%
%ADD19R,0.07099X0.02375*%
%ADD20R,0.06981X0.08241*%
%ADD21R,0.02847X0.01981*%
%ADD22R,0.02729X0.01981*%
%ADD23R,0.03950X0.01981*%
%ADD24R,0.03359X0.04146*%
%ADD25R,0.01981X0.07099*%
%ADD26R,0.06800X0.06800*%
%ADD27OC8,0.06800*%
%ADD28R,0.05524X0.07887*%
%ADD29R,0.04934X0.05052*%
%ADD30R,0.05918X0.06706*%
%ADD31R,0.06706X0.05918*%
%ADD32R,0.11800X0.03600*%
%ADD33R,0.06706X0.05131*%
%ADD34R,0.02572X0.04343*%
%ADD35R,0.08674X0.04343*%
%ADD36R,0.04343X0.02769*%
%ADD37R,0.04540X0.05524*%
%ADD38R,0.04146X0.01706*%
%ADD39R,0.04736X0.01706*%
%ADD40C,0.06706*%
%ADD41R,0.06800X0.10300*%
%ADD42R,0.01902X0.04146*%
%ADD43R,0.04146X0.01902*%
%ADD44R,0.08871X0.12808*%
%ADD45R,0.12808X0.08871*%
%ADD46R,0.04737X0.04737*%
%ADD47R,0.06312X0.04737*%
%ADD48R,0.07099X0.09068*%
%ADD49R,0.08280X0.07887*%
%ADD50R,0.08280X0.08280*%
%ADD51R,0.06115X0.02375*%
%ADD52C,0.18300*%
%ADD53C,0.06737*%
%ADD54C,0.11855*%
%ADD55R,0.04343X0.02375*%
%ADD56R,0.04343X0.03556*%
%ADD57R,0.04737X0.05131*%
%ADD58R,0.05131X0.04737*%
%ADD59R,0.07800X0.07400*%
%ADD60C,0.05800*%
%ADD61R,0.09461X0.08674*%
%ADD62C,0.09099*%
D10*
X0101297Y0104189D03*
X0105234Y0104189D03*
X0081809Y0117969D03*
X0077872Y0117969D03*
X0069211Y0106158D03*
X0065274Y0106158D03*
X0191356Y0173284D03*
X0195293Y0173284D03*
X0195293Y0183864D03*
X0191356Y0183864D03*
X0199723Y0183864D03*
X0203660Y0183864D03*
X0213010Y0173037D03*
X0216947Y0173037D03*
X0228010Y0173930D03*
X0231947Y0173930D03*
X0231947Y0179630D03*
X0228010Y0179630D03*
X0228010Y0185330D03*
X0231947Y0185330D03*
X0224329Y0202319D03*
X0220392Y0202319D03*
X0292210Y0158930D03*
X0296147Y0158930D03*
X0296147Y0146930D03*
X0292210Y0146930D03*
X0315077Y0139228D03*
X0319014Y0139228D03*
X0322951Y0139228D03*
X0326888Y0139228D03*
X0327447Y0100130D03*
X0323510Y0100130D03*
X0346510Y0100630D03*
X0350447Y0100630D03*
X0273447Y0080630D03*
X0269510Y0080630D03*
X0269510Y0075630D03*
X0273447Y0075630D03*
X0273447Y0070630D03*
X0269510Y0070630D03*
X0266447Y0092630D03*
X0262510Y0092630D03*
X0258947Y0092630D03*
X0255010Y0092630D03*
X0251447Y0092630D03*
X0247510Y0092630D03*
X0227947Y0094630D03*
X0224010Y0094630D03*
X0218447Y0096630D03*
X0214510Y0096630D03*
X0243010Y0122130D03*
X0246947Y0122130D03*
X0250510Y0122130D03*
X0254447Y0122130D03*
X0258010Y0122130D03*
X0261947Y0122130D03*
X0232447Y0135630D03*
X0228510Y0135630D03*
X0208447Y0127130D03*
X0204510Y0127130D03*
D11*
X0216478Y0104598D03*
X0216478Y0100661D03*
X0231478Y0090098D03*
X0231478Y0086161D03*
X0239978Y0101661D03*
X0239978Y0105598D03*
X0269478Y0109161D03*
X0269478Y0113098D03*
X0299228Y0094098D03*
X0299228Y0090161D03*
X0297478Y0055598D03*
X0297478Y0051661D03*
X0302478Y0051661D03*
X0302478Y0055598D03*
X0307478Y0055598D03*
X0307478Y0051661D03*
X0292478Y0051661D03*
X0292478Y0055598D03*
X0293278Y0136861D03*
X0293278Y0140798D03*
X0301888Y0141787D03*
X0301888Y0137850D03*
X0307006Y0137850D03*
X0307006Y0141787D03*
X0282478Y0197161D03*
X0282478Y0201098D03*
X0277478Y0201098D03*
X0277478Y0197161D03*
X0272478Y0197161D03*
X0272478Y0201098D03*
X0267478Y0201098D03*
X0267478Y0197161D03*
X0262478Y0197161D03*
X0262478Y0201098D03*
X0257478Y0201098D03*
X0257478Y0197161D03*
X0252478Y0197161D03*
X0252478Y0201098D03*
X0247478Y0201098D03*
X0247478Y0197161D03*
X0247478Y0211661D03*
X0247478Y0215598D03*
X0252478Y0215598D03*
X0252478Y0211661D03*
X0257478Y0211661D03*
X0257478Y0215598D03*
X0262478Y0215598D03*
X0262478Y0211661D03*
X0267478Y0211661D03*
X0267478Y0215598D03*
X0272478Y0215598D03*
X0272478Y0211661D03*
X0277478Y0211661D03*
X0277478Y0215598D03*
X0282478Y0215598D03*
X0282478Y0211661D03*
X0287478Y0211661D03*
X0287478Y0215598D03*
X0292478Y0215598D03*
X0292478Y0211661D03*
X0297478Y0211661D03*
X0297478Y0215598D03*
X0302478Y0215598D03*
X0302478Y0211661D03*
X0307478Y0211661D03*
X0307478Y0215598D03*
X0312478Y0215598D03*
X0312478Y0211661D03*
X0317478Y0211661D03*
X0317478Y0215598D03*
X0322478Y0215598D03*
X0322478Y0211661D03*
X0327478Y0211661D03*
X0327478Y0215598D03*
X0232978Y0215598D03*
X0232978Y0211661D03*
X0227978Y0211661D03*
X0227978Y0215598D03*
X0222978Y0215598D03*
X0222978Y0211661D03*
X0214978Y0211661D03*
X0214978Y0215598D03*
X0209478Y0215598D03*
X0209478Y0211661D03*
X0202478Y0211661D03*
X0202478Y0215598D03*
X0195478Y0215598D03*
X0195478Y0211661D03*
X0188478Y0211661D03*
X0188478Y0215598D03*
X0147478Y0187098D03*
X0147478Y0183161D03*
X0136478Y0184098D03*
X0136478Y0180161D03*
X0131978Y0180161D03*
X0131978Y0184098D03*
X0101101Y0184110D03*
X0101101Y0180173D03*
X0093620Y0180173D03*
X0093620Y0184110D03*
X0085353Y0184898D03*
X0085353Y0188835D03*
X0080628Y0188835D03*
X0080628Y0184898D03*
X0075904Y0184898D03*
X0075904Y0188835D03*
X0071179Y0188835D03*
X0071179Y0184898D03*
X0089683Y0116787D03*
X0089683Y0112850D03*
X0094801Y0112850D03*
X0094801Y0116787D03*
X0058581Y0116000D03*
X0058581Y0112063D03*
D12*
X0193571Y0191492D03*
X0201445Y0191492D03*
X0201445Y0201335D03*
X0193571Y0201335D03*
X0218423Y0196413D03*
X0226297Y0196413D03*
X0218916Y0179189D03*
X0211041Y0179189D03*
D13*
X0241238Y0116961D03*
X0248719Y0116961D03*
X0244978Y0108299D03*
X0260738Y0097799D03*
X0268219Y0097799D03*
X0264478Y0106461D03*
D14*
X0131978Y0063630D03*
X0095478Y0058630D03*
X0085478Y0058630D03*
X0085478Y0068630D03*
X0095478Y0068630D03*
D15*
X0245738Y0097799D03*
X0253219Y0097799D03*
X0249478Y0106461D03*
X0259978Y0108299D03*
X0256238Y0116961D03*
X0263719Y0116961D03*
D16*
X0312478Y0053630D02*
X0312480Y0053739D01*
X0312486Y0053848D01*
X0312496Y0053956D01*
X0312510Y0054064D01*
X0312527Y0054172D01*
X0312549Y0054279D01*
X0312574Y0054385D01*
X0312604Y0054489D01*
X0312637Y0054593D01*
X0312674Y0054696D01*
X0312714Y0054797D01*
X0312758Y0054896D01*
X0312806Y0054994D01*
X0312858Y0055091D01*
X0312912Y0055185D01*
X0312970Y0055277D01*
X0313032Y0055367D01*
X0313097Y0055454D01*
X0313164Y0055540D01*
X0313235Y0055623D01*
X0313309Y0055703D01*
X0313386Y0055780D01*
X0313465Y0055855D01*
X0313547Y0055926D01*
X0313632Y0055995D01*
X0313719Y0056060D01*
X0313808Y0056123D01*
X0313900Y0056181D01*
X0313994Y0056237D01*
X0314089Y0056289D01*
X0314187Y0056338D01*
X0314286Y0056383D01*
X0314387Y0056425D01*
X0314489Y0056462D01*
X0314592Y0056496D01*
X0314697Y0056527D01*
X0314803Y0056553D01*
X0314909Y0056576D01*
X0315017Y0056594D01*
X0315125Y0056609D01*
X0315233Y0056620D01*
X0315342Y0056627D01*
X0315451Y0056630D01*
X0315560Y0056629D01*
X0315669Y0056624D01*
X0315777Y0056615D01*
X0315885Y0056602D01*
X0315993Y0056585D01*
X0316100Y0056565D01*
X0316206Y0056540D01*
X0316311Y0056512D01*
X0316415Y0056480D01*
X0316518Y0056444D01*
X0316620Y0056404D01*
X0316720Y0056361D01*
X0316818Y0056314D01*
X0316915Y0056264D01*
X0317009Y0056210D01*
X0317102Y0056152D01*
X0317193Y0056092D01*
X0317281Y0056028D01*
X0317367Y0055961D01*
X0317450Y0055891D01*
X0317531Y0055818D01*
X0317609Y0055742D01*
X0317684Y0055663D01*
X0317757Y0055581D01*
X0317826Y0055497D01*
X0317892Y0055411D01*
X0317955Y0055322D01*
X0318015Y0055231D01*
X0318072Y0055138D01*
X0318125Y0055043D01*
X0318174Y0054946D01*
X0318220Y0054847D01*
X0318262Y0054747D01*
X0318301Y0054645D01*
X0318336Y0054541D01*
X0318367Y0054437D01*
X0318395Y0054332D01*
X0318418Y0054225D01*
X0318438Y0054118D01*
X0318454Y0054010D01*
X0318466Y0053902D01*
X0318474Y0053793D01*
X0318478Y0053684D01*
X0318478Y0053576D01*
X0318474Y0053467D01*
X0318466Y0053358D01*
X0318454Y0053250D01*
X0318438Y0053142D01*
X0318418Y0053035D01*
X0318395Y0052928D01*
X0318367Y0052823D01*
X0318336Y0052719D01*
X0318301Y0052615D01*
X0318262Y0052513D01*
X0318220Y0052413D01*
X0318174Y0052314D01*
X0318125Y0052217D01*
X0318072Y0052122D01*
X0318015Y0052029D01*
X0317955Y0051938D01*
X0317892Y0051849D01*
X0317826Y0051763D01*
X0317757Y0051679D01*
X0317684Y0051597D01*
X0317609Y0051518D01*
X0317531Y0051442D01*
X0317450Y0051369D01*
X0317367Y0051299D01*
X0317281Y0051232D01*
X0317193Y0051168D01*
X0317102Y0051108D01*
X0317009Y0051050D01*
X0316915Y0050996D01*
X0316818Y0050946D01*
X0316720Y0050899D01*
X0316620Y0050856D01*
X0316518Y0050816D01*
X0316415Y0050780D01*
X0316311Y0050748D01*
X0316206Y0050720D01*
X0316100Y0050695D01*
X0315993Y0050675D01*
X0315885Y0050658D01*
X0315777Y0050645D01*
X0315669Y0050636D01*
X0315560Y0050631D01*
X0315451Y0050630D01*
X0315342Y0050633D01*
X0315233Y0050640D01*
X0315125Y0050651D01*
X0315017Y0050666D01*
X0314909Y0050684D01*
X0314803Y0050707D01*
X0314697Y0050733D01*
X0314592Y0050764D01*
X0314489Y0050798D01*
X0314387Y0050835D01*
X0314286Y0050877D01*
X0314187Y0050922D01*
X0314089Y0050971D01*
X0313994Y0051023D01*
X0313900Y0051079D01*
X0313808Y0051137D01*
X0313719Y0051200D01*
X0313632Y0051265D01*
X0313547Y0051334D01*
X0313465Y0051405D01*
X0313386Y0051480D01*
X0313309Y0051557D01*
X0313235Y0051637D01*
X0313164Y0051720D01*
X0313097Y0051806D01*
X0313032Y0051893D01*
X0312970Y0051983D01*
X0312912Y0052075D01*
X0312858Y0052169D01*
X0312806Y0052266D01*
X0312758Y0052364D01*
X0312714Y0052463D01*
X0312674Y0052564D01*
X0312637Y0052667D01*
X0312604Y0052771D01*
X0312574Y0052875D01*
X0312549Y0052981D01*
X0312527Y0053088D01*
X0312510Y0053196D01*
X0312496Y0053304D01*
X0312486Y0053412D01*
X0312480Y0053521D01*
X0312478Y0053630D01*
X0329362Y0199237D02*
X0329364Y0199346D01*
X0329370Y0199455D01*
X0329380Y0199563D01*
X0329394Y0199671D01*
X0329411Y0199779D01*
X0329433Y0199886D01*
X0329458Y0199992D01*
X0329488Y0200096D01*
X0329521Y0200200D01*
X0329558Y0200303D01*
X0329598Y0200404D01*
X0329642Y0200503D01*
X0329690Y0200601D01*
X0329742Y0200698D01*
X0329796Y0200792D01*
X0329854Y0200884D01*
X0329916Y0200974D01*
X0329981Y0201061D01*
X0330048Y0201147D01*
X0330119Y0201230D01*
X0330193Y0201310D01*
X0330270Y0201387D01*
X0330349Y0201462D01*
X0330431Y0201533D01*
X0330516Y0201602D01*
X0330603Y0201667D01*
X0330692Y0201730D01*
X0330784Y0201788D01*
X0330878Y0201844D01*
X0330973Y0201896D01*
X0331071Y0201945D01*
X0331170Y0201990D01*
X0331271Y0202032D01*
X0331373Y0202069D01*
X0331476Y0202103D01*
X0331581Y0202134D01*
X0331687Y0202160D01*
X0331793Y0202183D01*
X0331901Y0202201D01*
X0332009Y0202216D01*
X0332117Y0202227D01*
X0332226Y0202234D01*
X0332335Y0202237D01*
X0332444Y0202236D01*
X0332553Y0202231D01*
X0332661Y0202222D01*
X0332769Y0202209D01*
X0332877Y0202192D01*
X0332984Y0202172D01*
X0333090Y0202147D01*
X0333195Y0202119D01*
X0333299Y0202087D01*
X0333402Y0202051D01*
X0333504Y0202011D01*
X0333604Y0201968D01*
X0333702Y0201921D01*
X0333799Y0201871D01*
X0333893Y0201817D01*
X0333986Y0201759D01*
X0334077Y0201699D01*
X0334165Y0201635D01*
X0334251Y0201568D01*
X0334334Y0201498D01*
X0334415Y0201425D01*
X0334493Y0201349D01*
X0334568Y0201270D01*
X0334641Y0201188D01*
X0334710Y0201104D01*
X0334776Y0201018D01*
X0334839Y0200929D01*
X0334899Y0200838D01*
X0334956Y0200745D01*
X0335009Y0200650D01*
X0335058Y0200553D01*
X0335104Y0200454D01*
X0335146Y0200354D01*
X0335185Y0200252D01*
X0335220Y0200148D01*
X0335251Y0200044D01*
X0335279Y0199939D01*
X0335302Y0199832D01*
X0335322Y0199725D01*
X0335338Y0199617D01*
X0335350Y0199509D01*
X0335358Y0199400D01*
X0335362Y0199291D01*
X0335362Y0199183D01*
X0335358Y0199074D01*
X0335350Y0198965D01*
X0335338Y0198857D01*
X0335322Y0198749D01*
X0335302Y0198642D01*
X0335279Y0198535D01*
X0335251Y0198430D01*
X0335220Y0198326D01*
X0335185Y0198222D01*
X0335146Y0198120D01*
X0335104Y0198020D01*
X0335058Y0197921D01*
X0335009Y0197824D01*
X0334956Y0197729D01*
X0334899Y0197636D01*
X0334839Y0197545D01*
X0334776Y0197456D01*
X0334710Y0197370D01*
X0334641Y0197286D01*
X0334568Y0197204D01*
X0334493Y0197125D01*
X0334415Y0197049D01*
X0334334Y0196976D01*
X0334251Y0196906D01*
X0334165Y0196839D01*
X0334077Y0196775D01*
X0333986Y0196715D01*
X0333893Y0196657D01*
X0333799Y0196603D01*
X0333702Y0196553D01*
X0333604Y0196506D01*
X0333504Y0196463D01*
X0333402Y0196423D01*
X0333299Y0196387D01*
X0333195Y0196355D01*
X0333090Y0196327D01*
X0332984Y0196302D01*
X0332877Y0196282D01*
X0332769Y0196265D01*
X0332661Y0196252D01*
X0332553Y0196243D01*
X0332444Y0196238D01*
X0332335Y0196237D01*
X0332226Y0196240D01*
X0332117Y0196247D01*
X0332009Y0196258D01*
X0331901Y0196273D01*
X0331793Y0196291D01*
X0331687Y0196314D01*
X0331581Y0196340D01*
X0331476Y0196371D01*
X0331373Y0196405D01*
X0331271Y0196442D01*
X0331170Y0196484D01*
X0331071Y0196529D01*
X0330973Y0196578D01*
X0330878Y0196630D01*
X0330784Y0196686D01*
X0330692Y0196744D01*
X0330603Y0196807D01*
X0330516Y0196872D01*
X0330431Y0196941D01*
X0330349Y0197012D01*
X0330270Y0197087D01*
X0330193Y0197164D01*
X0330119Y0197244D01*
X0330048Y0197327D01*
X0329981Y0197413D01*
X0329916Y0197500D01*
X0329854Y0197590D01*
X0329796Y0197682D01*
X0329742Y0197776D01*
X0329690Y0197873D01*
X0329642Y0197971D01*
X0329598Y0198070D01*
X0329558Y0198171D01*
X0329521Y0198274D01*
X0329488Y0198378D01*
X0329458Y0198482D01*
X0329433Y0198588D01*
X0329411Y0198695D01*
X0329394Y0198803D01*
X0329380Y0198911D01*
X0329370Y0199019D01*
X0329364Y0199128D01*
X0329362Y0199237D01*
X0059678Y0057130D02*
X0059680Y0057239D01*
X0059686Y0057348D01*
X0059696Y0057456D01*
X0059710Y0057564D01*
X0059727Y0057672D01*
X0059749Y0057779D01*
X0059774Y0057885D01*
X0059804Y0057989D01*
X0059837Y0058093D01*
X0059874Y0058196D01*
X0059914Y0058297D01*
X0059958Y0058396D01*
X0060006Y0058494D01*
X0060058Y0058591D01*
X0060112Y0058685D01*
X0060170Y0058777D01*
X0060232Y0058867D01*
X0060297Y0058954D01*
X0060364Y0059040D01*
X0060435Y0059123D01*
X0060509Y0059203D01*
X0060586Y0059280D01*
X0060665Y0059355D01*
X0060747Y0059426D01*
X0060832Y0059495D01*
X0060919Y0059560D01*
X0061008Y0059623D01*
X0061100Y0059681D01*
X0061194Y0059737D01*
X0061289Y0059789D01*
X0061387Y0059838D01*
X0061486Y0059883D01*
X0061587Y0059925D01*
X0061689Y0059962D01*
X0061792Y0059996D01*
X0061897Y0060027D01*
X0062003Y0060053D01*
X0062109Y0060076D01*
X0062217Y0060094D01*
X0062325Y0060109D01*
X0062433Y0060120D01*
X0062542Y0060127D01*
X0062651Y0060130D01*
X0062760Y0060129D01*
X0062869Y0060124D01*
X0062977Y0060115D01*
X0063085Y0060102D01*
X0063193Y0060085D01*
X0063300Y0060065D01*
X0063406Y0060040D01*
X0063511Y0060012D01*
X0063615Y0059980D01*
X0063718Y0059944D01*
X0063820Y0059904D01*
X0063920Y0059861D01*
X0064018Y0059814D01*
X0064115Y0059764D01*
X0064209Y0059710D01*
X0064302Y0059652D01*
X0064393Y0059592D01*
X0064481Y0059528D01*
X0064567Y0059461D01*
X0064650Y0059391D01*
X0064731Y0059318D01*
X0064809Y0059242D01*
X0064884Y0059163D01*
X0064957Y0059081D01*
X0065026Y0058997D01*
X0065092Y0058911D01*
X0065155Y0058822D01*
X0065215Y0058731D01*
X0065272Y0058638D01*
X0065325Y0058543D01*
X0065374Y0058446D01*
X0065420Y0058347D01*
X0065462Y0058247D01*
X0065501Y0058145D01*
X0065536Y0058041D01*
X0065567Y0057937D01*
X0065595Y0057832D01*
X0065618Y0057725D01*
X0065638Y0057618D01*
X0065654Y0057510D01*
X0065666Y0057402D01*
X0065674Y0057293D01*
X0065678Y0057184D01*
X0065678Y0057076D01*
X0065674Y0056967D01*
X0065666Y0056858D01*
X0065654Y0056750D01*
X0065638Y0056642D01*
X0065618Y0056535D01*
X0065595Y0056428D01*
X0065567Y0056323D01*
X0065536Y0056219D01*
X0065501Y0056115D01*
X0065462Y0056013D01*
X0065420Y0055913D01*
X0065374Y0055814D01*
X0065325Y0055717D01*
X0065272Y0055622D01*
X0065215Y0055529D01*
X0065155Y0055438D01*
X0065092Y0055349D01*
X0065026Y0055263D01*
X0064957Y0055179D01*
X0064884Y0055097D01*
X0064809Y0055018D01*
X0064731Y0054942D01*
X0064650Y0054869D01*
X0064567Y0054799D01*
X0064481Y0054732D01*
X0064393Y0054668D01*
X0064302Y0054608D01*
X0064209Y0054550D01*
X0064115Y0054496D01*
X0064018Y0054446D01*
X0063920Y0054399D01*
X0063820Y0054356D01*
X0063718Y0054316D01*
X0063615Y0054280D01*
X0063511Y0054248D01*
X0063406Y0054220D01*
X0063300Y0054195D01*
X0063193Y0054175D01*
X0063085Y0054158D01*
X0062977Y0054145D01*
X0062869Y0054136D01*
X0062760Y0054131D01*
X0062651Y0054130D01*
X0062542Y0054133D01*
X0062433Y0054140D01*
X0062325Y0054151D01*
X0062217Y0054166D01*
X0062109Y0054184D01*
X0062003Y0054207D01*
X0061897Y0054233D01*
X0061792Y0054264D01*
X0061689Y0054298D01*
X0061587Y0054335D01*
X0061486Y0054377D01*
X0061387Y0054422D01*
X0061289Y0054471D01*
X0061194Y0054523D01*
X0061100Y0054579D01*
X0061008Y0054637D01*
X0060919Y0054700D01*
X0060832Y0054765D01*
X0060747Y0054834D01*
X0060665Y0054905D01*
X0060586Y0054980D01*
X0060509Y0055057D01*
X0060435Y0055137D01*
X0060364Y0055220D01*
X0060297Y0055306D01*
X0060232Y0055393D01*
X0060170Y0055483D01*
X0060112Y0055575D01*
X0060058Y0055669D01*
X0060006Y0055766D01*
X0059958Y0055864D01*
X0059914Y0055963D01*
X0059874Y0056064D01*
X0059837Y0056167D01*
X0059804Y0056271D01*
X0059774Y0056375D01*
X0059749Y0056481D01*
X0059727Y0056588D01*
X0059710Y0056696D01*
X0059696Y0056804D01*
X0059686Y0056912D01*
X0059680Y0057021D01*
X0059678Y0057130D01*
D17*
X0062678Y0057130D03*
X0315478Y0053630D03*
X0332362Y0199237D03*
D18*
X0303807Y0126630D03*
X0303807Y0124661D03*
X0303807Y0122693D03*
X0303807Y0120724D03*
X0303807Y0118756D03*
X0300756Y0118756D03*
X0300756Y0120724D03*
X0300756Y0122693D03*
X0300756Y0124661D03*
X0300756Y0126630D03*
X0300756Y0112063D03*
X0300756Y0110095D03*
X0300756Y0108126D03*
X0300756Y0106158D03*
X0300756Y0104189D03*
X0303807Y0104189D03*
X0303807Y0106158D03*
X0303807Y0108126D03*
X0303807Y0110095D03*
X0303807Y0112063D03*
D19*
X0329211Y0096719D03*
X0329211Y0094160D03*
X0329211Y0091600D03*
X0329211Y0089041D03*
X0345746Y0089041D03*
X0345746Y0091600D03*
X0345746Y0094160D03*
X0345746Y0096719D03*
D20*
X0337478Y0092880D03*
D21*
X0307225Y0093848D03*
D22*
X0307205Y0091880D03*
X0307205Y0089911D03*
X0304252Y0089911D03*
X0304252Y0091880D03*
X0304252Y0093848D03*
D23*
X0222581Y0091083D03*
X0222581Y0089114D03*
X0222581Y0087146D03*
X0222581Y0085177D03*
X0210376Y0085177D03*
X0210376Y0087146D03*
X0210376Y0089114D03*
X0210376Y0091083D03*
D24*
X0222730Y0099579D03*
X0229227Y0099579D03*
X0229227Y0105681D03*
X0222730Y0105681D03*
D25*
X0278935Y0132142D03*
X0281494Y0132142D03*
X0284053Y0132142D03*
X0286612Y0132142D03*
X0286612Y0145528D03*
X0284053Y0145528D03*
X0281494Y0145528D03*
X0278935Y0145528D03*
D26*
X0194978Y0056630D03*
X0104978Y0034130D03*
X0104978Y0224130D03*
D27*
X0114978Y0224130D03*
X0124978Y0224130D03*
X0134978Y0224130D03*
X0144978Y0224130D03*
X0154978Y0224130D03*
X0164978Y0224130D03*
X0174978Y0224130D03*
X0184978Y0224130D03*
X0194978Y0224130D03*
X0204978Y0224130D03*
X0214978Y0224130D03*
X0224978Y0224130D03*
X0234978Y0224130D03*
X0244978Y0224130D03*
X0254978Y0224130D03*
X0264978Y0224130D03*
X0274978Y0224130D03*
X0284978Y0224130D03*
X0294978Y0224130D03*
X0304978Y0224130D03*
X0314978Y0224130D03*
X0324978Y0224130D03*
X0324978Y0234130D03*
X0314978Y0234130D03*
X0304978Y0234130D03*
X0294978Y0234130D03*
X0284978Y0234130D03*
X0274978Y0234130D03*
X0264978Y0234130D03*
X0254978Y0234130D03*
X0244978Y0234130D03*
X0234978Y0234130D03*
X0224978Y0234130D03*
X0214978Y0234130D03*
X0204978Y0234130D03*
X0194978Y0234130D03*
X0184978Y0234130D03*
X0174978Y0234130D03*
X0164978Y0234130D03*
X0154978Y0234130D03*
X0144978Y0234130D03*
X0134978Y0234130D03*
X0124978Y0234130D03*
X0114978Y0234130D03*
X0104978Y0234130D03*
X0204978Y0056630D03*
X0214978Y0056630D03*
X0224978Y0056630D03*
X0234978Y0056630D03*
X0244978Y0056630D03*
X0244978Y0044130D03*
X0234978Y0044130D03*
X0224978Y0044130D03*
X0214978Y0044130D03*
X0204978Y0044130D03*
X0194978Y0044130D03*
X0184978Y0044130D03*
X0174978Y0044130D03*
X0164978Y0044130D03*
X0154978Y0044130D03*
X0144978Y0044130D03*
X0134978Y0044130D03*
X0124978Y0044130D03*
X0114978Y0044130D03*
X0104978Y0044130D03*
X0114978Y0034130D03*
X0124978Y0034130D03*
X0134978Y0034130D03*
X0144978Y0034130D03*
X0154978Y0034130D03*
X0164978Y0034130D03*
X0174978Y0034130D03*
X0184978Y0034130D03*
X0194978Y0034130D03*
X0204978Y0034130D03*
X0214978Y0034130D03*
X0224978Y0034130D03*
X0234978Y0034130D03*
X0244978Y0034130D03*
X0254978Y0034130D03*
X0264978Y0034130D03*
X0264978Y0044130D03*
X0254978Y0044130D03*
X0274978Y0044130D03*
X0274978Y0034130D03*
X0284978Y0034130D03*
X0294978Y0034130D03*
X0294978Y0044130D03*
X0284978Y0044130D03*
X0304978Y0044130D03*
X0314978Y0044130D03*
X0314978Y0034130D03*
X0304978Y0034130D03*
X0324978Y0034130D03*
X0324978Y0044130D03*
D28*
X0290475Y0099630D03*
X0277482Y0099630D03*
D29*
X0321475Y0134307D03*
X0328364Y0134307D03*
X0297624Y0152930D03*
X0290734Y0152930D03*
X0106711Y0109701D03*
X0099821Y0109701D03*
D30*
X0042825Y0064130D03*
X0036132Y0064130D03*
X0132738Y0191630D03*
X0140219Y0191630D03*
X0333738Y0079130D03*
X0341219Y0079130D03*
D31*
X0355478Y0089140D03*
X0355478Y0096620D03*
D32*
X0172128Y0097630D03*
X0172128Y0092630D03*
X0172128Y0087630D03*
X0172128Y0082630D03*
X0172128Y0077630D03*
X0172128Y0072630D03*
X0172128Y0067630D03*
X0172128Y0062630D03*
X0172128Y0057630D03*
X0172128Y0052630D03*
X0150828Y0052630D03*
X0150828Y0057630D03*
X0150828Y0062630D03*
X0150828Y0067630D03*
X0150828Y0072630D03*
X0150828Y0077630D03*
X0150828Y0082630D03*
X0150828Y0087630D03*
X0150828Y0092630D03*
X0150828Y0097630D03*
D33*
X0361967Y0146833D03*
X0361967Y0203427D03*
D34*
X0356987Y0203673D03*
X0354231Y0203673D03*
X0351475Y0203673D03*
X0348719Y0203673D03*
X0348719Y0146587D03*
X0351475Y0146587D03*
X0354231Y0146587D03*
X0356987Y0146587D03*
D35*
X0323779Y0146587D03*
X0318660Y0203673D03*
D36*
X0309408Y0198654D03*
X0309408Y0160268D03*
D37*
X0307243Y0164992D03*
X0307243Y0188614D03*
D38*
X0342218Y0132717D03*
X0342218Y0131142D03*
X0342218Y0129567D03*
X0342218Y0127992D03*
X0342218Y0126417D03*
X0342218Y0124843D03*
X0342218Y0123268D03*
X0342218Y0121693D03*
X0342218Y0120118D03*
X0342218Y0118543D03*
D39*
X0347041Y0119331D03*
X0347041Y0120906D03*
X0347041Y0122480D03*
X0347041Y0124055D03*
X0347041Y0125630D03*
X0347041Y0127205D03*
X0347041Y0128780D03*
X0347041Y0130354D03*
X0347041Y0131929D03*
D40*
X0358026Y0137835D02*
X0363931Y0137835D01*
X0363931Y0113425D02*
X0358026Y0113425D01*
D41*
X0347750Y0112047D03*
X0347750Y0139213D03*
D42*
X0148541Y0157634D03*
X0142636Y0157634D03*
X0142636Y0175154D03*
X0148541Y0175154D03*
X0139683Y0127910D03*
X0137715Y0127910D03*
X0135746Y0127910D03*
X0133778Y0127910D03*
X0131809Y0127910D03*
X0129841Y0127910D03*
X0127872Y0127910D03*
X0125904Y0127910D03*
X0125904Y0114327D03*
X0127872Y0114327D03*
X0129841Y0114327D03*
X0131809Y0114327D03*
X0133778Y0114327D03*
X0135746Y0114327D03*
X0137715Y0114327D03*
X0139683Y0114327D03*
D43*
X0141553Y0118165D03*
X0141553Y0124071D03*
X0124034Y0124071D03*
X0124034Y0118165D03*
X0138797Y0159504D03*
X0138797Y0161473D03*
X0138797Y0163441D03*
X0138797Y0165410D03*
X0138797Y0167378D03*
X0138797Y0169347D03*
X0138797Y0171315D03*
X0138797Y0173284D03*
X0152380Y0173284D03*
X0152380Y0171315D03*
X0152380Y0169347D03*
X0152380Y0167378D03*
X0152380Y0165410D03*
X0152380Y0163441D03*
X0152380Y0161473D03*
X0152380Y0159504D03*
D44*
X0145589Y0166394D03*
D45*
X0132793Y0121118D03*
D46*
X0070490Y0116492D03*
X0070490Y0111571D03*
X0063994Y0111571D03*
X0063994Y0116492D03*
D47*
X0163309Y0187890D03*
X0163309Y0195370D03*
X0154648Y0191630D03*
D48*
X0043518Y0188425D03*
X0043518Y0212835D03*
D49*
X0033478Y0215591D03*
X0033478Y0185669D03*
D50*
X0033478Y0195906D03*
X0033478Y0205354D03*
D51*
X0044010Y0205748D03*
X0044010Y0203189D03*
X0044010Y0200630D03*
X0044010Y0198071D03*
X0044010Y0195512D03*
D52*
X0084978Y0229130D03*
X0084978Y0039130D03*
X0344978Y0051630D03*
X0344978Y0216630D03*
D53*
X0316337Y0106660D03*
X0316337Y0096817D03*
X0316337Y0088943D03*
X0316337Y0079100D03*
D54*
X0327006Y0067014D03*
X0327006Y0118746D03*
D55*
X0244209Y0177071D03*
X0244209Y0179630D03*
X0244209Y0182189D03*
X0235548Y0182189D03*
X0235548Y0177071D03*
D56*
X0099329Y0085685D03*
X0091849Y0083126D03*
X0091849Y0088244D03*
X0084368Y0088244D03*
X0084368Y0083126D03*
X0076888Y0085685D03*
D57*
X0156132Y0102130D03*
X0162825Y0102130D03*
X0162825Y0110130D03*
X0156132Y0110130D03*
X0156132Y0118130D03*
X0162825Y0118130D03*
X0162825Y0126130D03*
X0156132Y0126130D03*
X0205632Y0121130D03*
X0212325Y0121130D03*
X0163925Y0178130D03*
X0157232Y0178130D03*
D58*
X0159478Y0150476D03*
X0159478Y0143784D03*
X0151478Y0143784D03*
X0151478Y0150476D03*
X0143478Y0150476D03*
X0143478Y0143784D03*
X0167478Y0143284D03*
X0167478Y0149976D03*
D59*
X0122478Y0191630D03*
X0106978Y0191630D03*
X0106978Y0207130D03*
X0122478Y0207130D03*
X0133478Y0207130D03*
X0148978Y0207130D03*
D60*
X0127978Y0199130D03*
D61*
X0079841Y0108126D03*
X0079841Y0096315D03*
D62*
X0066939Y0045626D02*
X0058640Y0045626D01*
X0050978Y0059980D02*
X0050978Y0068280D01*
X0074601Y0068280D02*
X0074601Y0059980D01*
M02*
